<svg id="Layer_1" data-name="Layer 1" xmlns="http://www.w3.org/2000/svg" viewBox="0 0 812.33 191.67"><defs><style>.cls-1{fill:#fff;fill-rule:evenodd;}</style></defs><g id="Layer_1-2" data-name="Layer_1"><g id="_00b0edff" data-name=" #00b0edff"><path class="cls-1" d="M32.34,28.25C57.21,6.49,94.51,9.6,116.27,34.46c21.75,21.76,24.86,59.06,3.1,83.92L72.75,165c-9.32-6.22-24.86-18.65-18.65-31.09,12.43-15.54,28-28,40.41-43.51C103.83,78,97.62,53.11,79,50c-18.65-6.21-37.3,9.33-34.19,28,0,15.54,12.43,24.86,21.75,34.19-9.32,9.32-21.75,15.54-21.75,28-9.33-12.43-24.87-21.76-31.09-37.3C1.26,78,10.59,43.79,32.34,28.25Z"/><path class="cls-1" d="M231.27,28.25C234.38,18.92,243.7,22,249.92,22V137H231.27v-9.32a42.1,42.1,0,0,1-52.84,0c-18.65-15.54-18.65-46.62-3.11-62.17,12.43-15.54,40.41-18.64,56-6.21V28.25Zm-28,40.4c-15.55,3.11-28,24.87-15.55,40.41,9.33,15.54,34.19,12.43,40.41-3.11C237.49,90.41,221.94,68.65,203.3,68.65Z"/><path class="cls-1" d="M265.46,53.11h18.65v6.22c6.22-9.33,18.65-9.33,31.08-6.22-3.11,6.22-6.22,9.33-6.22,15.54-12.43-3.11-24.86,3.11-24.86,12.44v46.62C281,137,271.68,137,265.46,137Z"/><path class="cls-1" d="M343.16,53.11c31.09-12.43,62.17,18.65,55.95,49.73s-49.73,46.63-71.49,24.87c-24.86-21.76-15.54-68.38,15.54-74.6Zm9.33,15.54c-12.43,3.11-18.65,12.44-21.76,21.76-3.11,15.54,9.33,28,24.87,28,12.43,0,24.86-9.32,24.86-21.75C380.46,81.09,364.92,65.54,352.49,68.65Z"/><path class="cls-1" d="M411.55,53.11h18.64v6.22c15.55-12.43,43.52-9.33,55.95,6.21,15.54,15.55,15.54,43.52-3.11,59.06-12.43,15.54-37.29,15.54-52.84,6.22v28c-3.1,9.33-12.43,9.33-18.64,9.33v-115ZM452,68.65C433.3,71.76,424,93.52,433.3,106c9.33,15.54,34.19,15.54,40.41,0C486.14,90.41,470.6,68.65,452,68.65Z"/><path class="cls-1" d="M529.66,56.22C545.2,46.9,567,50,579.39,62.44c-3.11,3.1-6.22,9.32-12.43,12.43-12.44-9.33-31.09-6.22-37.3,9.32s6.21,34.19,21.75,34.19c6.22,0,12.44-3.1,18.65-3.1,6.22,3.1,9.33,6.21,12.44,12.43-21.76,18.65-59.06,12.43-68.38-15.54C501.68,93.52,511,68.65,529.66,56.22Z"/><path class="cls-1" d="M582.5,109.06C573.17,81.09,594.93,50,622.9,50c21.76,0,43.52,18.65,46.63,40.41V137c-9.33,0-15.54,0-21.76-6.21-21.76,15.54-55.95,3.1-65.27-21.76Zm40.4-40.41c-18.65,3.11-28,24.87-18.65,40.41,12.44,15.54,37.3,12.43,43.52-3.11C654,87.3,641.55,68.65,622.9,68.65Z"/><path class="cls-1" d="M682,53.11h18.65v6.22c9.32-12.43,31.08-9.33,43.51,3.11C759.66,43.79,790.75,50,797,71.76c3.11,18.65,0,40.41,0,59.06,0,6.21-9.32,6.21-18.65,6.21,0-18.65,3.11-37.3,0-55.94-3.1-15.55-24.86-15.55-28,0V137H731.69c0-18.65,0-40.4-3.11-59-3.11-12.44-24.86-9.33-24.86,3.11-3.11,18.64-3.11,37.29-3.11,55.94H682Z"/></g></g></svg>