<svg id="Layer_1" data-name="Layer 1" xmlns="http://www.w3.org/2000/svg" viewBox="0 0 669.27 129.85"><defs><style>.cls-1{fill:#fff;}</style></defs><g id="layer1"><path id="path10" class="cls-1" d="M241.1,25.13h49.13V39.45H274.48V91.8h15.75v14.33H241.1l.08-14.33h15.67V39.45H241.1ZM337.33,74.7h19.8L356.9,76C355,87.45,347.53,94,337,94c-12.45,0-21.3-10-21.3-27.15V65c0-17.1,8.85-27.6,21.75-27.6,9.52,0,16.42,5.33,17.85,13.8h17.55c-2.18-17.25-16.13-27.9-35.48-27.9-23.7,0-39.82,16.88-39.82,42.3v.68c0,25.87,14.17,41.55,35.25,41.55,10.27,0,19-4.28,24.3-11.93v10.28h16.5V60.75H337.4v14ZM183.65,39.45H211V76.58C211,88.28,205.85,94,198,94s-12.9-5.7-13-16.73h-17.4C167.75,96.45,179.38,108,198,108c18.75,0,30.67-11,30.67-31.95V25.13h-37.8ZM645.28,25.13,624,88l-15.3-62.85h-22L571.33,88,550,25.13h-18.6l28.42,81h23.48L597.13,49l14,57.22h23.55L663,25.13ZM432.58,59l-16.95-3.6c-7.43-1.58-10.13-4.28-10.13-8.7,0-5.33,5.25-9.6,14.85-9.6,10.2,0,16.35,4.65,17.4,12.37h16.8c-1.05-16.42-13.95-26.32-34.2-26.32C399.8,23.18,388,33.3,388,48.53c0,12.3,6.82,19.27,22.42,22.57l16.88,3.53c7.42,1.65,10.12,4.2,10.12,8.92,0,6.38-5.85,10.43-16,10.43-12.15,0-17.7-4.65-18.38-13.58H386.38c.67,17.1,12.52,27.45,35.17,27.45,21.3,0,33.45-9.82,33.45-26.17,0-12.45-6.82-19.28-22.42-22.65Zm79.95-33.9,28.42,81H522.28l-6.08-18H483.8l-6.07,17.92H460l28.43-81ZM511.4,73.88,500,40.5,488.6,73.88ZM49.85,31a34.3,34.3,0,0,1,9.68-1.35A36,36,0,1,1,26,78.68L5.53,119.63h108v-108h-54Z"/></g></svg>