<svg id="Layer_1" data-name="Layer 1" xmlns="http://www.w3.org/2000/svg" viewBox="0 0 683.33 219.64"><defs><style>.cls-1,.cls-2,.cls-3,.cls-4{fill:#fff;}.cls-1{opacity:0.54;}.cls-1,.cls-4{isolation:isolate;}.cls-3{fill-opacity:0.2;}.cls-4{opacity:0.2;}</style></defs><path class="cls-1" d="M207.22,155.57H194.93V60.69h55.8V72.35H207.22V103.5h39.25v11.39H207.22v40.68Zm66.61-81.22a8.74,8.74,0,0,1-11,1.09A8.59,8.59,0,0,1,259.63,65a8.71,8.71,0,0,1,16.74,3.29,8.25,8.25,0,0,1-2.55,6.1Zm0,81.22H261.55V90.64h12.28v64.93Zm27,0H288.51V90.64h11.74v10.6h.53a16.74,16.74,0,0,1,7.68-8.75,22,22,0,0,1,11.29-3.44A23.6,23.6,0,0,1,329,90.64L324.28,102a18.58,18.58,0,0,0-6.54-.93,16.06,16.06,0,0,0-11.81,5.24q-5.15,5.23-5.15,13.71v35.52Zm61.83,2.07q-14.82,0-24.09-9.8t-9.28-24.73a35.58,35.58,0,0,1,9-24.38,29.29,29.29,0,0,1,23-10.21q14.55,0,23.3,9.41t8.74,25.18l-.14,2.25H341.51q.54,9.81,6.61,15.53a20.14,20.14,0,0,0,14.22,5.7q13.21,0,17.89-11.13l10.95,4.5a29.08,29.08,0,0,1-10.55,12.65q-7.35,5-18,5Zm17.63-42.44q-.39-5.58-5.14-10.6T361,99.67a17.67,17.67,0,0,0-11.82,4.24,21.57,21.57,0,0,0-6.87,11.39l37.94-.1Zm57.47,42.44a27.82,27.82,0,0,1-13.37-3.1,22.63,22.63,0,0,1-8.88-7.95h-.53v9H403.18V60.69h12.29v30l-.53,9h.53a22.55,22.55,0,0,1,8.88-8,27.87,27.87,0,0,1,13.37-3.18q12.67,0,21.9,9.94t9.21,24.65q0,14.7-9.21,24.65t-21.9,9.88Zm-2-11.13a19.58,19.58,0,0,0,14.68-6.42q6.15-6.43,6.14-17t-6.14-17A20.14,20.14,0,0,0,421,106q-6.08,6.36-6.07,17.09T421,140.2a19.65,19.65,0,0,0,14.73,6.37l-.05-.06Zm64.39,11.13q-10.42,0-17.42-6t-7-15.77q0-10.59,8.28-16.62t20.43-6q10.82,0,17.73,4v-1.86a14.46,14.46,0,0,0-5-11.46A17.82,17.82,0,0,0,505,99.67a19,19,0,0,0-9.68,2.51,13.05,13.05,0,0,0-5.94,6.9l-11.21-4.77q2.27-5.85,9-10.85t17.63-5q12.51,0,20.86,7.24t8.28,20.54v39.3H522.15v-9h-.53q-7.35,11.07-21.5,11.06Zm2-11.13a20,20,0,0,0,13.83-5.58,17.38,17.38,0,0,0,6.26-13.31q-5.22-4.25-15.65-4.24-8.94,0-13.48,3.84a11.5,11.5,0,0,0-4.54,9,8.64,8.64,0,0,0,4.18,7.56,16.53,16.53,0,0,0,9.4,2.79v-.06Zm67.95,11.13q-10.95,0-18.08-5.3a31.29,31.29,0,0,1-10.43-13.25l11-4.5q5.22,12.19,17.73,12.19a16.3,16.3,0,0,0,9.39-2.51,7.72,7.72,0,0,0,3.67-6.63q0-6.36-9-8.61l-13.21-3.18a31.61,31.61,0,0,1-11.88-6,14.47,14.47,0,0,1-5.61-12q0-8.62,7.68-14a31,31,0,0,1,18.22-5.36A30.52,30.52,0,0,1,585,92.42a22.14,22.14,0,0,1,9.75,11.2L584.07,108q-3.6-8.61-15-8.61a17.53,17.53,0,0,0-9.21,2.25,6.88,6.88,0,0,0-3.73,6.1q0,5.57,8.67,7.56l12.95,3q9.21,2.07,13.62,7.25a17.53,17.53,0,0,1,4.4,11.66,18,18,0,0,1-7.21,14.57q-7.2,5.86-18.55,5.86Zm66.09,0q-14.82,0-24.1-9.8t-9.28-24.78a35.59,35.59,0,0,1,9-24.39,29.34,29.34,0,0,1,23.06-10.15q14.6,0,23.3,9.41t8.74,25.18l-.13,2.25H615q.54,9.81,6.62,15.53a20.08,20.08,0,0,0,14.24,5.68q13.22,0,17.89-11.13l11,4.5a29.18,29.18,0,0,1-10.54,12.65q-7.35,5.06-18,5Zm17.62-42.44q-.39-5.58-5.14-10.6t-14.09-4.93a17.72,17.72,0,0,0-11.82,4.24,21.63,21.63,0,0,0-6.87,11.39l37.92-.1Z"/><path class="cls-2" d="M11.24,162.86,33.83,18.29A4.17,4.17,0,0,1,41.63,17L65,60.55l9.31-17.74a4.18,4.18,0,0,1,7.39,0l63.05,120.05Z"/><path class="cls-2" d="M89.29,106.54,65,60.52,11.24,162.86Z"/><path class="cls-2" d="M144.75,162.86,127.45,55.78a4.18,4.18,0,0,0-7.07-2.26L11.24,162.86l60.39,33.86a12.52,12.52,0,0,0,12.21,0l60.91-33.86Z"/><path class="cls-3" d="M127.44,55.78a4.17,4.17,0,0,0-7.06-2.26L98.72,75.24l-17-32.43a4.18,4.18,0,0,0-7.39,0L65,60.54,41.62,17a4.17,4.17,0,0,0-7.8,1.33L11.24,162.86h-.07l.07.08.59.29L120.35,54.59a4.17,4.17,0,0,1,7.07,2.25L144.58,163l.17-.1L127.45,55.78Zm-116,106.88L33.83,19.32A4.18,4.18,0,0,1,41.64,18L65,61.57l9.31-17.73a4.18,4.18,0,0,1,7.39,0L98.38,75.58,11.44,162.66Z"/><path class="cls-4" d="M83.84,195.7a12.52,12.52,0,0,1-12.21,0L11.39,161.93l-.15.93,60.39,33.85a12.52,12.52,0,0,0,12.21,0l60.91-33.85-.16-1L83.84,195.7Z"/><path id="b" class="cls-2" d="M127.27,55.8a4.15,4.15,0,0,0-7-2.25L98.65,75.26l-17-32.42a4.14,4.14,0,0,0-7.35,0L65,60.57,41.75,17A4.15,4.15,0,0,0,34,18.34L11.47,162.83l60.18,33.84a12.44,12.44,0,0,0,12.17,0l60.7-33.84-17.25-107Z"/></svg>