<svg id="Layer_1" data-name="Layer 1" xmlns="http://www.w3.org/2000/svg" viewBox="0 0 1026 288.33"><defs><style>.cls-1{fill:#fff;}</style></defs><path id="path4" class="cls-1" d="M188.53,184.76a119.43,119.43,0,0,1-11.76,21.16q-9.28,13.25-15.15,18.32-9.06,8.34-19.48,8.57c-5,0-11-1.42-18-4.3a51.85,51.85,0,0,0-19.37-4.27,53.58,53.58,0,0,0-19.92,4.27C77.74,231.39,72,232.88,67.64,233q-10,.42-19.92-8.81-6.33-5.53-15.85-19A130.35,130.35,0,0,1,15.12,172a122.25,122.25,0,0,1-7-39.66q0-22,9.51-37.92A56.07,56.07,0,0,1,37.53,74.23a53.7,53.7,0,0,1,26.94-7.61c5.29,0,12.22,1.64,20.85,4.85s14.12,4.86,16.53,4.86c1.81,0,7.94-1.92,18.32-5.73q14.73-5.31,24.92-4.42Q172.71,68.41,186.52,88q-24.69,15-24.44,41.87.22,21,15.17,34.8a49.8,49.8,0,0,0,15.15,9.93Q190.57,179.91,188.53,184.76ZM146.32,18.62q0,16.43-12,30.62C124.74,60.48,113.11,67,100.51,66a32,32,0,0,1-.26-4.14c0-10.51,4.57-21.75,12.7-30.95a48.65,48.65,0,0,1,15.46-11.61,46.25,46.25,0,0,1,17.69-5A43.11,43.11,0,0,1,146.32,18.62Z"/><g id="g19"><path id="path7" class="cls-1" d="M610.08,155.57c0,33-25.78,57.22-57.41,57.22s-57.41-24.27-57.41-57.22c0-33.18,25.78-57.23,57.41-57.23s57.41,24,57.41,57.23Zm-25.12,0c0-20.59-15-34.69-32.27-34.69S520.41,135,520.41,155.57c0,20.38,15,34.68,32.28,34.68S585,175.93,585,155.57Z"/><path id="path9" class="cls-1" d="M733.94,155.57c0,33-25.79,57.22-57.42,57.22s-57.41-24.27-57.41-57.22c0-33.16,25.79-57.23,57.41-57.23s57.42,24,57.42,57.23Zm-25.13,0c0-20.59-14.94-34.69-32.27-34.69S644.27,135,644.27,155.57c0,20.38,15,34.68,32.27,34.68S708.81,175.93,708.81,155.57Z"/><path id="path11" class="cls-1" d="M852.63,101.8V204.55c0,42.27-24.92,59.54-54.39,59.54-27.74,0-44.44-18.56-50.72-33.73l21.88-9.11c3.88,9.31,13.43,20.31,28.82,20.31,18.86,0,30.56-11.63,30.56-33.54v-8.24h-.88c-5.63,6.95-16.46,13-30.14,13-28.62,0-54.83-24.93-54.83-57,0-32.31,26.21-57.43,54.83-57.43,13.66,0,24.5,6.06,30.14,12.79h.88v-9.31h23.87Zm-22.08,54c0-20.15-13.44-34.89-30.56-34.89-17.34,0-31.87,14.72-31.87,34.89,0,19.94,14.53,34.46,31.87,34.46C817.11,190.25,830.55,175.73,830.55,155.79Z"/><path id="path13" class="cls-1" d="M892,41.57V209.29H867.47V41.57Z"/><path id="path15" class="cls-1" d="M987.51,174.4l19.5,13c-6.31,9.31-21.48,25.36-47.68,25.36-32.52,0-56.79-25.14-56.79-57.22,0-34,24.49-57.23,54-57.23,29.7,0,44.24,23.63,49,36.4l2.6,6.51-76.5,31.68c5.86,11.48,15,17.34,27.74,17.34S981,184,987.51,174.4Zm-60-20.59,51.14-21.23c-2.82-7.15-11.28-12.13-21.23-12.13C944.6,120.45,926.81,131.73,927.46,153.81Z"/><path id="path17" class="cls-1" d="M402.48,140.69V116.4h81.81a81.29,81.29,0,0,1,1.22,14.65c0,18.21-5,40.75-21,56.79-15.61,16.25-35.56,24.92-62,24.92-49,0-90.16-39.89-90.16-88.88S353.5,35,402.49,35c27.1,0,46.39,10.63,60.9,24.49L446.25,76.64A61.93,61.93,0,0,0,402.46,59.3c-35.76,0-63.74,28.83-63.74,64.58s28,64.58,63.74,64.58c23.2,0,36.4-9.3,44.88-17.78,6.85-6.86,11.37-16.66,13.16-30.06Z"/></g><line id="line21" class="cls-1" x1="252.45" y1="14.24" x2="250.02" y2="264.07"/></svg>