<svg id="Layer_1" data-name="Layer 1" xmlns="http://www.w3.org/2000/svg" viewBox="0 0 1340 376.67"><defs><style>.cls-1{fill:#fff;}</style></defs><path class="cls-1" d="M136.67,289c-17,0-33-3-47-9a122.5,122.5,0,0,1-38-26,109.36,109.36,0,0,1-25-38,117.91,117.91,0,0,1-9-46c0-17,3-33,9-47s15-27,25-38a109.36,109.36,0,0,1,38-25,117.91,117.91,0,0,1,46-9c11,0,22,1,32,4a139,139,0,0,1,28,12,107.66,107.66,0,0,1,24,18c8,8,14,16,20,24l-30,19a89.34,89.34,0,0,0-29-32c-12-8-27-12-43-12-12,0-23,2-33,7-10,4-19,11-27,18a66.65,66.65,0,0,0-19,28,91.91,91.91,0,0,0-6,33,88.08,88.08,0,0,0,6,33,79.92,79.92,0,0,0,18,27c8,8,16,14,27,18,10,4,21,7,33,7,18,0,33-4,46-13s22-20,29-34l31,17a127.05,127.05,0,0,1-18,27,91.41,91.41,0,0,1-24,20c-9,6-19,10-29,13-12,2-23,4-35,4m210-31c7,0,14-1,20-4s11-6,16-11c4-5,8-10,10-16,3-6,4-13,4-20s-1-14-4-20-6-12-10-16c-4-5-10-8-16-11s-13-4-20-4-14,1-20,4-11,6-16,11-8,10-11,16-4,13-4,20,1,14,4,20,6,12,11,17,10,8,16,11a69.29,69.29,0,0,0,20,3m-4,31a71.73,71.73,0,0,1-29-6c-9-4-18-9-25-17-7-7-13-16-18-26-4-10-7-22-7-34,0-13,2-24,7-34a78.21,78.21,0,0,1,17-26,85.18,85.18,0,0,1,25-17,80.25,80.25,0,0,1,30-6,73.06,73.06,0,0,1,30,6,65.76,65.76,0,0,1,23,17V127h34V286h-34V264a57.82,57.82,0,0,1-23,18,65.83,65.83,0,0,1-30,7m202-31c7,0,14-1,20-4s11-6,16-11,8-10,11-17c3-6,4-13,4-20s-1-14-4-20-6-12-11-16c-5-5-10-8-16-11s-13-4-20-4-14,1-20,4-11,6-16,11c-4,5-8,10-10,16-3,6-4,13-4,20s1,14,4,20,6,12,10,16c4,5,10,8,16,11,6,4,12,5,20,5m5,31a81.49,81.49,0,0,1-31-6,65.76,65.76,0,0,1-23-17v93h-34V127h34v22c6-8,14-14,23-19s19-7,30-7a80.25,80.25,0,0,1,30,6c10,4,18,9,25,17a78.21,78.21,0,0,1,17,26c4,10,7,22,7,34,0,13-2,24-7,34a67.65,67.65,0,0,1-18,26,85.18,85.18,0,0,1-25,17,67.1,67.1,0,0,1-28,6m105-3h34V127h-34Zm60-159h27V73l34-19v73h34v30h-34v64c0,7,0,13,1,17s2,8,5,10c2,2,6,4,10,5s10,1,17,1v32h-5q-18,0-30-3a39.91,39.91,0,0,1-19-11c-5-5-8-12-10-20s-3-19-3-31V158h-27Zm195,131c7,0,14-1,20-4s11-6,16-11c4-5,8-10,10-16,3-6,4-13,4-20s-1-14-4-20-6-12-10-16a64.47,64.47,0,0,0-16-11c-6-3-13-4-20-4s-14,1-20,4-11,6-16,11-8,10-11,16-4,13-4,20,1,14,4,20,6,12,11,17,10,8,16,11a64.48,64.48,0,0,0,20,3m-5,31a71.73,71.73,0,0,1-29-6c-9-4-18-9-25-17-7-7-13-16-18-26-4-10-7-22-7-34,0-13,2-24,7-34a78.21,78.21,0,0,1,17-26,85.18,85.18,0,0,1,25-17,80.25,80.25,0,0,1,30-6,73.06,73.06,0,0,1,30,6,65.76,65.76,0,0,1,23,17V127h34V286h-34V264a57.82,57.82,0,0,1-23,18c-9,5-19,7-30,7m120-3h34V54h-34Zm182-101v34h70v70h34V185Zm0,70c-11,0-22-2-31-7-10-4-19-11-27-18-8-8-13-17-18-27a88.08,88.08,0,0,1-6-33,88.08,88.08,0,0,1,6-33c4-10,10-20,18-27s17-14,27-18,21-7,33-7c17,0,31,4,43,12a89.34,89.34,0,0,1,29,32l30-19a87.58,87.58,0,0,0-19-24,107.66,107.66,0,0,0-24-18,139,139,0,0,0-28-12c-10-3-21-4-32-4a122.92,122.92,0,0,0-47,9c-14,6-27,14-38,25a109.36,109.36,0,0,0-25,38c-6,14-9,30-9,47s3,32,9,46,14,27,25,38,23,19,38,26a113,113,0,0,0,45,9V255Z"/></svg>