<svg id="Layer_1" data-name="Layer 1" xmlns="http://www.w3.org/2000/svg" viewBox="0 0 1966.76 1966.76"><defs><style>.cls-1{fill:#f7981d;}.cls-2{fill:#ee4035;}.cls-3{fill:#0a1723;}.cls-4{fill:#5ec1a5;}.cls-5{fill:#faaf21;}</style></defs><path class="cls-1" d="M1000.17,181.73c451.92,0,818.27,366.35,818.27,818.27s-366.35,818.27-818.27,818.27S181.9,1451.92,181.9,1000s366.35-818.27,818.27-818.27m0-165.11c-132.69,0-261.49,26-382.83,77.35A986.3,986.3,0,0,0,94.13,617.17C42.81,738.52,16.79,867.32,16.79,1000s26,261.48,77.34,382.83A986.3,986.3,0,0,0,617.34,1906c121.34,51.33,250.14,77.35,382.83,77.35s261.48-26,382.82-77.35a986.3,986.3,0,0,0,523.21-523.2c51.32-121.35,77.35-250.15,77.35-382.83s-26-261.48-77.35-382.83A986.3,986.3,0,0,0,1383,94c-121.34-51.33-250.14-77.35-382.82-77.35Z" transform="translate(-16.79 -16.62)"/><path class="cls-1" d="M970,1027.64c-1.27,53.28,53.67,78.43,94.49,36.49,20.13-20.68,26.41-52.48,19.86-80.59-8.42-36.14-40.09-78.42-77.17-88.58-51.69-14.15-106.34,24-133.91,66.15-40,61-35,142.15,19.56,192.09,51,46.67,129.93,63.45,196.34,46.69a171.83,171.83,0,0,0,33.8-12.27c115.38-56.72,141.68-219.28,59.76-315.65-57.36-67.48-159.34-110.29-247.53-95.09-144.92,25-237.67,182.32-215.34,322.57,18.29,114.85,108.64,213.77,220.08,247s238.67,1.61,325-76.34c113.89-102.88,147.45-270.62,80.46-409.29-37.73-78.11-102.28-142.69-179.67-181.66-110.88-55.85-238.62-54.49-347.18,6.54-179.18,100.73-242.77,327.65-142,506.83s327.65,242.77,506.83,142" transform="translate(-16.79 -16.62)"/><path class="cls-2" d="M1001.57,1408.06C862.3,1408.07,727,1335,654,1205.18c-107.54-191.29-39.4-434.41,151.89-542,115.78-65.08,251.16-67.67,371.43-7.09,83.36,42,151.3,110.7,191.29,193.48,71.6,148.23,36.07,329-86.4,439.65a366.27,366.27,0,0,1-73.88,51.63,25.71,25.71,0,0,1-12.37,16.17A395.75,395.75,0,0,1,1001.57,1408.06ZM971.52,799.65a187.78,187.78,0,0,0-31.95,2.65c-124.91,21.53-215.68,158.49-194.25,293.1,16.61,104.3,97.78,195.27,202,226.35,101.38,30.24,219.25,2.46,300.31-70.77,105.57-95.38,136.22-251.2,74.52-378.93-35.08-72.62-94.76-132.94-168.05-169.85-104.68-52.72-222.39-50.54-322.94,6C664.64,801.79,605.34,1013.4,699,1179.9a344.54,344.54,0,0,0,86.6,101.58c-47.53-48.82-80.52-111.06-91.17-178-11.89-74.66,5.87-155.76,48.72-222.5C788.34,810.53,855,764.53,930.81,751.46c94.14-16.24,205.81,26.46,271.56,103.8,45.4,53.4,63.56,128.32,48.6,200.4-14.37,69.2-56.88,125.74-116.63,155.1a198,198,0,0,1-38.86,14.14c-77.41,19.54-163.8-1.14-220.08-52.67-62-56.81-72-151.54-23.72-225.26,32.46-49.54,97.1-94.73,162.31-76.88,48.85,13.37,85.65,65.42,95.47,107.6,9,38.44-1.2,78.45-26.5,104.43-26.29,27-61.46,35.87-91.8,23.13-29.81-12.54-47.81-42.51-46.95-78.22A25.79,25.79,0,0,1,970,1001.85h.63a25.79,25.79,0,0,1,25.17,26.4c-.34,14.24,5.41,25.24,15.38,29.43,10.48,4.42,23.51.09,34.84-11.55,13-13.31,18.15-35.59,13.22-56.75-6.42-27.56-31.6-62.09-58.86-69.55-38.13-10.44-82.83,20.75-105.53,55.4-34.36,52.46-27.88,119.3,15.41,158.94s112.52,55.88,172.61,40.7a146.54,146.54,0,0,0,28.73-10.41c45.37-22.3,77.77-65.79,88.88-119.3,11.75-56.62-2.23-115.12-37.4-156.5C1116.74,834.17,1040.34,799.65,971.52,799.65Z" transform="translate(-16.79 -16.62)"/><path class="cls-3" d="M1543.93,786.61a28.33,28.33,0,0,1-30.65-16.44c-68.42-154.42-201.65-268.28-365.52-312.39a28.3,28.3,0,1,1,14.7-54.66c180.47,48.57,327.19,174,402.58,344.12a28.33,28.33,0,0,1-21.11,39.37Z" transform="translate(-16.79 -16.62)"/><path class="cls-4" d="M441.85,876l-1.05-.23a28.3,28.3,0,0,1-20.73-34.24C462.21,670,576.71,524.68,734.21,442.92a28.3,28.3,0,1,1,26.08,50.24C617.26,567.41,513.29,699.29,475,855A28.3,28.3,0,0,1,441.85,876Z" transform="translate(-16.79 -16.62)"/><path class="cls-2" d="M886.69,1596.55a28.2,28.2,0,0,1-13.33.53c-171.83-34.4-321.07-140.35-409.46-290.69a28.3,28.3,0,0,1,48.8-28.69c80.23,136.45,215.74,232.63,371.77,263.88a28.31,28.31,0,0,1,2.22,55Z" transform="translate(-16.79 -16.62)"/><path class="cls-5" d="M1266.31,1545.69a28.3,28.3,0,0,1-8.37-53c152.67-79.61,258.59-221.84,290.62-390.2a28.31,28.31,0,0,1,32.54-22.62l.56.1a28.31,28.31,0,0,1,22.52,33.1c-35.29,185.48-152,342.15-320.07,429.82A28.21,28.21,0,0,1,1266.31,1545.69Z" transform="translate(-16.79 -16.62)"/><path class="cls-2" d="M944.56,518.61a18.86,18.86,0,0,1-11.74-4.09l-59.18-47a18.88,18.88,0,0,1-3-26.51l47-59.18a18.87,18.87,0,0,1,26.51-3.05l59.18,47a18.88,18.88,0,0,1,3.05,26.52l-47,59.18a18.91,18.91,0,0,1-12.63,7A19.5,19.5,0,0,1,944.56,518.61Zm-32.67-68.89,29.62,23.51L965,443.61,935.4,420.09Z" transform="translate(-16.79 -16.62)"/><path class="cls-4" d="M1075,1626.66a18.89,18.89,0,0,1-11.73-4.09l-59.18-47a18.87,18.87,0,0,1-3-26.51l47-59.18a18.86,18.86,0,0,1,26.51-3l59.18,47a18.88,18.88,0,0,1,3,26.51l-47,59.18a18.85,18.85,0,0,1-12.62,7A17.39,17.39,0,0,1,1075,1626.66Zm-32.66-68.9,29.62,23.52,23.52-29.63-29.63-23.51Z" transform="translate(-16.79 -16.62)"/><path class="cls-4" d="M1498.53,1557.57a28.31,28.31,0,0,1-31-46.5C1620.52,1368.9,1700,1167.3,1685.61,958a28.3,28.3,0,1,1,56.47-3.88c15.59,226.47-70.44,444.6-236,598.46A28.42,28.42,0,0,1,1498.53,1557.57Z" transform="translate(-16.79 -16.62)"/><path class="cls-2" d="M1485,490.53a28.23,28.23,0,0,1-21.31-7c-149.37-131.87-347.79-193-544.46-167.73A28.31,28.31,0,0,1,912,259.68c212.92-27.35,427.53,38.78,589.13,181.45a28.3,28.3,0,0,1-16.15,49.4Z" transform="translate(-16.79 -16.62)"/><path class="cls-3" d="M1072.35,1744.57a747.27,747.27,0,0,1-580.73-202.86,28.3,28.3,0,0,1,39-41c154.38,146.61,363.17,213.45,573,183.32a28.3,28.3,0,1,1,8,56Q1092.08,1742.83,1072.35,1744.57Z" transform="translate(-16.79 -16.62)"/><path class="cls-5" d="M1285.08,1706.77a52.95,52.95,0,1,1,20.94-4.34h0A52.69,52.69,0,0,1,1285.08,1706.77Zm-.11-76.69a23.72,23.72,0,1,0,9.45,45.5h0a23.72,23.72,0,0,0-9.45-45.5Z" transform="translate(-16.79 -16.62)"/><path class="cls-3" d="M718.92,396.22a53,53,0,1,1,20.93-4.35h0A52.65,52.65,0,0,1,718.92,396.22Zm-.08-76.71a23.81,23.81,0,1,0,8.75,1.69A23.76,23.76,0,0,0,718.84,319.51Z" transform="translate(-16.79 -16.62)"/><path class="cls-5" d="M1673.63,743.25a18.93,18.93,0,0,1-9.23-.27l-71.85-20.34a18.86,18.86,0,0,1-13-23.29l20.33-71.87a18.89,18.89,0,0,1,23.3-13L1695,634.8a18.87,18.87,0,0,1,13,23.3L1687.7,730A18.88,18.88,0,0,1,1673.63,743.25ZM1621,691.47l35.55,10.06L1666.59,666,1631,655.91Z" transform="translate(-16.79 -16.62)"/><path class="cls-4" d="M1580.48,967.16a42.85,42.85,0,1,1,16.94-3.51h0A42.55,42.55,0,0,1,1580.48,967.16Zm-.09-62.07a19.2,19.2,0,1,0,7.64,36.83h0a19.2,19.2,0,0,0-7.64-36.83Z" transform="translate(-16.79 -16.62)"/></svg>