<svg width="180" height="88" viewBox="0 0 180 88" fill="none" xmlns="http://www.w3.org/2000/svg">
<path d="M10.5689 87.4478H6.96589V70.5521H0.540527V67.2685H16.9943V70.5521H10.5689V87.4478Z" fill="black"/>
<path d="M55.7872 87.4479L50.773 80.4328H46.2993V87.4479H42.7563V67.2685H51.7939C52.9649 67.2685 54.0158 67.4177 54.9465 67.7162C55.8773 68.0148 56.688 68.4327 57.3185 68.97C57.9791 69.5073 58.4595 70.1939 58.8198 70.9999C59.1801 71.8059 59.3302 72.6715 59.3302 73.6566C59.3302 74.4925 59.2101 75.2686 58.9699 75.9253C58.7297 76.582 58.3994 77.1791 57.9791 77.6865C57.5587 78.194 57.0483 78.6418 56.4478 78.9701C55.8473 79.3283 55.2168 79.597 54.4962 79.806L59.9607 87.4479H55.7872ZM54.6463 71.3282C53.8957 70.7611 52.8748 70.4626 51.5237 70.4626H46.3293V77.2686H51.5537C52.8448 77.2686 53.8356 76.9701 54.6163 76.3432C55.3669 75.7164 55.7572 74.9104 55.7572 73.8656C55.7572 72.7611 55.3669 71.9253 54.6463 71.3282Z" fill="black"/>
<path d="M89.5049 67.2983V87.4777H85.9619V67.2983H89.5049Z" fill="black"/>
<path d="M130.91 68.6715C132.111 69.5969 132.711 70.8506 132.711 72.4626C132.711 73.0895 132.621 73.6268 132.471 74.1044C132.321 74.582 132.111 74.9999 131.841 75.3581C131.57 75.7164 131.27 76.0149 130.91 76.2835C130.55 76.5522 130.189 76.791 129.829 76.9701C130.43 77.1791 130.97 77.4179 131.45 77.7164C131.931 77.985 132.351 78.3134 132.711 78.7015C133.072 79.0895 133.342 79.5373 133.522 80.0746C133.702 80.6119 133.822 81.209 133.822 81.8955C133.822 82.7911 133.642 83.5971 133.282 84.2836C132.922 84.9702 132.411 85.5672 131.751 86.015C131.09 86.4926 130.309 86.8508 129.379 87.0896C128.448 87.3284 127.427 87.4479 126.316 87.4479H116.948V67.2685H126.016C128.088 67.2983 129.709 67.7461 130.91 68.6715ZM128.118 75.1492C128.808 74.7014 129.168 73.985 129.168 73.0596C129.168 72.2238 128.868 71.5969 128.268 71.1193C127.667 70.6715 126.766 70.4327 125.625 70.4327H120.521V75.8059H125.385C126.526 75.8059 127.427 75.5969 128.118 75.1492ZM129.259 83.6269C129.949 83.1493 130.309 82.4627 130.309 81.5373C130.309 80.6716 129.979 80.0149 129.289 79.5074C128.598 79.0298 127.547 78.791 126.166 78.791H120.521V84.3135H126.406C127.607 84.3135 128.568 84.0747 129.259 83.6269Z" fill="black"/>
<path d="M174.927 70.4924H163.457V75.6865H173.636V78.8806H163.457V84.2538H175.077V87.4479H159.914V67.2685H174.927V70.4924Z" fill="black"/>
<path d="M61.6417 49.2981L41.7351 35.6263L61.8819 19.0589C63.4432 17.7753 63.6534 15.4768 62.3623 13.9245C61.0713 12.3722 58.7593 12.1633 57.198 13.4469L19.5165 44.4025V36.2233L48.5508 12.7304C50.1121 11.4468 50.3523 9.14831 49.0913 7.59605C47.8002 6.04379 45.4882 5.80498 43.9269 7.05873L19.5165 26.8202V9.71548C19.5165 7.71545 17.8652 6.07364 15.8535 6.07364C13.8418 6.07364 12.1904 7.71545 12.1904 9.71548V52.1638C12.1904 53.5668 13.0011 54.8504 14.2922 55.4474C14.8026 55.6862 15.313 55.8057 15.8535 55.8057C16.6942 55.8057 17.5049 55.5071 18.1954 54.9698L35.8802 40.4622L57.4983 55.2982C58.1288 55.746 58.8494 55.9549 59.57 55.9549C60.741 55.9549 61.8819 55.4176 62.6025 54.3728C63.7435 52.7011 63.3231 50.4324 61.6417 49.2981Z" fill="black"/>
<path d="M180 9.86471C180 7.86468 178.349 6.22287 176.337 6.22287C174.325 6.22287 172.674 7.86468 172.674 9.86471V31.0889L134.092 6.76019C132.951 6.04376 131.54 6.01391 130.369 6.64078C129.198 7.26766 128.477 8.49155 128.477 9.83486V52.0742C128.477 54.0743 130.128 55.7161 132.14 55.7161C134.152 55.7161 135.803 54.0743 135.803 52.0742V30.9396L174.385 55.2086C174.986 55.5967 175.676 55.7758 176.337 55.7758C176.938 55.7758 177.568 55.6265 178.109 55.328C179.279 54.7011 180 53.4772 180 52.1339V38.1039C180 38.0442 180 37.9546 180 37.8949C180 37.8352 180 37.7755 180 37.686V9.86471ZM172.674 45.5368L135.803 22.3425V16.4618L172.674 39.686V45.5368Z" fill="black"/>
<path d="M162.585 15.626C162.615 15.626 162.675 15.626 162.705 15.626C164.687 15.626 166.308 14.0737 166.368 12.1036L166.398 11.4767C166.458 9.47666 164.867 7.77514 162.855 7.71544C160.814 7.65574 159.132 9.23785 159.072 11.2379L159.042 11.8648C158.982 13.8648 160.573 15.5663 162.585 15.626Z" fill="black"/>
<path d="M146.672 46.2234C146.642 46.2234 146.642 46.2234 146.672 46.2234C144.63 46.2234 143.009 47.8354 142.979 49.8653V50.8802C142.979 52.8802 144.6 54.522 146.642 54.5519C148.654 54.5519 150.305 52.9399 150.305 50.91V49.8951C150.335 47.8652 148.684 46.2234 146.672 46.2234Z" fill="black"/>
<path d="M3.69284 18.7007C1.65114 18.7007 0.0297852 20.3425 0.0297852 22.3425V40.1935C0.0297852 42.1935 1.68116 43.8353 3.69284 43.8353C5.70452 43.8353 7.3559 42.1935 7.3559 40.1935V22.3425C7.3559 20.3425 5.70452 18.7007 3.69284 18.7007Z" fill="black"/>
<path d="M3.69308 46.9995C3.69308 46.9995 3.66306 46.9995 3.69308 46.9995C1.65138 46.9995 0.0300251 48.6115 0 50.6414V51.6563C0 53.6563 1.62135 55.2981 3.66306 55.328C5.67474 55.328 7.32612 53.716 7.32612 51.6861V50.6712C7.35614 48.6413 5.70476 47.0294 3.69308 46.9995Z" fill="black"/>
<path d="M3.66355 14.9991C5.70525 14.9991 7.32661 13.3871 7.35663 11.3573V10.3423C7.35663 8.34229 5.73528 6.70047 3.69357 6.67062C1.65187 6.67062 0.000488281 8.28259 0.000488281 10.3125V11.3274C0.000488281 13.3274 1.62184 14.9692 3.66355 14.9991Z" fill="black"/>
<path d="M94.1886 5.65569C108.27 5.65569 119.68 16.9991 119.68 30.9993C119.68 44.9995 108.27 56.3429 94.1886 56.3429C80.1068 56.3429 68.6973 44.9995 68.6973 30.9993C68.6973 16.9991 80.1068 5.65569 94.1886 5.65569ZM94.1886 0.551147C90.0451 0.551147 86.0518 1.35713 82.2686 2.93924C78.6356 4.46165 75.3328 6.67063 72.5405 9.47664C69.7181 12.2826 67.5263 15.5364 65.965 19.1484C64.3737 22.9097 63.563 26.8799 63.563 30.9993C63.563 35.1188 64.3737 39.089 65.965 42.8502C67.4963 46.4622 69.7181 49.7458 72.5405 52.522C75.3628 55.328 78.6356 57.5071 82.2686 59.0594C86.0518 60.6415 90.0451 61.4475 94.1886 61.4475C98.332 61.4475 102.325 60.6415 106.109 59.0594C109.742 57.537 113.044 55.328 115.837 52.522C118.659 49.716 120.851 46.4622 122.412 42.8502C124.003 39.089 124.814 35.1188 124.814 30.9993C124.814 26.8799 124.003 22.9097 122.412 19.1484C120.881 15.5364 118.659 12.2528 115.837 9.47664C113.014 6.67063 109.742 4.4915 106.109 2.93924C102.325 1.35713 98.302 0.551147 94.1886 0.551147Z" fill="black"/>
<path d="M93.2272 31.865C93.1972 33.5068 94.9086 34.2829 96.1697 32.9993C96.8002 32.3725 96.9804 31.3874 96.8002 30.4918C96.53 29.3873 95.5392 28.0739 94.3982 27.7455C92.7769 27.2978 91.0955 28.4918 90.2247 29.8053C88.9937 31.6859 89.1438 34.1934 90.8252 35.7456C92.4166 37.1785 94.8786 37.7158 96.9503 37.1785C97.3107 37.0889 97.671 36.9695 98.0012 36.7904C101.604 35.0292 102.415 30.0142 99.8628 27.0291C98.0913 24.9395 94.9086 23.6261 92.1463 24.0738C87.6426 24.85 84.7302 29.7157 85.4508 34.074C86.0212 37.6263 88.8436 40.7009 92.2965 41.7159C95.7794 42.7308 99.7427 41.7756 102.415 39.3576C105.958 36.1636 107.009 30.9695 104.907 26.7007C103.736 24.2828 101.724 22.2828 99.3223 21.0887C95.8694 19.3574 91.9061 19.3872 88.5133 21.2977C82.9287 24.4022 80.947 31.4471 84.0996 36.9994C87.2523 42.5517 94.3082 44.5219 99.8928 41.3875" fill="black"/>
<path d="M94.2187 43.6264C89.8951 43.6264 85.6616 41.3577 83.3797 37.3576C80.0169 31.4471 82.1486 23.8948 88.1236 20.5813C91.7266 18.5514 95.9301 18.4917 99.6833 20.3723C102.265 21.6858 104.397 23.8052 105.628 26.3724C107.85 30.9695 106.739 36.5517 102.926 39.9845C102.235 40.6114 101.455 41.1487 100.614 41.5965C100.554 41.8055 100.434 41.9846 100.224 42.104C98.3622 43.1189 96.2904 43.6264 94.2187 43.6264ZM93.2879 24.7903C92.9577 24.7903 92.6274 24.8201 92.2971 24.8799C88.3938 25.5366 85.5715 29.7754 86.2621 33.9546C86.7725 37.1785 89.2946 40.0144 92.5373 40.9696C95.6899 41.895 99.353 41.0592 101.875 38.7905C105.178 35.8352 106.109 30.9993 104.187 27.059C103.106 24.8201 101.245 22.9395 98.9627 21.8052C95.6899 20.1634 92.0269 20.2529 88.9043 21.9843C83.7099 24.8799 81.8784 31.4471 84.7908 36.5815C85.5114 37.8353 86.4122 38.88 87.4931 39.7159C86.0219 38.1935 84.971 36.283 84.6407 34.1934C84.2804 31.8949 84.8209 29.3575 86.172 27.2978C87.5832 25.1187 89.6549 23.6858 92.0269 23.2977C94.9693 22.7903 98.4222 24.1037 100.494 26.5217C101.905 28.1635 102.476 30.4919 101.995 32.7307C101.545 34.88 100.224 36.6114 98.3622 37.5367C98.0019 37.7159 97.5815 37.8651 97.1612 37.9845C94.7592 38.5815 92.0569 37.9547 90.3154 36.3427C88.3938 34.5815 88.0636 31.6561 89.5648 29.3575C90.5857 27.8351 92.5974 26.4321 94.609 26.9694C96.1403 27.3873 97.2813 28.9993 97.5815 30.3128C97.8517 31.5068 97.5515 32.7307 96.7708 33.5367C95.9602 34.3725 94.8492 34.6412 93.9184 34.2531C92.9877 33.8651 92.4172 32.9397 92.4472 31.8352C92.4472 31.3874 92.8075 31.059 93.2579 31.059C93.2579 31.059 93.2579 31.059 93.2879 31.059C93.7383 31.059 94.0686 31.4471 94.0686 31.865C94.0686 32.3128 94.2487 32.6412 94.549 32.7904C94.8793 32.9397 95.2696 32.7904 95.6299 32.4322C96.0202 32.0143 96.2004 31.3277 96.0502 30.671C95.8401 29.8053 95.0594 28.7605 94.2187 28.5217C93.0177 28.1933 91.6365 29.1784 90.946 30.2232C89.8651 31.8352 90.0752 33.9248 91.4264 35.1487C92.7775 36.3725 94.9393 36.88 96.8009 36.4024C97.1311 36.3128 97.4314 36.2233 97.7016 36.074C99.1128 35.3875 100.134 34.0442 100.464 32.3725C100.824 30.6113 100.404 28.8202 99.2929 27.5366C97.8217 25.8649 95.4197 24.7903 93.2879 24.7903Z" fill="black"/>
<path d="M111.122 24.4022C110.732 24.4619 110.342 24.2828 110.161 23.8948C108.03 19.1186 103.886 15.5961 98.782 14.223C98.3016 14.1036 98.0314 13.626 98.1515 13.1483C98.2716 12.6707 98.752 12.4021 99.2324 12.5215C104.847 14.014 109.411 17.8947 111.783 23.1783C111.993 23.6261 111.783 24.1336 111.332 24.3425C111.242 24.3724 111.182 24.3724 111.122 24.4022Z" fill="black"/>
<path d="M76.804 27.1485H76.7739C76.2935 27.0291 76.0233 26.5515 76.1134 26.0739C77.4345 20.7604 80.9775 16.2529 85.9016 13.7454C86.3219 13.5364 86.8624 13.6857 87.1026 14.1334C87.3127 14.5513 87.1626 15.0887 86.7122 15.3275C82.2685 17.5962 79.0258 21.6858 77.8248 26.5217C77.7047 26.9694 77.2543 27.2381 76.804 27.1485Z" fill="black"/>
<path d="M90.6457 49.4772C90.5256 49.507 90.3755 49.5369 90.2254 49.507C84.8809 48.4324 80.227 45.1487 77.4647 40.5218C77.2245 40.1039 77.3446 39.5666 77.765 39.3278C78.1853 39.089 78.7258 39.2084 78.966 39.6263C81.458 43.8651 85.6916 46.8204 90.5557 47.8055C91.0361 47.8951 91.3363 48.3727 91.2462 48.8503C91.2162 49.1189 90.946 49.3876 90.6457 49.4772Z" fill="black"/>
<path d="M102.476 47.8951C102.206 47.8652 101.965 47.6861 101.845 47.4473C101.635 47.0294 101.785 46.4921 102.206 46.2533C106.95 43.7756 110.252 39.3875 111.243 34.1636C111.333 33.6859 111.784 33.3874 112.264 33.477C112.264 33.477 112.264 33.477 112.294 33.477C112.774 33.5665 113.075 34.0143 112.985 34.4919C111.874 40.2233 108.241 45.0891 103.016 47.8055C102.836 47.8951 102.656 47.9249 102.476 47.8951Z" fill="black"/>
<path d="M92.4469 16.1036C92.3268 16.1036 92.1767 16.0738 92.0866 15.9842L90.2551 14.5215C90.135 14.432 90.0449 14.2827 90.0449 14.1334C90.0149 13.9842 90.0749 13.8349 90.165 13.7155L91.6363 11.8946C91.8464 11.6558 92.2067 11.5961 92.4469 11.8051L94.2785 13.2678C94.5187 13.4767 94.5787 13.8349 94.3685 14.0737L92.8973 15.8947C92.8072 16.0141 92.6571 16.1036 92.507 16.1036C92.507 16.1036 92.477 16.1036 92.4469 16.1036ZM91.4261 13.9543L92.3569 14.6708L93.0775 13.7454L92.1467 13.029L91.4261 13.9543Z" fill="black"/>
<path d="M96.5007 50.4026C96.3806 50.4026 96.2305 50.3727 96.1404 50.2832L94.3089 48.8205C94.0687 48.6115 94.0086 48.2533 94.2188 48.0145L95.6901 46.1936C95.9002 45.9547 96.2605 45.8951 96.5007 46.104L98.3323 47.5667C98.4524 47.6563 98.5425 47.8055 98.5425 47.9548C98.5725 48.104 98.5124 48.2533 98.4223 48.3727L96.9511 50.1936C96.861 50.313 96.7109 50.4026 96.5608 50.4026C96.5608 50.4026 96.5308 50.4026 96.5007 50.4026ZM95.5099 48.2533L96.4407 48.9697L97.1613 48.0443L96.2305 47.3279L95.5099 48.2533Z" fill="black"/>
<path d="M109.711 48.2533C109.381 48.4026 108.961 48.3429 108.69 48.0443C108.36 47.6861 108.39 47.1488 108.751 46.8204C113.525 42.4323 115.987 36.1636 115.536 29.6859C115.506 29.2083 115.866 28.7903 116.347 28.7605C116.827 28.7306 117.248 29.0889 117.278 29.5665C117.758 36.5815 115.086 43.3279 109.922 48.104C109.861 48.1637 109.771 48.2234 109.711 48.2533Z" fill="black"/>
<path d="M109.292 15.2379C109.051 15.2678 108.811 15.1782 108.631 15.029C103.977 10.9394 97.7919 9.05874 91.6668 9.83487C91.1864 9.89458 90.736 9.56621 90.676 9.08859C90.6159 8.61098 90.9462 8.16321 91.4266 8.10351C98.0622 7.26767 104.728 9.29755 109.772 13.7155C110.132 14.0439 110.162 14.5812 109.862 14.9394C109.712 15.1185 109.502 15.2081 109.292 15.2379Z" fill="black"/>
<path d="M72.1503 33.8949C72.0602 33.9546 71.9401 33.9844 71.82 33.9844C71.3396 34.0441 70.9193 33.6859 70.8592 33.2083C70.2287 26.6411 72.4506 20.1335 76.9543 15.3275C77.2846 14.9693 77.8551 14.9394 78.1853 15.2678C78.5456 15.5961 78.5757 16.1633 78.2454 16.4917C74.1019 20.9395 72.0602 26.9694 72.6307 33.0292C72.6307 33.3874 72.4506 33.7158 72.1503 33.8949Z" fill="black"/>
<path d="M96.4403 54.0444C93.3477 54.3131 90.165 53.9549 87.1925 52.9996C83.9198 51.925 80.8572 50.1339 78.3351 47.7458C77.9748 47.4175 77.9748 46.8503 78.3051 46.4921C78.6354 46.1339 79.2059 46.1339 79.5662 46.4622C84.3702 50.9996 90.8856 53.0593 97.4011 52.134C97.8815 52.0742 98.3319 52.4026 98.3919 52.8802C98.452 53.3578 98.1217 53.8056 97.6413 53.8653C97.251 53.9549 96.8306 54.0146 96.4403 54.0444Z" fill="black"/>
<path d="M103.046 52.8802C102.415 52.8802 101.785 52.522 101.515 51.8951C101.154 51.0593 101.545 50.1041 102.385 49.7459C103.226 49.3877 104.187 49.7757 104.547 50.6115C104.727 50.9996 104.727 51.4474 104.577 51.8653C104.427 52.2832 104.097 52.5817 103.706 52.7608C103.496 52.8504 103.286 52.8802 103.046 52.8802ZM103.046 50.4921C102.956 50.4921 102.836 50.522 102.746 50.5518C102.385 50.7011 102.205 51.1489 102.355 51.5071C102.505 51.8653 102.956 52.0444 103.316 51.8951C103.496 51.8056 103.646 51.6862 103.706 51.4772C103.766 51.2981 103.766 51.0892 103.706 50.9101C103.616 50.6713 103.346 50.4921 103.046 50.4921Z" fill="black"/>
<path d="M85.4213 12.3125C84.7908 12.3125 84.1603 11.9543 83.8901 11.3274C83.5297 10.4916 83.9201 9.53636 84.7608 9.17814C85.1511 8.99903 85.6015 8.99903 86.0218 9.14829C86.4422 9.29755 86.7424 9.62591 86.9226 10.014C87.1027 10.402 87.1027 10.8498 86.9526 11.2677C86.8025 11.6856 86.4722 11.9842 86.0819 12.1633C85.8717 12.2528 85.6315 12.3125 85.4213 12.3125ZM85.4213 9.92442C85.3313 9.92442 85.2112 9.95427 85.1211 9.98412C84.7608 10.1334 84.5806 10.5811 84.7308 10.9394C84.8809 11.2976 85.3313 11.4767 85.6916 11.3274C85.8717 11.2379 86.0218 11.1185 86.0819 10.9095C86.1419 10.7304 86.1419 10.5214 86.0819 10.3423C85.9918 10.1632 85.8717 10.014 85.6615 9.95427C85.6015 9.95427 85.5114 9.92442 85.4213 9.92442Z" fill="black"/>
<path d="M115.146 23.0589C115.056 23.0888 114.966 23.0888 114.846 23.0589L112.594 22.4321C112.444 22.4022 112.324 22.2828 112.234 22.1634C112.144 22.0141 112.144 21.8649 112.174 21.7156L112.804 19.4768C112.834 19.3275 112.954 19.2081 113.074 19.1186C113.225 19.029 113.375 19.029 113.525 19.0589L115.777 19.6857C116.077 19.7753 116.257 20.1037 116.197 20.4022L115.597 22.641C115.537 22.85 115.356 22.9992 115.146 23.0589ZM113.525 21.447L114.636 21.7455L114.936 20.641L113.825 20.3425L113.525 21.447Z" fill="black"/>
<path d="M75.3625 43.2085C75.2724 43.2383 75.1824 43.2383 75.0623 43.2085L72.8104 42.5816C72.6603 42.5517 72.5402 42.4323 72.4501 42.3129C72.36 42.1637 72.36 42.0144 72.39 41.8652L73.0206 39.6263C73.1106 39.3278 73.4409 39.1487 73.7412 39.2084L75.993 39.8353C76.2933 39.9248 76.4734 40.2532 76.4134 40.5517L75.7829 42.7905C75.7528 42.9398 75.6327 43.0592 75.5126 43.1488C75.4826 43.1786 75.4226 43.2085 75.3625 43.2085ZM73.7111 41.6263L74.8221 41.9249L75.1223 40.8204L74.0114 40.5219L73.7111 41.6263Z" fill="black"/>
<path d="M76.2035 34.2232C75.6931 34.2232 75.1827 33.9247 74.9725 33.4173C74.6723 32.7307 75.0025 31.9545 75.6631 31.6859C76.3537 31.3874 77.1343 31.7157 77.4045 32.3725C77.5547 32.7008 77.5547 33.059 77.4346 33.3874C77.3145 33.7158 77.0442 33.9844 76.714 34.1038C76.5638 34.1934 76.3837 34.2232 76.2035 34.2232ZM76.2035 32.3128C76.1135 32.3128 76.0534 32.3426 75.9633 32.3725C75.6631 32.4919 75.513 32.8501 75.6631 33.1486C75.7832 33.4471 76.1435 33.5964 76.4437 33.4471C76.5939 33.3874 76.714 33.268 76.774 33.1187C76.8341 32.9695 76.8341 32.8202 76.774 32.671C76.6539 32.4322 76.4437 32.3128 76.2035 32.3128Z" fill="black"/>
<path d="M112.264 29.9844C111.753 29.9844 111.243 29.6859 111.033 29.1784C110.732 28.4918 111.063 27.7157 111.723 27.447C112.414 27.1485 113.194 27.4769 113.465 28.1336C113.615 28.462 113.615 28.8202 113.495 29.1485C113.375 29.4769 113.104 29.7456 112.774 29.865C112.624 29.9545 112.444 29.9844 112.264 29.9844ZM112.264 28.044C112.174 28.044 112.113 28.0739 112.023 28.1038C111.723 28.2232 111.573 28.5814 111.723 28.8799C111.843 29.1784 112.204 29.3276 112.504 29.1784C112.654 29.1187 112.774 28.9993 112.834 28.85C112.894 28.7008 112.894 28.5515 112.834 28.4023C112.714 28.1933 112.474 28.044 112.264 28.044Z" fill="black"/>
</svg>
