<svg width="178" height="86" viewBox="0 0 178 86" fill="none" xmlns="http://www.w3.org/2000/svg">
<path d="M54.7466 77.0263C54.1238 77.0263 53.501 76.6733 53.2341 76.0554C52.8782 75.2316 53.2638 74.2901 54.0942 73.9371C54.9245 73.584 55.8736 73.9665 56.2294 74.7903C56.4074 75.2022 56.4074 75.6435 56.2591 76.026C56.1108 76.4379 55.7846 76.7321 55.3991 76.9087C55.1915 76.9969 54.9542 77.0263 54.7466 77.0263ZM54.7466 74.6726C54.6576 74.6726 54.539 74.702 54.45 74.7314C54.0942 74.8786 53.9162 75.3199 54.0645 75.6729C54.2128 76.026 54.6576 76.2025 55.0135 76.0554C55.1915 75.9672 55.3397 75.8495 55.3991 75.6435C55.4584 75.467 55.4584 75.261 55.3991 75.0845C55.3101 74.8491 55.0432 74.6726 54.7466 74.6726Z" fill="#04151F"/>
<path d="M60.8852 48.0459L41.2228 34.5707L61.1225 18.2416C62.6646 16.9764 62.8722 14.7109 61.597 13.181C60.3218 11.6511 58.0382 11.4451 56.496 12.7102L19.2768 43.2207V35.1591L47.9549 12.0041C49.497 10.739 49.7343 8.4735 48.4887 6.94357C47.2135 5.41363 44.9299 5.17826 43.3877 6.41397L19.2768 25.8912V9.03252C19.2768 7.06126 17.6457 5.44305 15.6587 5.44305C13.6717 5.44305 12.0405 7.06126 12.0405 9.03252V50.8704C12.0405 52.2532 12.8413 53.5183 14.1165 54.1068C14.6207 54.3421 15.1248 54.4598 15.6587 54.4598C16.489 54.4598 17.2898 54.1656 17.9719 53.636L35.4397 39.337L56.7926 53.9597C57.4154 54.401 58.1272 54.6069 58.8389 54.6069C59.9955 54.6069 61.1225 54.0773 61.8343 53.0476C62.9612 51.4 62.546 49.1639 60.8852 48.0459Z" fill="#04151F"/>
<path d="M177.792 9.17961C177.792 7.20834 176.161 5.59014 174.174 5.59014C172.187 5.59014 170.556 7.20834 170.556 9.17961V30.0985L132.447 6.11974C131.32 5.41361 129.926 5.38419 128.77 6.00205C127.613 6.61991 126.901 7.8262 126.901 9.15018V50.7821C126.901 52.7533 128.532 54.3715 130.519 54.3715C132.507 54.3715 134.138 52.7533 134.138 50.7821V29.9514L172.247 53.8714C172.84 54.2538 173.522 54.4304 174.174 54.4304C174.767 54.4304 175.39 54.2833 175.924 53.989C177.081 53.3712 177.792 52.1649 177.792 50.8409V37.0127C177.792 36.9538 177.792 36.8655 177.792 36.8067C177.792 36.7479 177.792 36.689 177.792 36.6007V9.17961ZM170.556 44.3387L134.138 21.4779V15.6818L170.556 38.572V44.3387Z" fill="#04151F"/>
<path d="M160.591 14.858C160.621 14.858 160.68 14.858 160.71 14.858C162.667 14.858 164.269 13.3281 164.328 11.3863L164.358 10.7684C164.417 8.79713 162.845 7.12009 160.858 7.06124C158.842 7.0024 157.181 8.56176 157.122 10.533L157.092 11.1509C157.033 13.1221 158.604 14.7992 160.591 14.858Z" fill="#04151F"/>
<path d="M144.873 45.0154C144.844 45.0154 144.844 45.0154 144.873 45.0154C142.857 45.0154 141.255 46.6042 141.226 48.6049V49.6052C141.226 51.5765 142.827 53.1947 144.844 53.2241C146.831 53.2241 148.462 51.6353 148.462 49.6346V48.6343C148.491 46.6336 146.86 45.0154 144.873 45.0154Z" fill="#04151F"/>
<path d="M3.64791 17.8885C1.63125 17.8885 0.0297852 19.5067 0.0297852 21.4779V39.0722C0.0297852 41.0434 1.66091 42.6616 3.64791 42.6616C5.63492 42.6616 7.26604 41.0434 7.26604 39.0722V21.4779C7.26604 19.5067 5.63492 17.8885 3.64791 17.8885Z" fill="#04151F"/>
<path d="M3.64778 45.7804C3.64778 45.7804 3.61813 45.7804 3.64778 45.7804C1.63112 45.7804 0.0296568 47.3691 0 49.3698V50.3702C0 52.3414 1.60147 53.9596 3.61813 53.9891C5.60513 53.9891 7.23625 52.4003 7.23625 50.3996V49.3992C7.26591 47.3986 5.63479 45.8098 3.64778 45.7804Z" fill="#04151F"/>
<path d="M3.61813 14.2402C5.63479 14.2402 7.23626 12.6514 7.26591 10.6507V9.65035C7.26591 7.67909 5.66445 6.06089 3.64778 6.03146C1.63112 6.03146 0 7.62024 0 9.62093V10.6213C0 12.5925 1.60147 14.2107 3.61813 14.2402Z" fill="#04151F"/>
<path d="M93.0331 5.03113C106.942 5.03113 118.212 16.2114 118.212 30.0103C118.212 43.8091 106.942 54.9894 93.0331 54.9894C79.1241 54.9894 67.8545 43.8091 67.8545 30.0103C67.8545 16.2114 79.1241 5.03113 93.0331 5.03113ZM93.0331 0C88.9405 0 84.9961 0.794389 81.2594 2.35375C77.6709 3.85426 74.4087 6.03147 71.6506 8.79713C68.8628 11.5628 66.6979 14.7698 65.1557 18.3298C63.5839 22.0369 62.7832 25.9501 62.7832 30.0103C62.7832 34.0705 63.5839 37.9836 65.1557 41.6907C66.6682 45.2508 68.8628 48.4872 71.6506 51.2234C74.4383 53.9891 77.6709 56.1368 81.2594 57.6668C84.9961 59.2261 88.9405 60.0205 93.0331 60.0205C97.1258 60.0205 101.07 59.2261 104.807 57.6668C108.395 56.1663 111.658 53.9891 114.416 51.2234C117.203 48.4578 119.368 45.2508 120.91 41.6907C122.482 37.9836 123.283 34.0705 123.283 30.0103C123.283 25.9501 122.482 22.0369 120.91 18.3298C119.398 14.7698 117.203 11.5334 114.416 8.79713C111.628 6.03147 108.395 3.88368 104.807 2.35375C101.07 0.794389 97.0961 0 93.0331 0Z" fill="#04151F"/>
<path d="M92.0842 30.8635C92.0545 32.4817 93.745 33.2467 94.9906 31.9815C95.6133 31.3637 95.7913 30.3928 95.6134 29.5101C95.3464 28.4215 94.3678 27.1269 93.2408 26.8033C91.6393 26.362 89.9786 27.5388 89.1185 28.8334C87.9026 30.687 88.0509 33.1584 89.7117 34.6883C91.2835 36.1006 93.7153 36.6302 95.7616 36.1006C96.1175 36.0123 96.4734 35.8946 96.7996 35.7181C100.358 33.9822 101.159 29.0394 98.6383 26.0972C96.8886 24.0376 93.745 22.7431 91.0166 23.1844C86.568 23.9494 83.6913 28.7451 84.4031 33.0407C84.9666 36.5419 87.7543 39.5724 91.1648 40.5727C94.605 41.5731 98.5197 40.6316 101.159 38.2484C104.659 35.1003 105.697 29.9809 103.621 25.7735C102.464 23.3904 100.477 21.4191 98.1045 20.2422C94.694 18.5358 90.7793 18.5652 87.4281 20.4482C81.9119 23.5081 79.9546 30.4516 83.0685 35.9241C86.1825 41.3965 93.1518 43.3384 98.668 40.2491" fill="#04151F"/>
<path d="M93.0628 42.4557C88.7922 42.4557 84.6106 40.2196 82.3567 36.2771C79.0351 30.4516 81.1408 23.0079 87.0424 19.742C90.6013 17.7414 94.7532 17.6825 98.4603 19.5361C101.011 20.8307 103.116 22.9196 104.332 25.4499C106.527 29.9808 105.43 35.4827 101.663 38.8662C100.981 39.4841 100.21 40.0137 99.3797 40.455C99.3203 40.661 99.2017 40.8375 98.9941 40.9552C97.1554 41.9555 95.1091 42.4557 93.0628 42.4557ZM92.1434 23.8905C91.8172 23.8905 91.491 23.9199 91.1647 23.9788C87.3094 24.6261 84.5216 28.804 85.2037 32.923C85.7079 36.1006 88.1991 38.8957 91.402 39.8372C94.516 40.7492 98.1341 39.9254 100.625 37.6894C103.887 34.7766 104.807 30.0103 102.909 26.1266C101.841 23.9199 100.002 22.0664 97.7485 20.9483C94.516 19.3301 90.8978 19.4184 87.8135 21.1249C82.6829 23.9788 80.8738 30.4516 83.7505 35.5121C84.4623 36.7479 85.352 37.7776 86.4197 38.6014C84.9665 37.1009 83.9285 35.2179 83.6023 33.1584C83.2464 30.8929 83.7802 28.3921 85.1148 26.362C86.5086 24.2142 88.5549 22.8019 90.8978 22.4194C93.8042 21.9193 97.2147 23.2138 99.261 25.597C100.655 27.2152 101.218 29.5101 100.744 31.7167C100.299 33.8351 98.9941 35.5416 97.1554 36.4536C96.7995 36.6302 96.3843 36.7773 95.9691 36.895C93.5966 37.4834 90.9275 36.8656 89.2074 35.2768C87.3094 33.5409 86.9831 30.6575 88.466 28.3921C89.4743 26.8916 91.4613 25.5087 93.4483 26.0383C94.9608 26.4502 96.0878 28.039 96.3843 29.3336C96.6512 30.5104 96.3547 31.7167 95.5836 32.5111C94.7829 33.3349 93.6856 33.5997 92.7662 33.2172C91.8468 32.8348 91.2834 31.9227 91.313 30.8341C91.313 30.3927 91.6689 30.0691 92.1138 30.0691C92.1138 30.0691 92.1138 30.0691 92.1434 30.0691C92.5883 30.0691 92.9145 30.4516 92.9145 30.8635C92.9145 31.3048 93.0924 31.6285 93.389 31.7756C93.7152 31.9227 94.1008 31.7756 94.4566 31.4225C94.8422 31.0106 95.0201 30.3339 94.8718 29.6866C94.6642 28.8334 93.8932 27.8036 93.0628 27.5683C91.8765 27.2446 90.5123 28.2155 89.8302 29.2453C88.7625 30.8341 88.9701 32.8936 90.3047 34.0999C91.6392 35.3062 93.7745 35.8064 95.6132 35.3356C95.9395 35.2474 96.236 35.1591 96.503 35.012C97.8968 34.3353 98.9052 33.0113 99.2314 31.3637C99.5873 29.6278 99.1721 27.8625 98.0748 26.5973C96.6216 24.9497 94.249 23.8905 92.1434 23.8905Z" fill="#04151F"/>
<path d="M109.76 23.508C109.374 23.5669 108.989 23.3904 108.811 23.0079C106.705 18.3004 102.612 14.8286 97.5708 13.4752C97.0963 13.3575 96.8294 12.8868 96.948 12.416C97.0666 11.9453 97.5411 11.6805 98.0156 11.7982C103.561 13.2693 108.069 17.0941 110.412 22.3018C110.62 22.7431 110.412 23.2433 109.967 23.4492C109.878 23.4786 109.819 23.4786 109.76 23.508Z" fill="#04151F"/>
<path d="M75.8617 26.2149H75.832C75.3575 26.0972 75.0906 25.6264 75.1796 25.1557C76.4845 19.9186 79.984 15.4759 84.8477 13.0045C85.2629 12.7985 85.7967 12.9456 86.034 13.3869C86.2416 13.7989 86.0933 14.3284 85.6484 14.5638C81.2592 16.7999 78.0563 20.8307 76.87 25.597C76.7514 26.0383 76.3065 26.3031 75.8617 26.2149Z" fill="#04151F"/>
<path d="M89.5338 48.2224C89.4152 48.2518 89.2669 48.2812 89.1186 48.2518C83.8397 47.1926 79.2429 43.9562 76.5145 39.3958C76.2772 38.9839 76.3958 38.4543 76.811 38.219C77.2262 37.9836 77.7601 38.1013 77.9973 38.5132C80.4588 42.6911 84.6404 45.6038 89.4448 46.5748C89.9193 46.663 90.2159 47.1338 90.1269 47.6045C90.0973 47.8693 89.8304 48.1341 89.5338 48.2224Z" fill="#04151F"/>
<path d="M101.218 46.663C100.951 46.6336 100.714 46.4571 100.596 46.2217C100.388 45.8098 100.536 45.2802 100.951 45.0448C105.637 42.6028 108.9 38.2778 109.878 33.129C109.967 32.6582 110.412 32.364 110.887 32.4523C110.887 32.4523 110.887 32.4523 110.916 32.4523C111.391 32.5406 111.687 32.9819 111.598 33.4526C110.501 39.1016 106.912 43.8974 101.752 46.5748C101.574 46.663 101.396 46.6924 101.218 46.663Z" fill="#04151F"/>
<path d="M91.3129 15.3288C91.1942 15.3288 91.046 15.2994 90.957 15.2111L89.1479 13.7694C89.0293 13.6812 88.9403 13.534 88.9403 13.3869C88.9107 13.2398 88.97 13.0927 89.059 12.975L90.5121 11.1803C90.7197 10.9449 91.0756 10.8861 91.3129 11.092L93.1219 12.5337C93.3592 12.7397 93.4185 13.0927 93.2109 13.3281L91.7577 15.1228C91.6688 15.2405 91.5205 15.3288 91.3722 15.3288C91.3722 15.3288 91.3425 15.3288 91.3129 15.3288ZM90.3045 13.2104L91.2239 13.9165L91.9357 13.0045L91.0163 12.2983L90.3045 13.2104Z" fill="#04151F"/>
<path d="M95.3169 49.1344C95.1982 49.1344 95.05 49.105 94.961 49.0168L93.1519 47.5751C92.9147 47.3691 92.8554 47.0161 93.063 46.7807L94.5161 44.986C94.7237 44.7506 95.0796 44.6918 95.3169 44.8977L97.1259 46.3394C97.2446 46.4276 97.3335 46.5747 97.3335 46.7219C97.3632 46.869 97.3039 47.0161 97.2149 47.1338L95.7617 48.9285C95.6728 49.0462 95.5245 49.1344 95.3762 49.1344C95.3762 49.1344 95.3465 49.1344 95.3169 49.1344ZM94.3382 47.0161L95.2576 47.7222L95.9693 46.8101L95.05 46.104L94.3382 47.0161Z" fill="#04151F"/>
<path d="M108.366 47.0161C108.04 47.1632 107.625 47.1043 107.358 46.8101C107.031 46.4571 107.061 45.9275 107.417 45.6038C112.132 41.2788 114.564 35.1002 114.119 28.7157C114.09 28.245 114.446 27.833 114.92 27.8036C115.395 27.7742 115.81 28.1273 115.839 28.598C116.314 35.5121 113.675 42.1615 108.574 46.869C108.514 46.9278 108.425 46.9867 108.366 47.0161Z" fill="#04151F"/>
<path d="M107.95 14.4755C107.713 14.505 107.476 14.4167 107.298 14.2696C102.701 10.2388 96.5918 8.38522 90.5418 9.15019C90.0673 9.20903 89.6224 8.88539 89.5631 8.41464C89.5038 7.94389 89.83 7.50256 90.3045 7.44372C96.8587 6.61991 103.442 8.62059 108.425 12.975C108.781 13.2987 108.81 13.8283 108.514 14.1813C108.366 14.3579 108.158 14.4461 107.95 14.4755Z" fill="#04151F"/>
<path d="M71.265 32.8642C71.176 32.923 71.0574 32.9524 70.9388 32.9524C70.4643 33.0113 70.0491 32.6582 69.9898 32.1875C69.367 25.7147 71.5616 19.3007 76.0101 14.5638C76.3363 14.2107 76.8998 14.1813 77.226 14.505C77.5819 14.8286 77.6116 15.3876 77.2853 15.7113C73.1927 20.0951 71.176 26.0383 71.7395 32.0109C71.7395 32.364 71.5616 32.6876 71.265 32.8642Z" fill="#04151F"/>
<path d="M95.2573 52.7239C92.2027 52.9887 89.059 52.6356 86.123 51.6941C82.8904 50.635 79.8654 48.8697 77.3743 46.5159C77.0184 46.1923 77.0184 45.6333 77.3446 45.2802C77.6708 44.9271 78.2343 44.9271 78.5902 45.2508C83.3353 49.7229 89.7708 51.753 96.2063 50.8409C96.6808 50.7821 97.1257 51.1057 97.185 51.5765C97.2443 52.0472 96.9181 52.4885 96.4436 52.5474C96.058 52.6357 95.6428 52.6945 95.2573 52.7239Z" fill="#04151F"/>
<path d="M101.782 51.5765C101.159 51.5765 100.536 51.2234 100.269 50.6055C99.9134 49.7817 100.299 48.8402 101.129 48.4872C101.96 48.1341 102.909 48.5166 103.265 49.3404C103.443 49.7229 103.443 50.1642 103.294 50.5761C103.146 50.988 102.82 51.2822 102.434 51.4588C102.227 51.547 102.019 51.5765 101.782 51.5765ZM101.782 49.2227C101.693 49.2227 101.574 49.2521 101.485 49.2816C101.129 49.4287 100.951 49.87 101.1 50.2231C101.248 50.5761 101.693 50.7527 102.049 50.6055C102.227 50.5173 102.375 50.3996 102.434 50.1936C102.494 50.0171 102.494 49.8112 102.434 49.6346C102.345 49.3993 102.078 49.2227 101.782 49.2227Z" fill="#04151F"/>
<path d="M84.3736 11.5922C83.7508 11.5922 83.128 11.2391 82.8611 10.6213C82.5052 9.79746 82.8907 8.85597 83.7211 8.5029C84.1066 8.32637 84.5515 8.32637 84.9667 8.47348C85.3819 8.62059 85.6785 8.94423 85.8564 9.32672C86.0344 9.7092 86.0344 10.1505 85.8861 10.5624C85.7378 10.9743 85.4116 11.2686 85.026 11.4451C84.8184 11.5334 84.5812 11.5922 84.3736 11.5922ZM84.3736 9.23845C84.2846 9.23845 84.166 9.26787 84.077 9.29729C83.7211 9.4444 83.5432 9.88573 83.6915 10.2388C83.8397 10.5919 84.2846 10.7684 84.6405 10.6213C84.8184 10.533 84.9667 10.4153 85.026 10.2094C85.0853 10.0328 85.0853 9.82689 85.026 9.65036C84.937 9.47382 84.8184 9.32672 84.6108 9.26787C84.5515 9.26787 84.4625 9.23845 84.3736 9.23845Z" fill="#04151F"/>
<path d="M113.734 22.1841C113.645 22.2135 113.556 22.2135 113.437 22.1841L111.213 21.5662C111.064 21.5368 110.946 21.4191 110.857 21.3014C110.768 21.1543 110.768 21.0072 110.798 20.8601L111.42 18.6534C111.45 18.5063 111.569 18.3886 111.687 18.3004C111.836 18.2121 111.984 18.2121 112.132 18.2415L114.356 18.8594C114.653 18.9477 114.831 19.2713 114.772 19.5655L114.178 21.7722C114.119 21.9781 113.941 22.1252 113.734 22.1841ZM112.132 20.5953L113.229 20.8895L113.526 19.8009L112.429 19.5067L112.132 20.5953Z" fill="#04151F"/>
<path d="M74.4381 42.0438C74.3492 42.0732 74.2602 42.0732 74.1416 42.0438L71.9173 41.4259C71.769 41.3965 71.6504 41.2788 71.5614 41.1611C71.4725 41.014 71.4725 40.8669 71.5021 40.7198L72.1249 38.5132C72.2139 38.219 72.5401 38.0424 72.8367 38.1013L75.0609 38.7191C75.3575 38.8074 75.5354 39.131 75.4761 39.4253L74.8533 41.6319C74.8237 41.779 74.705 41.8967 74.5864 41.9849C74.5568 42.0144 74.4974 42.0438 74.4381 42.0438ZM72.807 40.4844L73.9043 40.7787L74.2009 39.69L73.1036 39.3958L72.807 40.4844Z" fill="#04151F"/>
<path d="M75.2686 33.1878C74.7645 33.1878 74.2603 32.8936 74.0527 32.3934C73.7561 31.7167 74.0823 30.9518 74.7348 30.687C75.4169 30.3928 76.188 30.7164 76.4549 31.3637C76.6032 31.6873 76.6032 32.0404 76.4845 32.364C76.3659 32.6877 76.099 32.9525 75.7728 33.0701C75.6245 33.1584 75.4466 33.1878 75.2686 33.1878ZM75.2686 31.3048C75.1796 31.3048 75.1203 31.3343 75.0314 31.3637C74.7348 31.4814 74.5865 31.8344 74.7348 32.1286C74.8534 32.4229 75.2093 32.57 75.5059 32.4229C75.6542 32.364 75.7728 32.2463 75.8321 32.0992C75.8914 31.9521 75.8914 31.805 75.8321 31.6579C75.7135 31.4225 75.5059 31.3048 75.2686 31.3048Z" fill="#04151F"/>
<path d="M110.886 29.0099C110.382 29.0099 109.878 28.7157 109.67 28.2155C109.374 27.5388 109.7 26.7739 110.352 26.5091C111.035 26.2148 111.806 26.5385 112.073 27.1858C112.221 27.5094 112.221 27.8625 112.102 28.1861C111.984 28.5097 111.717 28.7745 111.39 28.8922C111.242 28.9805 111.064 29.0099 110.886 29.0099ZM110.886 27.0975C110.797 27.0975 110.738 27.1269 110.649 27.1563C110.352 27.274 110.204 27.6271 110.352 27.9213C110.471 28.2155 110.827 28.3626 111.124 28.2155C111.272 28.1567 111.39 28.039 111.45 27.8919C111.509 27.7448 111.509 27.5977 111.45 27.4506C111.331 27.2446 111.094 27.0975 110.886 27.0975Z" fill="#04151F"/>
<path d="M18.1798 84.0876C17.5867 84.4701 16.9342 84.7937 16.2225 85.0879C15.5404 85.3821 14.7693 85.5881 13.9686 85.7646C13.1678 85.9117 12.3374 86 11.4477 86C9.87593 86 8.45241 85.7352 7.17717 85.2056C5.90193 84.676 4.80463 83.9699 3.91492 83.0578C2.99556 82.1457 2.31346 81.0571 1.80929 79.792C1.30513 78.5563 1.06787 77.2029 1.06787 75.7318C1.06787 74.3195 1.33478 72.9956 1.83895 71.7598C2.34311 70.5241 3.05488 69.4061 3.97424 68.494C4.8936 67.5525 5.9909 66.817 7.26614 66.258C8.54138 65.6989 9.93525 65.4341 11.4181 65.4341C12.3078 65.4341 13.0789 65.493 13.8203 65.6107C14.532 65.7284 15.1845 65.9049 15.8073 66.1403C16.4301 66.3756 16.9936 66.6404 17.5274 66.9641C18.0612 67.2877 18.595 67.6702 19.1289 68.1115L16.9046 70.7595C16.5191 70.4359 16.1335 70.1416 15.7183 69.8768C15.3031 69.612 14.8879 69.3767 14.4727 69.2001C14.0279 69.0236 13.5534 68.8765 13.0196 68.7882C12.4857 68.6705 11.9223 68.6411 11.2995 68.6411C10.3801 68.6411 9.52005 68.8177 8.74898 69.2001C7.94824 69.5826 7.26614 70.0828 6.70266 70.7301C6.10952 71.3774 5.66467 72.1129 5.33845 72.9661C5.01222 73.8194 4.83428 74.7314 4.83428 75.7024C4.83428 76.7321 4.98257 77.6736 5.30879 78.5563C5.63502 79.4389 6.10952 80.1745 6.70266 80.8218C7.29579 81.469 8.00756 81.9692 8.83795 82.3223C9.66834 82.6753 10.5877 82.8519 11.6257 82.8519C12.5747 82.8519 13.4644 82.7048 14.2948 82.44C15.1252 82.1752 15.8369 81.7927 16.4597 81.3513V77.6148H11.2995V74.5843H19.8406V82.9401C19.3364 83.3226 18.773 83.7051 18.1798 84.0876Z" fill="#04151F"/>
<path d="M62.9912 77.0558C62.9912 78.5269 62.7836 79.8214 62.3684 80.9394C61.9532 82.0575 61.3898 82.999 60.6483 83.7345C59.9069 84.4701 59.0172 85.0291 57.9496 85.4116C56.8819 85.794 55.6957 85.9706 54.3908 85.9706C53.0859 85.9706 51.9292 85.794 50.8616 85.4116C49.8236 85.0291 48.9043 84.4995 48.1628 83.7639C47.4214 83.0284 46.8579 82.1163 46.4427 81.0277C46.0276 79.9391 45.8496 78.674 45.8496 77.2323V65.7872H49.3491V77.0852C49.3491 78.9388 49.794 80.351 50.7133 81.3219C51.603 82.2928 52.8486 82.7636 54.4501 82.7636C56.0219 82.7636 57.2675 82.2928 58.1572 81.3808C59.0469 80.4393 59.5214 79.0859 59.5214 77.2323V65.7872H63.0209V77.0558H62.9912Z" fill="#04151F"/>
<path d="M93.271 65.7872V85.6764H89.7715V65.7872H93.271Z" fill="#04151F"/>
<path d="M120.407 65.7872H123.906V82.4988H134.434V85.6469H120.407V65.7872Z" fill="#04151F"/>
<path d="M177.229 79.6155C176.725 80.8218 175.984 81.8809 175.035 82.793C174.086 83.6757 172.959 84.3818 171.654 84.882C170.349 85.3821 168.925 85.6469 167.353 85.6469H159.88V65.7578H167.353C168.925 65.7578 170.349 66.0226 171.654 66.5228C172.959 67.0229 174.086 67.729 175.035 68.6117C175.984 69.4944 176.695 70.5535 177.229 71.7598C177.733 72.9661 178 74.2901 178 75.6729C178 77.0852 177.733 78.4092 177.229 79.6155ZM173.789 73.025C173.463 72.2012 172.988 71.495 172.395 70.8772C171.802 70.2593 171.061 69.7886 170.2 69.4649C169.34 69.1119 168.391 68.9648 167.324 68.9648H163.35V82.5282H167.324C168.362 82.5282 169.34 82.3517 170.2 82.028C171.061 81.7044 171.802 81.2337 172.395 80.6452C172.988 80.0568 173.463 79.3212 173.789 78.4974C174.115 77.6736 174.293 76.7615 174.293 75.7612C174.293 74.7609 174.145 73.8488 173.789 73.025Z" fill="#04151F"/>
<path d="M168.005 77.0263C167.383 77.0263 166.76 76.6733 166.493 76.0554C166.137 75.2316 166.523 74.2901 167.353 73.9371C168.183 73.584 169.132 73.9665 169.488 74.7903C169.666 75.2022 169.666 75.6435 169.518 76.026C169.37 76.4379 169.043 76.7321 168.658 76.9087C168.45 76.9969 168.243 77.0263 168.005 77.0263ZM168.005 74.6726C167.916 74.6726 167.798 74.702 167.709 74.7314C167.353 74.8786 167.175 75.3199 167.323 75.6729C167.472 76.026 167.916 76.2025 168.272 76.0554C168.45 75.9672 168.599 75.8495 168.658 75.6435C168.717 75.467 168.717 75.261 168.658 75.0845C168.569 74.8491 168.302 74.6726 168.005 74.6726Z" fill="#04151F"/>
</svg>
