<svg width="29" height="28" viewBox="0 0 29 28" fill="none" xmlns="http://www.w3.org/2000/svg">
    <g>
        <path d="M13.7195 0H14.5443V0.0993778C14.6103 0.0993778 14.6763 0.115941 14.7423 0.132504V0.198756H14.8578V0.298133C15.0392 0.314696 14.9898 0.397511 15.1547 0.430637V0.530015H15.2702V0.629393H15.3527C15.3527 0.927526 15.4022 0.8944 15.4517 1.06003C15.5012 1.25879 15.5342 2.50101 15.4847 2.73289C15.4352 2.96477 15.3527 3.04759 15.3527 3.32916H15.2702C15.2537 3.4451 15.2537 3.54448 15.2537 3.66042H15.1547V3.85917H15.0557C15.0392 4.04136 14.9733 4.00824 14.9568 4.19043H14.8578V4.28981H14.7423V4.38919H14.6433V4.48856H14.5443V4.58794H14.4453V4.68732C14.3794 4.70388 14.3134 4.70388 14.2474 4.72045C14.2474 4.77013 14.2474 4.77013 14.2309 4.7867C14.1814 4.81982 14.1154 4.81982 14.0329 4.81982V4.9192H13.703V5.01858H13.307V4.81982C13.109 4.81982 12.8781 4.81982 12.7131 4.7867C12.6966 4.73701 12.6966 4.67076 12.6801 4.6045C12.6306 4.58794 12.6306 4.60451 12.6141 4.58794C12.3997 4.25668 12.4821 3.5776 12.4821 3.11384V2.51757C12.4986 2.46788 12.5646 2.43476 12.5811 2.38507V2.00412H12.6801C12.6801 1.88818 12.6801 1.7888 12.7131 1.70599H12.7791V1.55692H12.8781C12.8946 1.39129 12.9276 1.45754 12.9771 1.37473C13.0266 1.27535 12.9771 1.01034 13.0101 0.927526H13.0926C13.0926 0.861274 13.109 0.795022 13.109 0.72877H13.208V0.430637H13.505V0.198756H13.604V0.0993778H13.736V0H13.7195Z" fill="#FFF8AC" />
        <path d="M21.9515 1.47409H22.4299V1.54034C22.5289 1.55691 22.6443 1.55691 22.7598 1.57347V1.65628C22.8258 1.65628 22.8918 1.67285 22.9578 1.67285C22.9743 1.72254 22.9578 1.72254 22.9908 1.75566C23.0238 1.77222 23.0403 1.77222 23.0898 1.78879V1.88816H23.1888V1.98754H23.2877V2.08692H23.3867V2.21942H23.4692C23.5187 2.55068 23.5352 3.0807 23.4692 3.42852H23.3867V3.6604H23.2877V3.75978H23.1888V3.95854H23.0733V4.05791C23.0568 4.07448 23.0568 4.07448 23.0403 4.09104H22.9743V4.19042H22.8588V4.28979H22.7433V4.38917H22.6443V4.50511H22.5454V4.60449H22.4464V4.70387H22.3474V4.81981H22.2484C22.2319 4.91919 22.2154 4.90262 22.1989 4.98544H22.1164V5.11794H22.0174V5.21732H21.9185V5.3167C21.9185 5.3167 21.902 5.33326 21.8855 5.34982H21.8195C21.803 5.39951 21.803 5.39951 21.7865 5.41608V5.4492H21.704V5.54858H21.5885V5.64796H21.4895V5.74734H21.3905V5.84671H21.2916V5.94609C21.1761 5.99578 21.1431 6.04547 20.9616 6.04547V5.74734C20.8791 5.7639 20.4337 5.91297 20.2687 5.83015C20.2687 5.79702 20.2522 5.78046 20.2357 5.74734H20.0378V5.64796H19.9058V5.54858H19.8068V5.4492H19.7078V5.25045C19.6583 5.23388 19.6583 5.25045 19.6253 5.21732C19.5923 5.18419 19.6088 5.10138 19.6088 5.01857H19.8068V4.91919H19.7078V4.81981H19.6088V4.68731H19.5098V4.35605H19.4438V4.17385H19.5263C19.5263 3.99166 19.5263 3.80947 19.5593 3.67697H19.6253V3.44508H19.7243V3.2132H19.8233C19.8398 3.14695 19.8398 3.09726 19.8563 3.03101H19.9223V2.91507H20.0213C20.0213 2.79913 20.0543 2.79913 20.0707 2.71631H20.1532V2.60037H20.2522V2.50099H20.3512V2.40162H20.4502V2.30224H20.5492C20.5492 2.30224 20.5657 2.28568 20.5822 2.26911V2.20286C20.6317 2.1863 20.6317 2.1863 20.6482 2.16974H20.6647V2.08692C20.7306 2.08692 20.7966 2.07036 20.8626 2.07036V1.97098H20.9616V1.8716H21.1101V1.80535H21.1596C21.2751 1.72254 21.407 1.67285 21.5885 1.65628V1.57347C21.704 1.55691 21.8195 1.55691 21.935 1.54034L21.9515 1.47409Z" fill="#FFF8AC" />
        <path d="M12.6634 5.648C12.9274 5.648 13.2408 5.63144 13.4553 5.66456V5.73082H13.7852C13.8017 5.74738 13.8017 5.74738 13.8182 5.76394V5.84676H14.0162V5.94613H14.1152C14.1152 5.9627 14.1317 5.9627 14.1482 5.97926V6.04551C14.2142 6.06208 14.2801 6.06208 14.3461 6.07864V6.17802H14.4121C14.4286 6.24427 14.4286 6.31052 14.4451 6.37677H14.5441V6.67491H14.6101V6.90679H14.5441V7.3043H14.4451V7.63556H14.3296V7.93369C14.3296 7.93369 14.3131 7.95025 14.2966 7.95025H14.2142C14.2142 8.04963 14.1977 8.13245 14.1977 8.23183C14.1482 8.24839 14.1482 8.23183 14.1152 8.26495C14.0987 8.29808 14.0987 8.3312 14.0822 8.38089H14.0162C13.9997 8.43058 14.0162 8.43058 13.9832 8.46371C13.9502 8.48027 13.9337 8.48027 13.8842 8.49683V8.57965C13.5708 8.59621 13.2408 8.82809 12.8284 8.71215C12.7789 8.69559 12.7459 8.61277 12.7294 8.61277C12.5974 8.59621 12.4489 8.59621 12.3005 8.57965V8.49683C12.2015 8.49683 12.1025 8.48027 12.0035 8.46371V8.36433H11.8715V8.26495H11.6901V8.16557H11.5581V7.80119H11.4756V7.42024H11.5581V6.26083H11.6571V6.16145H11.756C11.7725 6.16145 11.7725 6.14489 11.789 6.14489V6.04551H11.888V5.97926H11.987C11.987 5.97926 12.0035 5.9627 12.02 5.94613V5.87988C12.185 5.84676 12.2015 5.7805 12.284 5.74738H12.6139V5.648H12.6634Z" fill="#FFF8AC" />
        <path d="M19.3944 6.50925V6.59207H19.5264V6.69144H19.6253V6.80738H19.7243V6.90676H19.8563V7.00614H19.9553V7.13864H20.0543V7.30427H20.1533V7.53616H20.2522V7.76804H20.3512V8.04961C20.3512 8.04961 20.3677 8.06617 20.3677 8.08273H20.4337C20.4667 8.49681 20.5492 8.72869 20.5657 9.20902C20.5492 9.22558 20.5492 9.22558 20.5327 9.24214H20.4667C20.4502 9.30839 20.4502 9.37465 20.4337 9.4409H20.3347V9.54028H20.2358C20.2358 9.60653 20.2193 9.67278 20.2028 9.73903H20.1368V9.85497H20.0378C20.0378 9.92122 20.0213 9.97091 20.0048 10.0372C19.9553 10.0537 19.9553 10.0372 19.9388 10.0537C19.9223 10.0869 19.9223 10.1034 19.9058 10.1531H19.8398C19.8398 10.269 19.8398 10.3684 19.7903 10.4347V10.4678C19.7078 10.4844 19.6088 10.4844 19.5264 10.5009V10.5837C19.3779 10.6003 19.2459 10.6003 19.0974 10.6003V10.6997H18.1736V10.6003H17.8436V10.5009C17.7446 10.4844 17.6457 10.4844 17.5467 10.4678V10.385C17.4807 10.385 17.4147 10.3684 17.3487 10.3519C17.3322 10.3022 17.3487 10.3022 17.3322 10.2856C17.2992 10.269 17.2827 10.269 17.2332 10.2525V10.1531H17.1342V10.0537C17.0682 10.0537 17.0187 10.0372 16.9528 10.0372C16.9363 9.93779 16.9198 9.97091 16.9033 9.85497H16.8373V9.75559H16.7383C16.7218 9.70591 16.7218 9.67278 16.7053 9.60653H16.6228C16.6228 9.54028 16.6063 9.47402 16.5898 9.40777H16.5238C16.5073 9.30839 16.5073 9.20902 16.4908 9.10964H16.3918V7.88398H16.4908C16.4908 7.76804 16.5073 7.66866 16.5238 7.55272H16.5898C16.6063 7.48647 16.6063 7.42022 16.6228 7.35396H16.7053V7.25459C16.7053 7.23802 16.7218 7.23802 16.7383 7.22146H16.8208C16.8373 7.17177 16.8208 7.17177 16.8538 7.13864V7.10552H16.9198C16.9363 7.03927 16.9363 6.97301 16.9528 6.90676H17.0517V6.80738H17.1507V6.70801H17.2497V6.60863C17.5797 6.59207 17.9426 6.59207 18.322 6.59207V6.50925C18.619 6.45956 19.0809 6.45956 19.3944 6.50925Z" fill="#FFF8AC" />
        <path d="M26.8842 6.90677V7.00615H27.1152V7.10552C27.1812 7.12209 27.2472 7.12209 27.3132 7.13865C27.3132 7.18834 27.3132 7.18834 27.3297 7.22146V7.25459H27.4121C27.4121 7.30428 27.4121 7.30428 27.4451 7.32084C27.4781 7.33741 27.4781 7.33741 27.5441 7.33741V7.43678H27.6101V7.53616C27.6266 7.55272 27.6266 7.55272 27.6431 7.55272H27.7091C27.7256 7.60241 27.7256 7.60241 27.7421 7.63554V7.66866H27.8246V7.75148C27.9071 7.76804 27.9071 7.76804 27.9236 7.85086H28.0555C28.105 8.01649 28.0885 8.29806 28.0885 8.49681C28.0555 8.5465 28.0885 8.61275 28.0555 8.67901C28.039 8.71213 27.9731 8.72869 27.9566 8.81151V9.1262C27.9071 9.24215 27.8576 9.17589 27.8576 9.42434H27.7586V9.72247H27.6596V9.93779H27.5606C27.5441 10.004 27.5441 10.0703 27.5276 10.1365H27.4616V10.2359H27.3627C27.3462 10.4016 27.2637 10.4016 27.2307 10.5672H27.1317V10.6666H27.0327V10.7659H26.9337V10.8653H26.8347V10.9647C26.7852 10.9813 26.7687 10.9813 26.7028 10.9978V11.0972H26.6038V11.1966H26.5048V11.296H26.4058V11.3953H26.3068V11.4947H26.2078C26.2078 11.5113 26.1913 11.5113 26.1913 11.5113V11.5941C26.1418 11.6106 26.0759 11.6106 26.0099 11.6106C25.9934 11.6603 26.0099 11.6603 25.9934 11.6935C25.9604 11.71 25.9439 11.71 25.8944 11.7266V11.826H25.6964V11.9253H25.1685V11.826H24.9705V11.7266H24.8715C24.8715 11.71 24.855 11.71 24.8385 11.6935V11.6106C24.7726 11.6106 24.7066 11.5941 24.6406 11.5941V11.4947H24.5416V11.3953H24.4426V11.296H24.3436V11.1966H24.2446C24.2281 11.0144 24.1292 11.0641 24.1127 10.8653H24.0137V10.6666H23.8982V10.0372H23.9972V9.82185H24.0962V9.62309H24.1951C24.2116 9.55684 24.2116 9.49059 24.2281 9.42434H24.3106V9.32496C24.3106 9.3084 24.3271 9.3084 24.3271 9.3084H24.4096C24.4096 9.24215 24.4261 9.19246 24.4261 9.1262H24.5251C24.5251 9.05995 24.5416 8.9937 24.5416 8.92745H24.6241V8.81151H24.7231V8.71213C24.7231 8.69557 24.7396 8.69557 24.7561 8.67901H24.822C24.8385 8.61275 24.8385 8.56306 24.855 8.49681H24.9375V8.36431H25.0365C25.0365 8.29806 25.053 8.23181 25.053 8.16555H25.152V8.06618H25.251V7.95024H25.35C25.35 7.90055 25.3665 7.85086 25.383 7.80117C25.449 7.76804 25.4819 7.71835 25.5479 7.68523C25.5809 7.6521 25.6139 7.6521 25.6799 7.6521V7.56929H25.8614V7.63554H25.9934C25.9934 7.53616 26.0099 7.45335 26.0099 7.35397H26.0924C26.1089 7.27115 26.1088 7.18834 26.1253 7.10552H26.2243V7.00615H26.4553V6.92333C26.5543 6.90677 26.7193 6.90677 26.8842 6.90677Z" fill="#FFF8AC" />
        <path d="M1.95654 8.87775H2.97938C2.99588 8.944 2.99588 9.01025 3.01237 9.0765H3.11136V9.17588H3.21034V9.30838H3.30933V9.40776H3.40831V9.50714H3.5073C3.52379 9.67277 3.60628 9.65621 3.63928 9.80527C3.68877 9.80527 3.68877 9.80527 3.72176 9.8384C3.73826 9.87152 3.73826 9.88809 3.75476 9.93778H3.85374V10.1365H3.95273V10.3519H4.05171V11.2794H3.93623V11.4781H3.83725C3.83725 11.4947 3.82075 11.4947 3.80425 11.5113V11.5775C3.67227 11.5941 3.54029 11.5941 3.40831 11.5941V11.6769C3.35882 11.6769 3.35882 11.6769 3.32582 11.6935C3.29283 11.7431 3.29283 11.8094 3.29283 11.8922H2.78141V11.7928C2.68243 11.7763 2.58344 11.7763 2.48446 11.7597V11.8922C2.38547 11.8756 2.28649 11.8756 2.1875 11.8591V11.7928H2.05552V11.6935C1.98953 11.6769 1.92354 11.6769 1.85755 11.6769V11.6106H1.75857V11.5113C1.72557 11.4947 1.69258 11.4947 1.62659 11.4781V11.3788H1.5276V11.2794H1.42862V11.1469H1.34613C1.34613 11.0806 1.32964 11.0144 1.32964 10.9481H1.23065V10.7494H1.13167C1.13167 10.65 1.14816 10.4678 1.11517 10.4015C1.09867 10.385 1.04918 10.385 1.03268 10.3519C0.917199 10.0537 1.13167 9.75558 1.13167 9.50714H1.23065V9.40776H1.32964V9.29182H1.42862V9.19244H1.5276V9.09307C1.70908 9.0765 1.70908 8.99369 1.95654 8.99369V8.87775Z" fill="#FFF8AC" />
        <path d="M11.5251 10.5672C11.6736 10.5672 11.8056 10.5838 11.9211 10.6003V10.6666H12.0365V10.766C12.1025 10.7825 12.152 10.7825 12.218 10.7991C12.251 10.8985 12.548 11.1966 12.6469 11.2297V11.3125H12.7624V11.2132C12.8614 11.1966 12.9769 11.1966 13.0924 11.18C13.1089 11.1469 13.1089 11.1303 13.1089 11.0972C13.1419 11.0972 13.1584 11.1138 13.1914 11.1303V11.18C13.3893 11.1966 13.5873 11.2132 13.7853 11.2297V11.3125H14.1317V11.5113H14.3297V11.6107H14.4287V11.6935H14.3297V11.7929C14.3132 11.7929 14.3132 11.8094 14.2967 11.826H14.2142V11.9254H15.1546C15.1711 11.8425 15.1381 11.8922 15.2041 11.8425C15.237 11.9585 15.27 11.9088 15.303 12.0247C15.3195 12.0579 15.3195 12.0744 15.336 12.1241H15.435V12.2235C15.534 12.2401 15.633 12.2401 15.732 12.2566V12.3394C15.8804 12.3394 16.0124 12.356 16.1609 12.3726C16.1609 12.4223 16.1609 12.4223 16.1774 12.4554C16.2269 12.4885 16.2929 12.4885 16.3754 12.4719V12.5713C16.4249 12.5879 16.4909 12.5879 16.5568 12.6044C16.5568 12.7038 16.5733 12.7866 16.5733 12.886C16.5238 12.9026 16.5238 12.886 16.5074 12.9191C16.4909 12.9523 16.4909 12.9357 16.4744 12.9854C16.5238 13.002 16.6228 13.0185 16.6723 13.0351C16.6888 13.1676 16.6888 13.267 16.6723 13.416C16.6228 13.4326 16.6228 13.416 16.5898 13.4326C16.5733 13.4657 16.5733 13.4823 16.5568 13.532C16.4414 13.532 16.4579 13.5651 16.3589 13.5817V14.0289H16.4579C16.4579 14.0951 16.4744 14.1614 16.4909 14.2276H16.5568C16.5733 14.1614 16.5733 14.1117 16.5898 14.062H16.6723C16.6723 14.1117 16.6723 14.1117 16.7053 14.1448V14.1614H16.7878C16.8208 14.2939 16.8868 14.2607 16.8868 14.4429C16.8208 14.4761 16.8208 14.4595 16.8208 14.5589H16.7218C16.7053 14.5589 16.7053 14.5423 16.6888 14.5257V14.4264H16.3919V14.327H16.1939V14.2276C15.9959 14.2276 16.0454 14.1282 15.8639 14.1117V14.0123H15.765V14.1282H15.666V14.2111H15.8639C15.8804 14.3767 15.9299 14.3436 15.9464 14.5092C15.8639 14.5257 15.864 14.5257 15.8475 14.6086H15.7815V14.7245H15.6825C15.6825 15.0061 15.6825 15.3208 15.666 15.5527H15.468V15.6852H15.6825V15.7845H15.7815V15.8839H15.9794V15.9833C16.1279 15.9999 16.1609 15.9999 16.3094 15.9833V15.8839H16.5403V15.8177C16.6063 15.8177 16.6558 15.8011 16.7218 15.7845V15.8839H16.9198C16.9363 15.9005 16.9363 15.9005 16.9528 15.917V15.9999H17.0518V16.0827C17.1178 16.0827 17.1837 16.0992 17.2497 16.0992V16.1986H17.3487V16.298H17.4807V16.3974H17.5797V16.5299H17.6787V16.6127C17.8436 16.6292 18.0086 16.6292 18.1736 16.6292C18.1736 16.6127 18.1901 16.6127 18.1901 16.6127V16.5133H18.2891V16.2152H18.1901V16.1158C18.3716 16.0992 18.5365 16.0992 18.718 16.0992V15.9999H18.817C18.8005 15.9502 18.817 15.9502 18.8005 15.917C18.7675 15.9005 18.751 15.9005 18.7015 15.8839V15.7845H18.5035V15.6852H18.6025V15.5858C18.751 15.5692 18.7345 15.5195 18.8335 15.4864C18.9985 15.4698 19.1634 15.4698 19.3284 15.4533C19.3449 15.4864 19.3449 15.5195 19.3614 15.5858C19.3449 15.6189 19.3449 15.6023 19.3284 15.652H19.2624C19.2624 15.7348 19.2459 15.8011 19.2294 15.8839C19.1799 15.9005 19.1799 15.9005 19.1469 15.917C19.1304 15.9502 19.1304 15.9502 19.1139 16.0164H19.015V16.1158H18.916V16.2152H18.685C18.685 16.2814 18.7015 16.3477 18.7015 16.4139H18.8005V16.5133C18.7015 16.5133 18.586 16.5299 18.4705 16.5464V16.6458H18.3716V16.7286H18.2726V16.8446H18.1736C18.1571 16.9108 18.1571 16.9605 18.1571 17.0268H18.0911V17.1427H17.9921V17.2421C17.9756 17.2421 17.9756 17.2586 17.9591 17.2752H17.8766C17.8766 17.3249 17.8766 17.3249 17.8601 17.3415V17.3746H17.7942C17.7777 17.4243 17.7942 17.4243 17.7612 17.4408C17.7282 17.4574 17.7282 17.4574 17.6622 17.474C17.6292 17.4574 17.6127 17.4574 17.5632 17.4408V17.3746H17.4642V17.2752H17.3652C17.3487 17.2255 17.3322 17.1427 17.3487 17.0433H17.2497V17.1427H16.8538V17.0433H16.6228V16.9439H16.5238V16.8446H16.4249V16.7452C16.3589 16.7286 16.3094 16.7286 16.2434 16.7121V16.6292C16.1444 16.6127 16.0454 16.6127 15.9464 16.6127C15.8639 16.4636 15.5835 16.4967 15.369 16.5133C15.3855 16.3311 15.369 16.2152 15.369 16.0164H15.27V15.917H15.1546V16.3145H15.0556V16.5133H14.6596C14.6596 16.5133 14.6431 16.5299 14.6431 16.5464V16.6292C14.4947 16.6458 14.3792 16.6458 14.2472 16.6292V16.4139H14.3297V16.3145H14.0492V16.4139H14.1152V16.9439H14.0492C14.0327 17.0102 14.0327 17.0764 14.0162 17.1427H13.9173V17.3415H13.8183C13.8018 17.4243 13.8018 17.4905 13.7853 17.5568H13.7193C13.7028 17.623 13.7028 17.6727 13.6863 17.739H13.6038C13.6038 17.8218 13.5873 17.888 13.5873 17.9708H13.5048C13.5048 18.1033 13.4883 18.2524 13.4883 18.4015H13.4058C13.4058 18.534 13.3893 18.6665 13.3893 18.799H13.2903V19.1303H13.3893C13.4058 19.2959 13.4883 19.2793 13.5048 19.4615H13.6038V19.5609H13.7028V19.6603H13.8018V19.7596H13.9008V19.859H13.9997V19.9584H14.0987C14.0987 19.975 14.1152 19.975 14.1317 19.9915V20.0578C14.1977 20.0743 14.2472 20.0743 14.3132 20.0743V20.1737H14.4452V20.2731H14.6431V20.1737H14.7421V20.0743H15.4845V20.1737H15.6825V21.3C15.666 21.3166 15.666 21.3166 15.666 21.3331H15.5835C15.5835 21.5153 15.5835 21.6975 15.5505 21.83H15.4845C15.4845 21.9625 15.468 22.095 15.468 22.2275H15.3855V22.2772C15.336 22.36 15.3525 22.5588 15.3525 22.6747H15.27C15.2535 22.8569 15.2535 23.0226 15.2535 23.2047H15.1546V23.3041H15.0556V23.4035H15.1546V23.5029H15.2535C15.2535 23.5691 15.27 23.6354 15.27 23.7016H15.3525V23.801C15.3525 23.801 15.369 23.8176 15.3855 23.8176H15.468C15.468 23.8838 15.4845 23.9501 15.4845 24.0329H15.5835V24.2482H15.666V24.447H15.5835V24.5463H15.9794C15.9959 24.5463 15.9959 24.5629 16.0124 24.5795V24.6457C16.1114 24.6457 16.1939 24.6623 16.2929 24.6623V24.7451H16.7218V24.6457H16.8538V24.5463H16.9528V24.447H17.0518V24.3642H17.1508V24.2648C17.1672 24.2482 17.1672 24.2482 17.1672 24.2316H17.2332V24.1323H17.3652V24.0495C17.4312 24.0495 17.4972 24.0329 17.5632 24.0329V23.4035H17.6622V23.0722H17.7612V22.7741H17.8601V22.476H17.9591C17.9756 22.3435 17.9756 22.1944 17.9921 22.0453H18.0911V21.7141H18.1571C18.1901 21.5981 18.2396 21.5981 18.3881 21.6147V21.5153H18.52V21.4325C18.586 21.4159 18.6355 21.4159 18.7015 21.3994C18.7015 21.3331 18.718 21.2669 18.718 21.2006H18.8005C18.8005 21.0847 18.817 20.9853 18.817 20.8694H18.916V20.77H19.015V20.8694H19.2459V20.77H19.3119C19.3284 20.7037 19.3284 20.6375 19.3449 20.5712C19.3944 20.5547 19.3944 20.5712 19.4274 20.5381H19.4604V20.3394H19.5594V20.1406H19.6584C19.6749 20.0412 19.6749 19.9418 19.6749 19.8425C19.6419 19.8259 19.6254 19.8259 19.5594 19.8259V19.7265H19.4604V19.6437C19.3449 19.6437 19.3614 19.6106 19.2624 19.594V19.5278H19.1304V19.4284C19.081 19.4118 19.015 19.4118 18.9655 19.3953V19.329H18.8335V19.2296H18.7345V19.1303C18.7015 19.1137 18.6685 19.1137 18.6025 19.1137V19.0143H18.5035V18.8156H18.4046V18.5837H18.3056C18.3221 18.4677 18.3221 18.418 18.3056 18.2855H18.4046V18.1862H18.5365V18.0868H18.8335V18.1862H18.9325V18.3849H19.0315V18.4843H19.1304C19.1469 18.4346 19.1304 18.4346 19.1634 18.4015C19.1964 18.3684 19.2789 18.3849 19.3614 18.3849C19.3944 18.4015 19.3779 18.3849 19.4109 18.4015C19.4274 18.4346 19.4274 18.4512 19.4439 18.4843C19.4604 18.5174 19.4604 18.534 19.4769 18.5837H19.5759V18.6996H19.6749V18.799H19.7738V18.8984H19.8728C19.8893 18.9646 19.8893 19.0309 19.8893 19.0971H19.9883C20.0048 19.2628 20.0873 19.2462 20.0873 19.445H20.1698C20.1863 19.5443 20.1863 19.594 20.1698 19.6934H20.0873V21.2006H20.1698V21.3H20.0873V21.3994H19.7573V21.5981C19.6254 21.5816 19.5924 21.5816 19.4604 21.5981C19.4604 21.7638 19.4439 21.9294 19.4274 22.095H19.3449C19.3449 22.4428 19.2459 22.476 19.2294 22.741C19.1799 22.7575 19.1799 22.7575 19.1469 22.7741C19.1139 22.8072 19.1139 22.8735 19.1139 22.9563H19.015C18.9985 23.0226 18.9985 23.0888 18.982 23.1551H18.916V23.2876H18.817V23.4863H18.718V23.6023H18.619C18.6025 23.7844 18.52 23.7348 18.487 23.9004H18.3881V23.9998H18.2891V24.0991H18.1901C18.1736 24.1488 18.1736 24.2151 18.1736 24.2813C18.0911 24.3145 18.0746 24.3807 17.9921 24.4138C17.9591 24.4304 17.9426 24.4304 17.8931 24.4304V24.5298C17.7612 24.596 17.7612 24.7285 17.5797 24.7617V24.861H17.4807V24.9604H17.3817V25.0598H17.2497V25.1592H17.1343V25.2586H17.0353V25.3579C16.9693 25.3579 16.9033 25.3745 16.8373 25.3745V25.4739H16.7383V25.5732H16.6063V25.6726H16.5074V25.772H16.3094V25.8714H16.2104V25.9708H16.1114C16.1114 25.9873 16.0949 25.9873 16.0949 26.0039V26.0867H15.9794C15.9629 26.1364 15.9629 26.153 15.9134 26.1861C15.8804 26.2026 15.8475 26.2026 15.7815 26.2192V26.3186H15.6825V26.418H15.5505V26.5008C15.468 26.5008 15.402 26.5173 15.3525 26.5505V26.6333H15.2535V26.7327H15.1546C15.1381 26.7492 15.1381 26.7492 15.1216 26.7658V26.8486C15.0721 26.8652 15.0061 26.8652 14.9401 26.8652V26.9645H14.8246V27.0639C14.6926 27.0639 14.5772 27.0474 14.4452 27.0474V26.9977H14.1977V26.8983H14.0987V26.9977H13.9008V27.097H13.0759C13.0759 27.1964 13.0594 27.2958 13.0594 27.3952C12.7459 27.4117 12.5975 27.4946 12.2675 27.4946V27.4117H12.0365V27.3124C11.9706 27.2958 11.9046 27.2958 11.8386 27.2958C11.8221 27.2461 11.8386 27.2461 11.8056 27.213C11.7726 27.1964 11.7561 27.1964 11.7066 27.1964V27.097H11.6076V26.9977H11.5251V26.8983H11.4261V26.7989H11.3272V26.6664H11.2282V26.567C11.0797 26.4842 11.0137 26.2855 10.8322 26.2358C10.8157 26.1861 10.8322 26.1861 10.8157 26.153V26.1364H10.7332C10.7167 26.0867 10.7332 26.0867 10.7167 26.0536C10.6838 26.037 10.6673 26.037 10.6178 26.0204V25.9376C10.5518 25.9376 10.4858 25.9211 10.4198 25.9045V25.8051H9.87538V25.9045C9.82589 25.9211 9.82589 25.9045 9.80939 25.9376H9.77639V26.0204C9.61142 26.037 9.62792 26.1198 9.44645 26.1364V26.2192C9.33096 26.2358 9.23198 26.2358 9.1165 26.2523V26.3351C8.81954 26.3683 8.4401 26.3351 8.14315 26.3351V26.2523H7.7967C7.7967 26.302 7.7802 26.3683 7.76371 26.418C7.71422 26.418 7.64823 26.4345 7.58224 26.4511V26.3683H7.48325V26.2689C7.41726 26.2523 7.35127 26.2523 7.28528 26.2358V26.153C7.1698 26.153 7.07081 26.1364 6.95533 26.1364V26.037H6.85635C6.85635 25.9873 6.85635 25.9873 6.82335 25.9542C6.79036 25.9376 6.79036 25.9376 6.72437 25.9211V25.8217H6.83985V25.7223H6.74087V25.5401H6.5429C6.5429 25.5401 6.5264 25.5236 6.5264 25.507V25.4407H6.42741V25.3082H6.32843V24.712H6.22945C6.17995 24.6292 6.11396 24.6126 6.11396 24.4967H6.01498V24.3807H5.91599V24.2813H5.81701V24.1488H5.71802V24.066C5.65203 24.066 5.56955 24.0495 5.48706 24.0495V23.9501H5.28909V23.8507H5.19011V23.4201H5.09112V23.3207H4.99214V23.2213C4.89315 23.1716 4.77767 23.0557 4.76117 22.9232H4.66219C4.62919 22.8569 4.5797 22.7907 4.49721 22.7741C4.48072 22.7244 4.49721 22.7244 4.46422 22.7079V22.6747H4.39823C4.38173 22.5754 4.36523 22.5919 4.34874 22.4925H4.24975V22.36H4.16727V22.2607H4.24975V22.1613H4.38173C4.38173 22.0122 4.36523 21.8797 4.34874 21.7638H4.26625C4.24975 21.6644 4.24975 21.5484 4.23325 21.4325H3.9363V21.3331H3.83732V21.2338H3.75483V21.1344H3.83732V20.8031H3.75483C3.75483 20.7203 3.77133 20.2565 3.72183 20.1737C3.68884 20.1572 3.67234 20.1572 3.63935 20.1406C3.57336 20.0578 3.58985 19.8756 3.58985 19.7431H3.52387C3.52387 19.5775 3.50737 19.4118 3.49087 19.2462H3.44138C3.42488 19.064 3.42488 18.8984 3.44138 18.7162H3.50737C3.52386 18.5837 3.52386 18.4346 3.54036 18.2855H3.60635V18.1862H3.40838C3.39189 18.0537 3.34239 18.0702 3.3094 17.9874C3.24341 17.8218 3.3259 17.5236 3.34239 17.3911H3.42488C3.42488 17.2421 3.44138 17.0764 3.45788 16.9605H3.52387C3.54036 16.8446 3.54036 16.7452 3.55686 16.6292H3.62285C3.63935 16.5299 3.63935 16.4305 3.65584 16.3311C3.70534 16.3145 3.70534 16.3145 3.73833 16.298H3.77133V16.182H3.87031V15.9999H3.9693V15.8673H4.06828V15.768H4.16727V15.6686H4.26625V15.5858H4.39823V15.6852H4.49721V16.0164H4.5962V16.2152H4.69518V16.3145C4.71168 16.3311 4.71168 16.3311 4.72818 16.3477H4.81067C4.81067 16.3974 4.82716 16.4636 4.82716 16.5299H4.92615V16.6292H5.02513V16.7286H5.12412V16.8446H5.2231V16.9439C5.28909 16.9605 5.33858 16.9605 5.40457 16.9771V17.0599H5.53655V17.1593H5.66853V17.2586H5.76752V17.358H5.8665C5.91599 17.4574 5.98198 17.4408 5.99848 17.5733H6.09747V17.6727C6.16346 17.6893 6.21295 17.6893 6.27894 17.7058C6.27894 17.7555 6.29543 17.8218 6.29543 17.888H6.39442V18.004H6.4934V18.2027H6.59239V18.6334H6.4934C6.4934 18.6996 6.47691 18.7493 6.47691 18.8156C6.41092 18.8156 6.36142 18.8321 6.29543 18.8487V19.0474H6.19645C6.19645 19.1137 6.17995 19.1799 6.17995 19.2462H6.09747C6.09747 19.3456 6.08097 19.445 6.06447 19.5443H5.98198C5.98198 19.7762 5.98198 19.8756 5.98198 20.0909H6.06447C6.08097 20.1903 6.08097 20.2897 6.09747 20.389H6.17995C6.17995 20.4719 6.19645 20.5381 6.19645 20.6209H6.29543V20.7203H6.39442V20.8197H6.4934V20.9191H6.59239V21.1344H6.4934V21.3331H6.39442V21.5319H6.29543C6.27894 21.7306 6.13046 22.0288 6.09747 22.2607H6.17995V22.1613H6.39442V23.2213H6.4934V23.7182C6.5429 23.7348 6.5429 23.7182 6.57589 23.7513C6.62538 23.8176 6.55939 23.9666 6.60889 24.0495C6.62538 24.0495 6.65838 24.066 6.67488 24.066C6.75736 24.1985 6.72437 24.4801 6.72437 24.6623C6.77386 24.6623 6.83985 24.6788 6.90584 24.6788V24.7617H7.54924V24.6954C7.61523 24.6954 7.68122 24.6788 7.74721 24.6788V24.5795H7.84619V24.3642H7.94518C7.94518 24.2482 7.96168 24.1488 7.97817 24.0495H8.06066C8.06066 23.6685 8.17614 23.6023 8.19264 23.2213H8.29163V22.9894H8.39061V22.89H8.78655C8.80305 22.8404 8.78655 22.8404 8.81954 22.8072C8.86904 22.7741 8.95152 22.7741 9.01751 22.7741V22.6747H9.1165V22.5754H9.21548C9.21548 22.5588 9.23198 22.5588 9.24848 22.5422V22.476C9.29797 22.476 9.29797 22.476 9.31447 22.4428H9.33096V22.3766C9.38046 22.3766 9.38046 22.3766 9.41345 22.36H9.44645V22.2607H9.54543V22.1613H9.64442V21.9625H9.7434V21.8631H9.84238V21.7638C9.84238 21.7638 9.85888 21.7472 9.87538 21.7472H9.94137C9.95787 21.6975 9.94137 21.6975 9.97436 21.6644C10.0239 21.6313 10.1063 21.6478 10.1723 21.6478C10.1723 21.5153 10.1723 21.3663 10.2053 21.2669H10.2713V21.1344H10.3703C10.3703 21.1178 10.3868 21.1178 10.4033 21.1178V21.035C10.4528 21.0184 10.4528 21.035 10.4693 21.0184C10.5023 20.9687 10.5023 20.8859 10.5023 20.8197C10.4858 20.7866 10.4858 20.77 10.4693 20.7203C10.6673 20.7037 10.6673 20.6209 10.8982 20.6209V20.5215C10.9642 20.505 11.0302 20.505 11.0962 20.4884C11.1127 20.4387 11.0962 20.4387 11.1127 20.4222C11.1457 20.4056 11.2447 20.4222 11.2942 20.4056C11.3601 20.3559 11.2612 20.3228 11.4261 20.3062C11.4096 20.2068 11.4096 20.1075 11.4096 20.0081H11.3437V19.9087C11.2777 19.8921 11.2117 19.8921 11.1457 19.8921C11.1457 19.8425 11.1457 19.8425 11.1292 19.8093C11.0797 19.7762 11.0137 19.7762 10.9312 19.7762V19.6934C10.7992 19.6934 10.6673 19.6768 10.5353 19.6768V19.5775H10.2053V19.4781H9.97436V19.3787H9.77639V19.2793H9.54543V19.1799H9.44645C9.41345 19.1137 9.39695 19.1468 9.38046 19.0806C9.33096 19.0143 9.39695 18.8487 9.36396 18.7493C9.33096 18.7493 9.31447 18.7327 9.28147 18.7327C9.26497 18.6334 9.24848 18.534 9.23198 18.4346H9.16599V18.3352H9.03401V18.2359H8.93503V18.1365H8.72056V18.0371C8.58858 18.0371 8.4566 18.0205 8.32462 18.0205V17.9377C8.12665 17.9377 7.91218 17.9212 7.69772 17.9046C7.68122 17.8549 7.69772 17.8549 7.66472 17.8383C7.56574 17.7721 7.28528 17.8052 7.1368 17.8052C7.10381 17.7887 7.12031 17.7887 7.07081 17.7721V17.7058H6.93884V17.5071H6.83985C6.83985 17.2421 6.72437 17.2586 6.72437 16.9771H6.64188C6.62538 16.8777 6.62538 16.7617 6.60889 16.6624H6.5099V16.3642H6.41092V16.0495H6.31193V15.7514H6.21295C6.21295 15.6852 6.19645 15.6189 6.19645 15.5527H6.11396C6.11396 15.4698 6.09747 15.4036 6.09747 15.3208H6.01498C6.01498 15.2545 5.99848 15.1883 5.98198 15.122H5.883V14.9233H5.80051V14.857H5.883V14.7576C6.01498 14.7576 6.16346 14.7411 6.29543 14.7245V14.6251H6.4934V14.5257H6.64188V14.4429H6.69137C6.72437 14.4264 6.72437 14.4264 6.79036 14.4264C6.79036 14.3601 6.80686 14.2939 6.82335 14.2276H6.92234V14.1117H7.02132V14.0123C7.12031 14.0289 7.20279 14.0289 7.30178 14.0454C7.31828 14.0785 7.31828 14.0951 7.33477 14.1282H7.87919C8.37411 14.2442 8.98452 14.1282 9.52893 14.1282V14.0454H9.62792V13.7142H9.7269C9.7269 13.6976 9.7434 13.6976 9.7599 13.6976V13.5982C9.80939 13.5817 9.87538 13.5817 9.92487 13.5651C9.97436 13.416 10.1888 13.4492 10.3703 13.4657V13.2835H10.4528C10.4528 13.1841 10.4693 13.0682 10.4693 12.9523C10.5188 12.9357 10.5188 12.9523 10.5518 12.9191C10.6178 12.8032 10.5848 12.4885 10.5683 12.3229C10.5518 12.2897 10.5518 12.2732 10.5518 12.2235C10.3538 12.2069 10.3538 12.1241 10.1228 12.1241V12.1904C9.89188 12.2069 9.66091 12.2069 9.42995 12.2235V12.3229H9.52893V12.4057C9.39695 12.4057 9.26497 12.4223 9.13299 12.4057V12.3229H8.90203V12.4057C8.96802 12.4057 9.03401 12.4223 9.1 12.4223V12.5051C8.98452 12.5713 9.01751 12.6376 8.80305 12.6376V12.5382C8.73706 12.5382 8.68756 12.5216 8.62157 12.5216C8.62157 12.5051 8.58858 12.2732 8.57208 12.2401C8.55558 12.2235 8.52259 12.2235 8.50609 12.2069C8.39061 11.9585 8.50609 11.2628 8.50609 10.9813C8.63807 10.9647 8.77005 10.9647 8.90203 10.9813V11.0807C8.98452 11.0807 9.05051 11.0641 9.13299 11.0475V10.9813C9.42995 10.9481 9.84238 10.9481 10.1558 10.9813V11.0475H10.3538C10.3703 10.915 10.4528 10.8985 10.4858 10.7825C10.5683 10.766 10.6343 10.766 10.7167 10.7494V10.6666C10.8157 10.6666 10.8982 10.65 10.9972 10.65V10.7494H11.1292V10.8488H11.2282V10.9481C11.2777 10.9647 11.2777 10.9481 11.2942 10.9813H11.3107V11.0475H11.4096V10.65H11.5086V10.5672H11.5251Z" fill="#FFF8AC" />
        <path d="M14.2141 11.1966H14.1316V11.296H14.2141V11.1966Z" fill="#FFF8AC" />
        <path d="M21.5884 11.4947H22.7432V11.5941C22.9246 11.5941 23.1556 11.6604 23.1721 11.826C23.2381 11.8425 23.2876 11.8425 23.3536 11.8425C23.3536 11.8922 23.3536 11.8922 23.3701 11.9254V11.9419H23.4526C23.4691 12.0413 23.4856 12.0082 23.5021 12.1241C23.5515 12.1407 23.5515 12.1241 23.5845 12.1572C23.6175 12.1904 23.6175 12.2566 23.6175 12.3394C23.667 12.3394 23.667 12.3394 23.7 12.3726C23.733 12.4057 23.733 12.4885 23.7165 12.5713H23.799C23.8155 12.8198 23.8155 13.151 23.799 13.3995H23.7165C23.7165 13.532 23.7 13.681 23.7 13.8301H23.6175V14.0289H23.5186C23.5021 14.062 23.5021 14.0951 23.4856 14.1448H23.3866V14.2442H23.2876V14.3436H23.1721V14.4264H22.9906V14.5257H22.7432V14.6251C22.6442 14.6417 22.5287 14.6417 22.4132 14.6582V14.7411C22.1163 14.7411 21.7863 14.7411 21.4894 14.7411V14.6582C21.3904 14.6582 21.2914 14.6417 21.1924 14.6251V14.5257H20.9944V14.4264H20.8625V14.327H20.7635V14.2276H20.6645V14.1282L20.648 14.1117H20.582C20.5655 14.0454 20.5655 13.9792 20.549 13.9129H20.483C20.4665 13.8135 20.4665 13.6976 20.45 13.5817H20.384C20.351 13.3498 20.3675 13.0185 20.384 12.7866H20.45C20.45 12.6873 20.4665 12.5713 20.483 12.4554H20.549C20.549 12.3891 20.5655 12.3229 20.582 12.2566C20.6315 12.2401 20.6315 12.2401 20.648 12.2235H20.6645V12.1241H20.7635V12.0247H20.8625V11.9254H20.9614V11.826H21.0604C21.0604 11.8094 21.0769 11.8094 21.0769 11.7929V11.7266C21.1429 11.71 21.2089 11.71 21.2749 11.6935V11.6107C21.3739 11.6107 21.4729 11.5941 21.5719 11.5941L21.5884 11.4947Z" fill="#FFF8AC" />
        <path d="M27.841 14.4264H28.5669C28.5834 14.4264 28.5834 14.4429 28.5999 14.4429V14.5257H28.7979V14.6251H28.9959C28.9959 15.0558 29.0124 15.5692 28.9794 15.9502H28.8969V16.1986H28.7979V16.3974H28.6824C28.6824 16.4636 28.6659 16.5299 28.6659 16.5961C28.6164 16.6127 28.6164 16.5961 28.5834 16.6127H28.5504V16.6955C28.5009 16.7121 28.5009 16.6955 28.4844 16.7286C28.4679 16.7617 28.4679 16.7783 28.4514 16.828H28.3525V16.9274H28.1545V17.0268H28.039V17.1261C27.7915 17.1261 27.874 17.1924 27.7421 17.2586H27.4121C27.4121 17.2752 27.3956 17.3083 27.3791 17.3249C27.2471 17.3911 26.8017 17.3249 26.5872 17.3249V17.2586H26.4882V17.1593H26.3893V17.0433H26.2903C26.2903 16.8446 26.0923 16.563 26.1913 16.3311C26.2078 16.3145 26.2408 16.3145 26.2738 16.298C26.2903 16.1655 26.3068 16.033 26.3233 15.9005H26.4058V15.6686H26.5047C26.5212 15.6023 26.5212 15.5361 26.5377 15.4698H26.6202V15.3705C26.6202 15.3539 26.6367 15.3539 26.6367 15.3373H26.7027V15.2545H26.8017V15.1551H26.9007V15.0558C27.0327 14.9895 27.0327 14.857 27.2306 14.8404V14.7411H27.3296C27.3296 14.6914 27.3296 14.6914 27.3461 14.6582C27.3791 14.6251 27.4616 14.6251 27.5441 14.6251V14.5257H27.841V14.4264Z" fill="#FFF8AC" />
        <path d="M14.8574 15.0558V15.7845H15.0554V15.5858H15.1544V15.4864H15.0554C15.0389 15.3373 15.0389 15.2048 15.0224 15.0558C15.0224 15.0558 14.8574 15.0558 14.8574 15.0558Z" fill="#FFF8AC" />
        <path d="M24.5087 16.7121V16.8446H24.6077V16.9439H24.7067C24.7067 17.0102 24.7232 17.0764 24.7397 17.1427H24.8057C24.8222 17.3746 24.9047 17.739 24.8387 18.004C24.7892 18.1696 24.7232 18.1862 24.7067 18.4015H24.6077V18.6168H24.5087V18.799H24.4098V18.9149H24.5087V19.0143H24.6077V19.1137H24.4098V19.2131C24.3438 19.2296 24.2613 19.2296 24.1953 19.2296V19.329H23.9973V19.4284H23.7993V19.5278H23.6674V19.6271C23.6179 19.6271 23.5519 19.6437 23.4859 19.6437V19.7265H23.3539V19.8259C23.2879 19.8259 23.2219 19.8425 23.156 19.8425C23.156 19.8922 23.1559 19.8922 23.1395 19.9253C23.09 19.9584 22.991 19.9584 22.9085 19.9584V20.0247C22.76 20.0412 22.595 20.0412 22.4631 20.0247V19.9584C22.3806 19.9584 22.3146 19.9418 22.2321 19.9253C22.2321 19.8756 22.2321 19.8756 22.1991 19.8425C22.1661 19.8259 22.1661 19.8259 22.1001 19.8259V19.6437H22.0011V19.5278H21.9186V19.329H21.8197C21.8032 19.2462 21.8032 19.1634 21.7867 19.0806H21.7042C21.7042 18.9812 21.6877 18.8984 21.6877 18.799H21.5887V18.4512H21.5227V18.2027H21.5887C21.5887 17.888 21.6877 17.8052 21.7207 17.5733H21.8032V17.4574H21.9021C21.9021 17.4408 21.9186 17.4408 21.9351 17.4243V17.3249H22.0341C22.0341 17.2586 22.0506 17.2089 22.0506 17.1427C22.1001 17.1427 22.1001 17.1427 22.1331 17.1096H22.1661V17.0433C22.2321 17.0268 22.2816 17.0268 22.3311 17.0268V16.9274H22.4631V16.828C22.529 16.828 22.595 16.8114 22.661 16.8114V16.7452C22.727 16.7286 22.793 16.7286 22.859 16.7121V16.6292C22.958 16.6127 23.057 16.6127 23.156 16.6127C23.2054 16.4305 23.8653 16.4967 24.0963 16.5133C24.1128 16.5961 24.4098 16.7121 24.5087 16.7121Z" fill="#FFF8AC" />
    </g>
</svg>
