<svg width="858" height="858" viewBox="0 0 858 858" fill="none" xmlns="http://www.w3.org/2000/svg">
<path d="M142.062 133.274L135.723 139.57L137.642 144.793L135.232 147.204L126.927 124.166L149.608 132.917L147.152 135.328L142.062 133.274ZM139.071 132.113L131.883 129.256L134.562 136.578L139.071 132.113Z" fill="#5EC1A5"/>
<path d="M137.062 116.085L150.366 122.916L144.697 107.959L158.671 115.549L153.76 101.262L156.304 98.9845L164.028 121.8L150.188 114.299L155.813 129.077L134.473 118.317L137.062 116.085Z" fill="#5EC1A5"/>
<path d="M177.199 102.824L170.189 108.361L171.529 113.763L168.85 115.861L163.18 92.0641L184.744 103.271L182.02 105.414L177.199 102.824ZM174.341 101.306L167.511 97.6451L169.386 105.235L174.341 101.306Z" fill="#5EC1A5"/>
<path d="M187.244 90.5907L197.691 94.0286L194.566 96.261L184.744 92.8231L184.297 93.1356L189.298 100.056L186.753 101.887L174.564 84.9651L177.556 82.8219C179.788 81.2146 181.708 80.4556 183.315 80.5896C185.101 80.7235 186.529 81.5718 187.646 83.0898C188.494 84.2953 188.896 85.5455 188.851 86.9296C188.717 88.3583 188.226 89.5638 187.244 90.5907ZM182.69 90.9479L183.494 90.3674C185.904 88.6262 186.44 86.8403 185.145 84.9651C183.895 83.2238 182.11 83.2238 179.743 84.9204L178.85 85.5901L182.69 90.9479Z" fill="#5EC1A5"/>
<path d="M200.102 92.3766L188.673 74.9193L192.334 72.5083C194.075 71.3474 195.593 70.6331 196.843 70.3205C198.137 69.9634 199.521 69.8741 200.95 70.0973C203.807 70.5438 206.129 72.1511 207.915 74.83C209.656 77.5089 210.147 80.3217 209.344 83.1791C208.942 84.6079 208.317 85.858 207.513 86.8403C206.754 87.7779 205.504 88.8494 203.718 90.0103L200.102 92.3766ZM201.129 88.1797L202.334 87.4207C203.54 86.6617 204.433 85.858 205.058 85.099C205.683 84.34 206.084 83.447 206.352 82.4648C206.888 80.411 206.531 78.4465 205.281 76.5712C204.031 74.6514 202.379 73.5352 200.325 73.178C198.495 72.8655 196.441 73.4459 194.164 74.9193L192.959 75.6783L201.129 88.1797Z" fill="#5EC1A5"/>
<path d="M217.916 60.3194L216.487 62.909C215.639 62.4179 214.969 62.1946 214.478 62.1946C213.942 62.1946 213.362 62.3286 212.737 62.7304C211.978 63.1769 211.487 63.7573 211.263 64.4717C210.995 65.186 211.085 65.8558 211.442 66.4808C211.978 67.3738 213.049 67.6863 214.656 67.4184L216.889 67.1059C218.674 66.838 220.192 66.9273 221.353 67.3738C222.514 67.8203 223.496 68.6686 224.211 69.8741C225.193 71.526 225.461 73.2227 224.97 74.9639C224.523 76.7052 223.452 78.0446 221.8 79.0269C220.237 79.9645 218.674 80.2324 217.112 79.9199C215.549 79.6073 214.165 78.6697 212.915 77.1517L215.281 74.9193C216.04 75.9015 216.665 76.482 217.246 76.7052C218.273 77.1517 219.3 77.0624 220.371 76.4373C221.219 75.9462 221.755 75.2318 221.978 74.3389C222.201 73.4459 222.068 72.553 221.532 71.7046C221.309 71.3475 221.085 71.0796 220.817 70.8117C220.55 70.5884 220.237 70.4098 219.88 70.2759C219.523 70.142 219.121 70.0973 218.674 70.0527C218.228 70.008 217.692 70.0527 217.157 70.142L215.014 70.4545C211.933 70.8563 209.79 70.0973 208.629 68.0882C207.826 66.7487 207.692 65.32 208.183 63.8019C208.674 62.2839 209.701 61.0784 211.219 60.1408C213.362 58.98 215.549 59.0246 217.916 60.3194Z" fill="#5EC1A5"/>
<path d="M233.541 50.2289L231.711 47.0589L234.122 45.8088L235.595 49.1574L238.051 46.4338L239.97 48.3537L237.247 50.8094L240.595 52.2827L239.39 54.6937L236.22 52.8632L235.863 56.5243L233.184 56.1225L233.943 52.5506L230.372 53.3543L229.925 50.6754L233.541 50.2289Z" fill="#5EC1A5"/>
<path d="M269.928 48.8002L261.713 52.3274L261.579 57.9084L258.454 59.2478L259.123 34.7807L277.071 51.2112L273.901 52.5953L269.928 48.8002ZM267.561 46.6124L261.891 41.344L261.713 49.1574L267.561 46.6124Z" fill="#5EC1A5"/>
<path d="M271.535 30.941L281.446 42.1923L281.624 26.2084L291.848 38.3972L292.473 23.3062L295.688 22.1454L294.572 46.2106L284.437 34.1557L284.259 49.9611L268.32 32.1019L271.535 30.941Z" fill="#5EC1A5"/>
<path d="M313.725 33.3074L305.153 35.897L304.394 41.4333L301.135 42.4156L304.572 18.2164L320.556 36.5667L317.252 37.5489L313.725 33.3074ZM311.626 30.8517L306.626 24.9582L305.599 32.6823L311.626 30.8517Z" fill="#5EC1A5"/>
<path d="M327.565 25.6279L336.003 32.6376L332.253 33.5753L324.395 26.7888L323.859 26.9227L325.958 35.1826L322.922 35.9416L317.788 15.7161L321.359 14.8231C324.038 14.1534 326.092 14.1534 327.52 14.8678C329.128 15.6714 330.154 16.9662 330.601 18.7968C330.958 20.2255 330.869 21.5649 330.288 22.8151C329.753 24.0652 328.86 25.0028 327.565 25.6279ZM323.19 24.2438L324.172 23.9759C327.074 23.2616 328.235 21.7882 327.654 19.5558C327.119 17.502 325.467 16.7876 322.654 17.502L321.582 17.7699L323.19 24.2438Z" fill="#5EC1A5"/>
<path d="M338.86 32.0126L334.619 11.5638L338.905 10.6709C340.959 10.2244 342.611 10.1351 343.905 10.269C345.245 10.403 346.584 10.8495 347.79 11.5638C350.29 13.0372 351.852 15.3589 352.522 18.4843C353.192 21.6096 352.611 24.3778 350.781 26.7888C349.888 27.9943 348.861 28.8873 347.745 29.5123C346.673 30.1374 345.111 30.6285 343.057 31.075L338.86 32.0126ZM341.361 28.4854L342.745 28.2175C344.129 27.9496 345.245 27.5478 346.093 27.0567C346.941 26.5656 347.656 25.8958 348.281 25.0922C349.531 23.3956 349.888 21.431 349.442 19.1986C348.995 16.9662 347.834 15.3143 346.048 14.1981C344.441 13.2158 342.343 13.0372 339.709 13.573L338.325 13.8409L341.361 28.4854Z" fill="#5EC1A5"/>
<path d="M367.21 8.70635L364.934 10.6262C364.309 9.8672 363.817 9.42072 363.326 9.24212C362.835 9.01888 362.255 8.97424 361.54 9.10818C360.692 9.24212 360.023 9.59931 359.531 10.1797C359.04 10.7602 358.862 11.3852 358.951 12.1442C359.13 13.1711 359.978 13.8409 361.585 14.198L363.773 14.6892C365.559 15.091 366.898 15.7161 367.836 16.5644C368.773 17.4127 369.353 18.5289 369.577 19.9576C369.889 21.8329 369.487 23.5295 368.416 24.9582C367.344 26.3869 365.871 27.2799 363.996 27.5924C362.21 27.8603 360.648 27.5924 359.308 26.6995C357.969 25.8065 357.031 24.4671 356.451 22.5919L359.487 21.3864C359.844 22.5919 360.201 23.3509 360.648 23.7974C361.451 24.601 362.433 24.8689 363.683 24.6903C364.666 24.5564 365.425 24.0652 365.96 23.3062C366.496 22.5472 366.675 21.6989 366.541 20.672C366.496 20.2702 366.362 19.913 366.184 19.6005C366.005 19.2879 365.782 19.02 365.514 18.7521C365.246 18.5289 364.889 18.3057 364.487 18.1271C364.085 17.9485 363.594 17.7699 363.058 17.6359L360.915 17.1448C357.924 16.3858 356.228 14.8678 355.826 12.5907C355.558 11.028 355.96 9.64396 356.987 8.43846C358.013 7.18832 359.397 6.4293 361.139 6.16141C363.46 5.75958 365.514 6.60789 367.21 8.70635Z" fill="#5EC1A5"/>
<path d="M389.042 8.88494C390.203 8.79564 391.23 9.10818 392.123 9.91184C393.016 10.6709 393.552 11.6531 393.641 12.8586C393.775 14.0641 393.418 15.1357 392.659 16.0733C391.9 17.0109 390.917 17.5466 389.757 17.6359C388.596 17.7252 387.524 17.4127 386.587 16.6537C385.694 15.85 385.158 14.8678 385.024 13.7069C384.89 12.5014 385.247 11.4299 386.006 10.4923C386.855 9.55466 387.837 9.01888 389.042 8.88494Z" fill="#5EC1A5"/>
<path d="M423.598 17.0109L414.669 17.2341L412.437 22.324L409.043 22.4133L418.865 0L429.357 21.9222L425.919 22.0114L423.598 17.0109ZM422.214 14.0641L418.955 7.05438L415.874 14.2427L422.214 14.0641Z" fill="#5EC1A5"/>
<path d="M431.768 1.07158L436.769 15.1803L442.885 0.401855L447.841 15.5375L454.091 1.78594L457.529 1.87524L447.484 23.7527L442.572 8.79567L436.501 23.3956L428.331 0.937631L431.768 1.07158Z" fill="#5EC1A5"/>
<path d="M470.029 18.9754L461.145 18.1717L458.376 23.0383L454.983 22.7258L467.216 1.51801L475.208 24.4671L471.77 24.1545L470.029 18.9754ZM469.002 15.9393L466.547 8.61703L462.707 15.4035L469.002 15.9393Z" fill="#5EC1A5"/>
<path d="M485.745 17.0109L490.968 26.6995L487.129 26.2083L482.352 16.9662L481.771 16.8769L480.655 25.36L477.53 24.9582L480.298 4.28619L483.959 4.77732C486.682 5.1345 488.602 5.93817 489.673 7.09902C490.879 8.43845 491.325 10.0011 491.057 11.8763C490.879 13.3497 490.254 14.5552 489.272 15.4928C488.379 16.3858 487.173 16.9216 485.745 17.0109ZM482.173 14.1087L483.155 14.2427C486.102 14.6445 487.754 13.7069 488.021 11.4299C488.289 9.33141 486.995 8.08127 484.137 7.67944L483.021 7.54549L482.173 14.1087Z" fill="#5EC1A5"/>
<path d="M493.87 27.146L497.576 6.60791L501.906 7.36693C503.96 7.72411 505.567 8.21524 506.683 8.84031C507.889 9.46538 508.96 10.3583 509.809 11.5192C511.594 13.8409 512.175 16.5644 511.639 19.7344C511.059 22.9044 509.496 25.2261 506.951 26.7888C505.657 27.5478 504.362 28.0389 503.112 28.2175C501.906 28.3961 500.254 28.3068 498.201 27.905L493.87 27.146ZM497.486 24.7796L498.87 25.0475C500.254 25.3154 501.46 25.3601 502.442 25.2261C503.424 25.0922 504.362 24.735 505.21 24.1992C506.996 23.083 508.067 21.3864 508.469 19.154C508.871 16.9216 508.469 14.9571 507.175 13.2605C506.058 11.7871 504.139 10.7602 501.505 10.3137L500.121 10.0458L497.486 24.7796Z" fill="#5EC1A5"/>
<path d="M528.827 16.0733L526.015 16.9662C525.747 16.0733 525.39 15.4035 525.032 15.091C524.675 14.6892 524.139 14.4213 523.425 14.2873C522.577 14.1088 521.818 14.198 521.148 14.5552C520.479 14.9124 520.077 15.4482 519.898 16.1626C519.675 17.1448 520.211 18.1271 521.55 19.0647L523.381 20.3595C524.898 21.3864 525.925 22.5026 526.461 23.6188C526.997 24.735 527.131 26.0298 526.818 27.4138C526.416 29.2891 525.434 30.6731 523.916 31.6554C522.398 32.593 520.702 32.8609 518.827 32.4591C517.041 32.0572 515.701 31.2089 514.809 29.9141C513.916 28.6193 513.514 26.9674 513.692 25.0029H516.952C516.818 26.2084 516.862 27.1013 517.13 27.6371C517.577 28.664 518.38 29.2891 519.586 29.6016C520.523 29.8248 521.416 29.6909 522.175 29.1551C522.934 28.664 523.47 27.905 523.693 26.9227C523.782 26.5209 523.827 26.1637 523.782 25.8065C523.738 25.4493 523.648 25.0922 523.47 24.7796C523.291 24.4671 523.068 24.1099 522.755 23.7974C522.443 23.4848 522.041 23.1276 521.595 22.8151L519.809 21.565C517.309 19.779 516.282 17.7252 516.773 15.4482C517.13 13.9302 517.978 12.7693 519.407 12.0103C520.791 11.2513 522.398 11.028 524.139 11.4299C526.416 11.921 528.024 13.4837 528.827 16.0733Z" fill="#5EC1A5"/>
<path d="M547.132 19.5111L547.936 15.9393L550.525 16.6983L549.275 20.1362L552.936 19.8237L553.026 22.5472L549.365 22.4579L550.793 25.8512L548.248 26.7888L547.222 23.2616L544.454 25.6726L542.802 23.5295L545.838 21.4756L542.712 19.6004L544.23 17.368L547.132 19.5111Z" fill="#5EC1A5"/>
<path d="M574.5 43.4425L566.106 40.3618L562.178 44.3354L559.008 43.1746L576.33 25.8958L578.072 50.1397L574.812 48.9788L574.5 43.4425ZM574.321 40.1832L573.83 32.4591L568.339 37.9954L574.321 40.1832Z" fill="#5EC1A5"/>
<path d="M587.983 31.5661L587.447 46.5232L598.564 35.0486L597.627 50.9433L608.431 40.4064L611.556 41.7458L594.189 58.4442L595.126 42.7281L584.144 54.1133L584.813 30.2267L587.983 31.5661Z" fill="#5EC1A5"/>
<path d="M617.003 62.2839L609.011 58.3103L604.68 61.7928L601.645 60.2748L620.798 45.0498L619.771 69.3383L616.69 67.7756L617.003 62.2839ZM617.137 59.0693L617.538 51.3452L611.467 56.2564L617.137 59.0693Z" fill="#5EC1A5"/>
<path d="M632.316 66.2129L633.611 77.107L630.263 75.2318L629.236 64.8735L628.745 64.6056L624.593 72.0618L621.825 70.5438L632.004 52.3274L635.218 54.1133C637.629 55.4528 639.103 56.8815 639.683 58.3995C640.308 60.0515 640.129 61.7035 639.237 63.3554C638.522 64.6502 637.54 65.5432 636.29 66.079C635.04 66.6147 633.7 66.6594 632.316 66.2129ZM630.084 62.2392L630.977 62.7304C633.567 64.2038 635.442 63.9359 636.558 61.9267C637.585 60.0515 636.87 58.4442 634.325 57.0154L633.343 56.4797L630.084 62.2392Z" fill="#5EC1A5"/>
<path d="M636.156 78.6251L647.139 60.8552L650.845 63.1769C652.63 64.2931 653.925 65.32 654.729 66.3023C655.622 67.3292 656.291 68.5347 656.649 69.9188C657.452 72.7316 657.006 75.4998 655.309 78.2233C653.613 80.9468 651.291 82.5541 648.344 83.0899C646.871 83.3578 645.487 83.3131 644.237 83.0006C643.032 82.7327 641.558 82.0184 639.773 80.9022L636.156 78.6251ZM640.398 77.7768L641.603 78.5358C642.808 79.2948 643.88 79.786 644.818 80.0092C645.8 80.2324 646.782 80.2324 647.764 80.0538C649.818 79.652 651.47 78.4912 652.63 76.5713C653.836 74.6068 654.148 72.6423 653.613 70.6331C653.122 68.8472 651.693 67.2399 649.416 65.8111L648.211 65.0521L640.398 77.7768Z" fill="#5EC1A5"/>
<path d="M672.765 81.17L669.819 80.9914C669.908 80.0538 669.819 79.3394 669.595 78.8929C669.372 78.4018 668.97 77.9553 668.39 77.5535C667.676 77.0624 666.917 76.8391 666.158 76.9284C665.399 77.0177 664.818 77.3303 664.416 77.9553C663.836 78.8037 664.015 79.9198 664.908 81.2593L666.158 83.1345C667.184 84.6525 667.72 86.0366 667.809 87.2868C667.899 88.5369 667.542 89.7424 666.738 90.9479C665.666 92.5552 664.238 93.4928 662.497 93.8054C660.711 94.1179 659.059 93.7607 657.452 92.6892C655.934 91.6623 655.041 90.3675 654.639 88.8494C654.282 87.2868 654.55 85.6348 655.398 83.8935L658.434 85.099C657.853 86.2152 657.586 87.0189 657.63 87.6439C657.675 88.7601 658.166 89.6531 659.237 90.3675C660.041 90.9032 660.889 91.1265 661.827 90.9479C662.72 90.7693 663.479 90.2782 664.059 89.4299C664.282 89.0727 664.461 88.7601 664.55 88.403C664.64 88.0458 664.684 87.6886 664.64 87.3314C664.595 86.9742 664.506 86.5724 664.327 86.1706C664.149 85.7687 663.925 85.3223 663.613 84.8311L662.407 83.0006C660.711 80.411 660.532 78.1339 661.827 76.2141C662.72 74.9193 663.925 74.1603 665.533 73.9817C667.14 73.7584 668.658 74.1603 670.131 75.1872C672.051 76.4373 672.944 78.4465 672.765 81.17Z" fill="#5EC1A5"/>
<path d="M688.481 96.261C689.373 96.9754 689.909 97.913 690.043 99.1185C690.177 100.324 689.865 101.396 689.15 102.333C688.391 103.315 687.409 103.851 686.248 104.03C685.043 104.208 684.016 103.896 683.078 103.181C682.141 102.467 681.605 101.485 681.471 100.279C681.337 99.0739 681.65 98.0023 682.364 97.0647C683.123 96.0824 684.105 95.5467 685.266 95.4127C686.472 95.2341 687.543 95.5467 688.481 96.261Z" fill="#5EC1A5"/>
<path d="M701.695 120.192L694.954 114.343L689.864 116.665L687.319 114.433L709.642 104.432L702.677 127.738L700.088 125.505L701.695 120.192ZM702.677 117.112L704.999 109.7L697.9 112.959L702.677 117.112Z" fill="#5EC1A5"/>
<path d="M718.482 113.852L712.678 127.649L727.143 120.862L720.625 135.373L734.465 129.345L736.921 131.712L714.776 141.177L721.205 126.8L706.874 133.542L715.937 111.441L718.482 113.852Z" fill="#5EC1A5"/>
<path d="M734.733 152.875L728.661 146.311L723.348 148.053L721.027 145.552L744.332 138.096L734.778 160.465L732.456 157.92L734.733 152.875ZM736.028 149.928L739.153 142.829L731.742 145.24L736.028 149.928Z" fill="#5EC1A5"/>
<path d="M747.681 161.983L745.047 172.654L742.547 169.707L745.225 159.661L744.868 159.215L738.35 164.706L736.341 162.295L752.279 148.856L754.645 151.669C756.431 153.768 757.324 155.643 757.324 157.25C757.324 159.036 756.565 160.509 755.137 161.76C754.02 162.697 752.77 163.188 751.386 163.233C750.002 163.278 748.842 162.831 747.681 161.983ZM747.011 157.429L747.636 158.188C749.556 160.465 751.386 160.867 753.128 159.393C754.779 158.009 754.645 156.223 752.77 153.991L752.056 153.143L747.011 157.429Z" fill="#5EC1A5"/>
<path d="M746.877 174.931L763.396 162.206L766.075 165.689C767.369 167.341 768.218 168.814 768.619 170.019C769.11 171.314 769.289 172.654 769.155 174.082C768.932 176.985 767.503 179.396 765.003 181.36C762.458 183.325 759.735 183.994 756.788 183.459C755.315 183.191 754.065 182.655 752.993 181.896C751.967 181.226 750.85 180.021 749.556 178.369L746.877 174.931ZM751.163 175.6L752.011 176.717C752.859 177.833 753.708 178.681 754.511 179.262C755.315 179.797 756.253 180.199 757.235 180.378C759.288 180.735 761.253 180.244 763.039 178.86C764.869 177.476 765.851 175.734 766.03 173.636C766.209 171.761 765.45 169.752 763.842 167.653L762.994 166.537L751.163 175.6Z" fill="#5EC1A5"/>
<path d="M780.227 190.2L777.504 188.995C777.906 188.147 778.084 187.432 778.04 186.941C777.995 186.405 777.817 185.869 777.37 185.244C776.879 184.53 776.254 184.084 775.495 183.905C774.781 183.726 774.111 183.816 773.486 184.262C772.638 184.843 772.414 185.959 772.772 187.521L773.263 189.709C773.664 191.495 773.709 192.969 773.352 194.174C772.995 195.379 772.236 196.406 771.075 197.21C769.512 198.326 767.861 198.683 766.075 198.371C764.289 198.058 762.86 197.076 761.789 195.513C760.762 194.04 760.315 192.477 760.539 190.915C760.762 189.352 761.565 187.879 762.994 186.539L765.405 188.727C764.467 189.531 763.932 190.245 763.753 190.825C763.396 191.852 763.575 192.924 764.289 193.906C764.869 194.71 765.584 195.201 766.521 195.335C767.414 195.469 768.307 195.29 769.111 194.71C769.423 194.487 769.736 194.219 769.914 193.951C770.137 193.683 770.271 193.326 770.361 192.969C770.45 192.611 770.495 192.209 770.495 191.763C770.495 191.317 770.405 190.825 770.316 190.245L769.825 188.102C769.155 185.066 769.78 182.878 771.7 181.539C772.995 180.646 774.379 180.378 775.941 180.735C777.504 181.092 778.799 182.03 779.826 183.458C781.254 185.557 781.388 187.745 780.227 190.2Z" fill="#5EC1A5"/>
<path d="M791.478 205.023L794.469 202.925L795.898 205.247L792.683 206.988L795.585 209.22L793.844 211.274L791.21 208.729L790.005 212.167L787.505 211.14L789.067 207.836L785.406 207.792L785.629 205.068L789.246 205.559L788.174 202.032L790.808 201.407L791.478 205.023Z" fill="#5EC1A5"/>
<path d="M795.719 241.188L791.567 233.286L785.986 233.598L784.424 230.607L808.845 229.401L793.844 248.555L792.237 245.519L795.719 241.188ZM797.773 238.643L802.595 232.616L794.826 233.062L797.773 238.643Z" fill="#5EC1A5"/>
<path d="M813.667 241.412L803.22 252.127L819.203 251.1L807.863 262.262L822.953 261.726L824.382 264.852L800.318 265.566L811.524 254.538L795.719 255.61L812.238 238.331L813.667 241.412Z" fill="#5EC1A5"/>
<path d="M814.56 283.649L811.301 275.344L805.72 275.031L804.47 271.861L828.891 273.424L811.837 290.748L810.587 287.533L814.56 283.649ZM816.882 281.371L822.373 275.924L814.605 275.478L816.882 281.371Z" fill="#5EC1A5"/>
<path d="M823.311 296.864L816.971 305.839L815.721 302.177L821.882 293.784L821.703 293.248L813.623 295.971L812.596 292.98L832.374 286.283L833.535 289.765C834.427 292.4 834.561 294.409 833.981 295.927C833.311 297.579 832.106 298.695 830.32 299.32C828.936 299.811 827.597 299.811 826.302 299.32C825.052 298.918 824.025 298.07 823.311 296.864ZM824.338 292.4L824.65 293.337C825.588 296.15 827.15 297.222 829.338 296.463C831.347 295.793 831.927 294.052 830.99 291.328L830.633 290.256L824.338 292.4Z" fill="#5EC1A5"/>
<path d="M817.819 308.607L837.865 302.803L839.071 306.999C839.651 309.009 839.919 310.661 839.874 311.955C839.83 313.339 839.517 314.634 838.892 315.929C837.597 318.563 835.41 320.305 832.329 321.197C829.249 322.09 826.436 321.733 823.936 320.126C822.686 319.322 821.704 318.385 820.945 317.313C820.275 316.331 819.605 314.813 819.025 312.759L817.819 308.607ZM821.525 310.839L821.927 312.223C822.329 313.563 822.775 314.679 823.355 315.483C823.936 316.286 824.65 316.956 825.498 317.492C827.284 318.608 829.293 318.831 831.436 318.206C833.624 317.581 835.187 316.331 836.169 314.456C837.017 312.759 837.062 310.661 836.303 308.071L835.901 306.687L821.525 310.839Z" fill="#5EC1A5"/>
<path d="M843.222 335.083L841.169 332.94C841.883 332.27 842.285 331.69 842.419 331.243C842.597 330.752 842.597 330.127 842.419 329.457C842.195 328.609 841.794 327.939 841.169 327.537C840.544 327.091 839.919 326.957 839.16 327.136C838.177 327.359 837.552 328.297 837.284 329.904L836.927 332.136C836.659 333.922 836.124 335.351 835.365 336.333C834.606 337.315 833.49 337.985 832.106 338.342C830.23 338.789 828.534 338.521 827.016 337.583C825.498 336.646 824.516 335.217 824.069 333.342C823.623 331.6 823.801 329.993 824.56 328.609C825.319 327.225 826.614 326.153 828.445 325.439L829.873 328.386C828.713 328.832 827.953 329.279 827.596 329.725C826.882 330.574 826.659 331.6 826.927 332.806C827.15 333.744 827.686 334.458 828.445 334.949C829.248 335.44 830.141 335.529 831.123 335.306C831.525 335.217 831.882 335.083 832.15 334.86C832.463 334.681 832.731 334.413 832.954 334.145C833.177 333.833 833.356 333.476 833.49 333.074C833.624 332.627 833.757 332.136 833.847 331.6L834.204 329.457C834.695 326.377 836.079 324.591 838.356 324.055C839.874 323.698 841.303 323.966 842.597 324.859C843.892 325.796 844.785 327.091 845.187 328.832C845.901 331.109 845.187 333.208 843.222 335.083Z" fill="#5EC1A5"/>
<path d="M844.74 356.871C844.919 357.987 844.696 359.059 843.981 360.041C843.267 361.024 842.329 361.604 841.168 361.783C839.963 362.006 838.847 361.738 837.909 361.068C836.927 360.398 836.347 359.461 836.124 358.3C835.945 357.139 836.168 356.068 836.882 355.085C837.597 354.103 838.534 353.523 839.74 353.299C840.945 353.076 842.061 353.344 842.999 354.014C843.937 354.728 844.517 355.666 844.74 356.871Z" fill="#5EC1A5"/>
<path d="M838.445 383.437L837.374 374.552L832.061 372.855L831.659 369.507L854.92 377.097L834.115 389.643L833.713 386.205L838.445 383.437ZM841.213 381.785L847.865 377.856L840.41 375.489L841.213 381.785Z" fill="#5EC1A5"/>
<path d="M855.098 390.045L841.526 396.34L856.839 401.028L842.24 407.413L856.527 412.279L856.75 415.673L834.025 407.77L848.446 401.475L833.311 396.831L854.92 386.562L855.098 390.045Z" fill="#5EC1A5"/>
<path d="M840.945 429.826L840.811 420.896L835.722 418.664L835.677 415.271L858 425.227L835.99 435.541L835.945 432.103L840.945 429.826ZM843.892 428.531L850.946 425.317L843.803 422.191L843.892 428.531Z" fill="#5EC1A5"/>
<path d="M844.428 445.319L835.32 451.48L835.454 447.641L844.204 441.97V441.39L835.677 441.077L835.811 437.907L856.661 438.666L856.527 442.372C856.437 445.14 855.857 447.105 854.741 448.266C853.535 449.56 851.973 450.185 850.098 450.141C848.624 450.096 847.374 449.605 846.347 448.757C845.32 447.908 844.651 446.703 844.428 445.319ZM846.928 441.479L846.883 442.461C846.794 445.453 847.865 446.971 850.142 447.06C852.285 447.149 853.401 445.721 853.491 442.819L853.535 441.702L846.928 441.479Z" fill="#5EC1A5"/>
<path d="M835.141 454.338L855.946 455.99L855.589 460.365C855.41 462.464 855.098 464.116 854.562 465.276C854.071 466.527 853.267 467.687 852.196 468.67C850.053 470.679 847.419 471.527 844.204 471.259C840.99 470.991 838.489 469.697 836.704 467.286C835.811 466.08 835.23 464.83 834.918 463.58C834.605 462.419 834.561 460.767 834.739 458.624L835.141 454.338ZM837.82 457.731L837.686 459.16C837.552 460.588 837.641 461.749 837.864 462.732C838.088 463.669 838.534 464.562 839.159 465.366C840.454 467.018 842.24 467.955 844.472 468.134C846.749 468.313 848.669 467.687 850.187 466.303C851.571 465.009 852.374 463.044 852.553 460.365L852.687 458.936L837.82 457.731Z" fill="#5EC1A5"/>
<path d="M849.562 488.047L848.357 485.323C849.25 484.966 849.83 484.564 850.143 484.163C850.5 483.761 850.679 483.18 850.768 482.466C850.857 481.618 850.723 480.859 850.277 480.234C849.875 479.608 849.295 479.251 848.58 479.162C847.553 479.028 846.66 479.698 845.857 481.127L844.741 483.091C843.848 484.698 842.866 485.815 841.794 486.484C840.723 487.154 839.472 487.377 838.044 487.199C836.124 486.975 834.651 486.127 833.579 484.698C832.508 483.27 832.061 481.618 832.285 479.698C832.508 477.912 833.222 476.483 834.428 475.456C835.633 474.429 837.24 473.894 839.205 473.849L839.517 477.108C838.267 477.108 837.419 477.242 836.883 477.555C835.901 478.09 835.365 478.983 835.186 480.189C835.053 481.171 835.276 482.019 835.856 482.734C836.437 483.448 837.196 483.895 838.222 484.029C838.624 484.073 838.981 484.073 839.339 483.984C839.696 483.895 840.008 483.761 840.321 483.582C840.633 483.359 840.946 483.091 841.214 482.779C841.526 482.421 841.794 482.019 842.107 481.528L843.178 479.653C844.741 476.974 846.66 475.769 848.982 476.037C850.545 476.215 851.75 476.974 852.643 478.314C853.536 479.653 853.893 481.171 853.67 482.957C853.447 485.279 852.063 487.02 849.562 488.047Z" fill="#5EC1A5"/>
<path d="M847.955 506.62L851.571 507.112L851.08 509.791L847.553 508.898L848.223 512.514L845.544 512.871L845.276 509.21L842.062 510.951L840.901 508.496L844.294 507.112L841.615 504.611L843.58 502.736L845.946 505.549L847.508 502.245L849.875 503.54L847.955 506.62Z" fill="#5EC1A5"/>
<path d="M826.837 536.222L829.069 527.56L824.739 524.033L825.587 520.729L844.517 536.267L820.542 540.374L821.39 537.026L826.837 536.222ZM830.007 535.731L837.641 534.481L831.569 529.57L830.007 535.731Z" fill="#5EC1A5"/>
<path d="M839.918 548.456L824.962 549.393L837.508 559.35L821.614 559.975L833.132 569.708L832.105 572.967L813.801 557.341L829.516 556.716L817.105 546.893L840.945 545.196L839.918 548.456Z" fill="#5EC1A5"/>
<path d="M812.194 580.334L815.408 571.985L811.524 568.011L812.729 564.841L829.739 582.433L805.452 583.817L806.702 580.602L812.194 580.334ZM815.453 580.2L823.176 579.843L817.73 574.262L815.453 580.2Z" fill="#5EC1A5"/>
<path d="M809.783 596.006L799.068 598.372L800.586 594.845L810.81 592.791L811.033 592.255L803.22 588.862L804.47 585.96L823.623 594.309L822.15 597.702C821.034 600.247 819.783 601.855 818.355 602.569C816.748 603.328 815.096 603.373 813.354 602.614C812.015 602.033 810.988 601.14 810.363 599.935C809.694 598.729 809.515 597.39 809.783 596.006ZM813.578 593.371L813.176 594.309C811.97 597.033 812.417 598.863 814.515 599.756C816.48 600.604 818.042 599.711 819.203 597.033L819.65 596.006L813.578 593.371Z" fill="#5EC1A5"/>
<path d="M797.818 601.051L816.569 610.249L814.649 614.177C813.711 616.053 812.818 617.481 811.881 618.374C810.943 619.357 809.783 620.116 808.443 620.651C805.72 621.723 802.952 621.544 800.05 620.16C797.148 618.732 795.317 616.588 794.558 613.731C794.157 612.302 794.067 610.918 794.246 609.623C794.424 608.418 794.96 606.855 795.898 604.98L797.818 601.051ZM799.112 605.159L798.487 606.453C797.862 607.704 797.46 608.864 797.326 609.802C797.193 610.784 797.282 611.767 797.55 612.749C798.13 614.758 799.469 616.276 801.478 617.258C803.532 618.285 805.541 618.374 807.506 617.66C809.247 616.99 810.72 615.428 811.881 613.017L812.506 611.722L799.112 605.159Z" fill="#5EC1A5"/>
<path d="M798.889 637.707L798.8 634.76C799.738 634.76 800.452 634.582 800.898 634.358C801.345 634.09 801.791 633.644 802.104 633.019C802.506 632.26 802.64 631.501 802.506 630.742C802.372 629.983 801.97 629.447 801.3 629.09C800.407 628.599 799.336 628.867 798.041 629.894L796.3 631.322C794.871 632.483 793.576 633.153 792.326 633.376C791.076 633.599 789.826 633.376 788.576 632.662C786.88 631.724 785.808 630.429 785.317 628.688C784.826 626.947 785.049 625.25 785.942 623.554C786.79 621.946 787.996 620.919 789.514 620.384C791.032 619.892 792.684 619.982 794.514 620.651L793.621 623.777C792.46 623.33 791.612 623.152 791.032 623.241C789.916 623.375 789.067 624 788.487 625.072C787.996 625.92 787.907 626.813 788.174 627.706C788.442 628.599 789.023 629.268 789.916 629.76C790.273 629.938 790.63 630.072 790.987 630.161C791.344 630.251 791.701 630.206 792.059 630.161C792.416 630.072 792.818 629.938 793.219 629.715C793.621 629.492 794.023 629.224 794.469 628.867L796.166 627.483C798.577 625.563 800.809 625.161 802.863 626.277C804.247 627.036 805.095 628.197 805.452 629.76C805.809 631.322 805.542 632.885 804.693 634.448C803.532 636.546 801.568 637.618 798.889 637.707Z" fill="#5EC1A5"/>
<path d="M785.362 654.852C784.737 655.834 783.844 656.414 782.683 656.682C781.522 656.95 780.406 656.727 779.424 656.102C778.397 655.432 777.727 654.539 777.459 653.378C777.192 652.218 777.37 651.146 777.995 650.119C778.62 649.137 779.513 648.512 780.719 648.244C781.879 648.021 782.995 648.199 784.022 648.824C785.049 649.494 785.719 650.387 785.987 651.548C786.21 652.709 786.031 653.825 785.362 654.852Z" fill="#5EC1A5"/>
<path d="M762.86 670.3L768.039 663.022L765.226 658.2L767.191 655.432L779.335 676.685L755.494 671.997L757.503 669.184L762.86 670.3ZM766.03 670.97L773.62 672.532L769.691 665.79L766.03 670.97Z" fill="#5EC1A5"/>
<path d="M770.762 686.373L756.475 681.953L764.645 695.705L749.555 690.659L756.877 703.875L754.734 706.554L743.171 685.436L758.083 690.436L750.002 676.863L772.905 683.739L770.762 686.373Z" fill="#5EC1A5"/>
<path d="M733.528 706.376L739.466 699.723L737.233 694.633L739.51 692.088L749.199 714.546L726.027 707.224L728.304 704.634L733.528 706.376ZM736.608 707.358L743.975 709.769L740.85 702.625L736.608 707.358Z" fill="#5EC1A5"/>
<path d="M725.715 720.127L714.821 718.52L717.5 715.752L727.769 717.448L728.17 717.046L722.054 711.064L724.241 708.831L739.198 723.386L736.608 726.021C734.689 727.985 732.903 729.057 731.34 729.191C729.554 729.369 727.992 728.789 726.652 727.449C725.581 726.422 725 725.217 724.822 723.878C724.688 722.627 725 721.333 725.715 720.127ZM730.179 719.011L729.465 719.725C727.367 721.868 727.143 723.744 728.795 725.306C730.313 726.78 732.099 726.512 734.108 724.413L734.912 723.61L730.179 719.011Z" fill="#5EC1A5"/>
<path d="M712.768 720.618L727.054 735.843L723.84 738.835C722.322 740.263 720.938 741.246 719.777 741.781C718.527 742.362 717.232 742.674 715.759 742.719C712.857 742.764 710.312 741.603 708.125 739.281C705.937 736.959 704.955 734.281 705.267 731.289C705.401 729.816 705.803 728.476 706.428 727.36C707.008 726.288 708.08 725.038 709.598 723.565L712.768 720.618ZM712.5 724.904L711.473 725.887C710.446 726.869 709.687 727.762 709.196 728.61C708.75 729.503 708.437 730.441 708.348 731.423C708.169 733.521 708.884 735.397 710.446 737.049C712.009 738.701 713.839 739.549 715.937 739.549C717.813 739.549 719.732 738.611 721.697 736.781L722.724 735.799L712.5 724.904Z" fill="#5EC1A5"/>
<path d="M700.803 755.265L701.74 752.452C702.633 752.765 703.348 752.899 703.839 752.809C704.374 752.72 704.91 752.452 705.446 752.006C706.116 751.425 706.517 750.756 706.607 750.041C706.741 749.282 706.562 748.657 706.071 748.077C705.401 747.318 704.285 747.184 702.767 747.675L700.624 748.389C698.883 748.97 697.41 749.148 696.16 748.925C694.91 748.702 693.838 748.032 692.9 746.916C691.65 745.443 691.115 743.835 691.249 742.049C691.382 740.263 692.186 738.745 693.659 737.495C695.043 736.334 696.517 735.754 698.124 735.799C699.687 735.843 701.249 736.513 702.722 737.808L700.758 740.397C699.865 739.549 699.106 739.103 698.526 738.969C697.454 738.701 696.427 738.969 695.49 739.772C694.731 740.397 694.329 741.201 694.284 742.094C694.24 742.987 694.508 743.88 695.177 744.639C695.445 744.951 695.713 745.175 696.026 745.353C696.338 745.532 696.651 745.666 697.052 745.71C697.454 745.755 697.811 745.755 698.258 745.71C698.704 745.666 699.195 745.532 699.731 745.353L701.785 744.684C704.732 743.746 706.964 744.148 708.482 745.889C709.509 747.095 709.91 748.479 709.687 750.041C709.464 751.649 708.705 752.988 707.321 754.149C705.535 755.846 703.347 756.158 700.803 755.265Z" fill="#5EC1A5"/>
<path d="M687.141 767.9L689.508 770.669L687.365 772.321L685.311 769.285L683.391 772.41L681.159 770.847L683.436 767.99L679.864 767.141L680.668 764.552L684.106 765.802L683.793 762.141L686.516 762.096L686.383 765.757L689.776 764.373L690.669 766.918L687.141 767.9Z" fill="#5EC1A5"/>
<path d="M651.603 775.669L659.059 770.758L658.211 765.266L661.023 763.391L664.595 787.59L644.058 774.553L646.915 772.678L651.603 775.669ZM654.282 777.41L660.756 781.652L659.55 773.928L654.282 777.41Z" fill="#5EC1A5"/>
<path d="M653.121 793.528L641.424 784.197L644.013 800.002L631.78 789.778L633.789 804.735L630.843 806.432L627.762 782.545L639.817 792.635L637.227 777.009L656.068 791.742L653.121 793.528Z" fill="#5EC1A5"/>
<path d="M611.154 798.573L619.101 794.511L618.878 788.93L621.914 787.411L622.762 811.879L603.833 796.609L606.913 795.046L611.154 798.573ZM613.61 800.627L619.592 805.539L619.28 797.725L613.61 800.627Z" fill="#5EC1A5"/>
<path d="M598.832 808.575L589.278 803.128L592.805 801.52L601.734 806.833L602.27 806.61L598.743 798.841L601.6 797.547L610.172 816.567L606.824 818.085C604.323 819.201 602.27 819.558 600.752 819.112C599.055 818.621 597.805 817.504 597.002 815.763C596.376 814.424 596.243 813.084 596.6 811.745C596.957 810.495 597.716 809.378 598.832 808.575ZM603.386 809.111L602.493 809.512C599.77 810.762 598.877 812.414 599.814 814.468C600.707 816.433 602.448 816.79 605.082 815.584L606.109 815.138L603.386 809.111Z" fill="#5EC1A5"/>
<path d="M569.098 816.477L577.447 813.352L577.848 807.771L581.018 806.566L579.143 830.943L562.044 813.665L565.258 812.459L569.098 816.477ZM571.33 818.799L576.732 824.38L577.268 816.611L571.33 818.799Z" fill="#5EC1A5"/>
<path d="M566.598 834.247L557.267 822.55L556.285 838.533L546.641 825.853L545.257 840.9L541.998 841.927L544.32 817.951L553.829 830.497L554.767 814.691L569.812 833.265L566.598 834.247Z" fill="#5EC1A5"/>
<path d="M524.586 829.782L533.247 827.639L534.274 822.148L537.578 821.344L532.935 845.365L517.889 826.255L521.238 825.407L524.586 829.782ZM526.55 832.327L531.283 838.444L532.711 830.765L526.55 832.327Z" fill="#5EC1A5"/>
<path d="M510.344 836.792L502.263 829.336L506.058 828.577L513.603 835.765L514.139 835.631L512.442 827.238L515.523 826.612L519.63 847.061L516.014 847.776C513.291 848.311 511.237 848.222 509.853 847.418C508.29 846.57 507.353 845.186 506.951 843.355C506.638 841.927 506.817 840.587 507.442 839.382C508.067 838.221 509.049 837.328 510.344 836.792ZM514.675 838.355L513.692 838.533C510.791 839.114 509.54 840.543 509.987 842.775C510.389 844.874 512.041 845.633 514.898 845.052L516.014 844.829L514.675 838.355Z" fill="#5EC1A5"/>
<path d="M499.406 829.827L502.621 850.455L498.29 851.124C496.236 851.437 494.54 851.481 493.29 851.258C491.95 851.08 490.656 850.544 489.45 849.74C487.039 848.133 485.566 845.722 485.075 842.596C484.584 839.426 485.298 836.703 487.218 834.381C488.2 833.22 489.227 832.372 490.388 831.792C491.459 831.211 493.066 830.809 495.165 830.452L499.406 829.827ZM496.727 833.265L495.343 833.488C493.959 833.712 492.799 834.024 491.906 834.471C491.013 834.917 490.254 835.542 489.629 836.346C488.334 837.998 487.843 839.918 488.2 842.15C488.557 844.427 489.584 846.124 491.325 847.284C492.888 848.311 494.986 848.624 497.62 848.222L499.004 847.999L496.727 833.265Z" fill="#5EC1A5"/>
<path d="M469.94 851.705L472.306 849.919C472.887 850.678 473.378 851.169 473.824 851.392C474.315 851.615 474.896 851.705 475.61 851.615C476.458 851.526 477.173 851.214 477.708 850.633C478.244 850.097 478.467 849.428 478.378 848.713C478.289 847.686 477.441 846.972 475.833 846.526L473.69 845.9C471.949 845.409 470.61 844.695 469.717 843.802C468.824 842.909 468.288 841.748 468.154 840.319C467.931 838.4 468.422 836.748 469.538 835.364C470.699 833.979 472.217 833.176 474.092 832.953C475.878 832.774 477.441 833.131 478.735 834.069C480.03 835.006 480.878 836.435 481.414 838.31L478.333 839.337C478.066 838.132 477.708 837.328 477.307 836.882C476.548 836.078 475.565 835.721 474.315 835.855C473.333 835.944 472.574 836.39 471.994 837.105C471.413 837.819 471.19 838.712 471.279 839.694C471.324 840.096 471.413 840.453 471.592 840.766C471.771 841.078 471.949 841.391 472.217 841.614C472.485 841.837 472.842 842.105 473.244 842.284C473.646 842.507 474.137 842.686 474.672 842.82L476.771 843.445C479.762 844.338 481.369 845.945 481.593 848.222C481.771 849.785 481.325 851.169 480.253 852.33C479.182 853.535 477.753 854.205 475.967 854.428C473.556 854.83 471.547 853.892 469.94 851.705Z" fill="#5EC1A5"/>
<path d="M448.153 850.455C446.992 850.499 446.01 850.097 445.117 849.294C444.224 848.49 443.778 847.463 443.733 846.258C443.689 845.052 444.046 843.981 444.849 843.088C445.653 842.195 446.635 841.704 447.841 841.659C449.001 841.614 450.028 841.971 450.921 842.82C451.814 843.668 452.26 844.65 452.305 845.856C452.35 847.061 451.993 848.133 451.189 849.026C450.385 849.919 449.358 850.41 448.153 850.455Z" fill="#5EC1A5"/>
<path d="M422.571 840.855L431.5 840.989L433.911 835.944L437.304 835.989L426.633 858L417.035 835.676L420.472 835.721L422.571 840.855ZM423.821 843.802L426.812 850.946L430.16 843.891L423.821 843.802Z" fill="#5EC1A5"/>
<path d="M413.954 856.616L409.356 842.373L402.793 856.973L398.284 841.704L391.676 855.276L388.283 855.053L398.909 833.444L403.373 848.535L409.847 834.113L417.347 856.795L413.954 856.616Z" fill="#5EC1A5"/>
<path d="M376.229 837.596L385.113 838.623L388.015 833.845L391.364 834.247L378.55 855.098L371.229 831.926L374.666 832.327L376.229 837.596ZM377.166 840.677L379.399 848.088L383.461 841.436L377.166 840.677Z" fill="#5EC1A5"/>
<path d="M360.469 839.114L355.514 829.291L359.308 829.916L363.818 839.293L364.398 839.382L365.782 830.943L368.907 831.434L365.559 852.017L361.898 851.437C359.175 850.99 357.299 850.142 356.273 848.936C355.112 847.597 354.71 845.99 355.022 844.114C355.246 842.641 355.871 841.48 356.898 840.543C357.924 839.605 359.041 839.203 360.469 839.114ZM363.952 842.105L362.969 841.927C360.023 841.436 358.371 842.329 358.014 844.561C357.657 846.659 358.951 847.954 361.809 848.401L362.925 848.579L363.952 842.105Z" fill="#5EC1A5"/>
<path d="M352.611 828.756L348.325 849.204L344.039 848.311C341.985 847.865 340.423 847.329 339.307 846.704C338.101 846.034 337.074 845.141 336.271 843.936C334.574 841.57 334.039 838.846 334.708 835.676C335.378 832.551 336.985 830.229 339.575 828.756C340.869 827.997 342.164 827.595 343.459 827.461C344.664 827.327 346.316 827.461 348.37 827.907L352.611 828.756ZM348.95 831.033L347.566 830.72C346.182 830.452 345.021 830.318 344.039 830.452C343.057 830.586 342.119 830.899 341.226 831.39C339.441 832.461 338.28 834.113 337.833 836.346C337.342 838.578 337.744 840.543 338.95 842.284C340.021 843.802 341.896 844.829 344.53 845.409L345.914 845.722L348.95 831.033Z" fill="#5EC1A5"/>
<path d="M317.386 838.846L320.243 837.998C320.511 838.935 320.823 839.56 321.181 839.918C321.538 840.319 322.074 840.587 322.743 840.766C323.591 840.989 324.35 840.9 325.02 840.587C325.69 840.275 326.136 839.739 326.315 839.025C326.583 838.042 326.047 837.06 324.708 836.078L322.922 834.738C321.448 833.667 320.466 832.551 319.931 831.39C319.395 830.229 319.35 828.979 319.707 827.595C320.198 825.719 321.181 824.335 322.743 823.442C324.306 822.55 326.002 822.326 327.877 822.817C329.619 823.264 330.958 824.157 331.806 825.496C332.655 826.836 333.012 828.488 332.789 830.408L329.529 830.318C329.708 829.113 329.663 828.22 329.44 827.684C329.038 826.657 328.235 825.987 327.029 825.675C326.092 825.452 325.199 825.541 324.395 826.032C323.591 826.523 323.1 827.238 322.832 828.22C322.743 828.622 322.699 828.979 322.699 829.336C322.743 829.693 322.833 830.05 322.966 830.363C323.145 830.675 323.368 831.033 323.681 831.345C323.993 831.658 324.35 832.015 324.797 832.372L326.538 833.667C328.994 835.542 329.931 837.596 329.395 839.873C328.994 841.391 328.101 842.507 326.672 843.221C325.243 843.936 323.681 844.114 321.94 843.668C319.618 843.043 318.1 841.436 317.386 838.846Z" fill="#5EC1A5"/>
<path d="M299.17 834.872L298.233 838.4L295.643 837.551L296.983 834.158L293.322 834.381V831.658L296.983 831.881L295.643 828.488L298.233 827.639L299.17 831.167L301.983 828.845L303.59 831.033L300.51 832.997L303.59 834.962L301.983 837.149L299.17 834.872Z" fill="#5EC1A5"/>
<path d="M272.472 810.182L280.776 813.486L284.794 809.646L287.964 810.896L270.151 827.684L269.079 803.396L272.294 804.69L272.472 810.182ZM272.561 813.397L272.829 821.121L278.455 815.718L272.561 813.397Z" fill="#5EC1A5"/>
<path d="M258.677 821.612L259.659 806.655L248.185 817.817L249.569 801.967L238.452 812.191L235.372 810.762L253.185 794.6L251.801 810.271L263.141 799.199L261.802 823.085L258.677 821.612Z" fill="#5EC1A5"/>
<path d="M230.55 790.09L238.408 794.332L242.872 790.983L245.864 792.591L226.264 807.235L227.961 782.991L230.997 784.599L230.55 790.09ZM230.282 793.305L229.657 801.029L235.863 796.297L230.282 793.305Z" fill="#5EC1A5"/>
<path d="M215.326 785.715L214.344 774.776L217.647 776.741L218.406 787.144L218.897 787.456L223.273 780.134L225.996 781.741L215.326 799.69L212.156 797.815C209.79 796.386 208.361 794.957 207.825 793.439C207.245 791.742 207.468 790.09 208.406 788.483C209.165 787.233 210.192 786.34 211.442 785.849C212.692 785.268 213.986 785.268 215.326 785.715ZM217.469 789.778L216.62 789.287C214.076 787.769 212.201 787.992 211.04 789.912C209.968 791.742 210.638 793.394 213.138 794.912L214.12 795.493L217.469 789.778Z" fill="#5EC1A5"/>
<path d="M211.844 773.214L200.37 790.626L196.709 788.215C194.968 787.054 193.673 785.983 192.914 784.956C192.066 783.884 191.441 782.679 191.084 781.295C190.369 778.482 190.905 775.714 192.646 773.035C194.432 770.356 196.754 768.793 199.745 768.392C201.218 768.168 202.602 768.258 203.852 768.615C205.013 768.927 206.486 769.642 208.272 770.847L211.844 773.214ZM207.602 773.973L206.397 773.214C205.236 772.455 204.165 771.919 203.227 771.651C202.29 771.383 201.307 771.338 200.281 771.517C198.227 771.829 196.53 772.946 195.28 774.865C194.03 776.785 193.628 778.75 194.119 780.759C194.566 782.59 195.905 784.242 198.182 785.715L199.388 786.474L207.602 773.973Z" fill="#5EC1A5"/>
<path d="M175.368 769.642L178.315 769.91C178.225 770.847 178.27 771.562 178.449 772.008C178.627 772.499 179.029 772.946 179.609 773.392C180.324 773.883 181.038 774.106 181.797 774.062C182.556 774.017 183.136 773.66 183.583 773.08C184.163 772.276 184.029 771.16 183.181 769.776L181.976 767.856C180.993 766.293 180.502 764.909 180.413 763.659C180.368 762.409 180.726 761.203 181.574 760.042C182.69 758.48 184.163 757.587 185.904 757.319C187.69 757.051 189.342 757.497 190.905 758.614C192.378 759.685 193.271 760.98 193.584 762.543C193.896 764.105 193.584 765.757 192.691 767.499L189.699 766.204C190.28 765.132 190.592 764.284 190.592 763.703C190.592 762.587 190.101 761.694 189.074 760.935C188.271 760.355 187.422 760.132 186.53 760.31C185.637 760.489 184.878 760.935 184.297 761.784C184.074 762.096 183.895 762.453 183.761 762.766C183.672 763.123 183.628 763.48 183.628 763.837C183.672 764.195 183.761 764.596 183.895 765.043C184.074 765.445 184.297 765.936 184.565 766.427L185.726 768.302C187.333 770.936 187.467 773.213 186.083 775.089C185.145 776.339 183.895 777.053 182.333 777.232C180.726 777.41 179.208 776.964 177.779 775.892C175.904 774.374 175.1 772.321 175.368 769.642Z" fill="#5EC1A5"/>
<path d="M160.055 754.06C159.162 753.345 158.671 752.363 158.581 751.157C158.492 749.952 158.804 748.925 159.563 747.987C160.367 747.05 161.349 746.514 162.51 746.38C163.715 746.246 164.742 746.559 165.68 747.318C166.573 748.077 167.109 749.059 167.198 750.264C167.287 751.47 166.975 752.541 166.171 753.434C165.367 754.372 164.385 754.908 163.224 754.997C162.064 755.176 160.992 754.863 160.055 754.06Z" fill="#5EC1A5"/>
<path d="M147.554 729.816L154.161 735.843L159.296 733.655L161.796 735.933L139.205 745.309L146.839 722.226L149.384 724.547L147.554 729.816ZM146.482 732.852L143.982 740.174L151.17 737.138L146.482 732.852Z" fill="#5EC1A5"/>
<path d="M130.588 735.665L136.794 722.047L122.106 728.432L129.026 714.1L115.007 719.725L112.641 717.27L135.053 708.429L128.222 722.583L142.732 716.243L133.044 738.12L130.588 735.665Z" fill="#5EC1A5"/>
<path d="M115.409 696.196L121.302 702.938L126.66 701.375L128.892 703.92L105.408 710.706L115.588 688.606L117.865 691.195L115.409 696.196ZM114.025 699.098L110.721 706.108L118.222 703.875L114.025 699.098Z" fill="#5EC1A5"/>
<path d="M102.73 686.73L105.676 676.149L108.087 679.185L105.096 689.186L105.453 689.633L112.15 684.319L114.114 686.775L97.7741 699.768L95.4972 696.866C93.8007 694.722 92.9524 692.847 92.997 691.24C93.0417 689.454 93.8453 687.981 95.3186 686.82C96.4794 685.882 97.7295 685.436 99.1135 685.436C100.408 685.391 101.614 685.837 102.73 686.73ZM103.31 691.285L102.685 690.481C100.81 688.159 99.0242 687.713 97.2384 689.097C95.5865 690.436 95.6311 692.222 97.4616 694.499L98.1759 695.392L103.31 691.285Z" fill="#5EC1A5"/>
<path d="M103.891 673.827L87.0145 686.105L84.4251 682.578C83.175 680.882 82.3714 679.408 82.0142 678.203C81.5678 676.908 81.4338 675.524 81.6124 674.095C81.9249 671.193 83.3983 668.827 85.9877 666.951C88.5771 665.076 91.3452 664.451 94.2471 665.121C95.7205 665.433 96.9705 666.014 97.9974 666.773C98.9796 667.487 100.096 668.693 101.346 670.389L103.891 673.827ZM99.6493 673.023L98.801 671.863C97.9527 670.702 97.1491 669.853 96.3901 669.273C95.5865 668.693 94.6936 668.291 93.6668 668.112C91.6131 667.71 89.6486 668.157 87.8182 669.496C85.9877 670.836 84.9162 672.532 84.6483 674.631C84.4251 676.506 85.0948 678.515 86.702 680.703L87.5503 681.864L99.6493 673.023Z" fill="#5EC1A5"/>
<path d="M71.0312 657.575L73.7099 658.87C73.2634 659.718 73.0849 660.388 73.1295 660.924C73.1295 661.46 73.3527 662.04 73.7099 662.621C74.201 663.335 74.7814 663.826 75.5404 664.005C76.2547 664.228 76.9244 664.139 77.5494 663.692C78.3977 663.112 78.6656 662.04 78.353 660.433L77.9066 658.245C77.5494 656.459 77.5494 654.941 77.9512 653.78C78.353 652.575 79.1567 651.592 80.3174 650.789C81.9247 649.717 83.5766 649.405 85.3624 649.762C87.1036 650.164 88.5322 651.146 89.6037 652.709C90.5859 654.227 90.9877 655.745 90.7199 657.352C90.452 658.915 89.6037 660.343 88.1304 661.683L85.7642 659.406C86.7018 658.602 87.2822 657.932 87.4607 657.352C87.8625 656.325 87.7286 655.298 87.0143 654.227C86.4785 653.423 85.7642 652.887 84.8266 652.709C83.9337 652.53 83.0408 652.709 82.1926 653.289C81.8354 653.512 81.5675 653.78 81.3443 654.048C81.1211 654.316 80.9425 654.629 80.8532 654.986C80.7639 655.343 80.6746 655.745 80.7193 656.191C80.7193 656.638 80.7639 657.129 80.8532 657.709L81.255 659.852C81.8354 662.888 81.1211 665.076 79.2013 666.326C77.9066 667.175 76.4779 667.398 74.9153 666.996C73.3527 666.594 72.1026 665.612 71.1204 664.139C69.8704 662.219 69.8257 659.986 71.0312 657.575Z" fill="#5EC1A5"/>
<path d="M62.1915 637.618C61.6111 636.635 61.5218 635.519 61.8343 634.403C62.1469 633.242 62.8612 632.394 63.888 631.769C64.9595 631.144 66.0757 631.01 67.1918 631.322C68.3526 631.635 69.2455 632.305 69.8259 633.331C70.4063 634.358 70.5403 635.43 70.2277 636.591C69.8706 637.752 69.2009 638.6 68.174 639.225C67.1025 639.85 65.9864 639.984 64.8256 639.671C63.6648 639.359 62.7719 638.645 62.1915 637.618Z" fill="#5EC1A5"/>
<path d="M59.0663 610.472L63.0844 618.464L68.6651 618.24L70.1831 621.276L45.7173 622.08L61.0307 603.194L62.5933 606.275L59.0663 610.472ZM56.968 612.972L52.0123 618.955L59.8253 618.642L56.968 612.972Z" fill="#5EC1A5"/>
<path d="M41.1186 609.936L51.7443 599.399L35.7611 600.158L47.3243 589.219L32.2341 589.487L30.8501 586.362L54.9141 586.049L43.4848 596.854L59.2894 596.05L42.458 613.061L41.1186 609.936Z" fill="#5EC1A5"/>
<path d="M40.9402 567.699L44.0208 576.093L49.6015 576.495L50.7623 579.665L26.3857 577.655L43.7083 560.6L44.9137 563.815L40.9402 567.699ZM38.6186 569.931L33.0379 575.289L40.8063 575.869L38.6186 569.931Z" fill="#5EC1A5"/>
<path d="M32.4128 554.304L38.9311 545.464L40.0919 549.125L33.7522 557.385L33.9308 557.921L42.0563 555.331L42.9939 558.323L23.1266 564.663L22.0104 561.136C21.1621 558.501 21.0729 556.448 21.6532 554.974C22.3229 553.322 23.573 552.251 25.4035 551.67C26.8321 551.224 28.1715 551.224 29.4216 551.715C30.761 552.251 31.7432 553.099 32.4128 554.304ZM31.3413 558.769L31.0288 557.832C30.1359 554.974 28.5733 553.903 26.4303 554.617C24.3766 555.287 23.8409 556.983 24.6892 559.752L25.0463 560.823L31.3413 558.769Z" fill="#5EC1A5"/>
<path d="M38.1272 542.651L17.992 548.098L16.8312 543.857C16.2955 541.848 16.0722 540.196 16.1169 538.901C16.1615 537.517 16.5187 536.222 17.1884 534.927C18.5277 532.338 20.7154 530.641 23.8406 529.793C26.9211 528.944 29.7338 529.346 32.234 530.998C33.484 531.847 34.4662 532.784 35.1359 533.856C35.8056 534.883 36.4307 536.401 36.9664 538.455L38.1272 542.651ZM34.4216 540.374L34.0644 538.99C33.7073 537.606 33.2608 536.535 32.7251 535.686C32.1893 534.883 31.475 534.168 30.6267 533.633C28.8409 532.516 26.8765 532.248 24.6888 532.829C22.5012 533.409 20.894 534.659 19.9118 536.49C19.0635 538.142 18.9742 540.285 19.6439 542.875L20.0011 544.259L34.4216 540.374Z" fill="#5EC1A5"/>
<path d="M13.1704 515.773L15.2241 517.916C14.5098 518.541 14.108 519.122 13.9294 519.613C13.7508 520.104 13.7508 520.729 13.8848 521.399C14.0634 522.247 14.4652 522.917 15.0902 523.363C15.6706 523.81 16.3403 523.989 17.0546 523.81C18.0368 523.587 18.6619 522.649 18.9744 521.042L19.3315 518.809C19.6441 517.023 20.1798 515.595 20.9834 514.657C21.787 513.675 22.8585 513.05 24.2872 512.737C26.1623 512.335 27.8589 512.603 29.3322 513.586C30.8501 514.568 31.7877 515.997 32.2341 517.872C32.6359 519.658 32.4127 521.22 31.6537 522.604C30.8501 523.989 29.5554 525.015 27.7249 525.73L26.3409 522.783C27.5017 522.381 28.2607 521.935 28.6625 521.488C29.4215 520.64 29.6447 519.658 29.3768 518.408C29.1536 517.47 28.6625 516.711 27.8589 516.22C27.0552 515.729 26.207 515.595 25.2248 515.818C24.823 515.907 24.4658 516.041 24.1533 516.22C23.8407 516.398 23.5729 516.622 23.3496 516.934C23.1264 517.247 22.9478 517.604 22.7693 518.006C22.5907 518.408 22.4567 518.899 22.3674 519.479L22.0103 521.622C21.4745 524.658 20.0459 526.444 17.7689 526.98C16.251 527.337 14.8223 527.025 13.5276 526.087C12.2329 525.149 11.3846 523.81 10.9828 522.069C10.4471 519.702 11.1614 517.604 13.1704 515.773Z" fill="#5EC1A5"/>
<path d="M8.43803 497.78L4.86638 498.539L4.41992 495.86L8.03622 495.503L6.20575 492.333L8.61661 491.083L10.0899 494.432L12.5454 491.708L14.4652 493.628L11.7418 496.084L15.0902 497.557L13.8402 499.968L10.6703 498.137L10.3131 501.799L7.63441 501.397L8.43803 497.78Z" fill="#5EC1A5"/>
<path d="M18.3494 462.776L19.153 471.661L24.4212 473.492L24.7337 476.885L1.69653 468.625L22.8586 456.659L23.1711 460.097L18.3494 462.776ZM15.5367 464.339L8.75054 468.089L16.1171 470.679L15.5367 464.339Z" fill="#5EC1A5"/>
<path d="M1.91963 455.677L15.6705 449.739L0.490967 444.604L15.2687 438.622L1.11601 433.398L0.982069 429.96L23.4835 438.488L8.92899 444.381L23.9299 449.426L2.05356 459.07L1.91963 455.677Z" fill="#5EC1A5"/>
<path d="M17.1886 416.298L17.01 425.227L22.0103 427.638L21.9657 431.032L0 420.316L22.3675 410.761L22.3228 414.199L17.1886 416.298ZM14.1973 417.548L7.05401 420.495L14.108 423.888L14.1973 417.548Z" fill="#5EC1A5"/>
<path d="M14.1527 400.76L23.439 394.867L23.1711 398.706L14.2866 404.109L14.242 404.689L22.7693 405.225L22.5461 408.35L1.74121 407.011L1.96444 403.35C2.14302 400.582 2.76806 398.662 3.8842 397.501C5.13428 396.206 6.69688 395.67 8.57199 395.76C10.0453 395.849 11.2954 396.34 12.2776 397.278C13.3044 398.215 13.9295 399.331 14.1527 400.76ZM11.5186 404.511L11.5633 403.528C11.7418 400.537 10.715 398.974 8.43806 398.84C6.29507 398.706 5.13428 400.09 4.9557 402.993L4.86641 404.109L11.5186 404.511Z" fill="#5EC1A5"/>
<path d="M23.6621 391.965L2.90186 389.687L3.39296 385.312C3.61619 383.214 4.018 381.606 4.55374 380.445C5.08949 379.195 5.89311 378.079 7.00925 377.141C9.19689 375.222 11.8756 374.418 15.0455 374.775C18.2153 375.132 20.6708 376.516 22.412 378.972C23.2603 380.177 23.8407 381.428 24.0639 382.722C24.3318 383.928 24.3318 385.58 24.1085 387.678L23.6621 391.965ZM21.0726 388.527L21.2066 387.098C21.3405 385.714 21.3405 384.508 21.1619 383.526C20.9387 382.544 20.5369 381.651 19.9565 380.847C18.7064 379.151 16.9652 378.168 14.733 377.945C12.456 377.677 10.5363 378.258 8.92902 379.642C7.50036 380.892 6.65209 382.812 6.38422 385.491L6.25028 386.919L21.0726 388.527Z" fill="#5EC1A5"/>
<path d="M10.2237 357.853L11.3399 360.622C10.447 360.979 9.86658 361.336 9.50942 361.738C9.15225 362.14 8.92902 362.675 8.83973 363.39C8.70579 364.238 8.83973 364.997 9.24154 365.667C9.64335 366.292 10.1791 366.694 10.9381 366.783C11.9649 366.917 12.8578 366.292 13.7061 364.908L14.8669 362.988C15.8045 361.425 16.8313 360.309 17.9028 359.684C18.9743 359.059 20.269 358.836 21.653 359.059C23.5281 359.371 25.0015 360.22 26.073 361.693C27.1444 363.167 27.5016 364.819 27.2337 366.738C26.9659 368.524 26.2069 369.908 24.9568 370.935C23.7067 371.918 22.0995 372.409 20.1351 372.409L19.9119 369.149C21.1619 369.194 22.0102 369.06 22.5459 368.792C23.5281 368.301 24.1085 367.408 24.3318 366.203C24.4657 365.22 24.2871 364.372 23.7067 363.613C23.171 362.854 22.3674 362.408 21.3852 362.274C20.9833 362.229 20.6262 362.229 20.269 362.274C19.9119 362.318 19.5993 362.452 19.2868 362.675C18.9743 362.854 18.6618 363.122 18.3493 363.479C18.0367 363.836 17.7242 364.238 17.4563 364.729L16.3402 366.604C14.733 369.239 12.7685 370.4 10.447 370.042C8.88438 369.819 7.67894 369.015 6.83068 367.676C5.98241 366.337 5.66989 364.774 5.93776 363.033C6.25028 360.532 7.67894 358.836 10.2237 357.853Z" fill="#5EC1A5"/>
<path d="M17.0993 337.137C17.3672 336.021 17.9922 335.128 19.0191 334.503C20.0459 333.878 21.1174 333.699 22.2782 333.922C23.4836 334.19 24.3765 334.815 25.0462 335.842C25.7159 336.824 25.8945 337.94 25.6266 339.101C25.3587 340.262 24.7337 341.155 23.7069 341.78C22.68 342.405 21.5639 342.584 20.4031 342.316C19.1976 342.048 18.3047 341.423 17.6351 340.396C17.01 339.414 16.8314 338.298 17.0993 337.137Z" fill="#5EC1A5"/>
<path d="M17.4117 318.34L13.8401 317.581L14.5544 314.947L18.0368 316.108L17.635 312.446L20.3584 312.313L20.3137 315.974L23.6621 314.5L24.6443 317.045L21.162 318.161L23.6175 320.885L21.5191 322.582L19.4208 319.59L17.5903 322.76L15.3134 321.287L17.4117 318.34Z" fill="#5EC1A5"/>
<path d="M40.8509 290.524L37.9489 298.963L41.967 302.803L40.8509 306.017L23.2605 289.051L47.4584 286.863L46.3423 290.122L40.8509 290.524ZM37.6364 290.792L29.9127 291.417L35.5827 296.775L37.6364 290.792Z" fill="#5EC1A5"/>
<path d="M28.7517 277.309L43.708 277.576L32.0109 266.638L47.9047 267.263L37.1898 256.636L38.4845 253.466L55.4945 270.522L39.7792 269.897L51.3424 280.702L27.4124 280.479L28.7517 277.309Z" fill="#5EC1A5"/>
<path d="M58.8877 247.707L55.0482 255.788L58.6199 260.074L57.1465 263.155L41.6099 244.224L65.8971 244.805L64.4238 247.93L58.8877 247.707ZM55.6732 247.573L47.9495 247.305L52.9499 253.288L55.6732 247.573Z" fill="#5EC1A5"/>
<path d="M62.5486 232.303L73.4422 230.785L71.6117 234.179L61.2539 235.429L60.986 235.92L68.5311 239.938L67.0578 242.706L48.6638 232.884L50.405 229.625C51.6997 227.214 53.0837 225.695 54.6017 225.07C56.2536 224.401 57.9055 224.535 59.602 225.428C60.8967 226.142 61.8343 227.08 62.37 228.33C62.8611 229.625 62.9504 230.919 62.5486 232.303ZM58.6198 234.625L59.1109 233.732C60.4949 231.098 60.227 229.267 58.218 228.196C56.3429 227.169 54.691 227.973 53.3516 230.517L52.8159 231.5L58.6198 234.625Z" fill="#5EC1A5"/>
<path d="M74.8709 228.24L56.9233 217.614L59.1556 213.864C60.2271 212.078 61.254 210.738 62.2362 209.89C63.263 208.952 64.4685 208.327 65.8078 207.881C68.5758 207.033 71.3439 207.434 74.1119 209.042C76.8799 210.694 78.5318 212.971 79.1122 215.918C79.3801 217.391 79.3801 218.775 79.0676 220.025C78.7997 221.231 78.13 222.704 77.0585 224.535L74.8709 228.24ZM73.9333 224.044L74.6477 222.838C75.362 221.633 75.8531 220.516 76.0763 219.579C76.2995 218.596 76.2995 217.614 76.0763 216.632C75.6299 214.578 74.4691 212.971 72.5047 211.81C70.5403 210.649 68.5312 210.337 66.5222 210.962C64.7363 211.497 63.1291 212.926 61.7897 215.248L61.0754 216.453L73.9333 224.044Z" fill="#5EC1A5"/>
<path d="M76.746 191.629L76.612 194.576C75.6745 194.531 74.9601 194.62 74.5137 194.844C74.0226 195.067 73.5761 195.469 73.219 196.049C72.7279 196.764 72.5493 197.523 72.6386 198.282C72.7279 199.041 73.085 199.621 73.7101 200.023C74.5583 200.559 75.6745 200.38 77.0138 199.487L78.8443 198.192C80.3623 197.165 81.7016 196.585 82.9963 196.451C84.2464 196.317 85.4965 196.674 86.6573 197.433C88.2645 198.505 89.2467 199.889 89.6039 201.63C89.9611 203.416 89.6039 205.068 88.5771 206.675C87.5949 208.193 86.3001 209.131 84.7822 209.533C83.2642 209.935 81.5677 209.712 79.7819 208.863L80.9427 205.827C82.0588 206.363 82.9071 206.631 83.4875 206.586C84.6036 206.542 85.4965 206.006 86.1662 204.934C86.7019 204.131 86.8805 203.238 86.6573 202.345C86.4341 201.452 85.943 200.693 85.0947 200.157C84.7375 199.934 84.425 199.8 84.0678 199.666C83.7107 199.576 83.3535 199.532 82.9963 199.576C82.6392 199.621 82.2374 199.755 81.8356 199.934C81.4338 200.112 80.9873 200.38 80.4962 200.693L78.7104 201.898C76.1209 203.639 73.8886 203.863 71.9242 202.568C70.6295 201.72 69.8259 200.469 69.6027 198.907C69.3794 197.344 69.7366 195.781 70.7188 194.308C72.0135 192.388 74.0226 191.45 76.746 191.629Z" fill="#5EC1A5"/>
<path d="M91.5683 175.6C92.2826 174.663 93.2202 174.127 94.381 173.993C95.5864 173.859 96.6579 174.127 97.5955 174.841C98.5777 175.556 99.1581 176.538 99.3366 177.699C99.5152 178.904 99.2474 179.931 98.533 180.914C97.8187 181.851 96.8811 182.387 95.6757 182.566C94.4703 182.699 93.3988 182.432 92.4612 181.717C91.479 181.003 90.8986 180.021 90.72 178.815C90.5861 177.654 90.854 176.538 91.5683 175.6Z" fill="#5EC1A5"/>
</svg>
