<svg width="909" height="911" viewBox="0 0 909 911" fill="none" xmlns="http://www.w3.org/2000/svg">
<path d="M145.038 139.285L151.577 132.841L152.099 133.362C153.283 134.547 154.184 135.731 154.8 136.916C155.368 138.006 155.7 139.285 155.747 140.659C155.889 143.74 154.847 146.393 152.572 148.62C150.345 150.8 147.692 151.843 144.564 151.795C141.437 151.748 138.736 150.611 136.508 148.336C134.234 146.061 133.144 143.313 133.191 140.138C133.239 136.963 134.376 134.262 136.651 131.988C137.883 130.756 139.304 129.903 140.868 129.334C142.384 128.813 144.185 128.671 146.317 128.813L146.223 132.13C143.237 131.703 140.821 132.367 138.925 134.215C137.267 135.873 136.414 137.816 136.414 140.091C136.414 142.318 137.219 144.308 138.925 146.014C140.678 147.767 142.716 148.62 145.085 148.478C147.313 148.383 149.113 147.625 150.487 146.298C151.672 145.161 152.335 143.692 152.478 141.986C152.62 140.28 152.193 138.811 151.246 137.579L147.313 141.465L145.038 139.285Z" fill="#EC423C"/>
<path d="M150.392 119.667L159.254 129.666C160.533 131.087 161.67 131.94 162.713 132.177C164.229 132.509 165.651 132.13 166.93 130.993C168.21 129.855 168.778 128.529 168.589 126.965C168.494 125.922 167.783 124.69 166.504 123.221L157.642 113.223L160.154 110.996L169.631 121.658C171.195 123.411 171.906 125.306 171.811 127.439C171.716 129.761 170.768 131.751 168.968 133.315C167.167 134.878 165.129 135.589 162.808 135.4C160.723 135.21 158.922 134.262 157.358 132.509L147.881 121.847L150.392 119.667Z" fill="#EC423C"/>
<path d="M167.309 105.12L181.43 122.179L178.872 124.311L164.75 107.252L167.309 105.12Z" fill="#EC423C"/>
<path d="M174.37 99.4334L186.122 114.36L191.239 110.332L193.182 112.796L185.411 118.862L171.716 101.424L174.37 99.4334Z" fill="#EC423C"/>
<path d="M195.504 110.996L182.521 93.0362L186.264 90.2878C188.065 88.961 189.628 88.108 190.908 87.729C192.282 87.2551 193.751 87.1129 195.267 87.3025C198.348 87.6342 200.859 89.1979 202.849 91.9463C204.839 94.6947 205.503 97.6327 204.792 100.713C204.46 102.277 203.844 103.603 203.039 104.693C202.281 105.736 201.001 106.92 199.2 108.247L195.504 110.996ZM196.405 106.494L197.637 105.594C198.869 104.693 199.769 103.84 200.385 103.035C201.001 102.182 201.428 101.234 201.617 100.144C202.091 97.9644 201.57 95.8794 200.196 93.9366C198.774 91.9463 196.973 90.8565 194.746 90.5721C192.756 90.3352 190.624 91.046 188.302 92.7045L187.07 93.6049L196.405 106.494Z" fill="#EC423C"/>
<path d="M213.701 73.7974L211.473 70.6226L213.938 69.1062L215.786 72.518L218.107 69.3905L220.335 71.2386L217.681 74.0818L221.377 75.3138L220.287 77.9674L216.781 76.3089L216.733 80.1946L213.843 80.005L214.317 76.1667L210.62 77.3514L209.91 74.5556L213.701 73.7974Z" fill="#EC423C"/>
<path d="M247.676 64.2728L255.732 59.9607L256.064 60.6241C256.869 62.0931 257.391 63.4673 257.628 64.7941C257.865 66.0261 257.817 67.3055 257.485 68.6324C256.775 71.6651 255.021 73.8922 252.226 75.4086C249.477 76.8776 246.634 77.1145 243.601 76.2142C240.616 75.2664 238.341 73.4184 236.872 70.6226C235.356 67.7794 235.072 64.8415 235.972 61.8087C236.872 58.776 238.768 56.5015 241.611 54.9851C243.127 54.1796 244.739 53.7057 246.397 53.6583C248.008 53.6109 249.761 53.9426 251.752 54.7008L250.709 57.8283C247.961 56.5489 245.449 56.5489 243.127 57.7809C241.042 58.8708 239.716 60.5293 239.052 62.7091C238.389 64.8415 238.626 66.9738 239.763 69.1062C240.948 71.286 242.654 72.6602 244.975 73.2288C247.155 73.7501 249.051 73.5605 250.757 72.6602C252.226 71.902 253.268 70.7174 253.884 69.1062C254.5 67.4951 254.548 65.9787 253.931 64.5097L249.051 67.116L247.676 64.2728Z" fill="#EC423C"/>
<path d="M258.386 46.9768L264.025 59.0603C264.831 60.7662 265.684 61.9035 266.631 62.4247C268.006 63.1829 269.475 63.1829 270.991 62.4721C272.507 61.7613 273.455 60.6241 273.739 59.0603C273.929 58.0178 273.645 56.6436 272.792 54.8903L267.153 42.8068L270.185 41.3853L276.251 54.3691C277.246 56.5015 277.388 58.5391 276.725 60.5293C275.967 62.7564 274.498 64.3676 272.318 65.3627C270.138 66.3578 268.006 66.4526 265.826 65.647C263.883 64.8888 262.414 63.4672 261.419 61.3349L255.354 48.3984L258.386 46.9768Z" fill="#EC423C"/>
<path d="M278.714 37.8313L287.386 58.2074L284.306 59.5342L275.634 39.1581L278.714 37.8313Z" fill="#EC423C"/>
<path d="M287.102 34.3721L294.115 52.0471L300.181 49.6304L301.318 52.5684L292.172 56.2171L284.022 35.6515L287.102 34.3721Z" fill="#EC423C"/>
<path d="M304.113 51.4785L296.769 30.5812L301.175 29.0175C303.26 28.2593 305.014 27.8802 306.388 27.8802C307.857 27.8328 309.279 28.1171 310.653 28.6858C313.496 29.8704 315.486 32.0976 316.623 35.3198C317.761 38.5421 317.524 41.5274 316.007 44.3232C315.249 45.6974 314.302 46.8347 313.212 47.6402C312.217 48.4458 310.605 49.204 308.52 49.9622L304.113 51.4785ZM306.246 47.4033L307.667 46.8821C309.089 46.3608 310.226 45.8396 311.032 45.1762C311.837 44.5128 312.548 43.7546 313.069 42.7595C314.112 40.8166 314.254 38.6842 313.449 36.4097C312.643 34.1352 311.221 32.524 309.184 31.6237C307.336 30.8181 305.109 30.9129 302.408 31.8606L300.986 32.3819L306.246 47.4033Z" fill="#EC423C"/>
<path d="M336.573 24.3736C337.758 24.0419 338.895 24.2314 339.985 24.8475C341.075 25.5109 341.786 26.4112 342.117 27.6433C342.449 28.8753 342.307 30.0599 341.691 31.1972C341.075 32.2871 340.175 33.0453 338.942 33.377C337.758 33.7087 336.573 33.5665 335.483 32.9031C334.393 32.2397 333.683 31.292 333.351 30.1073C333.019 28.8753 333.161 27.6906 333.777 26.5534C334.393 25.4161 335.341 24.7053 336.573 24.3736Z" fill="#EC423C"/>
<path d="M371.402 20.8196L380.405 19.0663L380.548 19.7771C380.879 21.3882 380.974 22.9046 380.832 24.2314C380.69 25.4635 380.263 26.6955 379.552 27.8802C377.989 30.5338 375.619 32.1923 372.492 32.8083C369.459 33.377 366.616 32.8083 364.057 31.055C361.451 29.2544 359.84 26.8377 359.271 23.7576C358.655 20.5827 359.224 17.6921 361.024 15.0859C362.778 12.4323 365.289 10.8211 368.417 10.2051C370.123 9.87339 371.781 9.92078 373.392 10.2999C374.956 10.7263 376.52 11.5793 378.226 12.8587L376.33 15.5597C374.103 13.5221 371.686 12.764 369.127 13.2852C366.806 13.7117 365.052 14.8963 363.82 16.7918C362.588 18.6398 362.162 20.7722 362.636 23.0942C363.109 25.5109 364.341 27.3589 366.426 28.591C368.322 29.7282 370.217 30.1073 372.113 29.7282C373.724 29.3965 375.051 28.591 376.141 27.2641C377.231 25.9373 377.657 24.4684 377.515 22.9046L372.113 23.9471L371.402 20.8196Z" fill="#EC423C"/>
<path d="M386.708 7.40932L388.556 20.6301C388.84 22.5255 389.314 23.8523 390.072 24.6579C391.162 25.7952 392.536 26.2217 394.195 25.9847C395.853 25.7478 397.085 24.9422 397.843 23.568C398.365 22.6203 398.459 21.1987 398.175 19.3033L396.327 6.0825L399.644 5.60864L401.634 19.7297C401.966 22.0517 401.492 24.0419 400.26 25.7478C398.886 27.6432 396.991 28.7331 394.621 29.0648C392.252 29.3965 390.167 28.8279 388.319 27.4063C386.66 26.1269 385.665 24.3262 385.381 22.0043L383.391 7.88318L386.708 7.40932Z" fill="#EC423C"/>
<path d="M408.837 4.66089L411.159 26.6955L407.842 27.0272L405.52 4.99259L408.837 4.66089Z" fill="#EC423C"/>
<path d="M417.888 3.80795L419.405 22.7624L425.897 22.2412L426.134 25.3687L416.325 26.1743L414.571 4.09227L417.888 3.80795Z" fill="#EC423C"/>
<path d="M429.119 25.1792L428.218 3.04979L432.862 2.86025C435.089 2.76548 436.843 2.90764 438.169 3.28673C439.591 3.66582 440.87 4.32922 442.008 5.32433C444.377 7.31456 445.609 10.0156 445.751 13.38C445.893 16.7918 444.803 19.5876 442.529 21.7674C441.392 22.8572 440.16 23.6628 438.88 24.1367C437.696 24.6105 435.942 24.8949 433.715 24.9422L429.119 25.1792ZM432.341 21.9095L433.857 21.8621C435.374 21.8147 436.606 21.5778 437.601 21.2461C438.596 20.867 439.449 20.2984 440.207 19.5402C441.771 17.9765 442.529 15.9862 442.434 13.5695C442.339 11.1528 441.439 9.21001 439.781 7.74103C438.264 6.4616 436.084 5.84558 433.241 5.98774L431.677 6.03513L432.341 21.9095Z" fill="#EC423C"/>
<path d="M464.848 4.23443L464.706 0.348755L467.596 0.396141L467.265 4.28181L470.913 2.955L471.719 5.7034L467.928 6.60374L470.297 9.68384L467.928 11.3424L465.89 8.02533L463.711 11.2476L461.436 9.4943L463.995 6.55635L460.251 5.46647L461.199 2.76545L464.848 4.23443Z" fill="#EC423C"/>
<path d="M498.398 15.0385L507.496 15.8914L507.449 16.6022C507.306 18.2607 506.975 19.7297 506.453 20.9618C505.98 22.099 505.221 23.1415 504.226 24.0892C501.952 26.2216 499.251 27.122 496.076 26.8376C492.996 26.5533 490.437 25.1791 488.447 22.7624C486.456 20.2983 485.603 17.5499 485.888 14.3751C486.172 11.1528 487.546 8.54656 490.01 6.55634C492.474 4.51873 495.27 3.66578 498.493 3.9501C500.198 4.09226 501.81 4.61351 503.231 5.46646C504.605 6.31941 505.885 7.59884 507.117 9.30474L504.511 11.3424C502.947 8.78349 500.814 7.36191 498.256 7.12498C495.934 6.88805 493.896 7.55145 492.143 8.97304C490.437 10.3946 489.442 12.2901 489.205 14.7068C488.968 17.1709 489.679 19.2559 491.29 21.0091C492.806 22.6203 494.512 23.5206 496.455 23.7102C498.113 23.8523 499.63 23.4258 501.004 22.4781C502.426 21.483 503.279 20.2036 503.563 18.6872L498.066 18.166L498.398 15.0385Z" fill="#EC423C"/>
<path d="M516.878 6.50896L514.935 19.7297C514.651 21.6252 514.746 23.0468 515.267 23.9945C515.978 25.3687 517.21 26.2216 518.868 26.4586C520.527 26.6955 521.948 26.269 523.038 25.1317C523.796 24.3736 524.27 23.0468 524.555 21.1513L526.497 7.93054L529.814 8.40441L527.729 22.5255C527.398 24.8474 526.403 26.6481 524.744 27.9275C522.896 29.3491 520.764 29.9178 518.394 29.5387C516.025 29.207 514.177 28.0697 512.803 26.1742C511.571 24.4683 511.144 22.4781 511.476 20.1562L513.561 6.0351L516.878 6.50896Z" fill="#EC423C"/>
<path d="M538.865 10.063L534.885 31.8606L531.615 31.2446L535.596 9.44693L538.865 10.063Z" fill="#EC423C"/>
<path d="M547.774 11.8162L543.888 30.439L550.285 31.7658L549.622 34.8459L539.955 32.8083L544.504 11.1054L547.774 11.8162Z" fill="#EC423C"/>
<path d="M552.513 35.462L557.915 13.996L562.416 15.1333C564.596 15.6545 566.255 16.3179 567.392 17.0761C568.624 17.8343 569.667 18.8294 570.519 20.1088C572.225 22.6677 572.652 25.6056 571.846 28.9227C571.041 32.2397 569.193 34.609 566.349 36.078C564.928 36.7888 563.554 37.2153 562.18 37.31C560.9 37.4048 559.147 37.1679 556.967 36.6466L552.513 35.462ZM556.541 33.2348L558.009 33.6139C559.478 33.993 560.711 34.1352 561.753 34.0878C562.796 33.993 563.791 33.7087 564.738 33.1874C566.681 32.1449 567.961 30.439 568.577 28.1171C569.145 25.7478 568.861 23.6628 567.629 21.8147C566.539 20.1562 564.596 18.9716 561.848 18.2608L560.379 17.8817L556.541 33.2348Z" fill="#EC423C"/>
<path d="M594.592 30.7233C595.776 31.1024 596.629 31.8606 597.15 32.9979C597.719 34.1351 597.814 35.3198 597.387 36.5044C596.961 37.7365 596.203 38.6368 595.113 39.2055C593.976 39.7741 592.838 39.8689 591.606 39.4898C590.422 39.1107 589.521 38.3525 588.953 37.1679C588.384 36.0306 588.289 34.8459 588.716 33.6139C589.142 32.3818 589.9 31.4815 591.038 30.9129C592.175 30.3916 593.36 30.2968 594.592 30.7233Z" fill="#EC423C"/>
<path d="M617.1 43.5176L625.63 46.8347L625.345 47.4981C624.729 49.0618 624.018 50.3412 623.213 51.3837C622.407 52.3315 621.412 53.137 620.18 53.8004C617.432 55.222 614.588 55.3642 611.603 54.1795C608.713 53.0423 606.628 51.052 605.396 48.1615C604.164 45.2709 604.116 42.333 605.253 39.4424C606.438 36.4571 608.476 34.3247 611.366 33.0453C614.257 31.7658 617.242 31.7185 620.227 32.8557C621.839 33.4717 623.213 34.4195 624.35 35.6041C625.44 36.7888 626.34 38.3525 627.051 40.3427L624.018 41.6222C623.213 38.7316 621.554 36.7888 619.138 35.8411C616.958 34.9881 614.825 35.0355 612.74 35.9832C610.703 36.8835 609.234 38.4473 608.381 40.6744C607.481 42.9964 607.575 45.1761 608.665 47.3085C609.66 49.2987 611.082 50.6256 612.883 51.3364C614.399 51.9524 616.01 51.9524 617.621 51.3837C619.232 50.8151 620.417 49.82 621.128 48.4458L615.963 46.4556L617.1 43.5176Z" fill="#EC423C"/>
<path d="M637.192 40.3427L631.695 52.521C630.89 54.2743 630.605 55.6485 630.842 56.691C631.174 58.2547 632.074 59.3446 633.638 60.0554C635.202 60.7662 636.623 60.7188 637.998 59.9132C638.898 59.392 639.751 58.2547 640.556 56.5014L646.053 44.3232L649.086 45.6974L643.21 58.6812C642.262 60.8136 640.793 62.2826 638.851 63.0407C636.671 63.8937 634.491 63.8463 632.311 62.8512C630.131 61.8561 628.662 60.2923 627.857 58.0652C627.146 56.075 627.288 54.0374 628.236 51.905L634.112 38.9211L637.192 40.3427Z" fill="#EC423C"/>
<path d="M657.379 49.82L647.57 69.6748L644.584 68.2058L654.393 48.351L657.379 49.82Z" fill="#EC423C"/>
<path d="M665.434 53.9426L656.573 70.7647L662.354 73.7974L660.885 76.5932L652.166 71.9967L662.449 52.3788L665.434 53.9426Z" fill="#EC423C"/>
<path d="M663.539 77.9674L674.627 58.776L678.655 61.0979C680.598 62.1878 682.02 63.2777 682.92 64.3202C683.915 65.3627 684.626 66.6421 685.1 68.1111C686.047 71.049 685.668 73.987 683.962 76.9249C682.257 79.8629 679.84 81.6635 676.76 82.2795C675.196 82.6112 673.727 82.6112 672.4 82.2795C671.121 82.0426 669.51 81.3318 667.567 80.1946L663.539 77.9674ZM667.993 76.9249L669.32 77.6831C670.6 78.4413 671.784 78.9151 672.779 79.1521C673.822 79.3416 674.864 79.3416 675.907 79.1047C678.087 78.6308 679.792 77.3514 680.977 75.2664C682.209 73.1814 682.493 71.049 681.83 68.9166C681.214 67.0212 679.698 65.3627 677.234 63.9411L675.907 63.1829L667.993 76.9249Z" fill="#EC423C"/>
<path d="M704.907 79.389L706.897 76.072L709.314 77.6831L706.992 80.7632L710.783 81.6161L709.977 84.4119L706.329 83.1325L706.708 87.0182L703.817 87.1129L703.865 83.2273L700.311 84.791L699.315 82.09L703.012 80.9527L700.453 78.0622L702.727 76.2615L704.907 79.389Z" fill="#EC423C"/>
<path d="M727.463 106.541L734.713 112.133L734.286 112.702C733.291 114.028 732.201 115.071 731.111 115.829C730.069 116.54 728.884 117.014 727.557 117.298C724.525 117.867 721.729 117.203 719.217 115.26C716.753 113.365 715.332 110.853 714.953 107.726C714.574 104.598 715.379 101.803 717.275 99.2912C719.265 96.7324 721.776 95.2634 724.951 94.8843C728.126 94.5052 730.969 95.2634 733.481 97.2536C734.855 98.2961 735.897 99.5755 736.656 101.044C737.366 102.466 737.793 104.267 737.888 106.352L734.618 106.683C734.665 103.651 733.67 101.329 731.585 99.7651C729.737 98.3435 727.7 97.7748 725.425 98.0592C723.198 98.3435 721.35 99.4334 719.881 101.329C718.364 103.272 717.843 105.451 718.27 107.773C718.649 109.953 719.644 111.659 721.16 112.844C722.44 113.839 723.956 114.313 725.662 114.218C727.368 114.123 728.79 113.507 729.879 112.37L725.52 109.005L727.463 106.541Z" fill="#EC423C"/>
<path d="M747.65 109.195L738.93 119.288C737.698 120.71 737.035 121.989 736.893 123.079C736.751 124.643 737.319 125.97 738.599 127.06C739.878 128.149 741.3 128.529 742.816 128.197C743.859 127.96 744.996 127.107 746.228 125.638L754.947 115.545L757.458 117.724L748.123 128.529C746.607 130.282 744.806 131.277 742.721 131.467C740.399 131.656 738.314 130.993 736.514 129.429C734.713 127.865 733.765 125.922 733.623 123.6C733.528 121.515 734.192 119.573 735.755 117.819L745.091 107.015L747.65 109.195Z" fill="#EC423C"/>
<path d="M764.33 124.027L749.308 140.28L746.844 138.006L761.866 121.752L764.33 124.027Z" fill="#EC423C"/>
<path d="M770.916 130.234L757.696 143.882L762.387 148.431L760.207 150.705L753.146 143.834L768.594 127.96L770.916 130.234Z" fill="#EC423C"/>
<path d="M762.244 152.743L778.261 137.484L781.483 140.849C782.999 142.46 784.089 143.882 784.658 145.114C785.321 146.393 785.653 147.815 785.653 149.378C785.7 152.459 784.516 155.207 782.052 157.529C779.588 159.898 776.792 160.893 773.617 160.656C772.053 160.514 770.632 160.135 769.447 159.472C768.31 158.856 766.983 157.766 765.419 156.107L762.244 152.743ZM766.841 153.027L767.883 154.117C768.926 155.207 769.873 156.013 770.821 156.486C771.769 156.96 772.764 157.245 773.854 157.339C776.081 157.481 778.071 156.723 779.824 155.065C781.578 153.406 782.431 151.463 782.431 149.236C782.383 147.246 781.388 145.208 779.445 143.171L778.403 142.081L766.841 153.027Z" fill="#EC423C"/>
<path d="M800.343 171.224C801.101 172.171 801.433 173.261 801.291 174.541C801.149 175.82 800.58 176.862 799.632 177.668C798.637 178.474 797.5 178.853 796.221 178.758C794.941 178.663 793.899 178.095 793.093 177.147C792.287 176.199 791.956 175.062 792.098 173.782C792.24 172.503 792.809 171.46 793.756 170.655C794.752 169.849 795.889 169.47 797.168 169.612C798.448 169.66 799.538 170.228 800.343 171.224Z" fill="#EC423C"/>
<path d="M812.521 194.064L817.97 201.409L817.402 201.835C816.075 202.83 814.748 203.541 813.516 204.015C812.331 204.394 811.052 204.536 809.678 204.441C806.598 204.157 804.086 202.735 802.238 200.224C800.39 197.712 799.727 194.917 800.2 191.837C800.674 188.709 802.191 186.245 804.75 184.35C807.308 182.454 810.199 181.696 813.326 182.17C816.454 182.644 819.013 184.16 820.908 186.766C821.951 188.14 822.614 189.657 822.946 191.315C823.23 192.879 823.135 194.727 822.709 196.765L819.439 196.196C820.292 193.306 819.961 190.794 818.397 188.709C817.023 186.814 815.175 185.724 812.947 185.392C810.72 185.06 808.635 185.629 806.74 187.051C804.75 188.52 803.66 190.462 803.423 192.832C803.233 195.059 803.707 196.907 804.844 198.471C805.839 199.797 807.166 200.65 808.825 201.029C810.483 201.409 812 201.219 813.374 200.413L810.104 195.959L812.521 194.064Z" fill="#EC423C"/>
<path d="M831.239 202.119L820.103 209.464C818.54 210.507 817.544 211.549 817.118 212.544C816.549 214.013 816.739 215.482 817.687 216.856C818.634 218.278 819.866 218.989 821.43 219.084C822.473 219.131 823.799 218.61 825.411 217.567L836.546 210.222L838.394 213.018L826.5 220.884C824.558 222.164 822.567 222.638 820.482 222.259C818.16 221.832 816.36 220.6 815.033 218.61C813.706 216.62 813.327 214.487 813.801 212.213C814.275 210.175 815.459 208.516 817.402 207.19L829.296 199.324L831.239 202.119Z" fill="#EC423C"/>
<path d="M843.227 220.884L824.32 232.447L822.567 229.603L841.474 218.041L843.227 220.884Z" fill="#EC423C"/>
<path d="M847.871 228.656L831.428 238.18L834.698 243.819L831.997 245.383L827.069 236.853L846.213 225.765L847.871 228.656Z" fill="#EC423C"/>
<path d="M833.466 247.989L853.037 237.659L855.217 241.782C856.259 243.772 856.875 245.43 857.112 246.757C857.396 248.179 857.302 249.648 856.923 251.117C856.164 254.102 854.269 256.424 851.236 257.988C848.203 259.599 845.218 259.788 842.28 258.699C840.811 258.13 839.579 257.372 838.584 256.377C837.636 255.476 836.641 254.055 835.599 252.064L833.466 247.989ZM837.778 249.506L838.489 250.832C839.2 252.159 839.911 253.202 840.669 253.912C841.427 254.623 842.328 255.192 843.323 255.571C845.408 256.329 847.54 256.14 849.672 255.002C851.805 253.865 853.179 252.207 853.748 250.074C854.269 248.131 853.842 245.952 852.516 243.393L851.805 242.066L837.778 249.506Z" fill="#EC423C"/>
<path d="M867.726 271.256L871.186 269.503L872.37 272.156L868.722 273.53L871.47 276.279L869.338 278.222L866.921 275.189L865.168 278.648L862.656 277.227L864.788 273.957L860.95 273.388L861.566 270.545L865.31 271.588L864.694 267.749L867.537 267.465L867.726 271.256Z" fill="#EC423C"/>
<path d="M872.323 306.227L875.45 314.804L874.739 315.041C873.176 315.609 871.707 315.941 870.38 315.988C869.148 316.036 867.868 315.799 866.589 315.325C863.698 314.188 861.708 312.103 860.666 309.117C859.623 306.227 859.765 303.336 861.092 300.493C862.466 297.65 864.599 295.707 867.584 294.617C870.617 293.527 873.555 293.622 876.398 294.996C879.288 296.323 881.279 298.503 882.368 301.536C882.937 303.147 883.174 304.805 883.032 306.464C882.842 308.075 882.274 309.781 881.231 311.629L878.293 310.16C879.952 307.649 880.331 305.137 879.431 302.673C878.625 300.493 877.203 298.882 875.118 297.982C873.081 297.034 870.948 296.987 868.674 297.792C866.352 298.645 864.741 300.162 863.84 302.389C863.035 304.474 862.94 306.369 863.604 308.217C864.172 309.781 865.215 310.966 866.684 311.819C868.2 312.671 869.669 312.908 871.185 312.529L869.29 307.317L872.323 306.227Z" fill="#EC423C"/>
<path d="M887.96 319.258L875.214 323.144C873.413 323.712 872.133 324.423 871.47 325.229C870.522 326.508 870.285 327.93 870.807 329.541C871.28 331.152 872.276 332.242 873.792 332.763C874.787 333.095 876.209 333 878.057 332.431L890.804 328.546L891.799 331.721L878.151 335.891C875.924 336.554 873.887 336.412 871.991 335.464C869.906 334.374 868.532 332.716 867.821 330.441C867.111 328.167 867.347 325.987 868.485 323.949C869.527 322.101 871.138 320.869 873.365 320.206L887.013 316.036L887.96 319.258Z" fill="#EC423C"/>
<path d="M894.121 340.677L872.702 346.363L871.849 343.141L893.268 337.454L894.121 340.677Z" fill="#EC423C"/>
<path d="M896.348 349.491L877.867 353.945L879.383 360.295L876.351 361.005L874.029 351.433L895.59 346.268L896.348 349.491Z" fill="#EC423C"/>
<path d="M877.014 363.896L898.717 359.584L899.617 364.133C900.044 366.313 900.186 368.066 899.996 369.44C899.854 370.862 899.38 372.283 898.575 373.563C896.964 376.216 894.5 377.875 891.183 378.538C887.866 379.202 884.928 378.586 882.369 376.643C881.089 375.695 880.142 374.605 879.478 373.373C878.815 372.236 878.294 370.577 877.867 368.398L877.014 363.896ZM880.758 366.55L881.042 368.019C881.326 369.488 881.753 370.672 882.227 371.62C882.748 372.52 883.459 373.326 884.312 373.942C886.112 375.269 888.197 375.695 890.567 375.221C892.936 374.747 894.737 373.563 895.874 371.667C896.916 369.961 897.153 367.734 896.585 364.938L896.3 363.469L880.758 366.55Z" fill="#EC423C"/>
<path d="M899.286 399.862C899.428 401.094 899.096 402.184 898.291 403.179C897.485 404.174 896.49 404.743 895.211 404.932C893.931 405.075 892.794 404.79 891.751 404.032C890.756 403.274 890.14 402.231 889.998 400.999C889.856 399.767 890.14 398.63 890.946 397.635C891.751 396.64 892.794 396.071 894.026 395.882C895.305 395.74 896.443 396.024 897.485 396.829C898.528 397.54 899.096 398.583 899.286 399.862Z" fill="#EC423C"/>
<path d="M897.343 425.688L898.006 434.833L897.295 434.881C895.637 435.023 894.168 434.928 892.841 434.596C891.609 434.312 890.472 433.743 889.382 432.89C886.918 430.995 885.591 428.483 885.354 425.309C885.117 422.228 886.065 419.48 888.15 417.111C890.235 414.741 892.841 413.462 895.968 413.225C899.191 412.988 901.986 413.936 904.356 416.021C906.773 418.106 908.099 420.759 908.289 423.982C908.431 425.688 908.194 427.346 907.578 428.91C906.962 430.379 905.92 431.895 904.451 433.364L901.986 431.137C904.261 429.147 905.304 426.872 905.114 424.266C904.924 421.944 903.977 420.049 902.271 418.58C900.565 417.111 898.527 416.447 896.158 416.637C893.694 416.826 891.751 417.822 890.282 419.717C888.908 421.47 888.292 423.318 888.434 425.261C888.529 426.92 889.192 428.341 890.424 429.573C891.656 430.805 893.031 431.421 894.594 431.469L894.215 425.972L897.343 425.688Z" fill="#EC423C"/>
<path d="M908.81 442.462L895.495 442.699C893.599 442.747 892.225 443.078 891.325 443.694C890.093 444.642 889.477 445.969 889.477 447.627C889.524 449.333 890.187 450.613 891.467 451.513C892.32 452.129 893.741 452.413 895.637 452.366L908.952 452.129L909 455.494L894.737 455.778C892.415 455.825 890.472 455.114 888.908 453.693C887.202 452.082 886.302 450.091 886.254 447.722C886.207 445.353 887.013 443.315 888.671 441.657C890.14 440.188 892.083 439.43 894.405 439.382L908.668 439.098L908.81 442.462Z" fill="#EC423C"/>
<path d="M908.905 464.781L886.776 464.402L886.823 461.038L908.953 461.417L908.905 464.781Z" fill="#EC423C"/>
<path d="M908.668 473.832L889.666 473.074L889.429 479.566L886.302 479.424L886.681 469.567L908.81 470.42L908.668 473.832Z" fill="#EC423C"/>
<path d="M886.159 482.456L908.242 484.162L907.862 488.806C907.673 491.033 907.341 492.787 906.773 494.019C906.251 495.345 905.398 496.577 904.308 497.62C902.034 499.752 899.238 500.653 895.826 500.416C892.414 500.131 889.761 498.757 887.865 496.198C886.918 494.919 886.254 493.639 885.97 492.265C885.638 491.033 885.591 489.28 885.78 487.005L886.159 482.456ZM889.003 486.01L888.908 487.527C888.813 489.043 888.86 490.275 889.097 491.318C889.334 492.313 889.808 493.26 890.472 494.113C891.846 495.867 893.741 496.862 896.111 497.051C898.527 497.241 900.565 496.577 902.176 495.061C903.645 493.687 904.498 491.602 904.688 488.759L904.782 487.242L889.003 486.01Z" fill="#EC423C"/>
<path d="M902.697 520.413L906.583 520.744L906.157 523.588L902.366 522.782L903.219 526.573L900.376 527.047L899.949 523.209L896.632 525.199L895.305 522.64L898.859 521.029L895.921 518.47L897.911 516.385L900.518 519.275L902.034 515.674L904.64 516.953L902.697 520.413Z" fill="#EC423C"/>
<path d="M881.611 552.73L883.601 543.442L878.862 539.888L879.62 536.382L900.375 552.019L875.166 557.421L875.924 553.867L881.611 552.73ZM884.928 552.067L892.983 550.408L886.349 545.48L884.928 552.067Z" fill="#EC423C"/>
<path d="M896.016 565.098L880.237 566.756L893.979 576.755L877.156 578.129L889.809 587.938L888.861 591.445L868.769 575.665L885.402 574.338L871.802 564.482L897.011 561.639L896.016 565.098Z" fill="#EC423C"/>
<path d="M868.058 600.164L871.091 591.16L866.779 587.085L867.916 583.673L886.728 601.538L861.045 604.049L862.23 600.59L868.058 600.164ZM871.47 599.879L879.668 599.169L873.602 593.53L871.47 599.879Z" fill="#EC423C"/>
<path d="M866.163 616.844L854.885 619.829L856.354 616.038L867.11 613.432L867.347 612.863L858.913 609.594L860.097 606.466L880.758 614.474L879.336 618.123C878.294 620.872 877.014 622.625 875.498 623.43C873.839 624.331 872.086 624.426 870.191 623.667C868.722 623.099 867.632 622.198 866.921 620.966C866.21 619.734 865.926 618.36 866.163 616.844ZM870.048 613.906L869.669 614.901C868.532 617.839 869.101 619.782 871.328 620.635C873.46 621.44 875.071 620.445 876.161 617.555L876.588 616.465L870.048 613.906Z" fill="#EC423C"/>
<path d="M855.785 646.176L851.9 654.468L851.236 654.137C849.72 653.426 848.488 652.62 847.493 651.72C846.592 650.867 845.834 649.824 845.313 648.545C844.081 645.702 844.176 642.859 845.503 639.968C846.829 637.172 848.962 635.23 851.947 634.187C854.932 633.145 857.823 633.287 860.666 634.613C863.557 635.988 865.547 638.167 866.637 641.153C867.727 644.138 867.585 647.076 866.21 650.014C865.452 651.578 864.457 652.905 863.178 653.947C861.946 654.942 860.287 655.748 858.249 656.316L857.207 653.189C860.192 652.573 862.183 651.104 863.32 648.735C864.315 646.602 864.41 644.47 863.651 642.385C862.893 640.252 861.424 638.689 859.245 637.694C857.017 636.651 854.79 636.604 852.611 637.504C850.573 638.357 849.151 639.684 848.298 641.437C847.588 642.906 847.493 644.517 847.919 646.176C848.393 647.834 849.293 649.066 850.62 649.872L852.99 644.896L855.785 646.176Z" fill="#EC423C"/>
<path d="M857.586 666.41L845.834 660.107C844.175 659.207 842.801 658.828 841.711 658.97C840.148 659.207 838.963 660.013 838.157 661.529C837.352 662.998 837.304 664.467 837.968 665.888C838.442 666.836 839.484 667.784 841.19 668.684L852.942 674.987L851.378 677.925L838.821 671.196C836.783 670.106 835.409 668.542 834.793 666.552C834.082 664.325 834.272 662.145 835.409 660.06C836.546 657.975 838.205 656.601 840.479 655.937C842.517 655.369 844.555 655.653 846.592 656.743L859.15 663.472L857.586 666.41Z" fill="#EC423C"/>
<path d="M846.734 685.933L827.59 674.797L829.249 671.906L848.393 683.042L846.734 685.933Z" fill="#EC423C"/>
<path d="M842.043 693.704L825.837 683.753L822.425 689.297L819.771 687.639L824.937 679.251L843.796 690.861L842.043 693.704Z" fill="#EC423C"/>
<path d="M818.208 690.15L836.594 702.518L833.988 706.356C832.756 708.204 831.571 709.531 830.481 710.384C829.344 711.284 828.065 711.948 826.548 712.28C823.563 713.038 820.625 712.422 817.829 710.526C814.986 708.631 813.375 706.119 812.948 702.944C812.759 701.381 812.854 699.912 813.233 698.585C813.564 697.353 814.37 695.789 815.602 693.941L818.208 690.15ZM818.966 694.652L818.113 695.884C817.26 697.116 816.692 698.253 816.408 699.248C816.123 700.243 816.076 701.286 816.218 702.376C816.55 704.556 817.734 706.356 819.725 707.683C821.762 709.057 823.847 709.484 825.979 708.963C827.922 708.489 829.676 707.067 831.287 704.698L832.14 703.466L818.966 694.652Z" fill="#EC423C"/>
<path d="M808.446 731.329C807.688 732.277 806.693 732.845 805.413 732.987C804.134 733.13 802.997 732.798 802.001 732.04C800.959 731.234 800.39 730.192 800.201 728.96C800.011 727.68 800.343 726.59 801.101 725.595C801.859 724.6 802.902 724.031 804.181 723.889C805.461 723.747 806.598 724.079 807.593 724.837C808.635 725.642 809.204 726.685 809.346 727.917C809.536 729.149 809.251 730.286 808.446 731.329Z" fill="#EC423C"/>
<path d="M788.781 748.151L782.763 755.069L782.194 754.595C780.915 753.506 779.967 752.368 779.256 751.231C778.593 750.189 778.214 748.956 778.024 747.582C777.645 744.502 778.451 741.801 780.536 739.384C782.573 737.063 785.132 735.783 788.307 735.594C791.435 735.404 794.23 736.352 796.6 738.389C799.016 740.474 800.343 743.128 800.58 746.303C800.817 749.478 799.869 752.274 797.737 754.69C796.6 756.017 795.273 756.965 793.756 757.676C792.287 758.292 790.487 758.623 788.402 758.623L788.26 755.306C791.292 755.543 793.662 754.643 795.368 752.653C796.884 750.899 797.595 748.862 797.405 746.635C797.263 744.407 796.268 742.512 794.467 740.901C792.619 739.29 790.487 738.626 788.117 738.911C785.89 739.195 784.184 740.048 782.905 741.517C781.815 742.749 781.294 744.218 781.246 745.971C781.246 747.677 781.768 749.146 782.858 750.283L786.459 746.113L788.781 748.151Z" fill="#EC423C"/>
<path d="M784.99 768.148L775.37 758.86C773.996 757.533 772.764 756.775 771.722 756.633C770.158 756.396 768.784 756.917 767.646 758.102C766.462 759.334 766.035 760.708 766.272 762.272C766.462 763.315 767.22 764.499 768.642 765.826L778.261 775.114L775.939 777.53L765.704 767.627C764.045 766.016 763.145 764.168 763.05 762.035C762.955 759.666 763.761 757.676 765.419 755.97C767.078 754.264 769.068 753.411 771.39 753.411C773.475 753.411 775.37 754.216 777.076 755.828L787.312 765.731L784.99 768.148Z" fill="#EC423C"/>
<path d="M769.258 783.975L753.857 768.053L756.274 765.731L771.675 781.653L769.258 783.975Z" fill="#EC423C"/>
<path d="M762.671 790.183L749.782 776.204L744.996 780.61L742.863 778.289L750.113 771.607L765.087 787.908L762.671 790.183Z" fill="#EC423C"/>
<path d="M740.684 780.279L755.042 797.148L751.488 800.181C749.782 801.603 748.313 802.598 747.033 803.119C745.707 803.688 744.285 803.925 742.721 803.877C739.641 803.782 736.987 802.408 734.808 799.849C732.581 797.243 731.728 794.4 732.154 791.225C732.391 789.661 732.865 788.287 733.576 787.102C734.239 786.013 735.424 784.733 737.13 783.264L740.684 780.279ZM740.162 784.828L739.025 785.823C737.888 786.818 737.035 787.718 736.466 788.619C735.945 789.519 735.566 790.514 735.424 791.557C735.139 793.784 735.803 795.774 737.367 797.622C738.93 799.47 740.826 800.465 743.053 800.56C745.043 800.655 747.128 799.755 749.308 797.907L750.445 796.911L740.162 784.828Z" fill="#EC423C"/>
<path d="M725.426 818.756L727.89 821.742L725.568 823.448L723.435 820.225L721.35 823.495L718.981 821.837L721.398 818.804L717.654 817.856L718.507 815.108L722.156 816.482L721.872 812.596L724.762 812.549L724.573 816.434L728.174 814.966L729.074 817.714L725.426 818.756Z" fill="#EC423C"/>
<path d="M692.302 830.935L684.578 835.863L684.199 835.247C683.299 833.825 682.683 832.498 682.304 831.219C681.972 830.034 681.925 828.755 682.162 827.381C682.636 824.301 684.247 821.931 686.9 820.225C689.507 818.567 692.35 818.046 695.43 818.756C698.51 819.467 700.879 821.126 702.585 823.779C704.338 826.48 704.86 829.371 704.149 832.498C703.486 835.626 701.78 838.043 699.079 839.749C697.61 840.696 696.046 841.265 694.435 841.454C692.824 841.644 691.023 841.407 689.033 840.838L689.791 837.616C692.634 838.659 695.146 838.517 697.325 837.095C699.316 835.816 700.5 834.11 700.974 831.882C701.448 829.703 701.069 827.57 699.742 825.58C698.415 823.495 696.567 822.263 694.198 821.884C692.018 821.505 690.075 821.884 688.464 822.926C687.09 823.827 686.142 825.059 685.621 826.717C685.1 828.376 685.242 829.892 685.953 831.266L690.597 828.281L692.302 830.935Z" fill="#EC423C"/>
<path d="M683.014 849.036L676.428 837.427C675.48 835.768 674.532 834.726 673.537 834.252C672.116 833.588 670.646 833.683 669.178 834.536C667.709 835.389 666.903 836.574 666.713 838.137C666.571 839.18 666.998 840.554 667.945 842.213L674.532 853.822L671.642 855.481L664.581 843.066C663.444 841.028 663.112 838.99 663.633 836.953C664.202 834.678 665.576 832.972 667.614 831.788C669.699 830.603 671.831 830.366 674.106 831.029C676.096 831.645 677.707 832.925 678.844 834.963L685.905 847.378L683.014 849.036Z" fill="#EC423C"/>
<path d="M663.444 859.746L653.208 840.128L656.194 838.564L666.429 858.182L663.444 859.746Z" fill="#EC423C"/>
<path d="M655.341 863.821L646.954 846.762L641.125 849.652L639.751 846.809L648.612 842.45L658.374 862.352L655.341 863.821Z" fill="#EC423C"/>
<path d="M637.05 848.089L646.006 868.322L641.741 870.218C639.704 871.118 637.998 871.639 636.623 871.734C635.202 871.924 633.733 871.734 632.264 871.26C629.326 870.265 627.193 868.228 625.819 865.148C624.445 862.02 624.398 859.035 625.725 856.144C626.388 854.675 627.241 853.538 628.283 852.638C629.231 851.785 630.747 850.884 632.785 849.984L637.05 848.089ZM635.297 852.353L633.922 852.969C632.548 853.585 631.458 854.249 630.7 854.912C629.942 855.623 629.326 856.476 628.899 857.471C627.999 859.509 628.046 861.641 629.042 863.821C630.037 866.048 631.553 867.517 633.685 868.228C635.581 868.891 637.808 868.607 640.414 867.469L641.789 866.853L635.297 852.353Z" fill="#EC423C"/>
<path d="M606.864 877.705C605.727 878.131 604.59 878.037 603.405 877.468C602.268 876.899 601.462 876.046 601.036 874.862C600.609 873.63 600.657 872.445 601.178 871.308C601.699 870.171 602.552 869.365 603.737 868.938C604.922 868.512 606.059 868.559 607.244 869.128C608.381 869.697 609.186 870.55 609.613 871.782C610.039 873.014 609.992 874.198 609.471 875.336C608.949 876.473 608.049 877.278 606.864 877.705Z" fill="#EC423C"/>
<path d="M581.229 881.496L572.462 884.149L572.273 883.439C571.799 881.828 571.562 880.359 571.562 879.032C571.609 877.8 571.894 876.52 572.462 875.288C573.742 872.492 575.922 870.597 578.954 869.697C581.94 868.796 584.783 869.128 587.531 870.597C590.28 872.113 592.128 874.388 593.028 877.373C593.976 880.453 593.644 883.391 592.175 886.187C590.659 888.983 588.384 890.831 585.304 891.779C583.646 892.3 581.987 892.395 580.376 892.158C578.812 891.873 577.106 891.21 575.353 890.073L576.964 887.182C579.381 888.983 581.892 889.504 584.356 888.746C586.583 888.083 588.242 886.708 589.285 884.718C590.327 882.728 590.517 880.596 589.853 878.321C589.142 875.952 587.721 874.246 585.541 873.251C583.551 872.303 581.608 872.113 579.76 872.682C578.196 873.156 576.917 874.104 576.016 875.573C575.069 877.042 574.784 878.511 575.069 880.074L580.376 878.463L581.229 881.496Z" fill="#EC423C"/>
<path d="M567.345 896.328L564.17 883.344C563.743 881.496 563.08 880.216 562.274 879.506C561.09 878.51 559.668 878.179 558.009 878.558C556.351 878.937 555.261 879.885 554.645 881.354C554.219 882.349 554.266 883.77 554.74 885.618L557.915 898.602L554.645 899.408L551.281 885.571C550.712 883.296 550.996 881.259 552.039 879.458C553.223 877.421 554.977 876.141 557.299 875.573C559.621 875.004 561.753 875.336 563.743 876.615C565.496 877.752 566.681 879.458 567.202 881.685L570.567 895.522L567.345 896.328Z" fill="#EC423C"/>
<path d="M545.594 901.256L541.14 879.553L544.41 878.89L548.864 900.592L545.594 901.256Z" fill="#EC423C"/>
<path d="M536.638 903.009L533.274 884.292L526.877 885.429L526.308 882.349L536.022 880.595L539.955 902.393L536.638 903.009Z" fill="#EC423C"/>
<path d="M523.417 882.87L526.497 904.81L521.901 905.473C519.674 905.805 517.92 905.805 516.594 905.568C515.172 905.331 513.798 904.762 512.566 903.91C510.007 902.156 508.491 899.597 508.017 896.233C507.543 892.869 508.348 889.978 510.386 887.561C511.429 886.377 512.566 885.476 513.798 884.86C514.935 884.292 516.641 883.818 518.868 883.533L523.417 882.87ZM520.527 886.424L519.058 886.614C517.589 886.803 516.357 887.135 515.409 887.609C514.461 888.083 513.656 888.746 512.945 889.551C511.523 891.257 511.002 893.295 511.334 895.712C511.665 898.128 512.755 899.976 514.556 901.208C516.215 902.346 518.442 902.725 521.237 902.298L522.706 902.109L520.527 886.424Z" fill="#EC423C"/>
<path d="M486.219 903.057C484.987 903.151 483.897 902.772 482.997 901.919C482.049 901.066 481.528 900.024 481.433 898.744C481.338 897.465 481.718 896.328 482.523 895.38C483.329 894.432 484.371 893.864 485.651 893.816C486.883 893.722 487.973 894.101 488.968 894.954C489.915 895.807 490.437 896.849 490.531 898.128C490.626 899.408 490.247 900.545 489.394 901.493C488.541 902.441 487.499 902.962 486.219 903.057Z" fill="#EC423C"/>
<path d="M460.536 899.692L451.39 899.834V899.123C451.343 897.465 451.533 895.996 451.912 894.717C452.291 893.532 452.907 892.395 453.807 891.352C455.845 888.983 458.404 887.798 461.579 887.751C464.659 887.703 467.36 888.793 469.587 890.973C471.814 893.2 472.999 895.854 473.046 899.029C473.093 902.251 472.004 904.999 469.824 907.274C467.597 909.548 464.896 910.733 461.673 910.78C459.92 910.828 458.309 910.496 456.793 909.785C455.324 909.122 453.902 907.985 452.528 906.421L454.85 904.099C456.698 906.468 458.925 907.653 461.531 907.606C463.853 907.558 465.843 906.705 467.407 905.094C468.971 903.483 469.729 901.493 469.682 899.076C469.634 896.612 468.734 894.574 466.933 893.011C465.275 891.542 463.427 890.831 461.531 890.878C459.873 890.926 458.404 891.494 457.124 892.632C455.845 893.769 455.134 895.143 454.992 896.707L460.536 896.612V899.692Z" fill="#EC423C"/>
<path d="M443.145 910.212L443.619 896.896C443.666 895.001 443.429 893.579 442.861 892.679C441.96 891.352 440.681 890.689 439.022 890.641C437.316 890.594 435.99 891.163 435.042 892.395C434.379 893.2 434.047 894.622 433.952 896.517L433.478 909.833L430.161 909.691L430.682 895.427C430.777 893.105 431.583 891.21 433.052 889.741C434.758 888.13 436.795 887.372 439.165 887.419C441.534 887.514 443.524 888.414 445.088 890.168C446.509 891.731 447.125 893.674 447.078 895.996L446.557 910.259L443.145 910.212Z" fill="#EC423C"/>
<path d="M420.874 909.075L422.437 886.993L425.754 887.23L424.191 909.312L420.874 909.075Z" fill="#EC423C"/>
<path d="M411.823 908.269L413.624 889.362L407.132 888.746L407.416 885.618L417.225 886.566L415.14 908.601L411.823 908.269Z" fill="#EC423C"/>
<path d="M404.525 885.334L401.54 907.274L396.943 906.658C394.716 906.374 393.01 905.9 391.778 905.284C390.451 904.668 389.314 903.767 388.319 902.583C386.329 900.213 385.571 897.323 386.044 893.958C386.518 890.594 388.035 888.035 390.688 886.234C392.015 885.334 393.342 884.813 394.716 884.576C395.996 884.339 397.749 884.339 399.976 884.671L404.525 885.334ZM400.782 887.988L399.265 887.798C397.796 887.609 396.517 887.609 395.474 887.751C394.432 887.94 393.484 888.367 392.584 888.983C390.736 890.262 389.693 892.063 389.361 894.48C389.03 896.896 389.598 898.934 390.973 900.64C392.252 902.156 394.29 903.151 397.133 903.53L398.649 903.72L400.782 887.988Z" fill="#EC423C"/>
<path d="M365.668 899.692L365.1 903.53L362.256 902.962L363.252 899.218L359.413 899.882L359.082 897.039L362.967 896.849L361.167 893.39L363.773 892.205L365.194 895.854L367.895 893.058L369.838 895.19L366.806 897.655L370.312 899.36L368.891 901.872L365.668 899.692Z" fill="#EC423C"/>
<path d="M334.488 883.154L325.674 880.69L325.864 879.98C326.29 878.368 326.906 876.994 327.617 875.857C328.281 874.814 329.228 873.914 330.365 873.156C332.972 871.497 335.815 871.071 338.848 871.924C341.833 872.777 344.108 874.53 345.624 877.278C347.14 880.027 347.472 882.917 346.666 885.95C345.813 889.03 344.013 891.352 341.217 892.916C338.469 894.48 335.531 894.811 332.403 893.959C330.745 893.485 329.276 892.726 327.996 891.637C326.812 890.594 325.769 889.078 324.821 887.182L327.712 885.618C328.802 888.414 330.602 890.215 333.161 890.878C335.436 891.494 337.521 891.257 339.511 890.12C341.454 889.03 342.781 887.324 343.397 885.002C344.06 882.633 343.728 880.453 342.449 878.416C341.264 876.568 339.701 875.336 337.853 874.814C336.289 874.388 334.678 874.53 333.114 875.241C331.55 875.952 330.508 877.042 329.939 878.511L335.246 879.98L334.488 883.154Z" fill="#EC423C"/>
<path d="M314.823 888.272L319.088 875.62C319.704 873.819 319.846 872.398 319.514 871.355C319.04 869.839 317.998 868.844 316.434 868.275C314.823 867.754 313.401 867.943 312.122 868.844C311.269 869.46 310.511 870.692 309.895 872.492L305.63 885.145L302.455 884.102L307.004 870.597C307.762 868.37 309.042 866.806 310.89 865.811C312.975 864.721 315.155 864.579 317.429 865.337C319.704 866.095 321.315 867.517 322.31 869.649C323.21 871.545 323.305 873.582 322.547 875.81L317.998 889.315L314.823 888.272Z" fill="#EC423C"/>
<path d="M293.783 880.88L301.555 860.125L304.682 861.309L296.911 882.064L293.783 880.88Z" fill="#EC423C"/>
<path d="M285.349 877.563L292.457 859.935L286.439 857.471L287.623 854.58L296.769 858.277L288.476 878.795L285.349 877.563Z" fill="#EC423C"/>
<path d="M284.875 853.443L275.777 873.63L271.559 871.734C269.522 870.834 268.005 869.886 267.01 868.938C265.92 867.991 265.067 866.806 264.451 865.384C263.219 862.541 263.314 859.556 264.688 856.476C266.11 853.396 268.29 851.358 271.322 850.41C272.839 849.937 274.308 849.794 275.634 849.937C276.914 850.079 278.572 850.6 280.657 851.5L284.875 853.443ZM280.515 854.912L279.141 854.296C277.767 853.68 276.582 853.301 275.54 853.206C274.497 853.111 273.455 853.206 272.412 853.538C270.28 854.249 268.763 855.67 267.768 857.85C266.773 860.077 266.678 862.21 267.579 864.247C268.337 866.095 270.043 867.564 272.649 868.749L274.023 869.365L280.515 854.912Z" fill="#EC423C"/>
<path d="M242.654 850.647C241.564 850.079 240.853 849.178 240.521 847.946C240.19 846.714 240.284 845.577 240.9 844.44C241.516 843.303 242.417 842.544 243.649 842.165C244.881 841.786 246.018 841.881 247.155 842.497C248.245 843.066 249.003 844.013 249.335 845.245C249.667 846.477 249.572 847.662 248.956 848.752C248.34 849.889 247.44 850.647 246.208 851.027C244.928 851.406 243.744 851.264 242.654 850.647Z" fill="#EC423C"/>
<path d="M223.557 844.914L221.756 848.325L219.292 846.857L221.472 843.634L217.634 842.971L218.297 840.175L222.041 841.265L221.472 837.427L224.315 837.19L224.457 841.075L227.917 839.37L229.054 842.023L225.405 843.303L228.106 846.098L225.926 847.994L223.557 844.914Z" fill="#EC423C"/>
<path d="M199.722 818.899L192.235 813.639L192.661 813.023C193.609 811.649 194.604 810.559 195.694 809.753C196.689 808.995 197.874 808.474 199.201 808.142C202.233 807.431 205.029 807.952 207.635 809.8C210.194 811.554 211.711 814.018 212.232 817.098C212.753 820.225 212.09 823.069 210.289 825.627C208.441 828.281 205.977 829.845 202.849 830.413C199.722 830.982 196.831 830.319 194.178 828.471C192.756 827.476 191.619 826.244 190.813 824.822C190.055 823.4 189.534 821.647 189.297 819.562L192.567 819.041C192.661 822.074 193.799 824.348 195.931 825.817C197.874 827.144 199.911 827.618 202.139 827.191C204.366 826.812 206.119 825.628 207.493 823.685C208.915 821.647 209.341 819.467 208.82 817.145C208.299 814.966 207.256 813.354 205.693 812.217C204.366 811.269 202.802 810.89 201.096 811.033C199.39 811.175 198.016 811.885 196.973 813.07L201.475 816.245L199.722 818.899Z" fill="#EC423C"/>
<path d="M179.441 817.193L187.638 806.673C188.823 805.157 189.439 803.877 189.486 802.787C189.534 801.224 188.918 799.897 187.591 798.854C186.264 797.812 184.843 797.527 183.326 797.954C182.331 798.238 181.194 799.139 180.009 800.655L171.811 811.175L169.158 809.137L177.924 797.906C179.346 796.058 181.099 795.016 183.184 794.684C185.506 794.353 187.591 794.921 189.486 796.39C191.382 797.859 192.424 799.755 192.661 802.076C192.898 804.161 192.282 806.104 190.813 807.952L182.047 819.183L179.441 817.193Z" fill="#EC423C"/>
<path d="M162.097 803.214L176.313 786.25L178.872 788.382L164.656 805.346L162.097 803.214Z" fill="#EC423C"/>
<path d="M155.226 797.29L167.783 783.027L162.903 778.715L164.988 776.346L172.38 782.885L157.738 799.518L155.226 797.29Z" fill="#EC423C"/>
<path d="M162.76 774.356L147.455 790.372L144.09 787.15C142.479 785.634 141.342 784.259 140.726 783.027C140.015 781.748 139.636 780.374 139.494 778.857C139.257 775.777 140.347 772.981 142.669 770.565C145.038 768.101 147.786 766.916 150.961 767.058C152.572 767.105 153.947 767.437 155.179 768.053C156.363 768.622 157.737 769.664 159.396 771.181L162.76 774.356ZM158.164 774.356L157.074 773.313C155.984 772.271 154.989 771.512 154.041 771.086C153.094 770.659 152.051 770.422 151.009 770.375C148.781 770.328 146.839 771.181 145.18 772.934C143.522 774.687 142.716 776.677 142.858 778.905C143 780.895 144.09 782.885 146.128 784.828L147.218 785.87L158.164 774.356Z" fill="#EC423C"/>
<path d="M123.856 757.77C123.051 756.87 122.671 755.78 122.766 754.501C122.861 753.221 123.335 752.179 124.283 751.326C125.23 750.473 126.368 750.046 127.6 750.094C128.879 750.141 129.922 750.615 130.775 751.563C131.627 752.463 132.007 753.6 131.959 754.88C131.864 756.159 131.391 757.202 130.443 758.102C129.495 758.955 128.358 759.381 127.078 759.334C125.799 759.239 124.709 758.718 123.856 757.77Z" fill="#EC423C"/>
<path d="M110.588 735.546L104.807 728.438L105.376 727.964C106.655 726.922 107.934 726.116 109.167 725.642C110.304 725.169 111.583 724.979 112.957 725.026C116.038 725.169 118.596 726.448 120.634 728.912C122.577 731.329 123.43 734.077 123.098 737.205C122.766 740.332 121.392 742.891 118.928 744.881C116.464 746.919 113.621 747.772 110.446 747.44C107.271 747.108 104.665 745.734 102.627 743.223C101.537 741.896 100.779 740.427 100.4 738.816C100.021 737.252 100.021 735.451 100.4 733.366L103.67 733.745C102.959 736.683 103.433 739.148 105.044 741.185C106.513 742.986 108.408 744.028 110.635 744.218C112.863 744.455 114.9 743.791 116.748 742.275C118.644 740.711 119.686 738.721 119.781 736.352C119.876 734.125 119.307 732.277 118.075 730.76C117.033 729.481 115.658 728.675 114 728.391C112.294 728.107 110.825 728.343 109.498 729.244L113.005 733.509L110.588 735.546Z" fill="#EC423C"/>
<path d="M91.4916 728.438L102.248 720.572C103.765 719.435 104.712 718.392 105.044 717.35C105.518 715.834 105.281 714.412 104.286 713.085C103.291 711.711 102.011 711.048 100.4 711.048C99.3577 711.048 98.0309 711.616 96.4671 712.753L85.7104 720.62L83.7202 717.919L95.2351 709.484C97.1305 708.11 99.0734 707.541 101.158 707.825C103.48 708.157 105.328 709.294 106.75 711.19C108.172 713.133 108.645 715.218 108.266 717.539C107.887 719.624 106.797 721.33 104.902 722.705L93.387 731.139L91.4916 728.438Z" fill="#EC423C"/>
<path d="M78.6021 710.242L96.8932 697.779L98.7886 700.528L80.4975 712.99L78.6021 710.242Z" fill="#EC423C"/>
<path d="M73.5796 702.66L89.5488 692.33L85.9948 686.881L88.6484 685.175L94.0031 693.467L75.3803 705.503L73.5796 702.66Z" fill="#EC423C"/>
<path d="M87.0844 682.663L68.0351 693.941L65.6657 689.961C64.5285 688.065 63.8177 686.407 63.5334 685.08C63.2017 683.658 63.2017 682.189 63.486 680.72C64.102 677.688 65.9027 675.318 68.7932 673.565C71.7312 671.812 74.7165 671.433 77.7019 672.428C79.2182 672.902 80.4977 673.613 81.4928 674.56C82.4879 675.413 83.5304 676.787 84.6677 678.73L87.0844 682.663ZM82.6774 681.384L81.9192 680.104C81.1611 678.825 80.4029 677.83 79.5973 677.119C78.7918 676.456 77.8914 675.934 76.8489 675.603C74.7165 674.939 72.6315 675.224 70.5465 676.456C68.4615 677.688 67.1821 679.394 66.7082 681.573C66.2818 683.516 66.803 685.696 68.272 688.16L69.0302 689.439L82.6774 681.384Z" fill="#EC423C"/>
<path d="M54.151 656.127C53.5823 655.037 53.535 653.9 53.9614 652.668C54.3879 651.483 55.1461 650.583 56.2834 650.014C57.468 649.445 58.6527 649.351 59.8373 649.73C61.0694 650.109 61.9223 650.867 62.491 652.004C63.0596 653.094 63.107 654.279 62.7279 655.511C62.3014 656.696 61.5432 657.596 60.406 658.164C59.2213 658.733 58.0366 658.828 56.852 658.449C55.6199 658.022 54.7196 657.264 54.151 656.127Z" fill="#EC423C"/>
<path d="M41.8304 640.442L38.3712 642.195L37.1865 639.542L40.8353 638.167L38.0869 635.419L40.2192 633.476L42.6359 636.509L44.3892 633.05L46.9007 634.471L44.7683 637.741L48.6066 638.31L47.9906 641.153L44.2471 640.11L44.8631 643.949L42.0199 644.233L41.8304 640.442Z" fill="#EC423C"/>
<path d="M37.3287 605.424L34.2012 596.799L34.912 596.562C36.4758 595.994 37.9448 595.662 39.2716 595.615C40.5036 595.567 41.783 595.804 43.0625 596.325C45.953 597.463 47.8959 599.548 48.9858 602.533C50.0283 605.424 49.8861 608.314 48.5119 611.157C47.1377 614.001 45.0053 615.943 42.02 617.033C38.9872 618.123 36.0493 617.981 33.2061 616.654C30.3156 615.327 28.3253 613.1 27.2354 610.067C26.6668 608.456 26.4299 606.798 26.572 605.139C26.7616 603.528 27.3302 601.822 28.3727 599.974L31.3107 601.443C29.6521 603.955 29.2731 606.466 30.1734 608.93C30.979 611.157 32.4006 612.721 34.4382 613.669C36.4758 614.617 38.6082 614.711 40.8827 613.858C43.2046 613.005 44.8158 611.489 45.7161 609.309C46.5691 607.272 46.6164 605.329 46.0004 603.481C45.4318 601.917 44.4367 600.732 42.9203 599.879C41.4039 599.026 39.935 598.79 38.4186 599.169L40.3141 604.381L37.3287 605.424Z" fill="#EC423C"/>
<path d="M21.7386 592.345L34.5329 588.507C36.3336 587.938 37.6131 587.275 38.2765 586.422C39.2242 585.19 39.4611 583.721 38.9873 582.11C38.5134 580.498 37.5183 579.409 36.0019 578.887C35.0068 578.556 33.5852 578.65 31.7371 579.219L18.9428 583.057L17.9951 579.835L31.6424 575.712C33.8695 575.049 35.9071 575.191 37.8026 576.139C39.8876 577.229 41.2618 578.887 41.9726 581.162C42.6834 583.436 42.4465 585.616 41.3092 587.654C40.2667 589.502 38.6555 590.734 36.4284 591.397L22.7811 595.52L21.7386 592.345Z" fill="#EC423C"/>
<path d="M15.5786 570.926L36.9972 565.287L37.8502 568.51L16.4316 574.149L15.5786 570.926Z" fill="#EC423C"/>
<path d="M13.3989 562.113L31.8796 557.706L30.3632 551.356L33.4433 550.645L35.7179 560.217L14.1571 565.335L13.3989 562.113Z" fill="#EC423C"/>
<path d="M32.7796 547.755L11.0293 552.019L10.1289 547.47C9.70247 545.29 9.56031 543.537 9.74985 542.163C9.89201 540.741 10.3659 539.367 11.1714 538.04C12.7826 535.387 15.2467 533.728 18.5637 533.112C21.9281 532.449 24.8187 533.112 27.3776 535.008C28.657 535.955 29.6047 537.045 30.2681 538.277C30.8842 539.415 31.4528 541.073 31.8793 543.253L32.7796 547.755ZM29.0361 545.101L28.7518 543.632C28.4675 542.163 28.0884 540.978 27.5671 540.031C27.0459 539.13 26.3351 538.325 25.4821 537.709C23.6814 536.382 21.5964 535.955 19.2271 536.429C16.8578 536.903 15.0571 538.088 13.9199 539.983C12.8774 541.689 12.6404 543.916 13.1617 546.712L13.446 548.181L29.0361 545.101Z" fill="#EC423C"/>
<path d="M10.6028 511.741C10.4606 510.509 10.7923 509.419 11.5979 508.424C12.4035 507.429 13.3986 506.86 14.678 506.718C15.9574 506.576 17.0947 506.86 18.1372 507.618C19.1323 508.377 19.7483 509.419 19.8905 510.651C20.0327 511.883 19.701 513.02 18.9428 514.016C18.1372 515.011 17.0947 515.579 15.8627 515.721C14.5832 515.864 13.446 515.579 12.4035 514.774C11.361 514.016 10.7449 513.02 10.6028 511.741Z" fill="#EC423C"/>
<path d="M12.5933 485.916L11.9773 476.77L12.6881 476.723C14.3466 476.628 15.8156 476.723 17.1424 477.007C18.3744 477.291 19.5117 477.86 20.6016 478.713C23.0657 480.608 24.3925 483.12 24.6294 486.295C24.8663 489.375 23.9186 492.123 21.8336 494.492C19.7486 496.862 17.1424 498.141 14.0149 498.378C10.7926 498.615 7.99681 497.667 5.62749 495.582C3.21079 493.497 1.93136 490.844 1.69443 487.621C1.55227 485.916 1.83659 484.257 2.40522 482.693C3.02125 481.224 4.06375 479.708 5.53272 478.239L7.99681 480.466C5.72227 482.456 4.67977 484.731 4.82193 487.337C4.96409 489.659 5.91181 491.602 7.6651 493.071C9.37101 494.54 11.4086 495.203 13.7779 495.014C16.242 494.824 18.1849 493.829 19.6538 491.934C21.028 490.18 21.6441 488.332 21.5019 486.389C21.4071 484.731 20.7437 483.309 19.5117 482.077C18.327 480.845 16.9054 480.229 15.3417 480.182L15.7208 485.679L12.5933 485.916Z" fill="#EC423C"/>
<path d="M1.17297 469.093L14.5359 468.856C16.4314 468.809 17.8056 468.477 18.7059 467.861C19.9853 466.914 20.554 465.587 20.554 463.928C20.5066 462.222 19.8432 460.943 18.5637 460.043C17.7108 459.427 16.2892 459.142 14.3937 459.19L1.03081 459.427L0.936035 456.062L15.1993 455.825C17.5212 455.778 19.4641 456.489 20.9804 457.91C22.6863 459.521 23.5867 461.512 23.5867 463.881C23.5867 466.25 22.8285 468.288 21.17 469.946C19.701 471.415 17.7582 472.174 15.4362 472.221L1.17297 472.458V469.093Z" fill="#EC423C"/>
<path d="M1.126 446.822L23.2554 447.201L23.208 450.518L1.07861 450.139L1.126 446.822Z" fill="#EC423C"/>
<path d="M1.36235 437.724L20.3643 438.529L20.6486 432.037L23.7761 432.18L23.397 441.988L1.26758 441.088L1.36235 437.724Z" fill="#EC423C"/>
<path d="M23.9184 429.194L1.83643 427.394L2.21552 422.75C2.40506 420.523 2.73677 418.769 3.3054 417.537C3.82665 416.21 4.6796 414.978 5.81688 413.936C8.09142 411.803 10.8872 410.903 14.299 411.187C17.7108 411.472 20.3645 412.846 22.2599 415.405C23.2076 416.684 23.8237 418.011 24.1554 419.338C24.4871 420.57 24.5345 422.323 24.3449 424.598L23.9184 429.194ZM21.0753 425.593L21.2174 424.076C21.3596 422.56 21.2648 421.328 21.0279 420.286C20.7909 419.29 20.3171 418.343 19.6537 417.49C18.2795 415.737 16.384 414.741 14.0147 414.552C11.598 414.362 9.56039 415.026 7.94926 416.495C6.48028 417.822 5.62733 419.954 5.3904 422.797L5.24824 424.313L21.0753 425.593Z" fill="#EC423C"/>
<path d="M12.3087 388.489C12.4983 387.257 13.1143 386.31 14.1568 385.599C15.1993 384.841 16.3365 384.556 17.5686 384.793C18.848 384.983 19.8905 385.599 20.6487 386.594C21.4069 387.589 21.6912 388.726 21.5017 390.006C21.3121 391.238 20.6961 392.233 19.6536 392.991C18.6111 393.749 17.4738 393.986 16.1944 393.797C14.915 393.607 13.8725 392.991 13.1143 391.949C12.4035 390.906 12.1192 389.769 12.3087 388.489Z" fill="#EC423C"/>
<path d="M11.3134 368.587L7.4751 368.019L8.04373 365.175L11.7873 366.171L11.1238 362.332L13.967 362.001L14.204 365.886L17.6158 364.085L18.8004 366.692L15.1991 368.113L17.9949 370.814L15.8625 372.757L13.3984 369.772L11.6925 373.278L9.181 371.857L11.3134 368.587Z" fill="#EC423C"/>
<path d="M27.7568 337.407L30.1735 328.593L30.8843 328.783C32.4954 329.209 33.8696 329.778 35.0069 330.536C36.0494 331.199 36.9497 332.147 37.7079 333.284C39.4138 335.891 39.8403 338.686 38.9874 341.767C38.1818 344.752 36.3811 347.026 33.6327 348.543C30.8843 350.059 27.9937 350.438 24.961 349.585C21.8809 348.732 19.5116 346.932 17.9478 344.183C16.3841 341.435 16.005 338.497 16.858 335.369C17.3318 333.711 18.09 332.242 19.1799 330.963C20.2224 329.778 21.7387 328.688 23.6342 327.788L25.1979 330.678C22.4022 331.815 20.6489 333.616 19.9381 336.128C19.322 338.402 19.559 340.487 20.7436 342.477C21.8335 344.42 23.5868 345.7 25.8613 346.363C28.2307 347.026 30.4578 346.695 32.448 345.415C34.2961 344.231 35.4808 342.667 36.002 340.819C36.4285 339.255 36.2863 337.644 35.5755 336.128C34.8647 334.564 33.7275 333.521 32.2585 332.953L30.7895 338.213L27.7568 337.407Z" fill="#EC423C"/>
<path d="M22.544 317.694L35.1962 321.912C36.9968 322.528 38.4184 322.67 39.4609 322.338C40.9773 321.864 41.9724 320.822 42.4936 319.211C43.0149 317.6 42.8253 316.178 41.925 314.899C41.309 314.046 40.0769 313.287 38.2763 312.719L25.5767 308.501L26.6192 305.327L40.1717 309.828C42.3989 310.586 43.9626 311.866 44.9577 313.714C46.0476 315.799 46.1898 317.979 45.4316 320.206C44.6734 322.48 43.2518 324.092 41.1194 325.134C39.224 326.034 37.1864 326.129 34.9592 325.371L21.4067 320.869L22.544 317.694Z" fill="#EC423C"/>
<path d="M29.8892 296.655L50.6445 304.379L49.4598 307.506L28.7046 299.782L29.8892 296.655Z" fill="#EC423C"/>
<path d="M33.1588 288.173L50.7865 295.233L53.2032 289.168L56.1412 290.353L52.4924 299.498L31.9268 291.3L33.1588 288.173Z" fill="#EC423C"/>
<path d="M57.2779 287.604L37.0439 278.553L38.9394 274.289C39.8397 272.251 40.7875 270.735 41.6878 269.74C42.6355 268.65 43.8202 267.797 45.2418 267.181C48.085 265.949 51.0229 265.996 54.1504 267.418C57.2779 268.792 59.2681 271.019 60.2159 274.052C60.6897 275.568 60.8319 277.037 60.6897 278.364C60.5476 279.643 60.0263 281.302 59.126 283.387L57.2779 287.604ZM55.7615 283.292L56.3776 281.918C56.9936 280.544 57.3727 279.359 57.4674 278.316C57.5622 277.274 57.4674 276.231 57.1357 275.189C56.4249 273.057 55.0034 271.54 52.7762 270.545C50.549 269.55 48.4167 269.503 46.3791 270.356C44.531 271.161 43.062 272.82 41.8774 275.426L41.2613 276.8L55.7615 283.292Z" fill="#EC423C"/>
<path d="M59.8843 245.383C60.453 244.293 61.3533 243.582 62.5854 243.251C63.8174 242.872 64.9547 243.014 66.0919 243.63C67.2292 244.246 67.9874 245.146 68.3665 246.378C68.7456 247.61 68.6508 248.747 68.0348 249.885C67.4662 250.975 66.5184 251.733 65.3338 252.112C64.1017 252.444 62.9171 252.349 61.8272 251.733C60.6899 251.117 59.9317 250.216 59.5526 248.984C59.1735 247.705 59.2683 246.52 59.8843 245.383Z" fill="#EC423C"/>
<path d="M80.3079 219.178L85.1886 211.454L85.8047 211.834C87.2263 212.734 88.3635 213.682 89.2165 214.677C90.022 215.624 90.5907 216.762 91.0172 218.089C91.8701 221.074 91.491 223.87 89.7851 226.571C88.1266 229.177 85.7573 230.835 82.7246 231.546C79.6444 232.21 76.7539 231.736 74.1002 230.03C71.3992 228.324 69.6933 225.907 68.9825 222.827C68.2717 219.747 68.793 216.809 70.4989 214.108C71.3992 212.639 72.5839 211.454 73.9581 210.554C75.3323 209.701 77.0382 209.133 79.1232 208.801L79.7866 212.023C76.7539 212.26 74.5741 213.492 73.1999 215.719C71.9679 217.709 71.5888 219.794 72.11 222.022C72.6313 224.201 73.8633 225.955 75.9009 227.234C77.9859 228.561 80.1657 228.893 82.4876 228.229C84.62 227.613 86.1838 226.476 87.2263 224.865C88.0792 223.491 88.4109 221.927 88.174 220.221C87.937 218.515 87.1789 217.188 85.9468 216.24L83.0089 220.932L80.3079 219.178Z" fill="#EC423C"/>
<path d="M81.019 198.802L91.9179 206.479C93.4816 207.569 94.8084 208.137 95.8509 208.137C97.4147 208.09 98.6941 207.427 99.6892 206.052C100.684 204.678 100.921 203.209 100.4 201.74C100.068 200.745 99.1206 199.703 97.5094 198.565L86.6106 190.889L88.5534 188.14L100.21 196.338C102.106 197.665 103.291 199.371 103.67 201.456C104.096 203.778 103.622 205.91 102.248 207.853C100.874 209.796 99.0258 210.933 96.7039 211.312C94.6189 211.644 92.6287 211.123 90.7332 209.749L79.0762 201.551L81.019 198.802Z" fill="#EC423C"/>
<path d="M94.145 180.796L111.773 194.206L109.735 196.859L92.1074 183.449L94.145 180.796Z" fill="#EC423C"/>
<path d="M99.7364 173.64L114.568 185.487L118.644 180.416L121.108 182.359L114.947 190.083L97.6514 176.246L99.7364 173.64Z" fill="#EC423C"/>
<path d="M122.955 180.085L106.181 165.585L109.213 162.078C110.682 160.372 112.009 159.187 113.146 158.524C114.378 157.766 115.753 157.292 117.269 157.102C120.349 156.723 123.145 157.671 125.751 159.898C128.31 162.125 129.637 164.826 129.684 168.001C129.684 169.612 129.447 171.034 128.879 172.266C128.405 173.451 127.41 174.92 125.941 176.626L122.955 180.085ZM122.766 175.488L123.761 174.351C124.756 173.214 125.419 172.171 125.846 171.224C126.225 170.276 126.415 169.233 126.415 168.143C126.367 165.916 125.419 164.021 123.571 162.457C121.723 160.846 119.733 160.183 117.506 160.419C115.516 160.656 113.62 161.841 111.725 163.973L110.73 165.111L122.766 175.488Z" fill="#EC423C"/>
</svg>
