<svg width="846" height="848" viewBox="0 0 846 848" fill="none" xmlns="http://www.w3.org/2000/svg">
<path d="M123.01 128.109L137.725 142.521L135.566 144.725L120.851 130.313L123.01 128.109Z" fill="#B98027"/>
<path d="M134.773 128.021L134.861 116.518L137.857 113.653L137.593 126.831L152.132 128.506L149.136 131.371L137.461 129.872V130.798L143.364 136.968L141.117 139.128L126.887 124.275L129.134 122.115L134.773 128.021Z" fill="#B98027"/>
<path d="M145.524 120.396C143.629 118.193 142.792 115.636 143.012 112.683C143.233 109.73 144.466 107.262 146.713 105.323C148.916 103.384 151.516 102.546 154.468 102.767C157.419 102.987 159.887 104.177 161.825 106.425C163.764 108.673 164.601 111.273 164.381 114.182C164.116 117.135 162.883 119.603 160.592 121.586C158.565 123.349 156.186 124.187 153.366 124.187C150.326 124.143 147.727 122.864 145.524 120.396ZM147.947 118.369C149.445 120.088 151.251 121.013 153.366 121.101C155.481 121.234 157.287 120.617 158.785 119.294C160.415 117.884 161.296 116.121 161.429 114.006C161.561 111.89 160.9 109.995 159.49 108.364C158.036 106.689 156.274 105.808 154.203 105.632C152.132 105.455 150.282 106.072 148.652 107.483C147.022 108.893 146.141 110.656 146.008 112.727C145.876 114.843 146.537 116.738 147.947 118.369Z" fill="#B98027"/>
<path d="M171.429 111.846L157.992 94.437L179.492 97.6984L170.768 86.3715L173.236 84.4764L186.585 101.797L165.129 98.5799L173.941 109.995L171.429 111.846Z" fill="#B98027"/>
<path d="M189.978 74.8243L187.819 71.9154L190.066 70.4169L191.872 73.5462L193.943 70.5932L196.058 72.268L193.635 74.9565L197.071 76.0143L196.146 78.5265L192.842 77.072L192.886 80.6861L190.198 80.5979L190.551 76.9839L187.114 78.1739L186.409 75.5735L189.978 74.8243Z" fill="#B98027"/>
<path d="M209.716 60.4563L220.245 78.1738L217.558 79.7605L207.028 62.0429L209.716 60.4563Z" fill="#B98027"/>
<path d="M221.083 63.3651L224.123 52.3026L227.735 50.3193L224.078 62.9684L237.736 68.3013L234.08 70.3287L223.153 65.8773L222.889 66.7588L226.986 74.2072L224.255 75.7057L214.298 57.6796L217.029 56.1811L221.083 63.3651Z" fill="#B98027"/>
<path d="M233.463 58.7815C232.185 56.1811 232.053 53.4926 233.066 50.6719C234.036 47.8512 235.886 45.8239 238.574 44.5017C241.217 43.2235 243.949 43.0472 246.724 44.0168C249.544 44.9865 251.571 46.7935 252.892 49.4379C254.17 52.0823 254.346 54.8149 253.333 57.5915C252.32 60.3681 250.469 62.4396 247.782 63.7618C245.403 64.9077 242.847 65.1281 240.116 64.4229C237.12 63.6296 234.917 61.7344 233.463 58.7815ZM236.327 57.4593C237.34 59.4866 238.838 60.8529 240.865 61.514C242.891 62.1751 244.786 62.0429 246.548 61.1614C248.487 60.1918 249.808 58.7374 250.469 56.7541C251.13 54.7267 250.998 52.7434 250.029 50.8042C249.059 48.8209 247.605 47.4987 245.623 46.7935C243.64 46.0883 241.702 46.2205 239.763 47.1461C237.825 48.0716 236.547 49.5701 235.886 51.5534C235.225 53.5367 235.357 55.476 236.327 57.4593Z" fill="#B98027"/>
<path d="M260.691 57.2389L252.232 36.921L272.146 45.6476L266.639 32.4255L269.502 31.2355L277.917 51.4212L258.003 42.7387L263.555 56.0489L260.691 57.2389Z" fill="#B98027"/>
<path d="M292.457 29.1641C293.558 28.8115 294.616 28.8997 295.629 29.4726C296.686 30.0015 297.391 30.8389 297.744 31.9848C298.14 33.1307 298.052 34.2326 297.523 35.2903C296.995 36.3481 296.202 37.0533 295.056 37.4499C293.955 37.8025 292.897 37.7144 291.796 37.1855C290.738 36.6566 290.034 35.8192 289.637 34.6733C289.241 33.5274 289.329 32.4255 289.857 31.3678C290.474 30.2659 291.311 29.5167 292.457 29.1641Z" fill="#B98027"/>
<path d="M314.706 16.4709L320.081 36.3481L317.085 37.1414L311.71 17.2642L314.706 16.4709Z" fill="#B98027"/>
<path d="M324.883 22.3767L330.787 12.5483L334.84 11.5787L327.923 22.7734L339.643 31.5881L335.589 32.5577L326.249 25.3296L325.764 26.0789L327.703 34.3647L324.663 35.0699L319.949 15.0164L322.989 14.3113L324.883 22.3767Z" fill="#B98027"/>
<path d="M338.057 21.2749C337.528 18.4101 338.145 15.7657 339.819 13.3417C341.537 10.9176 343.828 9.41914 346.736 8.89026C349.644 8.36137 352.287 8.93433 354.711 10.6091C357.178 12.2839 358.676 14.5757 359.204 17.4846C359.733 20.3934 359.16 23.0819 357.442 25.4619C355.724 27.8859 353.389 29.3844 350.437 29.9133C347.838 30.3981 345.326 29.9133 342.903 28.503C340.304 26.9163 338.673 24.4923 338.057 21.2749ZM341.141 20.746C341.537 22.9938 342.639 24.6686 344.401 25.8586C346.163 27.0486 348.014 27.4452 349.996 27.0486C352.111 26.6519 353.785 25.5941 354.975 23.8753C356.164 22.1123 356.561 20.1731 356.164 18.0576C355.768 15.8979 354.711 14.2232 352.992 13.0332C351.274 11.8432 349.38 11.4024 347.265 11.7991C345.15 12.1958 343.52 13.2535 342.33 14.9724C341.141 16.6913 340.744 18.5864 341.141 20.746Z" fill="#B98027"/>
<path d="M364.711 27.0927L362.024 5.27628L378.854 18.9831L377.092 4.79147L380.176 4.39481L382.863 26.079L366.033 12.3721L367.796 26.696L364.711 27.0927Z" fill="#B98027"/>
<path d="M399.473 4.65921L399.076 1.08925L401.764 0.957031V4.57106L405.068 3.07256L406.037 5.58475L402.601 6.68659L405.024 9.37508L402.953 11.0499L400.839 8.09694L399.076 11.2262L396.829 9.77174L398.988 6.86288L395.464 6.11363L396.169 3.5133L399.473 4.65921Z" fill="#B98027"/>
<path d="M423.529 2.27921L423.881 22.8615L420.753 22.9056L420.401 2.32328L423.529 2.27921Z" fill="#B98027"/>
<path d="M432.076 10.565L440.315 2.58772L444.456 2.71994L434.896 11.7991L443.928 23.3464L439.786 23.2141L432.649 13.8265L431.988 14.4435L431.724 22.9497L428.595 22.8615L429.168 2.27921L432.296 2.36735L432.076 10.565Z" fill="#B98027"/>
<path d="M445.073 12.901C445.294 9.99211 446.527 7.61213 448.818 5.71697C451.109 3.82181 453.709 2.98441 456.661 3.20478C459.568 3.42515 462.036 4.65921 463.93 6.90696C465.869 9.15471 466.706 11.755 466.486 14.708C466.265 17.6609 464.988 20.0849 462.741 21.9801C460.45 23.8753 457.806 24.7127 454.81 24.4923C452.167 24.2719 449.832 23.1701 447.893 21.1868C445.778 18.939 444.809 16.2065 445.073 12.901ZM448.201 13.2095C448.025 15.5013 448.642 17.3965 450.052 18.9831C451.462 20.5698 453.136 21.4512 455.119 21.5834C457.277 21.7597 459.128 21.1427 460.758 19.7764C462.344 18.3661 463.225 16.6031 463.401 14.4435C463.578 12.2399 462.961 10.3447 461.639 8.75805C460.317 7.1714 458.555 6.28993 456.396 6.11363C454.281 5.93734 452.387 6.55437 450.801 7.92065C449.215 9.28693 448.378 11.0499 448.201 13.2095Z" fill="#B98027"/>
<path d="M469.349 25.3737L472.301 3.55734L485.078 21.1427L487.016 6.951L490.1 7.39174L487.148 29.0318L474.371 11.4906L472.433 25.7704L469.349 25.3737Z" fill="#B98027"/>
<path d="M510.896 17.2202C511.997 17.4405 512.878 18.0576 513.495 19.0713C514.112 20.0849 514.332 21.1427 514.068 22.2886C513.803 23.4786 513.187 24.4042 512.217 25.0212C511.248 25.6823 510.147 25.8586 509.001 25.6382C507.856 25.4178 506.974 24.7567 506.314 23.7871C505.697 22.7734 505.477 21.7157 505.741 20.5257C506.005 19.3357 506.622 18.4102 507.591 17.7931C508.649 17.1761 509.75 16.9998 510.896 17.2202Z" fill="#B98027"/>
<path d="M528.034 15.325L523.055 35.2903L520.06 34.5411L525.082 14.5758L528.034 15.325Z" fill="#B98027"/>
<path d="M534.07 25.4178L544.027 19.7324L548.036 20.8783L536.537 27.313L542.441 40.7114L538.432 39.5654L533.806 28.6793L533.013 29.12L530.678 37.3177L527.682 36.4803L533.321 16.6913L536.317 17.5287L534.07 25.4178Z" fill="#B98027"/>
<path d="M546.098 30.883C547.023 28.1504 548.829 26.123 551.517 24.8449C554.204 23.5668 556.936 23.3905 559.756 24.3601C562.531 25.2857 564.558 27.0927 565.88 29.7811C567.201 32.4256 567.378 35.1581 566.452 37.9788C565.483 40.7995 563.677 42.8269 561.033 44.105C558.346 45.3832 555.57 45.5595 552.75 44.5898C550.239 43.7525 548.257 42.0777 546.847 39.6536C545.305 36.9211 545.04 34.0122 546.098 30.883ZM549.05 31.9408C548.301 34.1004 548.433 36.1277 549.402 37.9788C550.371 39.874 551.781 41.108 553.676 41.7691C555.702 42.4743 557.685 42.3421 559.579 41.4166C561.474 40.4469 562.752 38.9484 563.457 36.9211C564.161 34.8496 564.073 32.8663 563.148 30.9711C562.267 29.076 560.769 27.7978 558.742 27.0927C556.716 26.3875 554.777 26.5197 552.883 27.4453C551.032 28.3708 549.755 29.8693 549.05 31.9408Z" fill="#B98027"/>
<path d="M566.541 48.9531L574.824 28.5911L582.798 48.8209L588.173 35.5547L591.037 36.7447L582.798 56.9745L574.78 36.7888L569.36 50.1431L566.541 48.9531Z" fill="#B98027"/>
<path d="M607.823 46.3968L609.233 43.0913L611.656 44.2813L609.894 47.4105L613.507 47.719L613.11 50.3634L609.585 49.6142L610.379 53.1401L607.735 53.5808L607.339 49.9668L604.254 51.8179L602.977 49.4379L606.281 47.9394L603.55 45.5594L605.4 43.6202L607.823 46.3968Z" fill="#B98027"/>
<path d="M630.161 56.2252L620.115 74.2073L617.384 72.7087L627.429 54.7267L630.161 56.2252Z" fill="#B98027"/>
<path d="M633.376 67.508L644.479 64.5992L648.048 66.7147L635.271 69.9321L637.518 84.4323L633.949 82.2727L632.319 70.5932L631.438 70.8136L627.032 78.1298L624.389 76.5431L635.007 58.8696L637.65 60.4563L633.376 67.508Z" fill="#B98027"/>
<path d="M643.554 75.9261C645.184 73.5021 647.431 72.0476 650.339 71.4747C653.247 70.9017 655.934 71.4747 658.401 73.1054C660.825 74.7361 662.367 77.0279 662.939 79.9368C663.512 82.8456 662.983 85.5341 661.353 88.0022C659.723 90.4704 657.432 91.9689 654.524 92.4977C651.617 93.0266 648.885 92.4537 646.418 90.7789C644.215 89.2804 642.717 87.2089 642.012 84.4764C641.219 81.5234 641.748 78.6587 643.554 75.9261ZM646.153 77.689C644.876 79.5842 644.479 81.5675 644.92 83.639C645.36 85.7104 646.418 87.2971 648.092 88.3989C649.898 89.5889 651.837 89.9856 653.863 89.5889C655.934 89.1482 657.564 88.0463 658.798 86.2393C660.032 84.4323 660.428 82.4931 660.032 80.4216C659.635 78.3501 658.578 76.7635 656.771 75.5294C655.009 74.3395 653.07 73.9428 651 74.3835C648.973 74.7802 647.343 75.9261 646.153 77.689Z" fill="#B98027"/>
<path d="M658.622 98.7121L671.884 81.1708L674.351 102.767L682.986 91.3518L685.453 93.247L672.28 110.656L669.769 89.1041L661.045 100.607L658.622 98.7121Z" fill="#B98027"/>
<path d="M698.802 112.022C699.639 112.772 700.124 113.741 700.168 114.931C700.212 116.121 699.86 117.135 699.067 118.016C698.274 118.942 697.26 119.427 696.115 119.515C694.925 119.603 693.912 119.25 693.031 118.501C692.15 117.752 691.709 116.738 691.621 115.548C691.577 114.358 691.929 113.345 692.722 112.419C693.515 111.493 694.529 111.009 695.674 110.965C696.908 110.876 697.921 111.229 698.802 112.022Z" fill="#B98027"/>
<path d="M714.708 118.722L700.565 133.707L698.318 131.591L712.461 116.606L714.708 118.722Z" fill="#B98027"/>
<path d="M715.016 130.489L726.515 130.401L729.423 133.354L716.25 133.31L714.84 147.898L711.888 144.945L713.165 133.222H712.24L706.204 139.216L704.001 137.012L718.629 122.512L720.832 124.716L715.016 130.489Z" fill="#B98027"/>
<path d="M722.814 141.155C724.973 139.216 727.528 138.334 730.48 138.511C733.432 138.687 735.899 139.877 737.882 142.08C739.864 144.284 740.746 146.84 740.569 149.793C740.437 152.746 739.248 155.214 737.045 157.198C734.842 159.181 732.286 160.062 729.335 159.886C726.383 159.71 723.871 158.476 721.889 156.228C720.126 154.245 719.201 151.865 719.157 149.044C719.157 146.003 720.391 143.359 722.814 141.155ZM724.885 143.491C723.211 145.033 722.329 146.84 722.241 148.956C722.153 151.071 722.814 152.879 724.136 154.333C725.59 155.92 727.352 156.801 729.467 156.889C731.581 156.977 733.432 156.316 735.062 154.862C736.692 153.407 737.573 151.6 737.706 149.529C737.838 147.457 737.177 145.606 735.767 144.02C734.313 142.433 732.551 141.596 730.48 141.463C728.365 141.375 726.515 142.036 724.885 143.491Z" fill="#B98027"/>
<path d="M731.802 166.894L748.985 153.143L746.077 174.695L757.268 165.748L759.206 168.172L742.156 181.835L745.02 160.327L733.741 169.318L731.802 166.894Z" fill="#B98027"/>
<path d="M769.119 184.788L771.983 182.584L773.525 184.788L770.441 186.639L773.437 188.666L771.806 190.782L769.075 188.402L768.061 191.884L765.55 191.002L766.916 187.652L763.303 187.785L763.347 185.096L766.96 185.405L765.726 182.011L768.282 181.262L769.119 184.788Z" fill="#B98027"/>
<path d="M783.834 204.268L766.299 215.11L764.669 212.466L782.204 201.624L783.834 204.268Z" fill="#B98027"/>
<path d="M781.103 215.727L792.205 218.592L794.276 222.206L781.543 218.768L776.433 232.519L774.362 228.905L778.635 217.887L777.754 217.667L770.353 221.898L768.811 219.209L786.654 208.94L788.196 211.629L781.103 215.727Z" fill="#B98027"/>
<path d="M785.905 228.024C788.505 226.702 791.192 226.525 794.012 227.451C796.832 228.376 798.902 230.183 800.268 232.828C801.59 235.428 801.81 238.161 800.885 240.981C799.96 243.802 798.197 245.918 795.598 247.24C792.954 248.606 790.223 248.782 787.447 247.857C784.628 246.887 782.557 245.08 781.191 242.392C780.001 240.012 779.737 237.456 780.398 234.767C781.103 231.77 782.953 229.522 785.905 228.024ZM787.315 230.845C785.288 231.858 783.967 233.401 783.35 235.428C782.733 237.456 782.865 239.351 783.79 241.114C784.76 243.053 786.258 244.331 788.284 244.948C790.311 245.565 792.294 245.389 794.232 244.419C796.171 243.406 797.492 241.951 798.153 239.968C798.814 237.984 798.682 236.045 797.669 234.106C796.699 232.211 795.201 230.933 793.219 230.272C791.192 229.699 789.21 229.831 787.315 230.845Z" fill="#B98027"/>
<path d="M787.932 255.217L808.066 246.402L799.695 266.456L812.825 260.726L814.058 263.591L794.056 272.362L802.383 252.308L789.165 258.082L787.932 255.217Z" fill="#B98027"/>
<path d="M816.569 286.509C816.966 287.567 816.878 288.669 816.349 289.683C815.82 290.74 815.027 291.49 813.882 291.842C812.736 292.239 811.635 292.195 810.577 291.71C809.52 291.225 808.771 290.388 808.375 289.286C807.978 288.184 808.066 287.126 808.595 286.025C809.124 284.967 809.961 284.218 811.062 283.821C812.208 283.424 813.309 283.468 814.366 283.997C815.424 284.57 816.173 285.364 816.569 286.509Z" fill="#B98027"/>
<path d="M827.1 300.128L807.45 306.254L806.524 303.301L826.174 297.175L827.1 300.128Z" fill="#B98027"/>
<path d="M821.636 310.53L831.681 316.083L832.783 320.093L821.328 313.615L812.957 325.647L811.855 321.636L818.728 312.028L817.935 311.587L809.74 313.879L808.903 310.882L828.729 305.373L829.566 308.37L821.636 310.53Z" fill="#B98027"/>
<path d="M823.222 323.663C826.042 323.046 828.729 323.531 831.197 325.162C833.708 326.793 835.25 329.04 835.911 331.949C836.572 334.814 836.087 337.503 834.501 340.015C832.915 342.527 830.668 344.114 827.804 344.775C824.896 345.436 822.253 344.951 819.741 343.32C817.274 341.69 815.688 339.442 815.027 336.489C814.455 333.889 814.807 331.376 816.173 328.908C817.671 326.087 820.006 324.369 823.222 323.663ZM823.883 326.749C821.68 327.233 820.006 328.423 818.904 330.23C817.803 332.037 817.495 333.889 817.891 335.872C818.376 337.987 819.477 339.618 821.284 340.72C823.09 341.822 825.028 342.174 827.143 341.69C829.302 341.205 830.932 340.103 832.034 338.34C833.179 336.577 833.488 334.682 833.047 332.566C832.562 330.495 831.461 328.864 829.655 327.762C827.936 326.572 825.998 326.264 823.883 326.749Z" fill="#B98027"/>
<path d="M818.42 350.504L840.141 346.978L827.055 364.343L841.198 362.051L841.683 365.137L820.138 368.663L833.18 351.298L818.949 353.633L818.42 350.504Z" fill="#B98027"/>
<path d="M842.167 384.441L845.736 383.912L846 386.6L842.387 386.733L844.017 389.994L841.55 391.052L840.316 387.658L837.717 390.17L835.955 388.143L838.819 385.895L835.602 384.22L836.968 381.929L839.964 383.956L840.581 380.386L843.18 380.959L842.167 384.441Z" fill="#B98027"/>
<path d="M845.427 408.593L824.852 409.43L824.72 406.345L845.295 405.508L845.427 408.593Z" fill="#B98027"/>
<path d="M837.453 417.187L845.78 425.077L845.868 429.219L836.396 420.052L825.293 429.616L825.205 425.473L834.237 417.893L833.576 417.276L825.073 417.408L825.029 414.279L845.604 413.926L845.648 417.055L837.453 417.187Z" fill="#B98027"/>
<path d="M835.646 430.321C838.554 430.453 840.977 431.599 843.004 433.803C844.987 436.007 845.956 438.563 845.824 441.56C845.691 444.513 844.546 446.981 842.387 448.964C840.228 450.992 837.629 451.961 834.721 451.829C831.769 451.697 829.302 450.551 827.319 448.347C825.337 446.144 824.412 443.543 824.5 440.546C824.588 437.902 825.601 435.522 827.54 433.495C829.61 431.247 832.342 430.189 835.646 430.321ZM835.47 433.45C833.179 433.362 831.285 434.067 829.787 435.522C828.245 436.976 827.452 438.695 827.363 440.723C827.275 442.882 827.936 444.733 829.39 446.276C830.844 447.818 832.65 448.656 834.809 448.7C837.012 448.788 838.862 448.127 840.404 446.717C841.947 445.306 842.784 443.543 842.872 441.384C842.96 439.224 842.299 437.417 840.845 435.875C839.435 434.332 837.629 433.539 835.47 433.45Z" fill="#B98027"/>
<path d="M824.103 455.047L846 457.206L828.905 470.649L843.136 472.059L842.828 475.144L821.063 473.028L838.113 459.586L823.751 458.176L824.103 455.047Z" fill="#B98027"/>
<path d="M833.796 496.299C833.62 497.401 833.003 498.327 832.034 498.988C831.065 499.649 830.007 499.913 828.818 499.693C827.628 499.473 826.703 498.9 825.998 497.93C825.293 496.961 825.073 495.903 825.249 494.757C825.425 493.611 826.042 492.685 827.011 492.024C827.981 491.363 829.082 491.143 830.228 491.319C831.417 491.539 832.342 492.112 833.047 493.082C833.796 494.052 834.016 495.153 833.796 496.299Z" fill="#B98027"/>
<path d="M836.396 513.356L816.261 509.125L816.922 506.084L837.057 510.315L836.396 513.356Z" fill="#B98027"/>
<path d="M826.526 519.791L832.606 529.531L831.637 533.542L824.764 522.303L811.591 528.737L812.56 524.683L823.222 519.658L822.737 518.865L814.454 516.838L815.203 513.797L835.206 518.689L834.457 521.73L826.526 519.791Z" fill="#B98027"/>
<path d="M821.504 531.999C824.28 532.836 826.35 534.555 827.76 537.2C829.17 539.844 829.434 542.577 828.553 545.397C827.716 548.218 825.998 550.334 823.398 551.744C820.799 553.154 818.067 553.463 815.248 552.625C812.428 551.788 810.313 550.069 808.947 547.425C807.582 544.78 807.317 542.048 808.154 539.139C808.903 536.583 810.489 534.555 812.825 533.057C815.468 531.426 818.376 531.073 821.504 531.999ZM820.579 534.996C818.376 534.335 816.393 534.555 814.543 535.613C812.692 536.671 811.503 538.125 810.93 540.02C810.313 542.092 810.489 544.031 811.503 545.882C812.516 547.733 814.058 548.967 816.173 549.584C818.288 550.201 820.27 550.025 822.077 549.055C823.927 548.086 825.161 546.587 825.778 544.516C826.394 542.444 826.174 540.505 825.161 538.654C824.191 536.847 822.649 535.613 820.579 534.996Z" fill="#B98027"/>
<path d="M804.233 553.11L824.896 560.603L804.982 569.373L818.419 574.265L817.362 577.174L796.831 569.726L816.701 560.955L803.131 556.019L804.233 553.11Z" fill="#B98027"/>
<path d="M808.418 594.319L811.811 595.597L810.709 598.065L807.493 596.39L807.317 600.004L804.673 599.74L805.246 596.17L801.766 597.095L801.193 594.495L804.762 593.922L802.779 590.925L805.114 589.559L806.744 592.776L808.991 589.956L810.974 591.763L808.418 594.319Z" fill="#B98027"/>
<path d="M799.431 617.017L781.058 607.673L782.468 604.896L800.84 614.24L799.431 617.017Z" fill="#B98027"/>
<path d="M788.285 620.631L791.633 631.605L789.65 635.263L785.949 622.614L771.542 625.391L773.525 621.733L785.112 619.661L784.848 618.78L777.358 614.681L778.856 611.948L796.92 621.865L795.422 624.597L788.285 620.631Z" fill="#B98027"/>
<path d="M780.266 631.164C782.733 632.707 784.275 634.911 784.936 637.819C785.597 640.728 785.156 643.417 783.614 645.973C782.072 648.485 779.869 650.072 776.962 650.733C774.054 651.438 771.366 650.997 768.855 649.455C766.344 647.912 764.757 645.664 764.097 642.8C763.436 639.891 763.92 637.158 765.506 634.602C766.916 632.354 768.943 630.768 771.631 629.93C774.538 629.005 777.446 629.445 780.266 631.164ZM778.592 633.809C776.653 632.619 774.67 632.266 772.6 632.839C770.573 633.368 768.987 634.47 767.974 636.189C766.828 638.04 766.52 639.979 767.004 642.006C767.533 644.078 768.679 645.664 770.529 646.81C772.379 647.956 774.362 648.309 776.389 647.824C778.415 647.383 780.002 646.237 781.147 644.386C782.293 642.579 782.601 640.64 782.072 638.569C781.588 636.541 780.398 634.955 778.592 633.809Z" fill="#B98027"/>
<path d="M758.104 647.031L776.124 659.636L754.624 662.941L766.343 671.139L764.581 673.695L746.693 661.178L768.15 657.873L756.342 649.587L758.104 647.031Z" fill="#B98027"/>
<path d="M746.297 687.755C745.592 688.636 744.623 689.121 743.433 689.209C742.243 689.297 741.23 688.989 740.305 688.239C739.38 687.49 738.851 686.521 738.719 685.331C738.587 684.141 738.895 683.127 739.644 682.201C740.393 681.32 741.318 680.791 742.508 680.659C743.697 680.571 744.755 680.879 745.68 681.628C746.605 682.378 747.134 683.347 747.266 684.537C747.398 685.771 747.046 686.829 746.297 687.755Z" fill="#B98027"/>
<path d="M740.173 703.886L724.665 690.311L726.691 687.975L742.2 701.55L740.173 703.886Z" fill="#B98027"/>
<path d="M728.454 704.635L728.982 716.094L726.163 719.135L725.722 705.957L711.095 705.12L713.914 702.078L725.678 702.916L725.634 701.99L719.422 696.173L721.536 693.881L736.604 707.94L734.489 710.232L728.454 704.635Z" fill="#B98027"/>
<path d="M718.1 712.833C720.126 714.904 721.096 717.46 721.008 720.413C720.919 723.366 719.818 725.878 717.703 727.95C715.589 729.977 713.077 730.991 710.081 730.947C707.085 730.903 704.618 729.845 702.547 727.729C700.477 725.614 699.507 723.058 699.596 720.105C699.684 717.152 700.785 714.595 702.944 712.524C704.838 710.673 707.218 709.659 709.993 709.527C713.121 709.395 715.809 710.497 718.1 712.833ZM715.853 714.992C714.267 713.361 712.416 712.568 710.302 712.568C708.187 712.568 706.425 713.273 704.971 714.64C703.429 716.138 702.636 717.945 702.591 720.061C702.591 722.176 703.341 724.027 704.838 725.57C706.38 727.156 708.187 727.95 710.258 727.994C712.328 728.038 714.179 727.333 715.721 725.834C717.263 724.336 718.056 722.529 718.056 720.457C718.1 718.386 717.351 716.579 715.853 714.992Z" fill="#B98027"/>
<path d="M692.723 722.793L707.086 739.453L685.453 737.381L694.793 748.224L692.458 750.251L678.184 733.723L699.772 735.795L690.344 724.865L692.723 722.793Z" fill="#B98027"/>
<path d="M676.245 760.784L678.58 763.561L676.421 765.148L674.439 762.151L672.5 765.236L670.297 763.693L672.544 760.873L669.02 759.991L669.813 757.435L673.205 758.713L672.941 755.099L675.628 755.055L675.452 758.669L678.8 757.303L679.682 759.859L676.245 760.784Z" fill="#B98027"/>
<path d="M657.344 776.21L645.845 759.11L648.444 757.391L659.943 774.491L657.344 776.21Z" fill="#B98027"/>
<path d="M645.845 773.918L643.422 785.157L639.897 787.361L642.849 774.535L628.927 769.952L632.451 767.748L643.598 771.582L643.818 770.701L639.28 763.473L641.924 761.842L652.85 779.295L650.207 780.926L645.845 773.918Z" fill="#B98027"/>
<path d="M633.729 779.207C635.139 781.719 635.448 784.452 634.611 787.273C633.773 790.137 632.055 792.253 629.456 793.707C626.9 795.118 624.169 795.47 621.349 794.633C618.485 793.84 616.327 792.121 614.917 789.565C613.463 786.964 613.154 784.276 613.992 781.455C614.829 778.59 616.591 776.431 619.19 774.976C621.525 773.698 624.037 773.301 626.768 773.874C629.764 774.58 632.099 776.343 633.729 779.207ZM630.954 780.706C629.852 778.722 628.266 777.444 626.196 776.915C624.169 776.387 622.274 776.607 620.512 777.577C618.618 778.634 617.384 780.177 616.811 782.204C616.238 784.232 616.503 786.215 617.56 788.11C618.618 790.049 620.16 791.283 622.186 791.856C624.169 792.429 626.107 792.209 628.002 791.151C629.852 790.093 631.086 788.551 631.659 786.523C632.275 784.54 632.011 782.601 630.954 780.706Z" fill="#B98027"/>
<path d="M606.59 782.292L616.194 802.081L595.839 794.501L602.096 807.37L599.32 808.737L589.803 789.08L610.158 796.66L603.858 783.659L606.59 782.292Z" fill="#B98027"/>
<path d="M576.498 812.086C575.441 812.483 574.383 812.483 573.282 811.954C572.18 811.469 571.431 810.676 570.991 809.574C570.55 808.428 570.55 807.326 571.035 806.268C571.475 805.167 572.268 804.417 573.37 803.977C574.427 803.536 575.529 803.58 576.63 804.065C577.732 804.55 578.48 805.343 578.921 806.445C579.362 807.591 579.362 808.692 578.877 809.75C578.392 810.852 577.599 811.645 576.498 812.086Z" fill="#B98027"/>
<path d="M563.281 823.149L556.408 803.712L559.316 802.654L566.189 822.091L563.281 823.149Z" fill="#B98027"/>
<path d="M552.662 818.08L547.508 828.349L543.542 829.627L549.578 817.904L537.242 810.015L541.207 808.736L551.032 815.215L551.429 814.422L548.829 806.312L551.781 805.387L558.038 825L555.086 825.925L552.662 818.08Z" fill="#B98027"/>
<path d="M539.621 820.196C540.37 823.016 539.974 825.661 538.432 828.217C536.934 830.773 534.731 832.448 531.867 833.197C529.047 833.947 526.316 833.594 523.76 832.095C521.205 830.597 519.531 828.437 518.782 825.573C518.033 822.708 518.385 820.019 519.927 817.463C521.469 814.907 523.672 813.276 526.58 812.483C529.135 811.822 531.691 812.086 534.202 813.32C536.978 814.73 538.784 816.978 539.621 820.196ZM536.581 820.945C536.009 818.741 534.775 817.11 532.924 816.097C531.074 815.083 529.18 814.819 527.285 815.303C525.214 815.876 523.628 817.066 522.571 818.873C521.513 820.724 521.293 822.664 521.822 824.779C522.395 826.895 523.584 828.481 525.347 829.539C527.153 830.597 529.091 830.861 531.162 830.333C533.233 829.804 534.775 828.614 535.832 826.763C536.89 825 537.11 823.06 536.581 820.945Z" fill="#B98027"/>
<path d="M512.614 816.405L516.975 837.957L499.132 825.529L501.952 839.544L498.912 840.161L494.594 818.741L512.437 831.126L509.574 816.978L512.614 816.405Z" fill="#B98027"/>
<path d="M479.614 841.439L480.275 844.965L477.632 845.318L477.368 841.704L474.195 843.422L473.05 840.998L476.398 839.632L473.755 837.164L475.693 835.313L478.028 838.09L479.57 834.828L481.95 836.106L480.055 839.147L483.624 839.588L483.139 842.232L479.614 841.439Z" fill="#B98027"/>
<path d="M455.603 845.626L453.973 825.088L457.057 824.823L458.687 845.362L455.603 845.626Z" fill="#B98027"/>
<path d="M446.659 837.957L439.037 846.552L434.895 846.728L443.751 836.988L433.882 826.146L438.024 825.969L445.866 834.784L446.483 834.123L446.086 825.617L449.17 825.484L450.14 846.067L447.055 846.199L446.659 837.957Z" fill="#B98027"/>
<path d="M433.398 836.767C433.354 839.676 432.252 842.144 430.093 844.172C427.934 846.199 425.379 847.213 422.427 847.169C419.475 847.125 417.008 846.023 414.937 843.907C412.867 841.792 411.853 839.235 411.897 836.283C411.941 833.33 413.043 830.817 415.202 828.79C417.361 826.763 419.96 825.749 422.956 825.793C425.599 825.837 427.978 826.807 430.093 828.658C432.34 830.773 433.442 833.462 433.398 836.767ZM430.269 836.679C430.314 834.387 429.565 832.536 428.067 831.038C426.569 829.539 424.806 828.79 422.824 828.746C420.665 828.702 418.814 829.407 417.316 830.906C415.819 832.404 415.025 834.211 414.981 836.415C414.937 838.618 415.642 840.47 417.096 841.968C418.55 843.467 420.312 844.26 422.471 844.304C424.63 844.348 426.436 843.643 427.934 842.144C429.432 840.646 430.225 838.839 430.269 836.679Z" fill="#B98027"/>
<path d="M408.417 826.013L407.095 847.962L393.041 831.39L392.204 845.67L389.12 845.494L390.442 823.677L404.496 840.205L405.333 825.793L408.417 826.013Z" fill="#B98027"/>
<path d="M367.575 837.296C366.43 837.164 365.548 836.591 364.844 835.621C364.139 834.652 363.874 833.594 364.006 832.448C364.183 831.258 364.711 830.288 365.637 829.583C366.562 828.834 367.619 828.57 368.765 828.746C369.91 828.878 370.835 829.451 371.584 830.421C372.289 831.39 372.554 832.448 372.421 833.594C372.245 834.784 371.717 835.754 370.791 836.459C369.822 837.164 368.721 837.473 367.575 837.296Z" fill="#B98027"/>
<path d="M350.613 840.514L354.093 820.196L357.177 820.725L353.697 841.042L350.613 840.514Z" fill="#B98027"/>
<path d="M343.828 830.906L334.311 837.34L330.258 836.503L341.228 829.231L334.311 816.317L338.409 817.155L343.828 827.6L344.577 827.115L346.295 818.741L349.335 819.358L345.238 839.544L342.198 838.927L343.828 830.906Z" fill="#B98027"/>
<path d="M331.404 826.366C330.699 829.187 329.025 831.302 326.469 832.801C323.914 834.299 321.182 834.652 318.319 833.947C315.455 833.197 313.296 831.567 311.798 829.01C310.3 826.454 309.903 823.766 310.608 820.901C311.357 818.036 312.988 815.876 315.543 814.378C318.098 812.879 320.874 812.527 323.782 813.276C326.337 813.937 328.452 815.436 330.038 817.728C331.756 820.328 332.241 823.193 331.404 826.366ZM328.408 825.573C328.981 823.369 328.716 821.342 327.571 819.579C326.469 817.772 324.927 816.626 323.033 816.141C320.918 815.612 318.979 815.876 317.173 816.934C315.367 818.036 314.177 819.623 313.648 821.738C313.12 823.854 313.34 825.837 314.397 827.644C315.455 829.451 316.997 830.641 319.068 831.17C321.138 831.699 323.077 831.434 324.883 830.333C326.69 829.231 327.835 827.644 328.408 825.573Z" fill="#B98027"/>
<path d="M309.683 809.926L302.986 830.861L293.47 811.293L289.108 824.911L286.156 823.942L292.809 803.139L302.326 822.664L306.731 808.913L309.683 809.926Z" fill="#B98027"/>
<path d="M268.709 815.656L267.564 819.094L265.052 818.08L266.594 814.819L262.982 814.775L263.158 812.086L266.727 812.527L265.669 809.089L268.269 808.428L268.974 811.998L271.925 809.882L273.379 812.13L270.207 813.849L273.115 816.009L271.397 818.08L268.709 815.656Z" fill="#B98027"/>
<path d="M245.667 807.546L254.302 788.859L257.122 790.182L248.486 808.869L245.667 807.546Z" fill="#B98027"/>
<path d="M241.614 796.528L230.776 800.274L227.075 798.423L239.587 794.236L236.283 779.956L239.984 781.808L242.495 793.311L243.376 793.046L247.209 785.422L249.985 786.832L240.777 805.255L238.001 803.844L241.614 796.528Z" fill="#B98027"/>
<path d="M230.819 788.903C229.409 791.416 227.251 793.09 224.387 793.84C221.523 794.633 218.791 794.28 216.192 792.826C213.637 791.371 211.962 789.212 211.169 786.391C210.376 783.526 210.685 780.794 212.139 778.238C213.593 775.637 215.751 774.007 218.615 773.213C221.479 772.464 224.211 772.816 226.854 774.271C229.189 775.593 230.775 777.532 231.744 780.177C232.714 783.13 232.449 786.039 230.819 788.903ZM228.088 787.361C229.189 785.377 229.453 783.35 228.837 781.323C228.22 779.295 227.074 777.797 225.312 776.827C223.417 775.769 221.479 775.505 219.452 776.078C217.426 776.651 215.884 777.885 214.782 779.78C213.681 781.675 213.416 783.659 213.989 785.686C214.518 787.713 215.751 789.256 217.602 790.314C219.452 791.371 221.391 791.592 223.417 791.019C225.488 790.446 227.03 789.212 228.088 787.361Z" fill="#B98027"/>
<path d="M214.078 767.351L202.182 785.862L198.085 764.531L190.33 776.563L187.731 774.888L199.583 756.509L203.724 777.841L211.522 765.721L214.078 767.351Z" fill="#B98027"/>
<path d="M172.971 757.126C172.046 756.421 171.562 755.496 171.385 754.35C171.253 753.16 171.518 752.102 172.222 751.177C172.971 750.207 173.897 749.634 175.042 749.458C176.232 749.281 177.245 749.546 178.214 750.251C179.14 750.956 179.668 751.882 179.845 753.072C179.977 754.262 179.712 755.319 179.007 756.245C178.258 757.215 177.333 757.788 176.144 757.92C174.998 758.14 173.941 757.876 172.971 757.126Z" fill="#B98027"/>
<path d="M156.626 751.617L169.623 735.619L172.046 737.558L159.049 753.556L156.626 751.617Z" fill="#B98027"/>
<path d="M155.436 739.938L143.981 740.907L140.853 738.175L153.983 737.205L154.291 722.573L157.419 725.305L157.023 737.073L157.948 737.029L163.543 730.594L165.878 732.621L152.396 748.179L150.061 746.152L155.436 739.938Z" fill="#B98027"/>
<path d="M146.845 729.889C144.862 732.004 142.351 733.062 139.399 733.106C136.447 733.15 133.892 732.137 131.733 730.109C129.618 728.082 128.517 725.57 128.429 722.617C128.341 719.664 129.354 717.108 131.381 714.948C133.407 712.788 135.919 711.731 138.871 711.687C141.822 711.642 144.422 712.7 146.581 714.772C148.519 716.623 149.577 718.915 149.841 721.735C150.105 724.776 149.136 727.509 146.845 729.889ZM144.598 727.685C146.184 726.054 146.889 724.159 146.801 722.044C146.713 719.928 145.964 718.209 144.51 716.799C142.968 715.301 141.118 714.595 139.003 714.639C136.888 714.728 135.082 715.521 133.584 717.108C132.086 718.694 131.337 720.545 131.381 722.617C131.425 724.688 132.174 726.495 133.76 727.994C135.302 729.492 137.152 730.197 139.223 730.109C141.294 730.065 143.1 729.272 144.598 727.685Z" fill="#B98027"/>
<path d="M135.963 704.899L119.881 719.884L121.159 698.156L110.673 707.896L108.559 705.604L124.552 690.708L123.318 712.392L133.848 702.563L135.963 704.899Z" fill="#B98027"/>
<path d="M97.368 689.87L94.6805 692.294L93.0063 690.223L95.9582 688.107L92.8301 686.3L94.284 684.052L97.1918 686.212L97.9408 682.686L100.54 683.391L99.3947 686.829L102.963 686.432L103.096 689.121L99.4828 689.077L100.981 692.382L98.4695 693.352L97.368 689.87Z" fill="#B98027"/>
<path d="M81.2429 671.58L97.8968 659.459L99.7472 661.972L83.0934 674.092L81.2429 671.58Z" fill="#B98027"/>
<path d="M83.0933 659.944L71.7704 657.917L69.4353 654.479L82.3883 656.947L86.4417 642.844L88.7767 646.281L85.3843 657.564L86.2654 657.741L93.3147 652.937L95.077 655.493L78.0266 667.084L76.2643 664.528L83.0933 659.944Z" fill="#B98027"/>
<path d="M77.3659 648.044C74.8986 649.543 72.2111 649.94 69.3473 649.234C66.4836 648.529 64.2366 646.899 62.6946 644.342C61.1526 641.83 60.756 639.142 61.461 636.277C62.1659 633.368 63.752 631.164 66.2633 629.622C68.7746 628.079 71.5062 627.682 74.3699 628.388C77.2337 629.137 79.4806 630.768 81.0227 633.324C82.3885 635.616 82.8731 638.128 82.3885 640.86C81.8598 643.946 80.1856 646.326 77.3659 648.044ZM75.7357 645.356C77.6743 644.166 78.8638 642.535 79.3485 640.464C79.789 638.392 79.5247 636.541 78.4673 634.822C77.3218 632.971 75.7357 631.825 73.7091 631.341C71.6383 630.856 69.6998 631.164 67.8494 632.31C65.9549 633.456 64.7653 635.043 64.2807 637.07C63.752 639.098 64.0604 641.037 65.2059 642.844C66.3073 644.695 67.8934 645.841 69.9641 646.326C71.9467 646.81 73.8853 646.458 75.7357 645.356Z" fill="#B98027"/>
<path d="M73.2684 621.071L53.8389 631.429L60.6679 610.802L48.0232 617.501L46.5693 614.769L65.8667 604.5L59.0818 625.126L71.8145 618.339L73.2684 621.071Z" fill="#B98027"/>
<path d="M42.34 592.071C41.8994 591.013 41.8994 589.956 42.34 588.854C42.7805 587.752 43.5295 586.959 44.631 586.474C45.7324 585.989 46.8339 585.945 47.9353 586.386C49.0368 586.782 49.8298 587.532 50.3144 588.633C50.7991 589.691 50.7991 590.793 50.3585 591.895C49.9179 592.997 49.1249 593.79 48.0675 594.275C46.966 594.76 45.8646 594.804 44.7631 594.363C43.6176 593.922 42.8246 593.173 42.34 592.071Z" fill="#B98027"/>
<path d="M30.7527 579.29L49.8738 571.665L51.0193 574.574L31.8982 582.199L30.7527 579.29Z" fill="#B98027"/>
<path d="M35.4226 568.492L24.9809 563.732L23.571 559.809L35.5107 565.407L42.9125 552.758L44.3223 556.68L38.2423 566.817L39.0794 567.214L47.098 564.305L48.1554 567.214L28.7699 574.221L27.7125 571.312L35.4226 568.492Z" fill="#B98027"/>
<path d="M32.8235 555.534C30.0479 556.372 27.3604 556.107 24.7609 554.653C22.1615 553.242 20.3992 551.127 19.5621 548.262C18.725 545.441 18.9894 542.753 20.3552 540.108C21.765 537.464 23.8357 535.745 26.6554 534.864C29.4751 533.982 32.2067 534.291 34.8062 535.701C37.4056 537.111 39.1679 539.271 40.049 542.136C40.8421 544.692 40.6659 547.248 39.5203 549.805C38.1986 552.669 35.9957 554.565 32.8235 555.534ZM31.9424 552.537C34.1012 551.876 35.6873 550.598 36.6566 548.703C37.6259 546.808 37.8021 544.912 37.2293 543.017C36.6125 540.946 35.3348 539.447 33.4844 538.434C31.5899 537.464 29.6073 537.288 27.5366 537.905C25.4218 538.566 23.8798 539.8 22.9105 541.607C21.8972 543.458 21.7209 545.397 22.3378 547.425C22.9546 549.496 24.1882 550.995 26.0827 551.964C27.9331 553.022 29.8717 553.154 31.9424 552.537Z" fill="#B98027"/>
<path d="M35.5546 528.385L14.1865 533.586L25.9059 515.295L11.9836 518.689L11.2346 515.648L32.4705 510.491L20.7952 528.781L34.8056 525.388L35.5546 528.385Z" fill="#B98027"/>
<path d="M12.8209 492.641C12.6447 491.539 12.9091 490.482 13.614 489.556C14.3189 488.586 15.2441 488.014 16.4337 487.837C17.6232 487.661 18.7247 487.881 19.6499 488.542C20.6192 489.204 21.1919 490.129 21.3682 491.319C21.5444 492.465 21.2801 493.523 20.6192 494.492C19.9143 495.462 18.989 496.035 17.7995 496.211C16.6099 496.388 15.5085 496.167 14.5833 495.462C13.614 494.757 12.9972 493.787 12.8209 492.641Z" fill="#B98027"/>
<path d="M4.802 477.392L25.2449 474.747L25.6414 477.833L5.19852 480.477L4.802 477.392Z" fill="#B98027"/>
<path d="M11.9836 468.092L3.03983 460.908L2.64331 456.765L12.8207 465.139L23.1302 454.738L23.5268 458.881L15.1117 467.123L15.8166 467.696L24.3198 466.858L24.6282 469.943L4.14128 471.927L3.83287 468.841L11.9836 468.092Z" fill="#B98027"/>
<path d="M12.6887 454.87C9.78089 455.002 7.26959 454.077 5.0667 452.049C2.90786 450.022 1.7183 447.554 1.58612 444.557C1.45395 441.604 2.37916 439.048 4.36177 436.844C6.34438 434.64 8.81162 433.45 11.7635 433.318C14.7154 433.186 17.2707 434.112 19.4296 436.139C21.5884 438.166 22.7339 440.679 22.9102 443.676C23.0423 446.32 22.2052 448.744 20.487 450.948C18.5925 453.416 15.9931 454.738 12.6887 454.87ZM12.5565 451.741C14.8476 451.653 16.6539 450.771 18.0638 449.185C19.4736 447.598 20.0904 445.791 20.0023 443.808C19.9142 441.648 19.0771 439.841 17.491 438.431C15.9049 437.02 14.0545 436.359 11.8516 436.447C9.64872 436.536 7.84235 437.373 6.43249 438.916C5.02264 440.458 4.36177 442.265 4.44989 444.425C4.538 446.584 5.3751 448.347 6.96119 449.758C8.54727 451.212 10.3977 451.829 12.5565 451.741Z" fill="#B98027"/>
<path d="M21.9849 429.264L0 428.911L15.949 414.146L1.63014 413.926L1.6742 410.797L23.5269 411.149L7.62202 425.914L22.029 426.134L21.9849 429.264Z" fill="#B98027"/>
<path d="M4.44991 391.801L0.837158 391.713L1.05745 389.024L4.62614 389.509L3.61281 386.027L6.21222 385.41L6.82903 388.98L9.78092 386.909L11.1908 389.201L8.0186 390.92L10.8824 393.123L9.12005 395.151L6.52063 392.638L5.33107 396.032L2.86382 395.018L4.44991 391.801Z" fill="#B98027"/>
<path d="M5.37504 367.384L25.7738 370.073L25.3773 373.158L4.97852 370.47L5.37504 367.384Z" fill="#B98027"/>
<path d="M14.6714 360.244L7.88645 350.989L8.54732 346.89L16.2134 357.6L28.858 350.196L28.1972 354.294L17.9317 360.112L18.4604 360.861L26.8754 362.228L26.3908 365.313L6.08008 361.963L6.56471 358.878L14.6714 360.244Z" fill="#B98027"/>
<path d="M18.7245 347.683C15.9048 347.066 13.7019 345.524 12.1158 342.968C10.5297 340.455 10.0451 337.767 10.6619 334.858C11.2787 331.993 12.8207 329.746 15.332 328.159C17.8433 326.528 20.5309 326.043 23.3946 326.66C26.3025 327.277 28.5054 328.864 30.0914 331.376C31.6775 333.888 32.1181 336.621 31.5013 339.574C30.9285 342.174 29.5187 344.334 27.2717 346.009C24.8045 347.772 21.9848 348.389 18.7245 347.683ZM19.4294 344.598C21.6323 345.083 23.659 344.731 25.4213 343.541C27.1836 342.351 28.2851 340.808 28.6816 338.869C29.1222 336.753 28.8138 334.814 27.6242 333.051C26.4787 331.288 24.8045 330.186 22.6897 329.701C20.5309 329.217 18.5923 329.569 16.83 330.671C15.0677 331.773 13.9662 333.404 13.4816 335.475C13.041 337.591 13.3935 339.486 14.539 341.249C15.6845 343.056 17.3146 344.158 19.4294 344.598Z" fill="#B98027"/>
<path d="M34.3652 325.294L13.1733 319.388L32.3385 309.119L18.5484 305.285L19.3855 302.288L40.4452 308.15L21.3241 318.419L35.2023 322.297L34.3652 325.294Z" fill="#B98027"/>
<path d="M31.942 282.984C32.3385 281.926 33.0434 281.132 34.1449 280.648C35.2023 280.163 36.3037 280.119 37.4052 280.515C38.5507 280.912 39.3437 281.661 39.8724 282.719C40.4011 283.777 40.4451 284.879 40.0486 285.981C39.6521 287.082 38.9031 287.876 37.8457 288.361C36.7443 288.845 35.6428 288.889 34.5414 288.493C33.3959 288.096 32.6028 287.347 32.0741 286.289C31.5895 285.187 31.5454 284.129 31.942 282.984Z" fill="#B98027"/>
<path d="M34.6298 264.649L31.2373 263.459L32.2506 260.991L35.5109 262.577L35.599 258.963L38.2866 259.184L37.8019 262.754L41.2825 261.74L41.8993 264.34L38.3306 265.002L40.4014 267.954L38.1103 269.365L36.3921 266.192L34.1892 269.056L32.1625 267.337L34.6298 264.649Z" fill="#B98027"/>
<path d="M43.0444 241.731L61.6368 250.589L60.3151 253.41L41.7227 244.551L43.0444 241.731Z" fill="#B98027"/>
<path d="M54.1031 237.808L50.4904 226.922L52.3848 223.22L56.3941 235.781L70.7129 232.652L68.8184 236.354L57.2753 238.734L57.5396 239.615L65.1176 243.538L63.7077 246.314L45.3796 236.794L46.7895 234.018L54.1031 237.808Z" fill="#B98027"/>
<path d="M61.8573 227.098C59.346 225.644 57.7159 223.484 57.0109 220.575C56.2619 217.711 56.6585 214.978 58.1564 212.422C59.6104 209.866 61.8132 208.235 64.677 207.486C67.5408 206.736 70.2724 207.089 72.7837 208.543C75.339 210.042 76.9692 212.201 77.7182 215.066C78.4231 217.931 78.0266 220.664 76.5286 223.264C75.2069 225.556 73.1802 227.186 70.5367 228.068C67.5848 229.082 64.7211 228.729 61.8573 227.098ZM63.4875 224.41C65.4701 225.556 67.4527 225.82 69.4793 225.247C71.506 224.674 73.048 223.528 74.0173 221.809C75.1187 219.958 75.3831 217.975 74.8103 215.948C74.2376 213.92 73.048 212.334 71.1535 211.232C69.259 210.13 67.2764 209.821 65.2938 210.35C63.2672 210.879 61.7251 212.025 60.6237 213.92C59.5663 215.771 59.3019 217.711 59.8306 219.738C60.4034 221.765 61.593 223.308 63.4875 224.41Z" fill="#B98027"/>
<path d="M83.6218 210.615L65.2937 198.45L86.7058 194.616L74.7662 186.727L76.4844 184.127L94.6803 196.203L73.3122 200.081L85.3401 208.059L83.6218 210.615Z" fill="#B98027"/>
<path d="M94.3721 169.626C95.077 168.745 96.0022 168.216 97.1918 168.084C98.3814 167.952 99.4388 168.26 100.364 168.965C101.333 169.715 101.862 170.64 102.038 171.83C102.214 173.02 101.906 174.034 101.201 174.959C100.496 175.885 99.5269 176.414 98.3814 176.546C97.1918 176.678 96.1344 176.37 95.2092 175.664C94.2399 174.915 93.7112 173.946 93.535 172.8C93.3147 171.654 93.6231 170.596 94.3721 169.626Z" fill="#B98027"/>
</svg>
