<svg width="1086" height="246" viewBox="0 0 1086 246" fill="none" xmlns="http://www.w3.org/2000/svg">
    <path d="M133.094 51.5558L133.604 52.4161L134.454 51.9122L133.961 51.056L133.094 51.5558ZM106.996 67.0213L106.13 67.5205L106.635 68.3977L107.506 67.8816L106.996 67.0213ZM93.0496 50.4511L92.5105 51.2934L92.5279 51.3045L92.5457 51.3149L93.0496 50.4511ZM53.0048 53.6271L53.6497 54.3914L53.6566 54.3855L53.0048 53.6271ZM67.3657 97.5382L66.9858 98.4632L66.9871 98.4638L67.3657 97.5382ZM88.6309 106.238L88.2522 107.163L88.2561 107.165L88.6309 106.238ZM126.604 131.921L125.82 132.542L125.823 132.545L126.604 131.921ZM119.01 217.534L118.31 216.82L118.31 216.82L119.01 217.534ZM24.145 220.434L23.4669 221.169L23.4726 221.174L24.145 220.434ZM1.91322 174.176L1.69805 173.199L0.78736 173.4L0.924021 174.322L1.91322 174.176ZM34.5014 166.995L35.4945 166.878L35.3654 165.781L34.2862 166.019L34.5014 166.995ZM42.2342 192.955L43.0457 192.371L43.0364 192.358L43.0268 192.346L42.2342 192.955ZM104.373 159.815L103.419 160.116L103.424 160.131L103.429 160.146L104.373 159.815ZM98.9873 150.287L98.2112 150.917L98.2219 150.931L98.2332 150.944L98.9873 150.287ZM89.5975 142.14L89.0428 142.972L89.0497 142.976L89.0567 142.981L89.5975 142.14ZM75.7889 134.821L76.1848 133.903L76.1731 133.898L75.7889 134.821ZM55.2142 126.26L54.8248 127.181L54.83 127.183L55.2142 126.26ZM29.8065 31.9476L30.467 32.6985L30.4701 32.6957L29.8065 31.9476ZM132.585 50.6955L106.486 66.161L107.506 67.8816L133.604 52.4161L132.585 50.6955ZM107.863 66.5222C102.963 58.0165 98.2062 52.3014 93.5535 49.5873L92.5457 51.3149C96.7304 53.756 101.272 59.0877 106.13 67.5205L107.863 66.5222ZM93.5886 49.6088C88.7798 46.5311 82.6384 45.0324 75.2366 45.0324V47.0324C82.3797 47.0324 88.1137 48.4794 92.5105 51.2934L93.5886 49.6088ZM75.2366 45.0324C66.1058 45.0324 58.4529 47.6266 52.3531 52.8686L53.6566 54.3855C59.34 49.5013 66.5083 47.0324 75.2366 47.0324V45.0324ZM52.36 52.8628C46.2486 58.0192 43.1674 64.5562 43.1674 72.4067H45.1674C45.1674 65.1598 47.9777 59.1771 53.6497 54.3913L52.36 52.8628ZM43.1674 72.4067C43.1674 83.4336 51.4006 92.0622 66.9858 98.4632L67.7456 96.6132C52.3996 90.3104 45.1674 82.1846 45.1674 72.4067H43.1674ZM66.9871 98.4638L88.2522 107.163L89.0095 105.312L67.7443 96.6127L66.9871 98.4638ZM88.2561 107.165C105.469 114.123 117.956 122.599 125.82 132.542L127.389 131.301C119.235 120.991 106.406 112.345 89.0057 105.31L88.2561 107.165ZM125.823 132.545C133.671 142.378 137.618 154.485 137.618 168.928H139.618C139.618 154.098 135.556 141.534 127.386 131.298L125.823 132.545ZM137.618 168.928C137.618 188.289 131.175 204.227 118.31 216.82L119.709 218.249C132.988 205.251 139.618 188.784 139.618 168.928H137.618ZM118.31 216.82C105.345 229.513 89.261 235.866 69.9893 235.866V237.866C89.7498 237.866 106.346 231.332 119.709 218.249L118.31 216.82ZM69.9893 235.866C51.6983 235.866 36.6676 230.459 24.8174 219.694L23.4726 221.174C35.7412 232.319 51.2735 237.866 69.9893 237.866V235.866ZM24.823 219.699C13.1533 208.934 5.82316 193.744 2.90243 174.029L0.924021 174.322C3.89493 194.376 11.386 210.025 23.4669 221.169L24.823 219.699ZM2.1284 175.152L34.7166 167.972L34.2862 166.019L1.69805 173.199L2.1284 175.152ZM33.5082 167.112C34.9839 179.655 37.5819 188.547 41.4415 193.565L43.0268 192.346C39.5219 187.789 36.9647 179.375 35.4945 166.878L33.5082 167.112ZM41.4226 193.54C48.2633 203.04 58.2512 207.764 71.2321 207.764V205.764C58.8052 205.764 49.4612 201.281 43.0457 192.371L41.4226 193.54ZM71.2321 207.764C81.5152 207.764 90.1087 204.309 96.9375 197.386L95.5136 195.981C89.0862 202.498 81.0175 205.764 71.2321 205.764V207.764ZM96.9375 197.386C103.768 190.46 107.168 181.684 107.168 171.138H105.168C105.168 181.212 101.939 189.466 95.5136 195.981L96.9375 197.386ZM107.168 171.138C107.168 166.899 106.555 163.01 105.316 159.483L103.429 160.146C104.583 163.431 105.168 167.092 105.168 171.138H107.168ZM105.326 159.514C104.179 155.88 102.314 152.584 99.7413 149.63L98.2332 150.944C100.631 153.697 102.357 156.753 103.419 160.116L105.326 159.514ZM99.7634 149.656C97.2907 146.613 94.0756 143.83 90.1382 141.299L89.0567 142.981C92.8521 145.421 95.8968 148.069 98.2112 150.917L99.7634 149.656ZM90.1522 141.308C86.2249 138.69 81.5664 136.223 76.1847 133.903L75.3931 135.74C80.6901 138.023 85.2373 140.435 89.0428 142.972L90.1522 141.308ZM76.1731 133.898L55.5984 125.337L54.83 127.183L75.4047 135.745L76.1731 133.898ZM55.6035 125.339C41.1113 119.213 30.3232 111.703 23.162 102.847C16.014 94.008 12.4411 83.7828 12.4411 72.1305H10.4411C10.4411 84.2289 14.1638 94.9006 21.6068 104.105C29.0366 113.292 40.1351 120.972 54.8248 127.181L55.6035 125.339ZM12.4411 72.1305C12.4411 56.4059 18.4348 43.2832 30.467 32.6985L29.146 31.1968C16.691 42.1534 10.4411 55.8193 10.4411 72.1305H12.4411ZM30.4701 32.6957C42.5096 22.0141 57.5002 16.6536 75.5127 16.6536V14.6536C57.0708 14.6536 41.5905 20.1558 29.1428 31.1996L30.4701 32.6957ZM75.5127 16.6536C99.6841 16.6536 118.571 28.3839 132.228 52.0555L133.961 51.056C120 26.858 100.5 14.6536 75.5127 14.6536V16.6536ZM240.387 50.0368V49.0368H239.387V50.0368H240.387ZM240.387 233V234H241.387V233H240.387ZM208.213 233H207.213V234H208.213V233ZM208.213 50.0368H209.213V49.0368H208.213V50.0368ZM159.193 50.0368H158.193V51.0368H159.193V50.0368ZM159.193 19.7961V18.7961H158.193V19.7961H159.193ZM289.269 19.7961H290.269V18.7961H289.269V19.7961ZM289.269 50.0368V51.0368H290.269V50.0368H289.269ZM239.387 50.0368L239.387 233H241.387L241.387 50.0368H239.387ZM240.387 232H208.213V234H240.387V232ZM209.213 233L209.213 50.0368H207.213L207.213 233H209.213ZM208.213 49.0368H159.193V51.0368H208.213V49.0368ZM160.193 50.0368V19.7961H158.193V50.0368H160.193ZM159.193 20.7961H289.269V18.7961H159.193V20.7961ZM288.269 19.7961V50.0368H290.269V19.7961H288.269ZM289.269 49.0368H240.387V51.0368H289.269V49.0368ZM390.209 142.14L390 141.162L388.497 141.484L389.4 142.728L390.209 142.14ZM456.214 233V234H458.177L457.023 232.412L456.214 233ZM416.86 233L416.04 233.572L416.338 234H416.86V233ZM355.964 145.73L356.784 145.158L356.486 144.73H355.964V145.73ZM350.165 145.73V144.73H349.165V145.73H350.165ZM350.165 233V234H351.165V233H350.165ZM317.991 233H316.991V234H317.991V233ZM317.991 19.7961V18.7961H316.991V19.7961H317.991ZM416.722 35.6759L417.371 34.9153L417.368 34.9123L416.722 35.6759ZM350.165 117.699H349.165V118.699H350.165V117.699ZM350.165 50.0368V49.0368H349.165V50.0368H350.165ZM389.4 142.728L455.405 233.588L457.023 232.412L391.018 141.552L389.4 142.728ZM456.214 232L416.86 232V234L456.214 234V232ZM417.68 232.428L356.784 145.158L355.144 146.302L416.04 233.572L417.68 232.428ZM355.964 144.73H350.165V146.73H355.964V144.73ZM349.165 145.73V233H351.165V145.73H349.165ZM350.165 232H317.991V234H350.165V232ZM318.991 233V19.7961H316.991V233H318.991ZM317.991 20.7961L355.688 20.7961V18.7961L317.991 18.7961V20.7961ZM355.688 20.7961C383.776 20.7961 403.828 26.0823 416.076 36.4395L417.368 34.9123C404.577 24.0965 383.939 18.7961 355.688 18.7961V20.7961ZM416.073 36.4366C429.643 48.0163 436.435 63.2879 436.435 82.3488H438.435C438.435 62.7458 431.418 46.9022 417.371 34.9153L416.073 36.4366ZM436.435 82.3488C436.435 97.2408 432.172 109.996 423.672 120.666L425.237 121.912C434.044 110.856 438.435 97.6515 438.435 82.3488H436.435ZM423.672 120.666C415.17 131.339 403.961 138.17 390 141.162L390.419 143.118C404.811 140.034 416.433 132.964 425.237 121.912L423.672 120.666ZM350.165 118.699H360.383V116.699H350.165V118.699ZM360.383 118.699C375.718 118.699 387.402 115.773 395.27 109.759C403.189 103.706 407.089 94.6452 407.089 82.7631H405.089C405.089 94.1713 401.372 102.578 394.055 108.17C386.688 113.801 375.519 116.699 360.383 116.699V118.699ZM407.089 82.7631C407.089 71.6032 403.282 63.0922 395.566 57.413C387.907 51.7759 376.54 49.0368 361.626 49.0368V51.0368C376.354 51.0368 387.218 53.7521 394.381 59.0238C401.486 64.2533 405.089 72.1055 405.089 82.7631H407.089ZM361.626 49.0368H350.165V51.0368H361.626V49.0368ZM349.165 50.0368V117.699H351.165V50.0368H349.165ZM606.037 50.0368V51.0368H607.037V50.0368H606.037ZM520.562 50.0368V49.0368H519.562V50.0368H520.562ZM520.562 101.267H519.562V102.267H520.562V101.267ZM603.551 101.267H604.551V100.267H603.551V101.267ZM603.551 131.507V132.507H604.551V131.507H603.551ZM520.562 131.507V130.507H519.562V131.507H520.562ZM520.562 202.759H519.562V203.759H520.562V202.759ZM606.037 202.759H607.037V201.759H606.037V202.759ZM606.037 233V234H607.037V233H606.037ZM488.388 233H487.388V234H488.388V233ZM488.388 19.7961V18.7961H487.388V19.7961H488.388ZM606.037 19.7961H607.037V18.7961H606.037V19.7961ZM606.037 49.0368L520.562 49.0368V51.0368L606.037 51.0368V49.0368ZM519.562 50.0368V101.267H521.562V50.0368H519.562ZM520.562 102.267H603.551V100.267H520.562V102.267ZM602.551 101.267V131.507H604.551V101.267H602.551ZM603.551 130.507H520.562V132.507H603.551V130.507ZM519.562 131.507V202.759H521.562V131.507H519.562ZM520.562 203.759H606.037V201.759H520.562V203.759ZM605.037 202.759V233H607.037V202.759H605.037ZM606.037 232H488.388V234H606.037V232ZM489.388 233V19.7961H487.388V233H489.388ZM488.388 20.7961L606.037 20.7961V18.7961L488.388 18.7961V20.7961ZM605.037 19.7961V50.0368H607.037V19.7961H605.037ZM773.535 181.218L774.453 180.821L774.192 180.218H773.535V181.218ZM682.26 181.218V180.218H681.619L681.351 180.801L682.26 181.218ZM658.509 233V234H659.151L659.418 233.417L658.509 233ZM623.85 233L622.943 232.578L622.281 234H623.85V233ZM729.347 6.40184L730.259 5.99215L729.364 3.99742L728.441 5.97977L729.347 6.40184ZM831.116 233V234H832.661L832.028 232.59L831.116 233ZM795.904 233L794.986 233.397L795.247 234H795.904V233ZM760.416 150.977V151.977H761.944L761.333 150.577L760.416 150.977ZM728.795 78.4824L729.711 78.0826L728.816 76.0303L727.885 78.0667L728.795 78.4824ZM695.654 150.977L694.745 150.562L694.098 151.977H695.654V150.977ZM773.535 180.218L682.26 180.218V182.218L773.535 182.218V180.218ZM681.351 180.801L657.6 232.583L659.418 233.417L683.169 181.635L681.351 180.801ZM658.509 232H623.85V234H658.509V232ZM624.756 233.422L730.254 6.82391L728.441 5.97977L622.943 232.578L624.756 233.422ZM728.435 6.81154L830.204 233.41L832.028 232.59L730.259 5.99215L728.435 6.81154ZM831.116 232H795.904V234H831.116V232ZM796.822 232.603L774.453 180.821L772.617 181.615L794.986 233.397L796.822 232.603ZM761.333 150.577L729.711 78.0826L727.878 78.8822L759.5 151.377L761.333 150.577ZM727.885 78.0667L694.745 150.562L696.564 151.393L729.704 78.8982L727.885 78.0667ZM695.654 151.977H760.416V149.977H695.654V151.977ZM850.448 233L849.467 232.808L849.233 234H850.448V233ZM895.326 3.77822L896.241 3.3742L894.956 0.464739L894.344 3.58608L895.326 3.77822ZM968.511 169.481L967.596 169.885L968.495 171.919L969.42 169.897L968.511 169.481ZM1044.32 3.77822L1045.3 3.60498L1044.75 0.439057L1043.41 3.36219L1044.32 3.77822ZM1084.64 233V234H1085.83L1085.63 232.827L1084.64 233ZM1051.64 233L1050.65 233.158L1050.79 234H1051.64V233ZM1031.06 104.304L1032.05 104.147L1031.53 100.874L1030.15 103.89L1031.06 104.304ZM967.959 242.804L967.044 243.209L967.945 245.246L968.869 243.219L967.959 242.804ZM906.649 104.166L907.563 103.762L906.238 100.765L905.664 103.991L906.649 104.166ZM883.727 233V234H884.564L884.711 233.175L883.727 233ZM851.429 233.192L896.307 3.97035L894.344 3.58608L849.467 232.808L851.429 233.192ZM894.411 4.18223L967.596 169.885L969.426 169.077L896.241 3.3742L894.411 4.18223ZM969.42 169.897L1045.23 4.19425L1043.41 3.36219L967.602 169.065L969.42 169.897ZM1043.34 3.95146L1083.66 233.173L1085.63 232.827L1045.3 3.60498L1043.34 3.95146ZM1084.64 232H1051.64V234H1084.64V232ZM1052.63 232.842L1032.05 104.147L1030.08 104.462L1050.65 233.158L1052.63 232.842ZM1030.15 103.89L967.049 242.389L968.869 243.219L1031.97 104.719L1030.15 103.89ZM968.873 242.4L907.563 103.762L905.734 104.571L967.044 243.209L968.873 242.4ZM905.664 103.991L882.742 232.825L884.711 233.175L907.633 104.341L905.664 103.991ZM883.727 232H850.448V234H883.727V232Z" fill="url(#paint0_linear)" />
    <defs>
        <linearGradient id="paint0_linear" x1="549.5" y1="-65" x2="549.5" y2="282" gradientUnits="userSpaceOnUse">
            <stop stop-color="#B98027" />
            <stop offset="1" stop-color="#C8A883" stop-opacity="0" />
        </linearGradient>
    </defs>
</svg>
