<svg width="1093" height="225" viewBox="0 0 1093 225" fill="none" xmlns="http://www.w3.org/2000/svg">
<path d="M33.7197 132.42V131.42H32.7197V132.42H33.7197ZM33.7197 219V220H34.7197V219H33.7197ZM1.5458 219H0.545801V220H1.5458V219ZM1.5458 5.79613V4.79613H0.545801V5.79613H1.5458ZM78.4594 9.52443L78.1963 10.4892L78.1987 10.4899L78.4594 9.52443ZM102.762 23.6091L102.06 24.3209L102.063 24.3243L102.762 23.6091ZM33.7197 102.594H32.7197V103.594H33.7197V102.594ZM33.7197 35.4845V34.4845H32.7197V35.4845H33.7197ZM32.7197 132.42V219H34.7197V132.42H32.7197ZM33.7197 218H1.5458V220H33.7197V218ZM2.5458 219V5.79613H0.545801V219H2.5458ZM1.5458 6.79613H38.0003V4.79613H1.5458V6.79613ZM38.0003 6.79613C55.8345 6.79613 69.2136 8.03939 78.1963 10.4892L78.7225 8.55967C69.4778 6.0384 55.8843 4.79613 38.0003 4.79613V6.79613ZM78.1987 10.4899C87.2324 12.929 95.1826 17.534 102.06 24.3209L103.465 22.8974C96.3496 15.8757 88.0977 11.091 78.72 8.559L78.1987 10.4899ZM102.063 24.3243C114.101 36.0904 120.128 50.9237 120.128 68.9012H122.128C122.128 50.4241 115.911 35.0627 103.461 22.894L102.063 24.3243ZM120.128 68.9012C120.128 88.1687 113.688 103.344 100.862 114.545L102.177 116.051C115.495 104.421 122.128 88.6658 122.128 68.9012H120.128ZM100.862 114.545C88.0181 125.76 70.646 131.42 48.6329 131.42V133.42C70.9913 133.42 88.877 127.666 102.177 116.051L100.862 114.545ZM48.6329 131.42H33.7197V133.42H48.6329V131.42ZM33.7197 103.594H45.7331V101.594H33.7197V103.594ZM45.7331 103.594C60.6085 103.594 71.9486 100.737 79.587 94.8598C87.2751 88.944 91.0585 80.0905 91.0585 68.4869H89.0585C89.0585 79.6214 85.4544 87.8214 78.3674 93.2747C71.2306 98.7662 60.408 101.594 45.7331 101.594V103.594ZM91.0585 68.4869C91.0585 57.2275 87.1424 48.6466 79.2174 42.9243C71.3527 37.2456 59.6781 34.4845 44.3523 34.4845V36.4845C59.4973 36.4845 70.6758 39.2237 78.0466 44.5458C85.357 49.8244 89.0585 57.7447 89.0585 68.4869H91.0585ZM44.3523 34.4845H33.7197V36.4845H44.3523V34.4845ZM32.7197 35.4845V102.594H34.7197V35.4845H32.7197ZM226.487 128.14L226.277 127.162L224.775 127.484L225.678 128.728L226.487 128.14ZM292.492 219V220H294.454L293.301 218.412L292.492 219ZM253.137 219L252.317 219.572L252.616 220H253.137V219ZM192.242 131.73L193.062 131.158L192.763 130.73H192.242V131.73ZM186.442 131.73V130.73H185.442V131.73H186.442ZM186.442 219V220H187.442V219H186.442ZM154.268 219H153.268V220H154.268V219ZM154.268 5.79613V4.79613H153.268V5.79613H154.268ZM252.999 21.6759L253.648 20.9153L253.645 20.9123L252.999 21.6759ZM186.442 103.699H185.442V104.699H186.442V103.699ZM186.442 36.0368V35.0368H185.442V36.0368H186.442ZM225.678 128.728L291.683 219.588L293.301 218.412L227.296 127.552L225.678 128.728ZM292.492 218H253.137V220H292.492V218ZM253.957 218.428L193.062 131.158L191.422 132.302L252.317 219.572L253.957 218.428ZM192.242 130.73H186.442V132.73H192.242V130.73ZM185.442 131.73V219H187.442V131.73H185.442ZM186.442 218H154.268V220H186.442V218ZM155.268 219V5.79613H153.268V219H155.268ZM154.268 6.79613H191.966V4.79613H154.268V6.79613ZM191.966 6.79613C220.053 6.79613 240.105 12.0823 252.354 22.4395L253.645 20.9123C240.854 10.0965 220.217 4.79613 191.966 4.79613V6.79613ZM252.35 22.4366C265.92 34.0163 272.712 49.2879 272.712 68.3488H274.712C274.712 48.7458 267.696 32.9022 253.648 20.9153L252.35 22.4366ZM272.712 68.3488C272.712 83.2408 268.45 95.9959 259.95 106.666L261.514 107.912C270.321 96.8564 274.712 83.6515 274.712 68.3488H272.712ZM259.95 106.666C251.447 117.339 240.239 124.17 226.277 127.162L226.696 129.118C241.089 126.034 252.71 118.964 261.514 107.912L259.95 106.666ZM186.442 104.699H196.66V102.699H186.442V104.699ZM196.66 104.699C211.995 104.699 223.679 101.773 231.547 95.7593C239.466 89.7064 243.367 80.6452 243.367 68.7631H241.367C241.367 80.1713 237.649 88.578 230.333 94.1703C222.966 99.8014 211.797 102.699 196.66 102.699V104.699ZM243.367 68.7631C243.367 57.6032 239.56 49.0922 231.844 43.413C224.185 37.7759 212.818 35.0368 197.903 35.0368V37.0368C212.631 37.0368 223.496 39.7521 230.658 45.0238C237.763 50.2533 241.367 58.1055 241.367 68.7631H243.367ZM197.903 35.0368H186.442V37.0368H197.903V35.0368ZM185.442 36.0368V103.699H187.442V36.0368H185.442ZM442.314 36.0368V37.0368H443.314V36.0368H442.314ZM356.84 36.0368V35.0368H355.84V36.0368H356.84ZM356.84 87.2665H355.84V88.2665H356.84V87.2665ZM439.829 87.2665H440.829V86.2665H439.829V87.2665ZM439.829 117.507V118.507H440.829V117.507H439.829ZM356.84 117.507V116.507H355.84V117.507H356.84ZM356.84 188.759H355.84V189.759H356.84V188.759ZM442.314 188.759H443.314V187.759H442.314V188.759ZM442.314 219V220H443.314V219H442.314ZM324.666 219H323.666V220H324.666V219ZM324.666 5.79613V4.79613H323.666V5.79613H324.666ZM442.314 5.79613H443.314V4.79613H442.314V5.79613ZM442.314 35.0368H356.84V37.0368H442.314V35.0368ZM355.84 36.0368V87.2665H357.84V36.0368H355.84ZM356.84 88.2665H439.829V86.2665H356.84V88.2665ZM438.829 87.2665V117.507H440.829V87.2665H438.829ZM439.829 116.507H356.84V118.507H439.829V116.507ZM355.84 117.507V188.759H357.84V117.507H355.84ZM356.84 189.759H442.314V187.759H356.84V189.759ZM441.314 188.759V219H443.314V188.759H441.314ZM442.314 218H324.666V220H442.314V218ZM325.666 219V5.79613H323.666V219H325.666ZM324.666 6.79613H442.314V4.79613H324.666V6.79613ZM441.314 5.79613V36.0368H443.314V5.79613H441.314ZM605.117 37.5558L605.627 38.4161L606.477 37.9122L605.983 37.056L605.117 37.5558ZM579.019 53.0213L578.152 53.5205L578.658 54.3977L579.529 53.8816L579.019 53.0213ZM565.072 36.4511L564.533 37.2934L564.551 37.3045L564.568 37.3149L565.072 36.4511ZM525.028 39.6271L525.672 40.3914L525.679 40.3855L525.028 39.6271ZM539.388 83.5382L539.009 84.4632L539.01 84.4638L539.388 83.5382ZM560.654 92.2376L560.275 93.1631L560.279 93.1647L560.654 92.2376ZM598.627 117.921L597.843 118.542L597.846 118.545L598.627 117.921ZM591.032 203.534L590.333 202.82L590.333 202.82L591.032 203.534ZM496.168 206.434L495.49 207.169L495.495 207.174L496.168 206.434ZM473.936 160.176L473.721 159.199L472.81 159.4L472.947 160.322L473.936 160.176ZM506.524 152.995L507.517 152.878L507.388 151.781L506.309 152.019L506.524 152.995ZM514.257 178.955L515.068 178.371L515.059 178.358L515.05 178.346L514.257 178.955ZM576.395 145.815L575.442 146.116L575.447 146.131L575.452 146.146L576.395 145.815ZM571.01 136.287L570.234 136.917L570.245 136.931L570.256 136.944L571.01 136.287ZM561.62 128.14L561.066 128.972L561.072 128.976L561.079 128.981L561.62 128.14ZM547.812 120.821L548.208 119.903L548.196 119.898L547.812 120.821ZM527.237 112.26L526.848 113.181L526.853 113.183L527.237 112.26ZM501.829 17.9476L502.49 18.6985L502.493 18.6957L501.829 17.9476ZM604.607 36.6955L578.509 52.161L579.529 53.8816L605.627 38.4161L604.607 36.6955ZM579.885 52.5222C574.985 44.0165 570.229 38.3014 565.576 35.5873L564.568 37.3149C568.753 39.756 573.294 45.0877 578.152 53.5205L579.885 52.5222ZM565.611 35.6088C560.803 32.5311 554.661 31.0324 547.259 31.0324V33.0324C554.403 33.0324 560.136 34.4794 564.533 37.2934L565.611 35.6088ZM547.259 31.0324C538.129 31.0324 530.476 33.6266 524.376 38.8686L525.679 40.3855C531.363 35.5013 538.531 33.0324 547.259 33.0324V31.0324ZM524.383 38.8628C518.271 44.0192 515.19 50.5562 515.19 58.4067H517.19C517.19 51.1598 520.001 45.1771 525.672 40.3913L524.383 38.8628ZM515.19 58.4067C515.19 69.4336 523.423 78.0622 539.009 84.4632L539.768 82.6132C524.422 76.3104 517.19 68.1846 517.19 58.4067H515.19ZM539.01 84.4638L560.275 93.1631L561.032 91.312L539.767 82.6127L539.01 84.4638ZM560.279 93.1647C577.492 100.123 589.979 108.599 597.843 118.542L599.411 117.301C591.257 106.991 578.429 98.3446 561.028 91.3105L560.279 93.1647ZM597.846 118.545C605.694 128.378 609.641 140.485 609.641 154.928H611.641C611.641 140.098 607.579 127.534 599.409 117.298L597.846 118.545ZM609.641 154.928C609.641 174.289 603.198 190.227 590.333 202.82L591.732 204.249C605.011 191.251 611.641 174.784 611.641 154.928H609.641ZM590.333 202.82C577.368 215.513 561.284 221.866 542.012 221.866V223.866C561.773 223.866 578.369 217.332 591.732 204.249L590.333 202.82ZM542.012 221.866C523.721 221.866 508.69 216.459 496.84 205.694L495.495 207.174C507.764 218.319 523.296 223.866 542.012 223.866V221.866ZM496.846 205.699C485.176 194.934 477.846 179.744 474.925 160.029L472.947 160.322C475.918 180.376 483.409 196.025 495.49 207.169L496.846 205.699ZM474.151 161.152L506.739 153.972L506.309 152.019L473.721 159.199L474.151 161.152ZM505.531 153.112C507.007 165.655 509.605 174.547 513.464 179.565L515.05 178.346C511.545 173.789 508.987 165.375 507.517 152.878L505.531 153.112ZM513.445 179.54C520.286 189.04 530.274 193.764 543.255 193.764V191.764C530.828 191.764 521.484 187.281 515.068 178.371L513.445 179.54ZM543.255 193.764C553.538 193.764 562.131 190.309 568.96 183.386L567.536 181.981C561.109 188.498 553.04 191.764 543.255 191.764V193.764ZM568.96 183.386C575.791 176.46 579.19 167.684 579.19 157.138H577.19C577.19 167.212 573.962 175.466 567.536 181.981L568.96 183.386ZM579.19 157.138C579.19 152.899 578.578 149.01 577.339 145.483L575.452 146.146C576.606 149.431 577.19 153.092 577.19 157.138H579.19ZM577.349 145.514C576.202 141.88 574.337 138.584 571.764 135.63L570.256 136.944C572.654 139.697 574.38 142.753 575.442 146.116L577.349 145.514ZM571.786 135.656C569.313 132.613 566.098 129.83 562.161 127.299L561.079 128.981C564.875 131.421 567.92 134.069 570.234 136.917L571.786 135.656ZM562.175 127.308C558.248 124.69 553.589 122.223 548.208 119.903L547.416 121.74C552.713 124.023 557.26 126.435 561.066 128.972L562.175 127.308ZM548.196 119.898L527.621 111.337L526.853 113.183L547.428 121.745L548.196 119.898ZM527.626 111.339C513.134 105.213 502.346 97.7027 495.185 88.8471C488.037 80.008 484.464 69.7828 484.464 58.1305H482.464C482.464 70.2289 486.187 80.9006 493.63 90.1047C501.059 99.2923 512.158 106.972 526.848 113.181L527.626 111.339ZM484.464 58.1305C484.464 42.4059 490.458 29.2832 502.49 18.6985L501.169 17.1968C488.714 28.1534 482.464 41.8193 482.464 58.1305H484.464ZM502.493 18.6957C514.532 8.01407 529.523 2.65356 547.536 2.65356V0.653565C529.094 0.653565 513.613 6.15577 501.166 17.1996L502.493 18.6957ZM547.536 2.65356C571.707 2.65356 590.594 14.3839 604.251 38.0555L605.983 37.056C592.023 12.858 572.523 0.653565 547.536 0.653565V2.65356ZM712.409 36.0368V35.0368H711.409V36.0368H712.409ZM712.409 219V220H713.409V219H712.409ZM680.236 219H679.236V220H680.236V219ZM680.236 36.0368H681.236V35.0368H680.236V36.0368ZM631.215 36.0368H630.215V37.0368H631.215V36.0368ZM631.215 5.79613V4.79613H630.215V5.79613H631.215ZM761.292 5.79613H762.292V4.79613H761.292V5.79613ZM761.292 36.0368V37.0368H762.292V36.0368H761.292ZM711.409 36.0368V219H713.409V36.0368H711.409ZM712.409 218H680.236V220H712.409V218ZM681.236 219V36.0368H679.236V219H681.236ZM680.236 35.0368H631.215V37.0368H680.236V35.0368ZM632.215 36.0368V5.79613H630.215V36.0368H632.215ZM631.215 6.79613H761.292V4.79613H631.215V6.79613ZM760.292 5.79613V36.0368H762.292V5.79613H760.292ZM761.292 35.0368H712.409V37.0368H761.292V35.0368ZM822.187 5.79613H823.187V4.79613H822.187V5.79613ZM822.187 219V220H823.187V219H822.187ZM790.014 219H789.014V220H790.014V219ZM790.014 5.79613V4.79613H789.014V5.79613H790.014ZM821.187 5.79613V219H823.187V5.79613H821.187ZM822.187 218H790.014V220H822.187V218ZM791.014 219V5.79613H789.014V219H791.014ZM790.014 6.79613H822.187V4.79613H790.014V6.79613ZM983.057 107.979V106.979H982.057V107.979H983.057ZM1071.16 107.979H1072.16V106.979H1071.16V107.979ZM1065.49 157.552L1066.45 157.859L1066.45 157.852L1066.45 157.845L1065.49 157.552ZM1046.85 189.588L1047.6 190.252L1047.6 190.248L1046.85 189.588ZM894.682 190.692L893.969 191.394L893.971 191.395L894.682 190.692ZM895.235 34.1036L895.94 34.8123L895.942 34.8107L895.235 34.1036ZM1020.89 11.8719L1021.33 10.9751L1021.33 10.9711L1021.32 10.9673L1020.89 11.8719ZM1061.63 45.0124L1062.32 45.7346L1063.01 45.0739L1062.38 44.3545L1061.63 45.0124ZM1038.71 66.968L1037.91 67.5685L1038.58 68.4701L1039.4 67.6901L1038.71 66.968ZM918.019 55.3688L918.726 56.0759L918.732 56.0695L918.019 55.3688ZM920.642 171.499L919.972 172.241L919.975 172.243L920.642 171.499ZM1015.09 176.884L1015.74 177.647L1015.74 177.644L1015.09 176.884ZM1036.22 138.22L1037.21 138.318L1037.32 137.22H1036.22V138.22ZM983.057 138.22H982.057V139.22H983.057V138.22ZM983.057 108.979H1071.16V106.979H983.057V108.979ZM1070.16 107.979V115.022H1072.16V107.979H1070.16ZM1070.16 115.022C1070.16 130.963 1068.28 145.038 1064.54 157.259L1066.45 157.845C1070.26 145.394 1072.16 131.116 1072.16 115.022H1070.16ZM1064.54 157.245C1060.91 168.517 1054.77 179.077 1046.1 188.927L1047.6 190.248C1056.43 180.214 1062.72 169.417 1066.45 157.859L1064.54 157.245ZM1046.1 188.924C1026.51 210.982 1001.61 222.004 971.32 222.004V224.004C1002.16 224.004 1027.61 212.75 1047.6 190.252L1046.1 188.924ZM971.32 222.004C941.765 222.004 916.474 211.344 895.394 189.99L893.971 191.395C915.42 213.123 941.221 224.004 971.32 224.004V222.004ZM895.395 189.991C874.314 168.545 863.785 142.836 863.785 112.812H861.785C861.785 143.362 872.52 169.573 893.969 191.394L895.395 189.991ZM863.785 112.812C863.785 82.1432 874.498 56.1632 895.94 34.8122L894.529 33.395C872.704 55.1268 861.785 81.6192 861.785 112.812H863.785ZM895.942 34.8107C917.385 13.3678 943.457 2.65356 974.219 2.65356V0.653565C942.935 0.653565 916.351 11.5727 894.527 33.3965L895.942 34.8107ZM974.219 2.65356C990.741 2.65356 1006.15 6.02979 1020.47 12.7764L1021.32 10.9673C1006.73 4.08956 991.023 0.653565 974.219 0.653565V2.65356ZM1020.45 12.7687C1034.11 19.5072 1047.59 30.4582 1060.87 45.6702L1062.38 44.3545C1048.97 29.0037 1035.29 17.861 1021.33 10.9751L1020.45 12.7687ZM1060.94 44.2902L1038.01 66.2458L1039.4 67.6901L1062.32 45.7346L1060.94 44.2902ZM1039.5 66.3675C1021.86 42.871 1000.27 31.0324 974.772 31.0324V33.0324C999.536 33.0324 1020.57 44.4841 1037.91 67.5685L1039.5 66.3675ZM974.772 31.0324C951.96 31.0324 932.782 38.9118 917.305 54.668L918.732 56.0695C933.818 40.7106 952.476 33.0324 974.772 33.0324V31.0324ZM917.312 54.6617C901.829 70.1438 894.096 89.552 894.096 112.812H896.096C896.096 90.0442 903.645 71.1567 918.726 56.0759L917.312 54.6617ZM894.096 112.812C894.096 136.835 902.723 156.67 919.972 172.241L921.312 170.756C904.5 155.58 896.096 136.291 896.096 112.812H894.096ZM919.975 172.243C936.055 186.65 953.546 193.902 972.424 193.902V191.902C954.112 191.902 937.081 184.885 921.31 170.754L919.975 172.243ZM972.424 193.902C988.506 193.902 1002.96 188.471 1015.74 177.647L1014.45 176.121C1002.01 186.654 988.01 191.902 972.424 191.902V193.902ZM1015.74 177.644C1028.53 166.724 1035.71 153.607 1037.21 138.318L1035.22 138.122C1033.78 152.844 1026.88 165.502 1014.44 176.124L1015.74 177.644ZM1036.22 137.22H983.057V139.22H1036.22V137.22ZM984.057 138.22V107.979H982.057V138.22H984.057ZM1229.4 36.0368V37.0368H1230.4V36.0368H1229.4ZM1143.93 36.0368V35.0368H1142.93V36.0368H1143.93ZM1143.93 87.2665H1142.93V88.2665H1143.93V87.2665ZM1226.92 87.2665H1227.92V86.2665H1226.92V87.2665ZM1226.92 117.507V118.507H1227.92V117.507H1226.92ZM1143.93 117.507V116.507H1142.93V117.507H1143.93ZM1143.93 188.759H1142.93V189.759H1143.93V188.759ZM1229.4 188.759H1230.4V187.759H1229.4V188.759ZM1229.4 219V220H1230.4V219H1229.4ZM1111.75 219H1110.75V220H1111.75V219ZM1111.75 5.79613V4.79613H1110.75V5.79613H1111.75ZM1229.4 5.79613H1230.4V4.79613H1229.4V5.79613ZM1229.4 35.0368H1143.93V37.0368H1229.4V35.0368ZM1142.93 36.0368V87.2665H1144.93V36.0368H1142.93ZM1143.93 88.2665H1226.92V86.2665H1143.93V88.2665ZM1225.92 87.2665V117.507H1227.92V87.2665H1225.92ZM1226.92 116.507H1143.93V118.507H1226.92V116.507ZM1142.93 117.507V188.759H1144.93V117.507H1142.93ZM1143.93 189.759H1229.4V187.759H1143.93V189.759ZM1228.4 188.759V219H1230.4V188.759H1228.4ZM1229.4 218H1111.75V220H1229.4V218ZM1112.75 219V5.79613H1110.75V219H1112.75ZM1111.75 6.79613H1229.4V4.79613H1111.75V6.79613ZM1228.4 5.79613V36.0368H1230.4V5.79613H1228.4Z" fill="url(#paint0_linear)"/>
<defs>
<linearGradient id="paint0_linear" x1="611.5" y1="-79" x2="611.5" y2="297" gradientUnits="userSpaceOnUse">
<stop stop-color="#B98027"/>
<stop offset="1" stop-color="#C8A883" stop-opacity="0"/>
</linearGradient>
</defs>
</svg>
