<svg width="1762" height="281" viewBox="0 0 1762 281" fill="none" xmlns="http://www.w3.org/2000/svg">
<path d="M193.187 32.5158H194.187V31.941L193.69 31.6517L193.187 32.5158ZM193.187 76.0569L192.545 76.8239L194.187 78.1974V76.0569H193.187ZM63.9832 76.3725L64.7029 77.0668L64.7071 77.0624L63.9832 76.3725ZM63.9832 206.68L63.2697 207.381L63.9832 206.68ZM160.373 226.716L159.989 225.793L159.97 225.8L159.952 225.809L160.373 226.716ZM175.991 218.197L175.444 217.36L175.437 217.365L175.991 218.197ZM193.187 205.261H194.187V203.111L192.543 204.496L193.187 205.261ZM193.187 249.591L193.679 250.461L194.187 250.174V249.591H193.187ZM37.7954 230.975L37.0883 231.682L37.0929 231.687L37.7954 230.975ZM31.8006 59.3346L31.038 58.6878L31.0365 58.6896L31.8006 59.3346ZM192.187 32.5158V76.0569H194.187V32.5158H192.187ZM193.829 75.29C172.445 57.3996 150.244 48.3959 127.244 48.3959V50.3959C149.678 50.3959 171.439 59.1662 192.545 76.8239L193.829 75.29ZM127.244 48.3959C101.942 48.3959 80.5927 57.4984 63.2594 75.6825L64.7071 77.0624C81.6598 59.2777 102.484 50.3959 127.244 50.3959V48.3959ZM63.2635 75.6782C45.8274 93.7522 37.1109 115.88 37.1109 142H39.1109C39.1109 116.375 47.6426 94.7512 64.7029 77.0668L63.2635 75.6782ZM37.1109 142C37.1109 167.807 45.8303 189.623 63.2697 207.381L64.6967 205.98C47.6398 188.611 39.1109 167.306 39.1109 142H37.1109ZM63.2697 207.381C80.7095 225.14 102.108 234.026 127.402 234.026V232.026C102.634 232.026 81.7533 223.348 64.6967 205.98L63.2697 207.381ZM127.402 234.026C140.442 234.026 151.585 231.906 160.795 227.622L159.952 225.809C151.072 229.939 140.234 232.026 127.402 232.026V234.026ZM160.758 227.639C165.875 225.507 171.138 222.634 176.546 219.029L175.437 217.365C170.117 220.911 164.968 223.718 159.989 225.793L160.758 227.639ZM176.539 219.034C182.047 215.432 187.811 211.095 193.831 206.026L192.543 204.496C186.573 209.523 180.873 213.81 175.444 217.36L176.539 219.034ZM192.187 205.261V249.591H194.187V205.261H192.187ZM192.695 248.72C171.804 260.523 149.886 266.417 126.929 266.417V268.417C150.247 268.417 172.501 262.427 193.679 250.461L192.695 248.72ZM126.929 266.417C92.3777 266.417 62.9196 254.372 38.498 230.264L37.0929 231.687C61.8917 256.168 91.8557 268.417 126.929 268.417V266.417ZM38.5025 230.268C14.1847 205.95 2.03785 176.651 2.03785 142.315H0.0378476C0.0378476 177.182 12.3961 206.99 37.0883 231.682L38.5025 230.268ZM2.03785 142.315C2.03785 111.532 12.2044 84.0988 32.5648 59.9797L31.0365 58.6896C10.3798 83.1598 0.0378476 111.047 0.0378476 142.315H2.03785ZM32.5633 59.9814C57.6088 30.4486 89.9825 15.6891 129.768 15.6891V13.6891C89.413 13.6891 56.475 28.6933 31.038 58.6878L32.5633 59.9814ZM129.768 15.6891C151.453 15.6891 172.421 21.5772 192.684 33.3799L193.69 31.6517C173.147 19.6856 151.835 13.6891 129.768 13.6891V15.6891ZM289.552 51.7622L290.251 52.4768L290.253 52.4753L289.552 51.7622ZM469.08 52.0778L468.373 52.7849L468.375 52.7864L469.08 52.0778ZM468.922 230.66L468.224 229.944L468.224 229.944L468.922 230.66ZM293.18 234.761L292.522 235.514L292.524 235.516L293.18 234.761ZM316.055 206.996L316.749 206.276L316.747 206.274L316.055 206.996ZM443.05 206.523L443.759 207.228L443.763 207.223L443.05 206.523ZM443.366 75.8992L442.65 76.5977L442.654 76.602L443.366 75.8992ZM315.108 75.8992L315.816 76.6063L315.82 76.6021L315.108 75.8992ZM252.848 140.107C252.848 106.097 265.302 76.9044 290.251 52.4768L288.852 51.0477C263.53 75.8405 250.848 105.544 250.848 140.107H252.848ZM290.253 52.4753C315.097 28.0491 344.924 15.8469 379.789 15.8469V13.8469C344.4 13.8469 314.069 26.2549 288.851 51.0492L290.253 52.4753ZM379.789 15.8469C414.227 15.8469 443.738 28.1494 468.373 52.7849L469.787 51.3706C444.782 26.3649 414.765 13.8469 379.789 13.8469V15.8469ZM468.375 52.7864C493.114 77.4215 505.469 106.984 505.469 141.526H507.469C507.469 106.445 494.898 76.3752 469.786 51.3692L468.375 52.7864ZM505.469 141.526C505.469 176.28 493.062 205.732 468.224 229.944L469.62 231.376C494.845 206.787 507.469 176.818 507.469 141.526H505.469ZM468.224 229.944C443.278 254.264 413.187 266.417 377.896 266.417V268.417C413.701 268.417 444.295 256.065 469.62 231.376L468.224 229.944ZM377.896 266.417C346.705 266.417 318.696 255.629 293.836 234.007L292.524 235.516C317.726 257.435 346.194 268.417 377.896 268.417V266.417ZM293.838 234.008C266.516 210.128 252.848 178.858 252.848 140.107H250.848C250.848 179.392 264.734 211.226 292.522 235.514L293.838 234.008ZM287.921 140.58C287.921 167.754 297.061 190.161 315.363 207.718L316.747 206.274C298.87 189.125 289.921 167.254 289.921 140.58H287.921ZM315.361 207.716C333.519 225.237 354.535 234.026 378.369 234.026V232.026C355.087 232.026 334.56 223.462 316.749 206.276L315.361 207.716ZM378.369 234.026C404.185 234.026 426.003 225.091 443.759 207.228L442.341 205.818C424.97 223.292 403.668 232.026 378.369 232.026V234.026ZM443.763 207.223C461.516 189.152 470.396 167.128 470.396 141.211H468.396C468.396 166.618 459.712 188.135 442.337 205.822L443.763 207.223ZM470.396 141.211C470.396 114.986 461.626 92.9578 444.077 75.1964L442.654 76.602C459.812 93.968 468.396 115.481 468.396 141.211H470.396ZM444.081 75.2007C426.638 57.3324 405.028 48.3959 379.316 48.3959V50.3959C404.507 50.3959 425.596 59.1282 442.65 76.5977L444.081 75.2007ZM379.316 48.3959C353.708 48.3959 332.048 57.333 314.397 75.1963L315.82 76.6021C333.086 59.1276 354.231 50.3959 379.316 50.3959V48.3959ZM314.401 75.1921C296.747 92.8462 287.921 114.664 287.921 140.58H289.921C289.921 115.172 298.553 93.8692 315.816 76.6063L314.401 75.1921ZM578.539 263H577.539V264H578.539V263ZM578.539 2.85731L579.262 2.16634L577.539 0.36389V2.85731H578.539ZM756.174 188.696L755.451 189.387L757.174 191.189V188.696H756.174ZM756.174 19.4219V18.4219H755.174V19.4219H756.174ZM792.932 19.4219H793.932V18.4219H792.932V19.4219ZM792.932 277.829L792.21 278.521L793.932 280.318V277.829H792.932ZM615.296 92.4638L616.018 91.7719L614.296 89.9749V92.4638H615.296ZM615.296 263V264H616.296V263H615.296ZM579.539 263V2.85731H577.539V263H579.539ZM577.816 3.54828L755.451 189.387L756.897 188.005L579.262 2.16634L577.816 3.54828ZM757.174 188.696V19.4219H755.174V188.696H757.174ZM756.174 20.4219H792.932V18.4219H756.174V20.4219ZM791.932 19.4219L791.932 277.829H793.932L793.932 19.4219H791.932ZM793.654 277.137L616.018 91.7719L614.574 93.1557L792.21 278.521L793.654 277.137ZM614.296 92.4638V263H616.296V92.4638H614.296ZM615.296 262H578.539V264H615.296V262ZM877.307 263H876.307V264H877.307V263ZM877.307 2.85731L878.03 2.16634L876.307 0.36389V2.85731H877.307ZM1054.94 188.696L1054.22 189.387L1055.94 191.189V188.696H1054.94ZM1054.94 19.4219V18.4219H1053.94V19.4219H1054.94ZM1091.7 19.4219H1092.7V18.4219H1091.7V19.4219ZM1091.7 277.829L1090.98 278.521L1092.7 280.318V277.829H1091.7ZM914.065 92.4638L914.787 91.7719L913.065 89.9749V92.4638H914.065ZM914.065 263V264H915.065V263H914.065ZM878.307 263V2.85731H876.307V263H878.307ZM876.584 3.54828L1054.22 189.387L1055.67 188.005L878.03 2.16634L876.584 3.54828ZM1055.94 188.696V19.4219H1053.94V188.696H1055.94ZM1054.94 20.4219L1091.7 20.4219V18.4219L1054.94 18.4219V20.4219ZM1090.7 19.4219V277.829H1092.7V19.4219H1090.7ZM1092.42 277.137L914.787 91.7719L913.343 93.1557L1090.98 278.521L1092.42 277.137ZM913.065 92.4638V263H915.065V92.4638H913.065ZM914.065 262H877.307V264H914.065V262ZM1310.48 53.9709V54.9709H1311.48V53.9709H1310.48ZM1212.83 53.9709V52.9709H1211.83V53.9709H1212.83ZM1212.83 112.499H1211.83V113.499H1212.83V112.499ZM1307.65 112.499H1308.65V111.499H1307.65V112.499ZM1307.65 147.048V148.048H1308.65V147.048H1307.65ZM1212.83 147.048V146.048H1211.83V147.048H1212.83ZM1212.83 228.451H1211.83V229.451H1212.83V228.451ZM1310.48 228.451H1311.48V227.451H1310.48V228.451ZM1310.48 263V264H1311.48V263H1310.48ZM1176.08 263H1175.08V264H1176.08V263ZM1176.08 19.4219V18.4219H1175.08V19.4219H1176.08ZM1310.48 19.4219H1311.48V18.4219H1310.48V19.4219ZM1310.48 52.9709L1212.83 52.9709V54.9709L1310.48 54.9709V52.9709ZM1211.83 53.9709V112.499H1213.83V53.9709H1211.83ZM1212.83 113.499H1307.65V111.499H1212.83V113.499ZM1306.65 112.499V147.048H1308.65V112.499H1306.65ZM1307.65 146.048H1212.83V148.048H1307.65V146.048ZM1211.83 147.048V228.451H1213.83V147.048H1211.83ZM1212.83 229.451L1310.48 229.451V227.451L1212.83 227.451V229.451ZM1309.48 228.451V263H1311.48V228.451H1309.48ZM1310.48 262L1176.08 262V264L1310.48 264V262ZM1177.08 263V19.4219L1175.08 19.4219V263H1177.08ZM1176.08 20.4219L1310.48 20.4219V18.4219L1176.08 18.4219V20.4219ZM1309.48 19.4219V53.9709L1311.48 53.9709V19.4219H1309.48ZM1564.61 32.5158H1565.61V31.941L1565.11 31.6517L1564.61 32.5158ZM1564.61 76.0569L1563.97 76.8239L1565.61 78.1974V76.0569H1564.61ZM1435.4 76.3725L1436.12 77.0668L1436.13 77.0624L1435.4 76.3725ZM1435.4 206.68L1434.69 207.381L1435.4 206.68ZM1531.79 226.716L1531.41 225.793L1531.39 225.8L1531.37 225.809L1531.79 226.716ZM1547.41 218.197L1546.86 217.36L1546.86 217.365L1547.41 218.197ZM1564.61 205.261H1565.61V203.111L1563.96 204.496L1564.61 205.261ZM1564.61 249.591L1565.1 250.461L1565.61 250.174V249.591H1564.61ZM1409.22 230.975L1408.51 231.682L1408.51 231.687L1409.22 230.975ZM1403.22 59.3346L1402.46 58.6878L1402.46 58.6896L1403.22 59.3346ZM1563.61 32.5158V76.0569H1565.61V32.5158H1563.61ZM1565.25 75.29C1543.87 57.3996 1521.66 48.3959 1498.66 48.3959V50.3959C1521.1 50.3959 1542.86 59.1662 1563.97 76.8239L1565.25 75.29ZM1498.66 48.3959C1473.36 48.3959 1452.01 57.4984 1434.68 75.6825L1436.13 77.0624C1453.08 59.2777 1473.9 50.3959 1498.66 50.3959V48.3959ZM1434.68 75.6782C1417.25 93.7522 1408.53 115.88 1408.53 142H1410.53C1410.53 116.375 1419.06 94.7512 1436.12 77.0668L1434.68 75.6782ZM1408.53 142C1408.53 167.807 1417.25 189.623 1434.69 207.381L1436.12 205.98C1419.06 188.611 1410.53 167.306 1410.53 142H1408.53ZM1434.69 207.381C1452.13 225.14 1473.53 234.026 1498.82 234.026V232.026C1474.05 232.026 1453.17 223.348 1436.12 205.98L1434.69 207.381ZM1498.82 234.026C1511.86 234.026 1523.01 231.906 1532.22 227.622L1531.37 225.809C1522.49 229.939 1511.65 232.026 1498.82 232.026V234.026ZM1532.18 227.639C1537.3 225.507 1542.56 222.634 1547.97 219.029L1546.86 217.365C1541.54 220.911 1536.39 223.718 1531.41 225.793L1532.18 227.639ZM1547.96 219.034C1553.47 215.432 1559.23 211.095 1565.25 206.026L1563.96 204.496C1557.99 209.523 1552.29 213.81 1546.86 217.36L1547.96 219.034ZM1563.61 205.261V249.591H1565.61V205.261H1563.61ZM1564.12 248.72C1543.22 260.523 1521.31 266.417 1498.35 266.417V268.417C1521.67 268.417 1543.92 262.427 1565.1 250.461L1564.12 248.72ZM1498.35 266.417C1463.8 266.417 1434.34 254.372 1409.92 230.264L1408.51 231.687C1433.31 256.168 1463.28 268.417 1498.35 268.417V266.417ZM1409.92 230.268C1385.61 205.95 1373.46 176.651 1373.46 142.315H1371.46C1371.46 177.182 1383.82 206.99 1408.51 231.682L1409.92 230.268ZM1373.46 142.315C1373.46 111.532 1383.62 84.0988 1403.99 59.9797L1402.46 58.6896C1381.8 83.1598 1371.46 111.047 1371.46 142.315H1373.46ZM1403.98 59.9814C1429.03 30.4486 1461.4 15.6891 1501.19 15.6891V13.6891C1460.83 13.6891 1427.9 28.6933 1402.46 58.6878L1403.98 59.9814ZM1501.19 15.6891C1522.87 15.6891 1543.84 21.5772 1564.1 33.3799L1565.11 31.6517C1544.57 19.6856 1523.26 13.6891 1501.19 13.6891V15.6891ZM1704.2 53.9709V52.9709H1703.2V53.9709H1704.2ZM1704.2 263V264H1705.2V263H1704.2ZM1667.44 263H1666.44V264H1667.44V263ZM1667.44 53.9709H1668.44V52.9709H1667.44V53.9709ZM1611.44 53.9709H1610.44V54.9709H1611.44V53.9709ZM1611.44 19.4219V18.4219H1610.44V19.4219H1611.44ZM1760.04 19.4219H1761.04V18.4219H1760.04V19.4219ZM1760.04 53.9709V54.9709H1761.04V53.9709H1760.04ZM1703.2 53.9709V263H1705.2V53.9709H1703.2ZM1704.2 262H1667.44V264H1704.2V262ZM1668.44 263V53.9709H1666.44V263H1668.44ZM1667.44 52.9709L1611.44 52.9709V54.9709L1667.44 54.9709V52.9709ZM1612.44 53.9709V19.4219H1610.44V53.9709H1612.44ZM1611.44 20.4219L1760.04 20.4219V18.4219L1611.44 18.4219V20.4219ZM1759.04 19.4219V53.9709H1761.04V19.4219H1759.04ZM1760.04 52.9709H1704.2V54.9709H1760.04V52.9709Z" fill="url(#paint0_linear)"/>
<defs>
<linearGradient id="paint0_linear" x1="888" y1="-77" x2="888" y2="340" gradientUnits="userSpaceOnUse">
<stop stop-color="#B98027"/>
<stop offset="1" stop-color="#C8A883" stop-opacity="0"/>
</linearGradient>
</defs>
</svg>
