<svg width="240" height="1459" viewBox="0 0 240 1459" fill="none" xmlns="http://www.w3.org/2000/svg">
<path d="M6.99975 1.54579L6.99975 0.545788L5.99975 0.545788L5.99975 1.54579L6.99975 1.54579ZM234.703 1.5458L235.394 2.26868L237.196 0.545798L234.703 0.545798L234.703 1.5458ZM72.038 157.03L71.347 156.307L69.5446 158.03L72.038 158.03L72.038 157.03ZM220.204 157.03L221.204 157.03L221.204 156.03L220.204 156.03L220.204 157.03ZM220.204 189.204L220.204 190.204L221.204 190.204L221.204 189.204L220.204 189.204ZM-5.98028 189.204L-6.67217 188.482L-8.46911 190.204L-5.98028 190.204L-5.98028 189.204ZM156.27 33.7197L156.962 34.4417L158.759 32.7197L156.27 32.7197L156.27 33.7197ZM6.99975 33.7197L5.99975 33.7197L5.99975 34.7197L6.99975 34.7197L6.99975 33.7197ZM6.99975 2.54579L234.703 2.5458L234.703 0.545798L6.99975 0.545788L6.99975 2.54579ZM234.012 0.822916L71.347 156.307L72.7289 157.753L235.394 2.26868L234.012 0.822916ZM72.038 158.03L220.204 158.03L220.204 156.03L72.038 156.03L72.038 158.03ZM219.204 157.03L219.204 189.204L221.204 189.204L221.204 157.03L219.204 157.03ZM220.204 188.204L-5.98028 188.204L-5.98028 190.204L220.204 190.204L220.204 188.204ZM-5.28839 189.926L156.962 34.4417L155.578 32.9977L-6.67217 188.482L-5.28839 189.926ZM156.27 32.7197L6.99975 32.7197L6.99975 34.7197L156.27 34.7197L156.27 32.7197ZM7.99975 33.7197L7.99975 1.54579L5.99975 1.54579L5.99975 33.7197L7.99975 33.7197ZM191.896 264.737L191.182 265.436L191.183 265.438L191.896 264.737ZM191.62 421.878L190.913 421.171L190.911 421.172L191.62 421.878ZM35.3072 421.74L36.0233 421.042L36.0233 421.042L35.3072 421.74ZM31.717 267.913L30.9641 267.254L30.9625 267.256L31.717 267.913ZM56.0201 287.935L56.7397 288.629L56.7417 288.627L56.0201 287.935ZM56.4343 399.094L55.7293 399.803L55.7335 399.807L56.4343 399.094ZM170.769 399.37L170.07 398.654L170.066 398.659L170.769 399.37ZM170.769 287.106L170.062 287.814L170.066 287.818L170.769 287.106ZM114.568 232.734C144.302 232.734 169.823 243.621 191.182 265.436L192.611 264.037C170.887 241.849 144.855 230.734 114.568 230.734L114.568 232.734ZM191.183 265.438C212.54 287.16 223.208 313.237 223.208 343.721L225.208 343.721C225.208 312.712 214.335 286.132 192.609 264.036L191.183 265.438ZM223.208 343.721C223.208 373.832 212.453 399.63 190.913 421.171L192.327 422.585C214.238 400.674 225.208 374.369 225.208 343.721L223.208 343.721ZM190.911 421.172C169.371 442.803 143.527 453.604 113.326 453.604L113.326 455.604C144.065 455.604 170.418 444.587 192.329 422.583L190.911 421.172ZM113.326 453.604C82.9396 453.604 57.1919 442.758 36.0233 421.042L34.5912 422.438C56.137 444.541 82.4015 455.604 113.326 455.604L113.326 453.604ZM36.0233 421.042C14.7586 399.229 4.13335 372.923 4.13335 342.064L2.13335 342.064C2.13335 373.437 12.9573 400.247 34.5912 422.438L36.0233 421.042ZM4.13335 342.064C4.13335 314.795 13.5646 290.307 32.4716 268.569L30.9625 267.256C11.7579 289.337 2.13335 314.284 2.13335 342.064L4.13335 342.064ZM32.47 268.571C53.3473 244.685 80.6821 232.734 114.568 232.734L114.568 230.734C80.1482 230.734 52.2488 242.903 30.9641 267.254L32.47 268.571ZM114.154 263.184C90.3375 263.184 70.6914 271.197 55.2984 287.243L56.7417 288.627C71.7275 273.006 90.8374 265.184 114.154 265.184L114.154 263.184ZM55.3004 287.241C39.9433 303.156 32.236 321.582 32.236 342.479L34.236 342.479C34.236 322.134 41.7181 304.197 56.7397 288.629L55.3004 287.241ZM32.236 342.479C32.236 365.107 40.0695 384.236 55.7293 399.803L57.1393 398.384C41.868 383.204 34.236 364.59 34.236 342.479L32.236 342.479ZM55.7335 399.807C71.5751 415.369 90.8846 423.154 113.602 423.154L113.602 421.154C91.3949 421.154 72.5928 413.565 57.1351 398.38L55.7335 399.807ZM113.602 423.154C136.588 423.154 155.901 415.466 171.472 400.081L170.066 398.659C154.89 413.653 136.092 421.154 113.602 421.154L113.602 423.154ZM171.468 400.085C187.132 384.794 194.967 365.845 194.967 343.307L192.967 343.307C192.967 365.325 185.337 383.752 170.07 398.654L171.468 400.085ZM194.967 343.307C194.967 320.86 187.132 301.869 171.472 286.395L170.066 287.818C185.337 302.907 192.967 321.383 192.967 343.307L194.967 343.307ZM171.476 286.399C155.999 270.922 136.869 263.184 114.154 263.184L114.154 265.184C136.362 265.184 154.976 272.728 170.062 287.814L171.476 286.399ZM6.99973 487.606L7.19187 486.625L5.99973 486.392L5.99973 487.606L6.99973 487.606ZM236.222 532.484L236.626 533.399L239.535 532.114L236.414 531.503L236.222 532.484ZM70.519 605.669L70.115 604.755L68.0802 605.653L70.103 606.579L70.519 605.669ZM236.222 681.478L236.395 682.463L239.561 681.906L236.638 680.569L236.222 681.478ZM6.99972 721.799L5.99972 721.799L5.99972 722.991L7.17297 722.784L6.99972 721.799ZM6.99972 688.797L6.84186 687.809L5.99972 687.944L5.99972 688.797L6.99972 688.797ZM135.695 668.222L135.853 669.21L139.126 668.686L136.11 667.312L135.695 668.222ZM-2.80434 605.117L-3.20878 604.203L-5.24605 605.104L-3.21896 606.027L-2.80434 605.117ZM135.833 543.807L136.238 544.722L139.234 543.397L136.009 542.823L135.833 543.807ZM6.99973 520.885L5.99973 520.885L5.99973 521.723L6.82456 521.87L6.99973 520.885ZM6.8076 488.588L236.029 533.466L236.414 531.503L7.19187 486.625L6.8076 488.588ZM235.817 531.569L70.115 604.755L70.923 606.584L236.626 533.399L235.817 531.569ZM70.103 606.579L235.805 682.388L236.638 680.569L70.935 604.76L70.103 606.579ZM236.048 680.493L6.82648 720.814L7.17297 722.784L236.395 682.463L236.048 680.493ZM7.99972 721.799L7.99972 688.797L5.99972 688.797L5.99972 721.799L7.99972 721.799ZM7.15759 689.784L135.853 669.21L135.537 667.235L6.84186 687.809L7.15759 689.784ZM136.11 667.312L-2.38971 604.207L-3.21896 606.027L135.281 669.132L136.11 667.312ZM-2.39989 606.032L136.238 544.722L135.429 542.893L-3.20878 604.203L-2.39989 606.032ZM136.009 542.823L7.1749 519.9L6.82456 521.87L135.658 544.792L136.009 542.823ZM7.99973 520.885L7.99973 487.606L5.99973 487.606L5.99973 520.885L7.99973 520.885ZM220.204 799.265L220.204 800.265L221.204 800.265L221.204 799.265L220.204 799.265ZM6.99972 799.265L5.99972 799.265L5.99972 800.265L6.99972 800.265L6.99972 799.265ZM6.99972 767.091L6.99972 766.091L5.99972 766.091L5.99972 767.091L6.99972 767.091ZM220.204 767.091L221.204 767.091L221.204 766.091L220.204 766.091L220.204 767.091ZM220.204 798.265L6.99972 798.265L6.99972 800.265L220.204 800.265L220.204 798.265ZM7.99972 799.265L7.99972 767.091L5.99972 767.091L5.99972 799.265L7.99972 799.265ZM6.99972 768.091L220.204 768.091L220.204 766.091L6.99972 766.091L6.99972 768.091ZM219.204 767.091L219.204 799.265L221.204 799.265L221.204 767.091L219.204 767.091ZM6.99972 850.495L6.99972 849.495L5.99972 849.495L5.99972 850.495L6.99972 850.495ZM234.703 850.495L235.394 851.218L237.196 849.495L234.703 849.495L234.703 850.495ZM72.0379 1005.98L71.347 1005.26L69.5445 1006.98L72.0379 1006.98L72.0379 1005.98ZM220.204 1005.98L221.204 1005.98L221.204 1004.98L220.204 1004.98L220.204 1005.98ZM220.204 1038.15L220.204 1039.15L221.204 1039.15L221.204 1038.15L220.204 1038.15ZM-5.98032 1038.15L-6.67221 1037.43L-8.46915 1039.15L-5.98032 1039.15L-5.98032 1038.15ZM156.27 882.669L156.962 883.391L158.759 881.669L156.27 881.669L156.27 882.669ZM6.99972 882.669L5.99972 882.669L5.99972 883.669L6.99972 883.669L6.99972 882.669ZM6.99972 851.495L234.703 851.495L234.703 849.495L6.99972 849.495L6.99972 851.495ZM234.012 849.772L71.347 1005.26L72.7289 1006.7L235.394 851.218L234.012 849.772ZM72.0379 1006.98L220.204 1006.98L220.204 1004.98L72.0379 1004.98L72.0379 1006.98ZM219.204 1005.98L219.204 1038.15L221.204 1038.15L221.204 1005.98L219.204 1005.98ZM220.204 1037.15L-5.98032 1037.15L-5.98032 1039.15L220.204 1039.15L220.204 1037.15ZM-5.28843 1038.87L156.962 883.391L155.578 881.947L-6.67221 1037.43L-5.28843 1038.87ZM156.27 881.669L6.99972 881.669L6.99972 883.669L156.27 883.669L156.27 881.669ZM7.99972 882.669L7.99972 850.495L5.99972 850.495L5.99972 882.669L7.99972 882.669ZM58.7817 1216.28L59.1783 1217.2L59.7817 1216.94L59.7817 1216.28L58.7817 1216.28ZM58.7817 1125.01L59.7817 1125.01L59.7817 1124.37L59.1986 1124.1L58.7817 1125.01ZM6.99971 1101.26L5.99971 1101.26L5.99971 1101.9L6.5828 1102.17L6.99971 1101.26ZM6.99971 1066.6L7.42178 1065.69L5.99971 1065.03L5.99971 1066.6L6.99971 1066.6ZM233.598 1172.1L234.008 1173.01L236.002 1172.11L234.02 1171.19L233.598 1172.1ZM6.9997 1273.86L5.9997 1273.86L5.9997 1275.41L7.40939 1274.78L6.9997 1273.86ZM6.9997 1238.65L6.60312 1237.73L5.9997 1238L5.9997 1238.65L6.9997 1238.65ZM89.0224 1203.17L88.0224 1203.17L88.0224 1204.69L89.4222 1204.08L89.0224 1203.17ZM161.517 1171.54L161.917 1172.46L163.969 1171.56L161.933 1170.63L161.517 1171.54ZM89.0224 1138.4L89.4382 1137.49L88.0224 1136.85L88.0224 1138.4L89.0224 1138.4ZM59.7817 1216.28L59.7817 1125.01L57.7817 1125.01L57.7817 1216.28L59.7817 1216.28ZM59.1986 1124.1L7.41661 1100.35L6.5828 1102.17L58.3648 1125.92L59.1986 1124.1ZM7.99971 1101.26L7.99971 1066.6L5.99971 1066.6L5.99971 1101.26L7.99971 1101.26ZM6.57764 1067.51L233.176 1173L234.02 1171.19L7.42178 1065.69L6.57764 1067.51ZM233.188 1171.18L6.59 1272.95L7.40939 1274.78L234.008 1173.01L233.188 1171.18ZM7.9997 1273.86L7.9997 1238.65L5.9997 1238.65L5.9997 1273.86L7.9997 1273.86ZM7.39628 1239.57L59.1783 1217.2L58.3852 1215.37L6.60312 1237.73L7.39628 1239.57ZM89.4222 1204.08L161.917 1172.46L161.117 1170.63L88.6226 1202.25L89.4222 1204.08ZM161.933 1170.63L89.4382 1137.49L88.6067 1139.31L161.102 1172.45L161.933 1170.63ZM88.0224 1138.4L88.0224 1203.17L90.0224 1203.17L90.0224 1138.4L88.0224 1138.4ZM189.963 1347.6L190.963 1347.6L190.963 1346.6L189.963 1346.6L189.963 1347.6ZM6.9997 1347.6L5.9997 1347.6L5.9997 1348.6L6.9997 1348.6L6.9997 1347.6ZM6.9997 1315.43L6.9997 1314.43L5.9997 1314.43L5.9997 1315.43L6.9997 1315.43ZM189.963 1315.43L189.963 1316.43L190.963 1316.43L190.963 1315.43L189.963 1315.43ZM189.963 1266.41L189.963 1265.41L188.963 1265.41L188.963 1266.41L189.963 1266.41ZM220.204 1266.41L221.204 1266.41L221.204 1265.41L220.204 1265.41L220.204 1266.41ZM220.204 1396.48L220.204 1397.48L221.204 1397.48L221.204 1396.48L220.204 1396.48ZM189.963 1396.48L188.963 1396.48L188.963 1397.48L189.963 1397.48L189.963 1396.48ZM189.963 1346.6L6.9997 1346.6L6.9997 1348.6L189.963 1348.6L189.963 1346.6ZM7.9997 1347.6L7.9997 1315.43L5.9997 1315.43L5.9997 1347.6L7.9997 1347.6ZM6.9997 1316.43L189.963 1316.43L189.963 1314.43L6.9997 1314.43L6.9997 1316.43ZM190.963 1315.43L190.963 1266.41L188.963 1266.41L188.963 1315.43L190.963 1315.43ZM189.963 1267.41L220.204 1267.41L220.204 1265.41L189.963 1265.41L189.963 1267.41ZM219.204 1266.41L219.204 1396.48L221.204 1396.48L221.204 1266.41L219.204 1266.41ZM220.204 1395.48L189.963 1395.48L189.963 1397.48L220.204 1397.48L220.204 1395.48ZM190.963 1396.48L190.963 1347.6L188.963 1347.6L188.963 1396.48L190.963 1396.48ZM220.204 1457.38L220.204 1458.38L221.204 1458.38L221.204 1457.38L220.204 1457.38ZM6.99969 1457.38L5.99969 1457.38L5.99969 1458.38L6.99969 1458.38L6.99969 1457.38ZM6.99969 1425.21L6.99969 1424.21L5.99969 1424.21L5.99969 1425.21L6.99969 1425.21ZM220.204 1425.21L221.204 1425.21L221.204 1424.21L220.204 1424.21L220.204 1425.21ZM220.204 1456.38L6.99969 1456.38L6.99969 1458.38L220.204 1458.38L220.204 1456.38ZM7.99969 1457.38L7.99969 1425.21L5.99969 1425.21L5.99969 1457.38L7.99969 1457.38ZM6.99969 1426.21L220.204 1426.21L220.204 1424.21L6.99969 1424.21L6.99969 1426.21ZM219.204 1425.21L219.204 1457.38L221.204 1457.38L221.204 1425.21L219.204 1425.21Z" fill="url(#paint0_linear)"/>
<defs>
<linearGradient id="paint0_linear" x1="305" y1="748.5" x2="6.99978" y2="748.5" gradientUnits="userSpaceOnUse">
<stop stop-color="#B98027"/>
<stop offset="1" stop-color="#C8A883" stop-opacity="0"/>
</linearGradient>
</defs>
</svg>
