<svg width="220" height="699" viewBox="0 0 220 699" fill="none" xmlns="http://www.w3.org/2000/svg">
<path d="M215 697.414L215 698.414L216 698.414L216 697.414L215 697.414ZM1.79613 697.414L0.796126 697.414L0.796126 698.414L1.79613 698.414L1.79613 697.414ZM5.11017 631.271L6.07779 631.523L6.07845 631.521L5.11017 631.271ZM16.2951 609.592L15.5546 608.919L15.5483 608.927L16.2951 609.592ZM36.5936 595.369L36.9901 596.287L36.995 596.285L36.5936 595.369ZM100.251 607.52L99.5098 608.192L100.649 609.45L101.197 607.843L100.251 607.52ZM120.55 580.732L121.11 581.56L121.119 581.554L120.55 580.732ZM196.22 588.465L195.505 589.163L195.513 589.172L196.22 588.465ZM210.996 612.353L211.959 612.087L211.955 612.071L211.95 612.055L210.996 612.353ZM93.3468 665.24L93.3468 666.24L94.3468 666.24L94.3468 665.24L93.3468 665.24ZM85.4759 628.924L86.2009 628.235L86.2006 628.235L85.4759 628.924ZM39.2173 629.062L39.9535 629.738L39.9594 629.732L39.2173 629.062ZM31.3464 665.24L30.3464 665.24L30.3464 666.24L31.3464 666.24L31.3464 665.24ZM184.759 665.24L184.759 666.24L185.759 666.24L185.759 665.24L184.759 665.24ZM176.198 613.32L176.965 612.678L176.957 612.668L176.198 613.32ZM129.525 612.906L130.262 613.582L130.266 613.577L129.525 612.906ZM120.273 665.24L119.273 665.24L119.273 666.24L120.273 666.24L120.273 665.24ZM215 696.414L1.79613 696.414L1.79613 698.414L215 698.414L215 696.414ZM2.79613 697.414L2.79612 665.378L0.796124 665.378L0.796126 697.414L2.79613 697.414ZM2.79612 665.378C2.79612 651.148 3.8991 639.875 6.07779 631.523L4.14256 631.019C1.90251 639.605 0.796124 651.07 0.796124 665.378L2.79612 665.378ZM6.07845 631.521C8.25292 623.095 11.9126 616.016 17.0419 610.257L15.5483 608.927C10.1831 614.951 6.38616 622.325 4.1419 631.021L6.07845 631.521ZM17.0355 610.264C22.3626 604.395 29.0078 599.734 36.9901 596.287L36.1972 594.451C27.9775 598 21.0903 602.821 15.5546 608.92L17.0355 610.264ZM36.995 596.285C45.0702 592.746 53.2192 590.983 61.449 590.983L61.449 588.983C52.9245 588.983 44.5032 590.811 36.1923 594.453L36.995 596.285ZM61.449 590.983C76.4379 590.983 89.1059 596.702 99.5098 608.192L100.992 606.849C90.2231 594.956 77.023 588.983 61.449 588.983L61.449 590.983ZM101.197 607.843C104.995 596.721 111.629 587.971 121.11 581.56L119.989 579.903C110.138 586.565 103.239 595.674 99.3047 607.197L101.197 607.843ZM121.119 581.554C130.51 575.052 141.446 571.79 153.966 571.79L153.966 569.79C141.078 569.79 129.737 573.155 119.98 579.91L121.119 581.554ZM153.966 571.79C170.363 571.79 184.188 577.575 195.505 589.163L196.936 587.766C185.238 575.787 170.894 569.79 153.966 569.79L153.966 571.79ZM195.513 589.172C202.497 596.155 207.331 603.981 210.041 612.652L211.95 612.055C209.136 603.051 204.12 594.95 196.927 587.757L195.513 589.172ZM210.032 612.62C212.669 622.169 214 634.178 214 648.67L216 648.67C216 634.071 214.661 621.869 211.959 612.087L210.032 612.62ZM214 648.67L214 697.414L216 697.414L216 648.67L214 648.67ZM94.3468 665.24L94.3468 655.16L92.3468 655.16L92.3468 665.24L94.3468 665.24ZM94.3468 655.16C94.3468 643.077 91.7023 634.026 86.2009 628.235L84.7509 629.612C89.7439 634.868 92.3468 643.308 92.3468 655.16L94.3468 655.16ZM86.2006 628.235C80.6161 622.361 72.4913 619.5 62.0014 619.5L62.0014 621.5C72.1322 621.5 79.6571 624.255 84.7512 629.613L86.2006 628.235ZM62.0014 619.5C51.7755 619.5 43.8735 622.415 38.4752 628.391L39.9594 629.732C44.8714 624.294 52.1588 621.5 62.0014 621.5L62.0014 619.5ZM38.4811 628.385C33.0065 634.34 30.3464 642.904 30.3464 653.917L32.3464 653.917C32.3464 643.204 34.9335 635.199 39.9534 629.738L38.4811 628.385ZM30.3464 653.917L30.3464 665.24L32.3464 665.24L32.3464 653.917L30.3464 653.917ZM31.3464 666.24L93.3468 666.24L93.3468 664.24L31.3464 664.24L31.3464 666.24ZM185.759 665.24L185.759 645.356L183.759 645.356L183.759 665.24L185.759 665.24ZM185.759 645.356C185.759 630.715 182.893 619.754 176.965 612.678L175.431 613.962C180.918 620.511 183.759 630.907 183.759 645.356L185.759 645.356ZM176.957 612.668C170.598 605.266 162.496 601.549 152.723 601.549L152.723 603.549C161.914 603.549 169.462 607.013 175.439 613.972L176.957 612.668ZM152.723 601.549C143.232 601.549 135.231 605.124 128.784 612.234L130.266 613.577C136.339 606.879 143.804 603.549 152.723 603.549L152.723 601.549ZM128.788 612.229C122.353 619.241 119.273 631.587 119.273 648.946L121.273 648.946C121.273 631.692 124.361 620.011 130.262 613.582L128.788 612.229ZM119.273 648.946L119.273 665.24L121.273 665.24L121.273 648.946L119.273 648.946ZM120.273 666.24L184.759 666.24L184.759 664.24L120.273 664.24L120.273 666.24ZM1.79612 497.881L1.79612 496.881L0.796117 496.881L0.796117 497.881L1.79612 497.881ZM170.398 488.905L170.975 489.722L170.982 489.717L170.988 489.713L170.398 488.905ZM170.398 413.372L169.809 414.18L169.809 414.18L170.398 413.372ZM1.79611 404.397L0.796113 404.397L0.796113 405.397L1.79611 405.397L1.79611 404.397ZM1.79611 372.223L1.79611 371.223L0.796112 371.223L0.796112 372.223L1.79611 372.223ZM194.563 393.212L195.26 392.495L195.257 392.491L194.563 393.212ZM194.563 509.065L195.257 509.786L195.258 509.785L194.563 509.065ZM1.79612 530.054L0.796119 530.054L0.796119 531.054L1.79612 531.054L1.79612 530.054ZM1.79612 498.881L130.216 498.881L130.216 496.881L1.79612 496.881L1.79612 498.881ZM130.216 498.881C148.602 498.881 162.251 495.886 170.975 489.722L169.821 488.088C161.607 493.892 148.468 496.881 130.216 496.881L130.216 498.881ZM170.988 489.713C183.51 480.58 189.764 467.703 189.764 451.208L187.764 451.208C187.764 467.116 181.774 479.37 169.809 488.097L170.988 489.713ZM189.764 451.208C189.764 434.622 183.511 421.698 170.988 412.564L169.809 414.18C181.773 422.906 187.764 435.205 187.764 451.208L189.764 451.208ZM170.988 412.565C162.532 406.389 148.869 403.397 130.216 403.397L130.216 405.397C148.753 405.397 161.879 408.389 169.809 414.18L170.988 412.565ZM130.216 403.397L1.79611 403.397L1.79611 405.397L130.216 405.397L130.216 403.397ZM2.79611 404.397L2.79611 372.223L0.796112 372.223L0.796113 404.397L2.79611 404.397ZM1.79611 373.223L139.053 373.223L139.053 371.223L1.79611 371.223L1.79611 373.223ZM139.053 373.223C161.288 373.223 179.533 380.14 193.87 393.932L195.257 392.491C180.504 378.298 161.742 371.223 139.053 371.223L139.053 373.223ZM193.866 393.929C209.872 409.479 217.866 428.551 217.866 451.208L219.866 451.208C219.866 428.02 211.659 408.428 195.26 392.495L193.866 393.929ZM217.866 451.208C217.866 473.864 209.872 492.889 193.869 508.346L195.258 509.785C211.659 493.943 219.866 474.396 219.866 451.208L217.866 451.208ZM193.87 508.345C179.533 522.137 161.288 529.054 139.053 529.054L139.053 531.054C161.742 531.054 180.504 523.979 195.257 509.786L193.87 508.345ZM139.053 529.054L1.79612 529.054L1.79612 531.054L139.053 531.054L139.053 529.054ZM2.79612 530.054L2.79612 497.881L0.796117 497.881L0.796119 530.054L2.79612 530.054ZM184.759 284.124L184.263 284.992L185.759 285.848L185.759 284.124L184.759 284.124ZM184.759 181.803L184.759 180.803L183.759 180.803L183.759 181.803L184.759 181.803ZM215 181.803L216 181.803L216 180.803L215 180.803L215 181.803ZM215 337.011L214.503 337.879L216 338.735L216 337.011L215 337.011ZM32.0368 232.342L32.5334 231.474L31.0368 230.618L31.0368 232.342L32.0368 232.342ZM32.0368 319.888L32.0368 320.888L33.0368 320.888L33.0368 319.888L32.0368 319.888ZM1.79611 319.888L0.796109 319.888L0.796109 320.888L1.79611 320.888L1.79611 319.888ZM1.7961 179.456L2.29267 178.588L0.796103 177.731L0.796103 179.456L1.7961 179.456ZM185.759 284.124L185.759 181.803L183.759 181.803L183.759 284.124L185.759 284.124ZM184.759 182.803L215 182.803L215 180.803L184.759 180.803L184.759 182.803ZM214 181.803L214 337.011L216 337.011L216 181.803L214 181.803ZM215.497 336.143L32.5334 231.474L31.5402 233.21L214.503 337.879L215.497 336.143ZM31.0368 232.342L31.0368 319.888L33.0368 319.888L33.0368 232.342L31.0368 232.342ZM32.0368 318.888L1.79611 318.888L1.79611 320.888L32.0368 320.888L32.0368 318.888ZM2.79611 319.888L2.7961 179.456L0.796103 179.456L0.796109 319.888L2.79611 319.888ZM1.29954 180.324L184.263 284.992L185.256 283.256L2.29267 178.588L1.29954 180.324ZM184.759 107.375L184.263 108.243L185.759 109.099L185.759 107.375L184.759 107.375ZM184.759 5.05364L184.759 4.05364L183.759 4.05364L183.759 5.05364L184.759 5.05364ZM215 5.05364L216 5.05364L216 4.05364L215 4.05364L215 5.05364ZM215 160.262L214.503 161.13L216 161.986L216 160.262L215 160.262ZM32.0368 55.5929L32.5334 54.7249L31.0368 53.8688L31.0368 55.5929L32.0368 55.5929ZM32.0368 143.139L32.0368 144.139L33.0368 144.139L33.0368 143.139L32.0368 143.139ZM1.7961 143.139L0.796102 143.139L0.796102 144.139L1.7961 144.139L1.7961 143.139ZM1.7961 2.7062L2.29266 1.8382L0.796095 0.982053L0.796095 2.7062L1.7961 2.7062ZM185.759 107.375L185.759 5.05364L183.759 5.05364L183.759 107.375L185.759 107.375ZM184.759 6.05364L215 6.05364L215 4.05364L184.759 4.05364L184.759 6.05364ZM214 5.05364L214 160.262L216 160.262L216 5.05364L214 5.05364ZM215.497 159.394L32.5334 54.7249L31.5402 56.4609L214.503 161.13L215.497 159.394ZM31.0368 55.5929L31.0368 143.139L33.0368 143.139L33.0368 55.5929L31.0368 55.5929ZM32.0368 142.139L1.7961 142.139L1.7961 144.139L32.0368 144.139L32.0368 142.139ZM2.7961 143.139L2.7961 2.7062L0.796095 2.7062L0.796102 143.139L2.7961 143.139ZM1.29953 3.5742L184.263 108.243L185.256 106.507L2.29266 1.8382L1.29953 3.5742Z" fill="url(#paint0_linear)"/>
<defs>
<linearGradient id="paint0_linear" x1="-83" y1="358" x2="293" y2="358" gradientUnits="userSpaceOnUse">
<stop stop-color="#B98027"/>
<stop offset="1" stop-color="#C8A883" stop-opacity="0"/>
</linearGradient>
</defs>
</svg>
