<svg width="1305" height="236" viewBox="0 0 1305 236" fill="none" xmlns="http://www.w3.org/2000/svg">
<path d="M33.7197 100.2H32.7197V101.2H33.7197V100.2ZM125.685 100.2V101.2H126.685V100.2H125.685ZM125.685 16.7961V15.7961H124.685V16.7961H125.685ZM157.858 16.7961H158.858V15.7961H157.858V16.7961ZM157.858 230V231H158.858V230H157.858ZM125.685 230H124.685V231H125.685V230ZM125.685 130.44H126.685V129.44H125.685V130.44ZM33.7197 130.44V129.44H32.7197V130.44H33.7197ZM33.7197 230V231H34.7197V230H33.7197ZM1.5458 230H0.545801V231H1.5458V230ZM1.5458 16.7961V15.7961H0.545801V16.7961H1.5458ZM33.7197 16.7961H34.7197V15.7961H33.7197V16.7961ZM33.7197 101.2H125.685V99.1997H33.7197V101.2ZM126.685 100.2V16.7961H124.685V100.2H126.685ZM125.685 17.7961H157.858V15.7961H125.685V17.7961ZM156.858 16.7961V230H158.858V16.7961H156.858ZM157.858 229H125.685V231H157.858V229ZM126.685 230V130.44H124.685V230H126.685ZM125.685 129.44H33.7197V131.44H125.685V129.44ZM32.7197 130.44V230H34.7197V130.44H32.7197ZM33.7197 229H1.5458V231H33.7197V229ZM2.5458 230V16.7961H0.545801V230H2.5458ZM1.5458 17.7961H33.7197V15.7961H1.5458V17.7961ZM32.7197 16.7961V100.2H34.7197V16.7961H32.7197ZM326.599 47.0368V48.0368H327.599V47.0368H326.599ZM241.124 47.0368V46.0368H240.124V47.0368H241.124ZM241.124 98.2665H240.124V99.2665H241.124V98.2665ZM324.113 98.2665H325.113V97.2665H324.113V98.2665ZM324.113 128.507V129.507H325.113V128.507H324.113ZM241.124 128.507V127.507H240.124V128.507H241.124ZM241.124 199.759H240.124V200.759H241.124V199.759ZM326.599 199.759H327.599V198.759H326.599V199.759ZM326.599 230V231H327.599V230H326.599ZM208.95 230H207.95V231H208.95V230ZM208.95 16.7961V15.7961H207.95V16.7961H208.95ZM326.599 16.7961H327.599V15.7961H326.599V16.7961ZM326.599 46.0368H241.124V48.0368H326.599V46.0368ZM240.124 47.0368V98.2665H242.124V47.0368H240.124ZM241.124 99.2665H324.113V97.2665H241.124V99.2665ZM323.113 98.2665V128.507H325.113V98.2665H323.113ZM324.113 127.507H241.124V129.507H324.113V127.507ZM240.124 128.507V199.759H242.124V128.507H240.124ZM241.124 200.759H326.599V198.759H241.124V200.759ZM325.599 199.759V230H327.599V199.759H325.599ZM326.599 229H208.95V231H326.599V229ZM209.95 230V16.7961H207.95V230H209.95ZM208.95 17.7961H326.599V15.7961H208.95V17.7961ZM325.599 16.7961V47.0368H327.599V16.7961H325.599ZM441.072 139.14L440.862 138.162L439.359 138.484L440.263 139.728L441.072 139.14ZM507.076 230V231H509.039L507.886 229.412L507.076 230ZM467.722 230L466.902 230.572L467.201 231H467.722V230ZM406.826 142.73L407.647 142.158L407.348 141.73H406.826V142.73ZM401.027 142.73V141.73H400.027V142.73H401.027ZM401.027 230V231H402.027V230H401.027ZM368.853 230H367.853V231H368.853V230ZM368.853 16.7961V15.7961H367.853V16.7961H368.853ZM467.584 32.6759L468.233 31.9153L468.23 31.9123L467.584 32.6759ZM401.027 114.699H400.027V115.699H401.027V114.699ZM401.027 47.0368V46.0368H400.027V47.0368H401.027ZM440.263 139.728L506.267 230.588L507.886 229.412L441.881 138.552L440.263 139.728ZM507.076 229H467.722V231H507.076V229ZM468.542 229.428L407.647 142.158L406.006 143.302L466.902 230.572L468.542 229.428ZM406.826 141.73H401.027V143.73H406.826V141.73ZM400.027 142.73V230H402.027V142.73H400.027ZM401.027 229H368.853V231H401.027V229ZM369.853 230V16.7961H367.853V230H369.853ZM368.853 17.7961H406.55V15.7961H368.853V17.7961ZM406.55 17.7961C434.638 17.7961 454.69 23.0823 466.938 33.4395L468.23 31.9123C455.439 21.0965 434.801 15.7961 406.55 15.7961V17.7961ZM466.935 33.4366C480.505 45.0163 487.297 60.2879 487.297 79.3488H489.297C489.297 59.7458 482.28 43.9022 468.233 31.9153L466.935 33.4366ZM487.297 79.3488C487.297 94.2408 483.034 106.996 474.535 117.666L476.099 118.912C484.906 107.856 489.297 94.6515 489.297 79.3488H487.297ZM474.535 117.666C466.032 128.339 454.824 135.17 440.862 138.162L441.281 140.118C455.673 137.034 467.295 129.964 476.099 118.912L474.535 117.666ZM401.027 115.699H411.245V113.699H401.027V115.699ZM411.245 115.699C426.58 115.699 438.264 112.773 446.132 106.759C454.051 100.706 457.951 91.6452 457.951 79.7631H455.951C455.951 91.1713 452.234 99.578 444.918 105.17C437.55 110.801 426.381 113.699 411.245 113.699V115.699ZM457.951 79.7631C457.951 68.6032 454.144 60.0922 446.428 54.413C438.77 48.7759 427.402 46.0368 412.488 46.0368V48.0368C427.216 48.0368 438.08 50.7521 445.243 56.0238C452.348 61.2533 455.951 69.1055 455.951 79.7631H457.951ZM412.488 46.0368H401.027V48.0368H412.488V46.0368ZM400.027 47.0368V114.699H402.027V47.0368H400.027ZM571.424 16.7961H572.424V15.7961H571.424V16.7961ZM571.424 230V231H572.424V230H571.424ZM539.25 230H538.25V231H539.25V230ZM539.25 16.7961V15.7961H538.25V16.7961H539.25ZM570.424 16.7961V230H572.424V16.7961H570.424ZM571.424 229H539.25V231H571.424V229ZM540.25 230V16.7961H538.25V230H540.25ZM539.25 17.7961H571.424V15.7961H539.25V17.7961ZM681.478 47.0368V46.0368H680.478V47.0368H681.478ZM681.478 230V231H682.478V230H681.478ZM649.304 230H648.304V231H649.304V230ZM649.304 47.0368H650.304V46.0368H649.304V47.0368ZM600.284 47.0368H599.284V48.0368H600.284V47.0368ZM600.284 16.7961V15.7961H599.284V16.7961H600.284ZM730.361 16.7961H731.361V15.7961H730.361V16.7961ZM730.361 47.0368V48.0368H731.361V47.0368H730.361ZM680.478 47.0368V230H682.478V47.0368H680.478ZM681.478 229H649.304V231H681.478V229ZM650.304 230V47.0368H648.304V230H650.304ZM649.304 46.0368H600.284V48.0368H649.304V46.0368ZM601.284 47.0368V16.7961H599.284V47.0368H601.284ZM600.284 17.7961H730.361V15.7961H600.284V17.7961ZM729.361 16.7961V47.0368H731.361V16.7961H729.361ZM730.361 46.0368H681.478V48.0368H730.361V46.0368ZM872.727 178.218L873.645 177.821L873.384 177.218H872.727V178.218ZM781.452 178.218V177.218H780.811L780.543 177.801L781.452 178.218ZM757.701 230V231H758.343L758.61 230.417L757.701 230ZM723.042 230L722.135 229.578L721.473 231H723.042V230ZM828.539 3.40184L829.452 2.99215L828.556 0.997422L827.633 2.97977L828.539 3.40184ZM930.308 230V231H931.854L931.22 229.59L930.308 230ZM895.096 230L894.178 230.397L894.439 231H895.096V230ZM859.609 147.977V148.977H861.136L860.525 147.577L859.609 147.977ZM827.987 75.4824L828.904 75.0826L828.008 73.0303L827.077 75.0667L827.987 75.4824ZM794.846 147.977L793.937 147.562L793.29 148.977H794.846V147.977ZM872.727 177.218H781.452V179.218H872.727V177.218ZM780.543 177.801L756.793 229.583L758.61 230.417L782.361 178.635L780.543 177.801ZM757.701 229H723.042V231H757.701V229ZM723.949 230.422L829.446 3.82391L827.633 2.97977L722.135 229.578L723.949 230.422ZM827.627 3.81154L929.396 230.41L931.22 229.59L829.452 2.99215L827.627 3.81154ZM930.308 229H895.096V231H930.308V229ZM896.014 229.603L873.645 177.821L871.809 178.615L894.178 230.397L896.014 229.603ZM860.525 147.577L828.904 75.0826L827.07 75.8822L858.692 148.377L860.525 147.577ZM827.077 75.0667L793.937 147.562L795.756 148.393L828.896 75.8982L827.077 75.0667ZM794.846 148.977H859.609V146.977H794.846V148.977ZM1057.07 118.979V117.979H1056.07V118.979H1057.07ZM1145.17 118.979H1146.17V117.979H1145.17V118.979ZM1139.51 168.552L1140.46 168.859L1140.46 168.852L1140.46 168.845L1139.51 168.552ZM1120.87 200.588L1121.61 201.252L1121.62 201.248L1120.87 200.588ZM968.696 201.692L967.983 202.394L967.984 202.395L968.696 201.692ZM969.248 45.1036L969.954 45.8123L969.955 45.8107L969.248 45.1036ZM1094.91 22.8719L1095.35 21.9751L1095.34 21.9711L1095.33 21.9673L1094.91 22.8719ZM1135.64 56.0124L1136.33 56.7346L1137.02 56.0739L1136.39 55.3545L1135.64 56.0124ZM1112.72 77.968L1111.92 78.5685L1112.6 79.4701L1113.41 78.6901L1112.72 77.968ZM992.032 66.3688L992.74 67.0759L992.746 67.0695L992.032 66.3688ZM994.656 182.499L993.986 183.241L993.989 183.243L994.656 182.499ZM1089.11 187.884L1089.75 188.647L1089.76 188.644L1089.11 187.884ZM1110.23 149.22L1111.23 149.318L1111.34 148.22H1110.23V149.22ZM1057.07 149.22H1056.07V150.22H1057.07V149.22ZM1057.07 119.979H1145.17V117.979H1057.07V119.979ZM1144.17 118.979V126.022H1146.17V118.979H1144.17ZM1144.17 126.022C1144.17 141.963 1142.29 156.038 1138.55 168.259L1140.46 168.845C1144.27 156.394 1146.17 142.116 1146.17 126.022H1144.17ZM1138.56 168.245C1134.92 179.517 1128.78 190.077 1120.12 199.927L1121.62 201.248C1130.44 191.214 1136.73 180.417 1140.46 168.859L1138.56 168.245ZM1120.12 199.924C1100.52 221.982 1075.62 233.004 1045.33 233.004V235.004C1076.17 235.004 1101.63 223.75 1121.61 201.252L1120.12 199.924ZM1045.33 233.004C1015.78 233.004 990.488 222.344 969.408 200.99L967.984 202.395C989.434 224.123 1015.24 235.004 1045.33 235.004V233.004ZM969.409 200.991C948.328 179.545 937.798 153.836 937.798 123.812H935.798C935.798 154.362 946.534 180.573 967.983 202.394L969.409 200.991ZM937.798 123.812C937.798 93.1432 948.512 67.1632 969.954 45.8122L968.543 44.395C946.718 66.1268 935.798 92.6192 935.798 123.812H937.798ZM969.955 45.8107C991.398 24.3678 1017.47 13.6536 1048.23 13.6536V11.6536C1016.95 11.6536 990.365 22.5727 968.541 44.3965L969.955 45.8107ZM1048.23 13.6536C1064.75 13.6536 1080.17 17.0298 1094.48 23.7764L1095.33 21.9673C1080.74 15.0896 1065.04 11.6536 1048.23 11.6536V13.6536ZM1094.46 23.7687C1108.12 30.5072 1121.6 41.4582 1134.89 56.6702L1136.39 55.3545C1122.99 40.0037 1109.31 28.861 1095.35 21.9751L1094.46 23.7687ZM1134.95 55.2902L1112.03 77.2458L1113.41 78.6901L1136.33 56.7346L1134.95 55.2902ZM1113.52 77.3675C1095.87 53.871 1074.28 42.0324 1048.79 42.0324V44.0324C1073.55 44.0324 1094.58 55.4841 1111.92 78.5685L1113.52 77.3675ZM1048.79 42.0324C1025.97 42.0324 1006.8 49.9118 991.319 65.668L992.746 67.0695C1007.83 51.7106 1026.49 44.0324 1048.79 44.0324V42.0324ZM991.325 65.6617C975.843 81.1438 968.11 100.552 968.11 123.812H970.11C970.11 101.044 977.659 82.1567 992.74 67.0759L991.325 65.6617ZM968.11 123.812C968.11 147.835 976.737 167.67 993.986 183.241L995.326 181.756C978.514 166.58 970.11 147.291 970.11 123.812H968.11ZM993.989 183.243C1010.07 197.65 1027.56 204.902 1046.44 204.902V202.902C1028.13 202.902 1011.1 195.885 995.323 181.754L993.989 183.243ZM1046.44 204.902C1062.52 204.902 1076.97 199.471 1089.75 188.647L1088.46 187.121C1076.02 197.654 1062.02 202.902 1046.44 202.902V204.902ZM1089.76 188.644C1102.54 177.724 1109.73 164.607 1111.23 149.318L1109.24 149.122C1107.79 163.844 1100.89 176.502 1088.46 187.124L1089.76 188.644ZM1110.23 148.22H1057.07V150.22H1110.23V148.22ZM1058.07 149.22V118.979H1056.07V149.22H1058.07ZM1303.42 47.0368V48.0368H1304.42V47.0368H1303.42ZM1217.94 47.0368V46.0368H1216.94V47.0368H1217.94ZM1217.94 98.2665H1216.94V99.2665H1217.94V98.2665ZM1300.93 98.2665H1301.93V97.2665H1300.93V98.2665ZM1300.93 128.507V129.507H1301.93V128.507H1300.93ZM1217.94 128.507V127.507H1216.94V128.507H1217.94ZM1217.94 199.759H1216.94V200.759H1217.94V199.759ZM1303.42 199.759H1304.42V198.759H1303.42V199.759ZM1303.42 230V231H1304.42V230H1303.42ZM1185.77 230H1184.77V231H1185.77V230ZM1185.77 16.7961V15.7961H1184.77V16.7961H1185.77ZM1303.42 16.7961H1304.42V15.7961H1303.42V16.7961ZM1303.42 46.0368H1217.94V48.0368H1303.42V46.0368ZM1216.94 47.0368V98.2665H1218.94V47.0368H1216.94ZM1217.94 99.2665H1300.93V97.2665H1217.94V99.2665ZM1299.93 98.2665V128.507H1301.93V98.2665H1299.93ZM1300.93 127.507H1217.94V129.507H1300.93V127.507ZM1216.94 128.507V199.759H1218.94V128.507H1216.94ZM1217.94 200.759H1303.42V198.759H1217.94V200.759ZM1302.42 199.759V230H1304.42V199.759H1302.42ZM1303.42 229H1185.77V231H1303.42V229ZM1186.77 230V16.7961H1184.77V230H1186.77ZM1185.77 17.7961H1303.42V15.7961H1185.77V17.7961ZM1302.42 16.7961V47.0368H1304.42V16.7961H1302.42Z" fill="url(#paint0_linear)"/>
<defs>
<linearGradient id="paint0_linear" x1="649" y1="-68" x2="649" y2="308" gradientUnits="userSpaceOnUse">
<stop stop-color="#B98027"/>
<stop offset="1" stop-color="#C8A883" stop-opacity="0"/>
</linearGradient>
</defs>
</svg>
