<svg width="266" height="219" viewBox="0 0 266 219" fill="none" xmlns="http://www.w3.org/2000/svg">
<path d="M38.7824 34.8987L39.7824 34.8987L39.7824 33.8987L38.7824 33.8987L38.7824 34.8987ZM1.91356 34.8987L1.05122 34.3924L0.166768 35.8987L1.91356 35.8987L1.91356 34.8987ZM19.5885 4.79612L19.5885 3.79612L19.016 3.79612L18.7261 4.2898L19.5885 4.79612ZM70.9563 4.79612L71.9563 4.79612L71.9563 3.79612L70.9563 3.79612L70.9563 4.79612ZM70.9563 218L70.9563 219L71.9563 219L71.9563 218L70.9563 218ZM38.7824 218L37.7824 218L37.7824 219L38.7824 219L38.7824 218ZM38.7824 33.8987L1.91356 33.8987L1.91356 35.8987L38.7824 35.8987L38.7824 33.8987ZM2.7759 35.4051L20.4508 5.30245L18.7261 4.2898L1.05122 34.3924L2.7759 35.4051ZM19.5885 5.79612L70.9563 5.79612L70.9563 3.79612L19.5885 3.79612L19.5885 5.79612ZM69.9563 4.79612L69.9563 218L71.9563 218L71.9563 4.79612L69.9563 4.79612ZM70.9563 217L38.7824 217L38.7824 219L70.9563 219L70.9563 217ZM39.7824 218L39.7824 34.8987L37.7824 34.8987L37.7824 218L39.7824 218ZM185.153 187.759L184.389 187.114L182.999 188.759L185.153 188.759L185.153 187.759ZM264.552 187.759L265.552 187.759L265.552 186.759L264.552 186.759L264.552 187.759ZM264.552 218L264.552 219L265.552 219L265.552 218L264.552 218ZM121.357 218L120.586 217.363L119.235 219L121.357 219L121.357 218ZM195.371 128.383L196.142 129.019L196.147 129.014L195.371 128.383ZM213.598 105.184L212.803 104.579L212.797 104.586L213.598 105.184ZM224.921 88.752L224.066 88.2335L224.062 88.2408L224.058 88.2482L224.921 88.752ZM159.331 68.5916L159.331 69.5916L160.216 69.5916L160.323 68.7134L159.331 68.5916ZM127.295 68.5916L126.302 68.4776L126.174 69.5916L127.295 69.5916L127.295 68.5916ZM244.253 19.7093L243.57 20.439L243.572 20.4414L244.253 19.7093ZM254.886 99.6608L254.011 99.1763L254.006 99.1859L254.886 99.6608ZM241.077 120.374L240.281 119.769L240.28 119.771L241.077 120.374ZM218.293 148.543L217.531 147.897L217.53 147.898L218.293 148.543ZM185.153 188.759L264.552 188.759L264.552 186.759L185.153 186.759L185.153 188.759ZM263.552 187.759L263.552 218L265.552 218L265.552 187.759L263.552 187.759ZM264.552 217L121.357 217L121.357 219L264.552 219L264.552 217ZM122.128 218.637L196.142 129.019L194.6 127.746L120.586 217.363L122.128 218.637ZM196.147 129.014C203.425 120.078 209.51 112.333 214.4 105.782L212.797 104.586C207.929 111.107 201.863 118.828 194.596 127.751L196.147 129.014ZM214.394 105.79C219.377 99.238 223.179 93.7243 225.785 89.2559L224.058 88.2482C221.509 92.6172 217.762 98.0584 212.803 104.579L214.394 105.79ZM225.777 89.2705C231.077 80.5292 233.792 72.5688 233.792 65.4156L231.792 65.4156C231.792 72.0709 229.26 79.6682 224.066 88.2335L225.777 89.2705ZM233.792 65.4156C233.792 55.2089 230.189 46.6149 222.991 39.701L221.605 41.1433C228.4 47.6697 231.792 55.738 231.792 65.4156L233.792 65.4156ZM222.991 39.701C215.796 32.7899 206.889 29.3419 196.338 29.3419L196.338 31.3419C206.408 31.3419 214.808 34.6141 221.605 41.1433L222.991 39.701ZM196.338 29.3419C185.358 29.3419 176.607 32.5987 170.211 39.209C163.838 45.7965 159.918 55.5973 158.338 68.4697L160.323 68.7134C161.873 56.0861 165.687 46.7621 171.649 40.5997C177.589 34.46 185.776 31.3419 196.338 31.3419L196.338 29.3419ZM159.331 67.5916L127.295 67.5916L127.295 69.5916L159.331 69.5916L159.331 67.5916ZM128.289 68.7056C130.851 46.3776 137.755 29.7789 148.884 18.763C159.997 7.76257 175.448 2.2059 195.371 2.2059L195.371 0.205896C175.065 0.205897 159.056 5.88017 147.477 17.3416C135.914 28.7876 128.895 45.8818 126.302 68.4776L128.289 68.7056ZM195.371 2.2059C214.563 2.2059 230.606 8.29111 243.57 20.439L244.937 18.9796C231.573 6.4563 215.028 0.205895 195.371 0.205896L195.371 2.2059ZM243.572 20.4414C256.624 32.5864 263.138 47.602 263.138 65.5537L265.138 65.5537C265.138 47.0508 258.396 31.5035 244.935 18.9773L243.572 20.4414ZM263.138 65.5537C263.138 76.9672 260.105 88.1709 254.011 99.1764L255.761 100.145C262.003 88.8729 265.138 77.3385 265.138 65.5537L263.138 65.5537ZM254.006 99.1859C250.91 104.923 246.34 111.782 240.281 119.769L241.874 120.978C247.967 112.947 252.603 105.997 255.766 100.136L254.006 99.1859ZM240.28 119.771C234.311 127.668 226.729 137.042 217.531 147.897L219.056 149.19C228.269 138.318 235.877 128.913 241.875 120.977L240.28 119.771ZM217.53 147.898L184.389 187.114L185.917 188.405L219.057 149.188L217.53 147.898Z" fill="url(#paint0_linear)"/>
<defs>
<linearGradient id="paint0_linear" x1="125.5" y1="-7.00001" x2="125.5" y2="255" gradientUnits="userSpaceOnUse">
<stop stop-color="#B98027"/>
<stop offset="1" stop-color="#C8A883" stop-opacity="0"/>
</linearGradient>
</defs>
</svg>
