<svg width="14" height="14" viewBox="0 0 14 14" fill="none" xmlns="http://www.w3.org/2000/svg">
<path d="M0 4.31226C0 3.87238 0.167431 3.46392 0.476132 3.15496L2.63704 0.981768C2.94574 0.672807 3.35385 0.5 3.79336 0.5H3.79859C4.23286 0.5 4.64621 0.667572 4.95491 0.976532L6.75479 2.76746L8.52851 0.981768C8.83721 0.672807 9.24532 0.5 9.68483 0.5H9.69006C10.1243 0.5 10.5377 0.667572 10.8464 0.976532L13.0178 3.13925C13.4468 3.56342 13.6038 4.18658 13.4311 4.76784C13.3526 5.02444 13.2113 5.26532 13.023 5.45908L11.2336 7.26047L13.0125 9.02521C13.4416 9.44938 13.5985 10.0725 13.4259 10.6538C13.3474 10.9104 13.2061 11.1513 13.0178 11.345L10.8568 13.5182C10.5481 13.8272 10.1348 14 9.70053 14H9.6953C9.26625 14 8.84768 13.8272 8.53897 13.5235L6.73909 11.7325L4.9706 13.5182C4.6619 13.8272 4.25379 14 3.81429 14H3.80905C3.38001 14 2.96143 13.8272 2.65273 13.5235L0.481364 11.3607C0.172663 11.0518 0 10.6381 0 10.2035C0 9.76358 0.167431 9.35512 0.476132 9.04616L2.26555 7.24476L0.481364 5.46955C0.172663 5.16059 0 4.75213 0 4.31226ZM6.74956 8.65341L8.14656 7.24476L6.73909 5.84659L5.34209 7.25524L6.74956 8.65341ZM9.68483 2.2595L7.64427 4.31226L9.6953 6.35454L11.7359 4.30178L9.68483 2.2595ZM9.6953 12.2353L11.7359 10.1825L9.68483 8.14022L7.64427 10.193L9.6953 12.2353ZM3.80905 12.2405L5.84962 10.1877L3.79859 8.14546L1.75802 10.1982L3.80905 12.2405ZM3.80905 6.3493L5.84962 4.29655L3.79859 2.25427L1.75802 4.30702L3.80905 6.3493Z" fill="#5EC1A5"/>
</svg>
