<svg width="13" height="13" viewBox="0 0 13 13" fill="none" xmlns="http://www.w3.org/2000/svg">
<path d="M6.66489 12.75C5.6151 12.75 4.55161 12.4877 3.57484 11.931C3.47443 11.8712 3.40596 11.7791 3.37858 11.6733C2.95866 11.4479 2.56156 11.1718 2.20555 10.8451C0.261145 9.07362 -0.304832 6.17484 0.831685 3.8006C1.46613 2.47545 2.54787 1.37115 3.87152 0.699375C5.78398 -0.271485 7.93377 -0.230073 9.77319 0.814406C12.8176 2.53527 13.8993 6.43251 12.1877 9.49693C11.0284 11.5767 8.87859 12.75 6.66489 12.75ZM9.37153 1.5322C7.77402 0.625755 5.90265 0.593547 4.23667 1.43557C3.07277 2.02913 2.12339 2.99539 1.56654 4.1549C0.585212 6.20245 1.07359 8.69631 2.75326 10.2285C4.0404 11.4018 5.91634 11.8482 7.52755 11.3604C9.1844 10.8635 10.4761 9.4049 10.7363 7.73466C11.0786 5.57668 9.63626 3.38189 7.65078 3.0368C7.48647 3.00919 7.31759 2.99539 7.14414 2.99539C6.04871 2.99539 4.8346 3.54754 4.09974 4.42177C3.54289 5.08435 3.31924 6.023 3.50638 6.92944C3.68439 7.78527 4.20016 8.48466 4.92132 8.83895C5.06281 8.90797 5.21344 8.96319 5.37775 9.0046C6.33169 9.24846 7.43626 8.98619 8.12091 8.35122C8.81012 7.71625 8.91054 6.64417 8.36738 5.80674C8.0068 5.24999 7.29477 4.75306 6.68771 4.9187C6.2541 5.03834 5.85244 5.59048 5.75203 6.0322C5.67443 6.37269 5.75659 6.72699 5.96198 6.94324C6.13999 7.1319 6.34995 7.20091 6.51427 7.12729C6.67402 7.05828 6.76531 6.88343 6.76074 6.65797C6.75618 6.43251 6.93419 6.23926 7.1624 6.23466C7.16697 6.23466 7.16697 6.23466 7.17153 6.23466C7.39518 6.23466 7.57775 6.4141 7.58232 6.63956C7.59601 7.21012 7.30846 7.69325 6.83377 7.8911C6.34995 8.09355 5.7931 7.95552 5.37319 7.5184C4.97153 7.10429 4.81177 6.46012 4.95327 5.84355C5.10846 5.16717 5.69269 4.33435 6.46862 4.11809C7.50472 3.83281 8.5317 4.55521 9.04747 5.35122C9.81427 6.53374 9.65452 8.05214 8.66863 8.95858C7.77402 9.7822 6.40016 10.1181 5.17236 9.80061C4.95327 9.74539 4.74331 9.66717 4.55617 9.57515C3.60679 9.10582 2.93127 8.19938 2.70306 7.09049C2.46571 5.93558 2.75327 4.73465 3.47443 3.87883C4.51966 2.64109 6.29518 1.95551 7.79228 2.21778C8.9927 2.43404 10.0516 3.17484 10.7728 4.30214C11.4529 5.36962 11.7359 6.67177 11.5487 7.86809C11.3798 8.94018 10.8549 9.93865 10.0973 10.7209C10.6404 10.2883 11.1151 9.74079 11.4757 9.09202C12.9637 6.42331 12.0188 3.0322 9.37153 1.5322Z" fill="#EC423C"/>
</svg>
