<svg width="14" height="14" viewBox="0 0 14 14" fill="none" xmlns="http://www.w3.org/2000/svg">
<path d="M6.76426 13.5H6.76908C7.37155 13.5 7.94027 13.2638 8.36441 12.8349L12.8419 8.33327C13.266 7.90432 13.5022 7.34041 13.5022 6.73313C13.5022 6.13067 13.2612 5.56194 12.8371 5.13781L8.33549 0.6603C7.91617 0.240985 7.33299 0 6.74017 0H6.73535C6.13288 0 5.56416 0.236166 5.14002 0.66512L0.662515 5.16673C0.397431 5.43181 0.204642 5.75955 0.0986089 6.11621C-0.137557 6.91628 0.0841498 7.77419 0.672154 8.36219L5.17376 12.8397C5.59789 13.2687 6.1618 13.5 6.76426 13.5ZM1.35655 6.49215C1.39993 6.34273 1.48186 6.20778 1.59272 6.09693L6.07023 1.59532C6.24374 1.41699 6.48954 1.31578 6.74017 1.31578C6.74017 1.31578 6.74016 1.31578 6.74498 1.31578C6.99079 1.31578 7.2366 1.41699 7.4101 1.5905L11.9117 6.06801C12.09 6.24634 12.1913 6.48251 12.1913 6.73313C12.1913 6.98858 12.0949 7.22474 11.9165 7.40307L7.4342 11.9047C7.25587 12.083 7.01971 12.1842 6.76426 12.1842C6.76426 12.1842 6.76426 12.1842 6.75944 12.1842C6.50882 12.1842 6.27265 12.0878 6.09432 11.9095L1.59272 7.43199C1.35173 7.18618 1.26016 6.82471 1.35655 6.49215Z" fill="#B98027"/>
<path d="M7.19248 8.91164L8.91794 7.18136C9.03361 7.06569 9.09627 6.90664 9.09627 6.74277C9.09627 6.5789 9.02879 6.41985 8.91312 6.309L7.18284 4.58354C7.06717 4.46787 6.90812 4.40521 6.74425 4.40521C6.58038 4.40521 6.42133 4.47269 6.31048 4.58836L4.58984 6.31864C4.51273 6.39575 4.46453 6.48251 4.43561 6.5789C4.37295 6.79097 4.42597 7.02713 4.59466 7.191L6.32494 8.91164C6.5611 9.15744 6.9515 9.15262 7.19248 8.91164Z" fill="#B98027"/>
</svg>
