<svg width="27" height="27" viewBox="0 0 27 27" fill="none" xmlns="http://www.w3.org/2000/svg">
<path d="M13.403 0.123465C11.9974 0.123465 10.6803 0.677412 9.69741 1.6765L7.46622 3.93186L5.38246 1.83477C4.93032 1.37974 4.32093 1.12255 3.68204 1.12255C3.04316 1.12255 2.44358 1.36985 1.98162 1.82487C1.52948 2.2799 1.27393 2.88331 1.27393 3.53618C1.27393 4.18905 1.51965 4.79245 1.97179 5.24748L4.06538 7.35446L1.77521 9.66917C0.792306 10.6683 0.251709 11.9938 0.251709 13.3984C0.251709 14.8031 0.80213 16.1286 1.79486 17.1178L4.05554 19.383L1.97179 21.4801C1.51965 21.9352 1.27393 22.5485 1.27393 23.1914C1.27393 23.8344 1.52948 24.4477 1.98162 24.9027C2.91537 25.8425 4.43887 25.8425 5.38246 24.9027L7.46622 22.7958L9.74655 25.0808C10.3658 25.6941 11.1226 26.1491 11.9483 26.3964C13.7961 26.9504 15.7914 26.436 17.1478 25.061L19.379 22.8056L21.4628 24.9027C21.9149 25.3578 22.5145 25.6149 23.1632 25.6149C23.8021 25.6149 24.4016 25.3677 24.8636 24.9126C25.3158 24.4576 25.5713 23.8542 25.5713 23.2013C25.5713 22.5485 25.3256 21.945 24.8734 21.49L22.7799 19.383L25.07 17.0683C26.0529 16.0692 26.5935 14.7437 26.5935 13.3391C26.5935 11.9344 26.0431 10.6089 25.0504 9.61971L22.7897 7.35446L24.8734 5.25737C25.3256 4.80235 25.5713 4.18905 25.5713 3.54607C25.5713 2.9031 25.3158 2.2898 24.8636 1.83477C24.4115 1.37974 23.8119 1.13244 23.1632 1.13244C22.5243 1.13244 21.9149 1.37974 21.4628 1.84466L19.379 3.95164L17.0987 1.66661C16.1059 0.667522 14.7987 0.123465 13.403 0.123465ZM7.4564 4.56494L9.99228 1.99304C10.8966 1.08298 12.1055 0.568602 13.3833 0.568602C14.6709 0.568602 15.87 1.0632 16.7743 1.97325L19.3692 4.56494L21.7675 2.15131C22.141 1.77541 22.6324 1.56769 23.1632 1.56769C23.6841 1.56769 24.1756 1.77542 24.5491 2.14142C24.9226 2.51731 25.129 3.01191 25.129 3.53618C25.129 4.06045 24.9226 4.56494 24.5589 4.93094L22.1705 7.34457L24.7457 9.91647C25.6598 10.8265 26.161 12.0333 26.161 13.3292C26.161 14.6151 25.6696 15.8318 24.7653 16.7518L22.1705 19.383L24.5687 21.8066C24.9422 22.1825 25.1388 22.677 25.1388 23.2013C25.1388 23.7256 24.9324 24.2301 24.5589 24.5961C24.1854 24.972 23.694 25.1698 23.173 25.1698C22.6521 25.1698 22.1508 24.9621 21.7871 24.5862L19.3987 22.1726L16.8628 24.7445C15.6145 26.0007 13.7863 26.4755 12.0957 25.9711C11.3389 25.7435 10.641 25.3281 10.0709 24.7642L7.47605 22.1726L5.07776 24.5862C4.3111 25.3578 3.06282 25.3578 2.29615 24.5862C1.92265 24.2103 1.71624 23.7157 1.71624 23.1914C1.71624 22.6672 1.92264 22.1627 2.28631 21.7967L4.67477 19.383L2.09957 16.8111C1.1953 15.9011 0.684189 14.6943 0.684189 13.3984C0.684189 12.1125 1.17564 10.8958 2.07991 9.97582L4.67477 7.34457L2.27649 4.92105C1.90298 4.54515 1.70641 4.05056 1.70641 3.52629C1.70641 3.00201 1.91281 2.49753 2.28631 2.13153C2.65982 1.75564 3.15128 1.55779 3.67222 1.55779C4.20299 1.55779 4.69443 1.76552 5.06794 2.14142L7.4564 4.56494ZM13.403 4.52537C13.1769 4.52537 12.9508 4.62429 12.7837 4.78256L10.238 7.36435L13.4226 10.5792L16.6072 7.37424L14.0222 4.78256C13.8551 4.6144 13.629 4.52537 13.403 4.52537ZM10.8572 7.36435L13.0983 5.08921C13.1769 5.01007 13.285 4.96062 13.403 4.96062C13.5209 4.96062 13.629 5.01007 13.7077 5.08921L15.988 7.37424L13.4226 9.95604L10.8572 7.36435ZM19.3888 10.1539L16.1944 13.3786L19.379 16.5935L21.964 13.9722C22.1705 13.7644 22.2196 13.5171 22.2196 13.349C22.2196 13.1808 22.1705 12.9434 21.964 12.7357L19.3888 10.1539ZM16.8136 13.3786L19.3888 10.7771L21.6594 13.0423C21.7478 13.1313 21.7871 13.2303 21.7871 13.349C21.7871 13.4677 21.7478 13.5765 21.6594 13.6556L19.379 15.9604L16.8136 13.3786ZM7.46622 10.1638L4.88118 12.7851C4.72392 12.9533 4.62563 13.1709 4.62563 13.4083C4.62563 13.6358 4.72392 13.8633 4.88118 14.0216L7.4564 16.6034L10.6508 13.3786L7.46622 10.1638ZM7.4564 15.9802L5.18588 13.715C5.10725 13.6358 5.05811 13.527 5.05811 13.4083C5.05811 13.2896 5.10725 13.1808 5.18588 13.1017L7.46622 10.7968L10.0316 13.3885L7.4564 15.9802ZM13.4226 16.1781L10.238 19.383L12.823 21.9747C12.9312 22.0835 13.0491 22.1528 13.1867 22.1923C13.4816 22.2814 13.8256 22.1923 14.0517 21.9747L16.6072 19.3929L13.4226 16.1781ZM10.8572 19.383L13.4226 16.8012L15.9978 19.3929L13.7568 21.6681C13.6487 21.7769 13.5307 21.7967 13.4521 21.7967C13.4128 21.7967 13.3636 21.7868 13.3243 21.7769C13.2555 21.7571 13.1965 21.7175 13.1474 21.6681L10.8572 19.383Z" fill="#5EC1A5"/>
</svg>
