<svg width="19" height="19" viewBox="0 0 19 19" fill="none" xmlns="http://www.w3.org/2000/svg">
<path d="M9.44056 0C11.005 0 12.5898 0.390834 14.0453 1.2205C14.195 1.30964 14.297 1.44677 14.3378 1.60448C14.9636 1.94046 15.5553 2.35186 16.0859 2.83869C18.9834 5.47853 19.8268 9.79828 18.1332 13.3364C17.1877 15.3111 15.5757 16.9567 13.6032 17.9578C10.7533 19.4046 7.54967 19.3429 4.80857 17.7864C0.271815 15.222 -1.3402 9.4143 1.21045 4.84771C2.9381 1.74847 6.14171 0 9.44056 0ZM5.40713 16.7167C7.78773 18.0675 10.5764 18.1155 13.0591 16.8607C14.7935 15.9762 16.2083 14.5363 17.0381 12.8084C18.5005 9.75714 17.7727 6.04079 15.2696 3.75749C13.3516 2.00902 10.556 1.34392 8.15503 2.07074C5.686 2.81126 3.76111 4.98485 3.37341 7.47384C2.86328 10.6897 5.01262 13.9603 7.97138 14.4746C8.21624 14.5157 8.46791 14.5363 8.72637 14.5363C10.3588 14.5363 12.1681 13.7135 13.2631 12.4107C14.0929 11.4233 14.4262 10.0245 14.1474 8.67377C13.8821 7.39842 13.1135 6.35619 12.0388 5.82823C11.828 5.72538 11.6035 5.6431 11.3586 5.58138C9.93708 5.21798 8.29106 5.60881 7.2708 6.55504C6.24374 7.50127 6.0941 9.09889 6.90351 10.3468C7.44084 11.1765 8.50192 11.917 9.40655 11.6702C10.0527 11.4919 10.6513 10.6691 10.8009 10.0108C10.9165 9.50344 10.7941 8.97547 10.488 8.6532C10.2228 8.37208 9.90988 8.26923 9.66501 8.37893C9.42695 8.48178 9.29092 8.74234 9.29772 9.07832C9.30452 9.4143 9.03925 9.70228 8.69917 9.70914C8.69236 9.70914 8.69236 9.70914 8.68556 9.70914C8.35228 9.70914 8.08021 9.44173 8.07341 9.10575C8.053 8.25551 8.48151 7.53555 9.18889 7.24072C9.90988 6.93902 10.7397 7.14472 11.3654 7.79611C11.964 8.41322 12.2021 9.37316 11.9912 10.292C11.7599 11.2999 10.8893 12.541 9.73303 12.8632C8.18904 13.2884 6.65865 12.2118 5.89005 11.0256C4.74736 9.26345 4.98542 7.00073 6.45459 5.64995C7.78773 4.4226 9.83506 3.92205 11.6647 4.39517C11.9912 4.47745 12.3041 4.59401 12.583 4.73115C13.9977 5.43054 15.0044 6.78131 15.3445 8.43379C15.6982 10.1548 15.2696 11.9444 14.195 13.2198C12.6374 15.0643 9.9915 16.0859 7.76053 15.6951C5.97167 15.3728 4.39367 14.2689 3.31899 12.589C2.30553 10.9982 1.88383 9.05775 2.1627 7.275C2.41436 5.67738 3.19656 4.18947 4.32565 3.02382C3.51624 3.66836 2.80886 4.48431 2.27153 5.45111C0.0541596 9.42801 1.46212 14.4814 5.40713 16.7167Z" fill="#EC423C"/>
</svg>
