<svg width="20" height="20" viewBox="0 0 20 20" fill="none" xmlns="http://www.w3.org/2000/svg">
<path d="M10.2662 19.5025H10.2731C11.1435 19.5025 11.9651 19.1613 12.5778 18.5416L19.0461 12.0385C19.6588 11.4188 20 10.6042 20 9.72686C20 8.85652 19.6518 8.03493 19.0391 7.42221L12.536 0.953886C11.9302 0.348134 11.0878 0 10.2313 0H10.2244C9.35405 0 8.53246 0.341171 7.91974 0.960849L1.45142 7.46399C1.06847 7.84693 0.789961 8.3204 0.636782 8.83563C0.295611 9.99144 0.615894 11.2308 1.46534 12.0802L7.96848 18.5486C8.5812 19.1682 9.39583 19.5025 10.2662 19.5025ZM2.45404 9.37872C2.5167 9.16288 2.63507 8.96793 2.79521 8.80778L9.26354 2.30465C9.51419 2.04703 9.86929 1.90081 10.2313 1.90081C10.2313 1.90081 10.2313 1.90081 10.2383 1.90081C10.5934 1.90081 10.9485 2.04703 11.1992 2.29768L17.7023 8.76601C17.9599 9.02363 18.1061 9.3648 18.1061 9.72686C18.1061 10.0959 17.9669 10.437 17.7093 10.6947L11.234 17.1978C10.9764 17.4554 10.6352 17.6016 10.2662 17.6016C10.2662 17.6016 10.2662 17.6016 10.2592 17.6016C9.89714 17.6016 9.55597 17.4624 9.29835 17.2048L2.79521 10.7364C2.44708 10.3813 2.31479 9.85915 2.45404 9.37872Z" fill="#EC423C"/>
<path d="M10.8844 12.874L13.3771 10.3744C13.5442 10.2073 13.6347 9.97752 13.6347 9.74078C13.6347 9.50405 13.5372 9.27429 13.3701 9.11414L10.8705 6.62151C10.7034 6.4544 10.4736 6.36389 10.2369 6.36389C10.0002 6.36389 9.77038 6.46137 9.61024 6.62847L7.12457 9.12807C7.01316 9.23947 6.94354 9.3648 6.90176 9.50405C6.81125 9.81041 6.88784 10.1516 7.13153 10.3883L9.63113 12.874C9.9723 13.2291 10.5363 13.2221 10.8844 12.874Z" fill="#EC423C"/>
</svg>
