<svg width="846" height="846" viewBox="0 0 846 846" fill="none" xmlns="http://www.w3.org/2000/svg">
<path d="M422.923 796.83C425.181 796.83 427.285 797.703 428.928 799.294L445.044 815.359C447.251 817.566 448.072 820.799 447.2 823.776C446.789 825.11 446.071 826.342 445.095 827.369L429.031 843.485C427.439 845.076 425.284 846 423.025 846C420.767 846 418.611 845.076 417.02 843.536L400.904 827.471C399.313 825.88 398.389 823.725 398.389 821.466C398.389 819.208 399.262 817.052 400.853 815.461L416.918 799.345C418.509 797.703 420.664 796.83 422.923 796.83ZM423.025 845.23C425.13 845.23 427.029 844.409 428.517 842.972L444.582 826.856C445.506 825.932 446.173 824.802 446.533 823.622C447.354 820.902 446.584 817.976 444.582 815.923L428.466 799.858C427.029 798.421 425.078 797.6 423.025 797.6V797.241V797.6C420.921 797.6 419.022 798.421 417.534 799.858L401.469 815.975C400.032 817.412 399.21 819.362 399.21 821.466C399.21 823.519 400.032 825.47 401.469 826.907L417.585 842.972C419.022 844.409 421.024 845.23 423.025 845.23ZM422.923 801.552C423.949 801.552 424.873 801.963 425.592 802.63L441.708 818.695C442.683 819.67 443.042 821.107 442.683 822.442C442.478 823.057 442.17 823.571 441.759 824.033L425.694 840.149C424.976 840.867 424.001 841.278 423.025 841.278C422.05 841.278 421.075 840.867 420.357 840.2L404.24 824.135C403.522 823.417 403.111 822.493 403.111 821.466C403.111 820.44 403.522 819.516 404.189 818.797L420.254 802.681C420.972 801.963 421.948 801.552 422.923 801.552ZM423.025 840.508C423.847 840.508 424.617 840.2 425.181 839.636L441.246 823.519C441.605 823.16 441.862 822.749 442.016 822.236C442.324 821.158 442.016 820.029 441.246 819.259L425.13 803.194C424.565 802.63 423.795 802.322 423.025 802.322C422.204 802.322 421.434 802.63 420.87 803.194L404.805 819.311C404.24 819.875 403.932 820.645 403.932 821.466C403.932 822.288 404.24 823.006 404.805 823.571L420.921 839.636C421.486 840.2 422.256 840.508 423.025 840.508Z" fill="#5EC1A5"/>
<path d="M422.974 812.638C423.641 812.638 424.308 812.895 424.822 813.408L431.032 819.567C431.699 820.235 431.956 821.21 431.699 822.134C431.597 822.544 431.34 822.904 431.032 823.211L424.873 829.422C424.36 829.935 423.744 830.192 423.025 830.192C422.358 830.192 421.691 829.935 421.178 829.422L414.967 823.263C414.454 822.75 414.197 822.134 414.197 821.415C414.197 820.697 414.454 820.081 414.967 819.567L421.126 813.357C421.639 812.895 422.255 812.638 422.974 812.638ZM423.025 829.422C423.539 829.422 424 829.217 424.308 828.857L430.467 822.647C430.673 822.442 430.827 822.185 430.929 821.877C431.135 821.21 430.929 820.543 430.467 820.081L424.257 813.922C423.898 813.562 423.436 813.408 422.974 813.408C422.461 813.408 422.05 813.614 421.691 813.973L415.532 820.183C415.172 820.543 415.018 821.004 415.018 821.466C415.018 821.98 415.224 822.39 415.583 822.75L421.793 828.909C422.05 829.217 422.512 829.422 423.025 829.422Z" fill="#5EC1A5"/>
<path d="M339.775 787.437C341.982 787.951 343.83 789.285 345.062 791.184L357.226 810.431C358.92 813.049 358.971 816.385 357.431 819.105C356.764 820.337 355.738 821.364 354.557 822.134L335.31 834.298C333.411 835.53 331.101 835.889 328.894 835.427C326.687 834.914 324.788 833.579 323.608 831.68L311.444 812.433C310.212 810.534 309.852 808.224 310.314 806.017C310.828 803.81 312.162 801.911 314.061 800.731L333.308 788.567C335.259 787.335 337.517 786.924 339.775 787.437ZM329.048 834.657C331.101 835.119 333.154 834.76 334.899 833.63L354.146 821.466C355.224 820.799 356.148 819.824 356.764 818.746C358.15 816.282 358.098 813.254 356.559 810.842L344.395 791.595C343.317 789.85 341.572 788.669 339.57 788.207L339.673 787.848L339.57 788.207C337.517 787.745 335.464 788.105 333.719 789.234L314.472 801.398C312.727 802.476 311.546 804.221 311.084 806.223C310.622 808.224 310.982 810.329 312.111 812.074L324.275 831.321C325.353 832.963 327.098 834.195 329.048 834.657ZM338.697 792.057C339.673 792.262 340.494 792.878 341.058 793.699L353.223 812.946C353.941 814.127 353.992 815.615 353.325 816.796C353.017 817.36 352.607 817.771 352.042 818.13L332.795 830.294C331.974 830.808 330.896 831.013 329.972 830.808C328.997 830.602 328.124 829.986 327.611 829.165L315.447 809.918C314.934 809.046 314.728 808.07 314.934 807.095C315.139 806.12 315.755 805.247 316.576 804.734L335.823 792.57C336.696 792.005 337.722 791.8 338.697 792.057ZM330.126 830.038C330.896 830.192 331.717 830.089 332.384 829.627L351.631 817.463C352.042 817.206 352.401 816.847 352.658 816.385C353.223 815.41 353.171 814.229 352.555 813.306L340.391 794.058C339.981 793.391 339.313 792.929 338.492 792.724C337.722 792.57 336.901 792.673 336.234 793.135L316.987 805.299C316.319 805.709 315.858 806.377 315.652 807.198C315.498 807.968 315.601 808.789 316.063 809.456L328.227 828.703C328.689 829.37 329.356 829.884 330.126 830.038Z" fill="#5EC1A5"/>
<path d="M336.285 802.835C336.953 802.989 337.517 803.4 337.876 803.964L342.547 811.355C343.06 812.176 343.06 813.203 342.598 814.024C342.393 814.383 342.085 814.691 341.726 814.948L334.335 819.619C333.77 819.978 333.052 820.132 332.385 819.978C331.717 819.824 331.153 819.413 330.793 818.849L326.123 811.458C325.764 810.893 325.61 810.175 325.764 809.507C325.918 808.84 326.328 808.276 326.893 807.865L334.284 803.194C334.9 802.835 335.567 802.681 336.285 802.835ZM332.539 819.259C332.59 819.259 332.59 819.259 332.539 819.259C333 819.362 333.514 819.259 333.924 819.003L341.315 814.332C341.572 814.178 341.777 813.973 341.931 813.665C342.239 813.1 342.239 812.382 341.88 811.766L337.209 804.375C336.953 803.964 336.542 803.656 336.08 803.554C335.618 803.451 335.105 803.554 334.694 803.81L327.303 808.481C326.893 808.738 326.585 809.148 326.482 809.61C326.379 810.072 326.482 810.585 326.739 810.996L331.409 818.387C331.666 818.849 332.077 819.157 332.539 819.259Z" fill="#5EC1A5"/>
<path d="M260.734 759.773C262.787 760.748 264.327 762.442 265.045 764.597L272.642 786.052C273.668 788.977 273.001 792.262 270.948 794.572C270.024 795.598 268.792 796.419 267.509 796.881L246.055 804.477C243.899 805.247 241.59 805.093 239.588 804.118C237.586 803.143 235.995 801.398 235.225 799.294L227.629 777.839C226.859 775.684 227.013 773.374 227.988 771.372C228.963 769.319 230.709 767.78 232.813 767.01L254.267 759.414C256.371 758.695 258.681 758.798 260.734 759.773ZM239.844 803.4C241.744 804.323 243.848 804.426 245.747 803.708L267.201 796.111C268.433 795.701 269.511 794.982 270.332 794.007C272.231 791.903 272.847 788.926 271.872 786.257L264.275 764.803C263.608 762.852 262.171 761.313 260.323 760.389L260.477 760.03L260.323 760.389C258.424 759.516 256.371 759.362 254.421 760.081L232.967 767.677C231.016 768.344 229.477 769.781 228.553 771.629C227.68 773.477 227.526 775.581 228.245 777.532L235.841 798.986C236.56 800.936 237.997 802.527 239.844 803.4ZM258.681 764.033C259.605 764.495 260.272 765.213 260.631 766.189L268.228 787.643C268.689 788.977 268.382 790.414 267.458 791.441C267.047 791.903 266.534 792.262 265.918 792.467L244.464 800.063C243.54 800.371 242.462 800.32 241.59 799.909C240.666 799.499 239.998 798.678 239.639 797.754L232.043 776.3C231.684 775.376 231.786 774.349 232.197 773.426C232.659 772.502 233.377 771.834 234.353 771.475L255.807 763.879C256.782 763.52 257.757 763.622 258.681 764.033ZM241.898 799.191C242.616 799.55 243.437 799.602 244.207 799.294L265.661 791.697C266.123 791.543 266.534 791.235 266.893 790.876C267.663 790.055 267.868 788.874 267.509 787.848L259.913 766.394C259.656 765.624 259.092 765.008 258.373 764.7C257.654 764.341 256.833 764.29 256.063 764.597L234.609 772.194C233.839 772.45 233.223 773.015 232.916 773.733C232.556 774.452 232.505 775.273 232.813 776.043L240.409 797.497C240.614 798.216 241.179 798.832 241.898 799.191Z" fill="#5EC1A5"/>
<path d="M253.908 774.041C254.523 774.349 254.985 774.863 255.242 775.53L258.168 783.793C258.475 784.717 258.27 785.692 257.654 786.411C257.346 786.719 256.987 786.975 256.576 787.129L248.313 790.055C247.646 790.26 246.979 790.26 246.311 789.952C245.695 789.644 245.233 789.131 244.977 788.464L242.051 780.2C241.846 779.533 241.846 778.866 242.154 778.199C242.462 777.583 242.975 777.121 243.642 776.864L251.906 773.939C252.573 773.682 253.292 773.733 253.908 774.041ZM246.671 789.182C247.133 789.388 247.646 789.439 248.056 789.234L256.32 786.308C256.628 786.206 256.884 786.052 257.09 785.795C257.552 785.282 257.706 784.563 257.449 783.947L254.523 775.684C254.369 775.222 254.01 774.863 253.6 774.657C253.138 774.452 252.676 774.401 252.214 774.606L243.95 777.532C243.488 777.686 243.129 778.045 242.924 778.455C242.719 778.917 242.667 779.379 242.873 779.841L245.798 788.105C245.901 788.618 246.209 788.977 246.671 789.182Z" fill="#5EC1A5"/>
<path d="M189.853 715.222C191.598 716.608 192.728 718.661 192.984 720.868L195.602 743.451C195.961 746.531 194.575 749.61 192.009 751.407C190.88 752.228 189.545 752.69 188.108 752.895L165.525 755.513C163.267 755.769 161.06 755.154 159.263 753.716C157.518 752.331 156.338 750.226 156.132 748.019L153.515 725.436C153.258 723.178 153.874 720.971 155.311 719.174C156.748 717.378 158.75 716.3 161.008 715.992L183.592 713.375C185.85 713.169 188.057 713.837 189.853 715.222ZM159.776 753.152C161.419 754.435 163.421 755 165.474 754.794L188.057 752.177C189.34 752.023 190.572 751.561 191.598 750.842C193.908 749.2 195.191 746.428 194.832 743.605L192.214 721.022C191.958 718.969 190.982 717.173 189.34 715.89L189.597 715.582L189.34 715.89C187.698 714.606 185.696 714.042 183.643 714.247L161.06 716.865C159.007 717.121 157.159 718.097 155.876 719.739C154.593 721.381 154.028 723.383 154.233 725.436L156.851 748.019C157.159 749.97 158.185 751.869 159.776 753.152ZM186.928 718.918C187.698 719.534 188.211 720.458 188.314 721.433L190.931 744.016C191.085 745.402 190.469 746.736 189.34 747.557C188.827 747.917 188.262 748.122 187.595 748.225L165.012 750.842C164.037 750.945 163.01 750.688 162.24 750.072C161.47 749.456 160.957 748.533 160.854 747.557L158.237 724.974C158.134 723.999 158.391 722.972 159.007 722.203C159.623 721.433 160.546 720.919 161.522 720.817L184.105 718.199C185.131 717.994 186.107 718.302 186.928 718.918ZM162.702 749.456C163.318 749.97 164.139 750.175 164.909 750.072L187.492 747.455C188.006 747.403 188.468 747.198 188.878 746.942C189.802 746.326 190.264 745.248 190.161 744.119L187.544 721.535C187.441 720.714 187.082 720.047 186.415 719.534C185.799 719.02 184.977 718.815 184.208 718.918L161.624 721.535C160.803 721.638 160.136 722.049 159.623 722.665C159.109 723.28 158.904 724.102 159.007 724.872L161.624 747.455C161.676 748.225 162.086 748.943 162.702 749.456Z" fill="#5EC1A5"/>
<path d="M180.05 727.592C180.615 728.002 180.923 728.618 181.025 729.337L182.052 738.011C182.155 738.935 181.744 739.91 180.974 740.423C180.615 740.68 180.204 740.834 179.794 740.885L171.12 741.912C170.452 742.014 169.734 741.809 169.22 741.347C168.707 740.937 168.348 740.269 168.245 739.602L167.219 730.928C167.116 730.261 167.321 729.542 167.783 729.029C168.194 728.464 168.81 728.156 169.528 728.054L178.202 727.027C178.818 726.976 179.486 727.181 180.05 727.592ZM169.58 740.783C169.939 741.091 170.452 741.244 170.914 741.193L179.588 740.167C179.896 740.115 180.153 740.013 180.409 739.859C180.974 739.448 181.282 738.832 181.179 738.165L180.153 729.491C180.102 729.029 179.845 728.567 179.486 728.259C179.126 727.951 178.613 727.797 178.151 727.9L169.477 728.926C169.015 728.978 168.553 729.234 168.245 729.594C167.937 729.953 167.783 730.466 167.886 730.928L168.913 739.602C168.964 740.013 169.22 740.475 169.58 740.783Z" fill="#5EC1A5"/>
<path d="M130.675 656.044C132.061 657.789 132.728 659.996 132.471 662.254L130.008 684.889C129.649 688.02 127.647 690.637 124.773 691.818C123.489 692.331 122.052 692.536 120.667 692.382L98.0319 689.919C95.7736 689.662 93.7719 688.584 92.3348 686.788C90.949 685.043 90.2818 682.784 90.5384 680.577L93.002 657.943C93.2587 655.685 94.3365 653.683 96.1329 652.246C97.9293 650.809 100.136 650.193 102.395 650.449L125.029 652.913C127.236 653.118 129.238 654.247 130.675 656.044ZM92.8994 686.275C94.1825 687.917 96.0302 688.892 98.0833 689.149L120.718 691.612C122.001 691.766 123.284 691.561 124.465 691.099C127.082 690.021 128.93 687.609 129.238 684.786L131.702 662.152C131.907 660.099 131.342 658.097 130.059 656.506L130.367 656.249L130.059 656.506C128.776 654.863 126.928 653.888 124.875 653.632L102.241 651.168C100.188 650.963 98.1859 651.527 96.5435 652.81C94.9524 654.093 93.9259 655.941 93.7206 657.994L91.257 680.629C91.0517 682.63 91.6162 684.684 92.8994 686.275ZM126.98 658.969C127.595 659.739 127.903 660.766 127.801 661.741L125.337 684.376C125.183 685.761 124.311 686.942 123.028 687.455C122.412 687.712 121.847 687.763 121.18 687.712L98.5452 685.197C97.57 685.094 96.6462 684.581 96.0302 683.811C95.4143 683.041 95.1064 682.015 95.209 681.039L97.6727 658.405C97.7753 657.378 98.2886 656.506 99.0585 655.89C99.8283 655.274 100.855 654.966 101.83 655.069L124.465 657.532C125.44 657.686 126.364 658.2 126.98 658.969ZM96.5948 683.349C97.1081 683.965 97.8266 684.376 98.5965 684.478L121.231 686.942C121.744 686.993 122.206 686.942 122.668 686.737C123.695 686.326 124.413 685.351 124.516 684.273L126.98 661.638C127.082 660.817 126.826 660.047 126.364 659.431C125.85 658.815 125.132 658.405 124.362 658.302L101.727 655.839C100.906 655.736 100.136 655.992 99.5204 656.506C98.9045 657.019 98.4939 657.738 98.3912 658.507L95.9276 681.142C95.8763 681.912 96.0816 682.733 96.5948 683.349Z" fill="#5EC1A5"/>
<path d="M118.357 665.898C118.767 666.463 118.973 667.13 118.921 667.797L117.946 676.523C117.844 677.447 117.228 678.268 116.355 678.627C115.945 678.781 115.534 678.832 115.123 678.781L106.398 677.806C105.731 677.755 105.115 677.395 104.653 676.831C104.242 676.317 104.037 675.599 104.088 674.932L105.064 666.206C105.115 665.539 105.474 664.923 106.039 664.461C106.603 664.051 107.271 663.845 107.938 663.897L116.663 664.872C117.279 665.026 117.895 665.385 118.357 665.898ZM105.217 676.42C105.525 676.779 105.987 677.036 106.449 677.087L115.175 678.063C115.483 678.114 115.791 678.063 116.047 677.96C116.663 677.703 117.125 677.139 117.176 676.471L118.152 667.746C118.203 667.284 118.049 666.771 117.741 666.412C117.433 666.052 117.022 665.796 116.509 665.744L107.784 664.769C107.322 664.718 106.809 664.872 106.449 665.18C106.09 665.488 105.833 665.898 105.782 666.412L104.807 675.137C104.807 675.548 104.91 676.061 105.217 676.42Z" fill="#5EC1A5"/>
<path d="M86.1758 585.163C87.151 587.216 87.305 589.475 86.5351 591.63L79.0929 613.136C78.0664 616.113 75.5001 618.217 72.4206 618.73C71.0348 618.935 69.5977 618.833 68.2632 618.371L46.7578 610.929C44.6021 610.21 42.9084 608.67 41.8818 606.617C40.9067 604.616 40.7527 602.255 41.5226 600.15L48.9648 578.645C49.6833 576.489 51.2231 574.795 53.2761 573.769C55.3292 572.794 57.6388 572.64 59.7432 573.41L81.2486 580.852C83.4043 581.57 85.1493 583.11 86.1758 585.163ZM42.6004 606.207C43.5243 608.106 45.064 609.492 47.0144 610.159L68.5198 617.601C69.7516 618.012 71.0348 618.114 72.2666 617.909C75.0895 617.447 77.3992 615.497 78.323 612.828L85.7652 591.322C86.4325 589.372 86.3298 587.268 85.4059 585.42L85.7652 585.266L85.4059 585.42C84.4821 583.572 82.9423 582.135 80.992 581.468L59.4865 574.026C57.5362 573.358 55.4318 573.461 53.5841 574.385C51.7364 575.309 50.3506 576.848 49.632 578.799L42.1898 600.304C41.5739 602.255 41.7279 604.41 42.6004 606.207ZM81.9158 587.165C82.3777 588.089 82.4291 589.115 82.0698 590.039L74.6276 611.545C74.1656 612.879 73.0365 613.803 71.6507 614.008C71.0348 614.111 70.4189 614.06 69.803 613.854L48.2975 606.412C47.3737 606.104 46.5525 605.386 46.1419 604.513C45.7313 603.589 45.6286 602.563 45.9879 601.639L53.4301 580.133C53.7381 579.158 54.4566 578.44 55.3292 577.978C56.253 577.516 57.2795 577.464 58.2034 577.824L79.7088 585.266C80.684 585.625 81.4539 586.292 81.9158 587.165ZM46.8604 604.205C47.2197 604.924 47.8356 605.488 48.6055 605.745L70.1109 613.187C70.5729 613.341 71.0861 613.392 71.5994 613.341C72.6772 613.187 73.6011 612.417 73.9603 611.339L81.4026 589.834C81.6592 589.064 81.6079 588.243 81.2486 587.524C80.8893 586.806 80.2734 586.241 79.5035 585.984L57.9981 578.542C57.2282 578.286 56.407 578.337 55.6884 578.696C54.9699 579.055 54.4053 579.671 54.1487 580.441L46.7064 601.895C46.4498 602.614 46.5011 603.486 46.8604 604.205Z" fill="#5EC1A5"/>
<path d="M71.9586 592.041C72.2666 592.657 72.3179 593.375 72.0613 593.991L69.187 602.255C68.8791 603.179 68.1092 603.794 67.134 603.948C66.7234 604 66.2615 604 65.8509 603.846L57.5874 600.972C56.9202 600.766 56.407 600.253 56.099 599.637C55.791 599.021 55.7397 598.303 55.9963 597.687L58.8706 589.423C59.0759 588.756 59.5891 588.243 60.205 587.935C60.821 587.627 61.5395 587.576 62.2067 587.832L70.4702 590.706C71.0861 590.912 71.6506 591.374 71.9586 592.041ZM56.8176 599.329C57.0229 599.791 57.4335 600.099 57.8441 600.253L66.1075 603.127C66.4154 603.23 66.7234 603.23 66.98 603.23C67.6473 603.127 68.2118 602.665 68.4171 601.998L71.2914 593.735C71.4453 593.273 71.4453 592.759 71.1887 592.349C70.9834 591.887 70.6241 591.579 70.1622 591.425L61.8988 588.551C61.4369 588.397 60.9236 588.397 60.513 588.653C60.0511 588.859 59.7431 589.218 59.5891 589.68L56.7149 597.943C56.5609 598.405 56.6122 598.918 56.8176 599.329Z" fill="#5EC1A5"/>
<path d="M58.5113 506.122C59.0246 508.329 58.614 510.587 57.4335 512.486L45.372 531.785C43.7296 534.454 40.7527 535.942 37.6218 535.737C36.236 535.634 34.8502 535.223 33.6698 534.454L14.3713 522.443C12.4723 521.263 11.0865 519.364 10.5732 517.157C10.06 514.95 10.4706 512.64 11.6511 510.741L23.7126 491.443C24.8931 489.544 26.7921 488.158 28.9991 487.645C31.2061 487.131 33.4645 487.542 35.4148 488.722L54.7133 500.784C56.6636 502.016 57.9981 503.915 58.5113 506.122ZM11.3431 517.003C11.805 519.056 13.0369 520.75 14.7819 521.827L34.0804 533.889C35.1582 534.556 36.39 534.967 37.6732 535.069C40.4961 535.275 43.2163 533.838 44.7048 531.425L56.7663 512.127C57.8441 510.382 58.2034 508.329 57.7415 506.327L58.1007 506.224L57.7415 506.327C57.2795 504.274 56.0477 502.58 54.3026 501.502L35.0042 489.441C33.2591 488.363 31.2061 488.004 29.1531 488.466C27.1514 488.928 25.4577 490.16 24.3285 491.905L12.3183 511.152C11.2405 512.897 10.8812 515.001 11.3431 517.003ZM53.892 507.148C54.0973 508.123 53.9434 509.15 53.4301 509.971L41.3686 529.27C40.65 530.45 39.3156 531.117 37.9298 531.015C37.3139 530.963 36.698 530.758 36.1847 530.45L16.8863 518.389C16.0651 517.875 15.4492 517.003 15.1925 516.028C14.9872 515.052 15.1412 514.026 15.6545 513.205L27.716 493.906C28.2292 493.034 29.1018 492.469 30.077 492.213C31.0521 492.007 32.0787 492.161 32.9512 492.674L52.2496 504.736C53.0708 505.352 53.6867 506.173 53.892 507.148ZM15.9624 515.925C16.1677 516.695 16.6297 517.413 17.2969 517.824L36.5953 529.886C37.0059 530.142 37.5192 530.296 37.9811 530.348C39.1103 530.399 40.1368 529.886 40.7527 528.91L52.8142 509.612C53.2248 508.945 53.3788 508.123 53.1735 507.354C52.9682 506.584 52.5063 505.916 51.839 505.455L32.5406 493.393C31.8734 492.982 31.0521 492.828 30.2823 493.034C29.5124 493.239 28.8451 493.701 28.4345 494.368L16.373 513.667C15.9111 514.334 15.7571 515.155 15.9624 515.925Z" fill="#5EC1A5"/>
<path d="M43.1138 509.663C43.2678 510.33 43.1652 511.049 42.8059 511.614L38.1866 519.056C37.6733 519.877 36.8008 520.339 35.8256 520.288C35.415 520.236 35.0044 520.134 34.5938 519.877L27.1516 515.258C26.587 514.898 26.1764 514.334 26.0224 513.667C25.8684 512.999 25.9711 512.281 26.3304 511.716L30.9497 504.274C31.309 503.709 31.8735 503.299 32.5408 503.145C33.208 502.991 33.9266 503.094 34.4911 503.453L41.9334 508.072C42.5493 508.431 42.9599 508.996 43.1138 509.663ZM26.741 513.461C26.8436 513.923 27.1516 514.334 27.5622 514.59L35.0044 519.21C35.261 519.364 35.569 519.466 35.8769 519.466C36.5442 519.518 37.2114 519.158 37.5707 518.594L42.19 511.152C42.4466 510.741 42.5493 510.228 42.4466 509.766C42.344 509.304 42.036 508.893 41.6254 508.637L34.1832 504.017C33.7726 503.761 33.2593 503.658 32.7974 503.761C32.3355 503.863 31.9249 504.171 31.6682 504.582L27.0489 512.024C26.741 512.486 26.6383 512.999 26.741 513.461Z" fill="#5EC1A5"/>
<path d="M49.1699 422.923C49.1699 425.181 48.2974 427.286 46.7063 428.928L30.6414 445.044C28.4344 447.251 25.2009 448.073 22.224 447.2C20.8895 446.789 19.6577 446.071 18.6312 445.096L2.51495 429.031C0.923861 427.44 0 425.284 0 423.026C0 420.767 0.923861 418.612 2.46363 417.021L18.5285 400.904C20.1196 399.313 22.2753 398.389 24.5336 398.389C26.792 398.389 28.9476 399.262 30.5387 400.853L46.655 416.918C48.2461 418.509 49.1186 420.665 49.1699 422.923ZM0.769884 423.026C0.769884 425.13 1.59109 427.029 3.02821 428.518L19.1445 444.582C20.0683 445.506 21.1975 446.174 22.378 446.533C25.0982 447.354 28.0238 446.584 30.0768 444.582L46.1417 428.466C47.5788 427.029 48.4 425.079 48.4 423.026H48.7593H48.4C48.4 420.921 47.5788 419.022 46.1417 417.534L30.0255 401.469C28.5884 400.032 26.638 399.211 24.5336 399.211C22.4806 399.211 20.5302 400.032 19.0931 401.469L3.02821 417.585C1.59109 419.022 0.769884 421.024 0.769884 423.026ZM44.448 422.923C44.448 423.95 44.0374 424.873 43.3701 425.592L27.3052 441.708C26.33 442.683 24.8929 443.043 23.5585 442.683C22.9425 442.478 22.4293 442.17 21.9674 441.76L5.85112 425.695C5.13256 424.976 4.72196 424.001 4.72196 423.026C4.72196 422.051 5.13256 421.075 5.79979 420.357L21.8647 404.241C22.5833 403.522 23.5071 403.111 24.5336 403.111C25.5602 403.111 26.484 403.522 27.2026 404.189L43.3188 420.254C44.0374 420.973 44.448 421.948 44.448 422.923ZM5.49184 423.026C5.49184 423.847 5.79979 424.617 6.36438 425.181L22.4806 441.246C22.8399 441.606 23.2505 441.862 23.7638 442.016C24.8416 442.324 25.9708 442.016 26.7406 441.246L42.8056 425.13C43.3701 424.565 43.6781 423.796 43.6781 423.026C43.6781 422.204 43.3701 421.435 42.8056 420.87L26.6893 404.805C26.1247 404.241 25.3548 403.933 24.5336 403.933C23.7124 403.933 22.9939 404.241 22.4293 404.805L6.36438 420.921C5.79979 421.486 5.49184 422.256 5.49184 423.026Z" fill="#5EC1A5"/>
<path d="M33.3619 422.974C33.3619 423.642 33.1053 424.309 32.5921 424.822L26.433 431.032C25.7658 431.7 24.7906 431.956 23.8667 431.7C23.4561 431.597 23.0968 431.34 22.7889 431.032L16.5785 424.873C16.0652 424.36 15.8086 423.744 15.8086 423.026C15.8086 422.358 16.0652 421.691 16.5785 421.178L22.7375 414.968C23.2508 414.454 23.8667 414.198 24.5853 414.198C25.3038 414.198 25.9197 414.454 26.433 414.968L32.6434 421.127C33.1053 421.64 33.3619 422.256 33.3619 422.974ZM16.5272 423.026C16.5272 423.539 16.7325 424.001 17.0917 424.309L23.3021 430.468C23.5074 430.673 23.7641 430.827 24.072 430.93C24.7392 431.135 25.4065 430.93 25.8684 430.468L32.0275 424.257C32.3868 423.898 32.5407 423.436 32.5407 422.974C32.5407 422.461 32.3354 422.05 31.9762 421.691L25.7658 415.532C25.4065 415.173 24.9446 415.019 24.4826 415.019C23.9694 415.019 23.5588 415.224 23.1995 415.583L17.0404 421.794C16.7325 422.05 16.5272 422.512 16.5272 423.026Z" fill="#5EC1A5"/>
<path d="M58.5113 339.775C57.9981 341.983 56.6636 343.83 54.7645 345.062L35.5174 357.226C32.8998 358.92 29.5637 358.971 26.8434 357.432C25.6116 356.764 24.5851 355.738 23.8152 354.557L11.651 335.31C10.4192 333.411 10.0599 331.101 10.5219 328.894C11.0351 326.687 12.3696 324.788 14.2686 323.608L33.5157 311.444C35.4148 310.212 37.7244 309.853 39.9314 310.315C42.1385 310.828 44.0375 312.162 45.218 314.061L57.3822 333.308C58.6653 335.259 59.0246 337.517 58.5113 339.775ZM11.3431 329.1C10.8812 331.153 11.2404 333.206 12.3696 334.951L24.4824 354.147C25.1497 355.225 26.1249 356.148 27.2027 356.764C29.6663 358.15 32.6945 358.099 35.1068 356.559L54.4053 344.395C56.1503 343.317 57.3308 341.572 57.7928 339.57L58.152 339.673L57.7928 339.57C58.2547 337.517 57.8954 335.464 56.7662 333.719L44.6534 314.523C43.5756 312.778 41.8305 311.598 39.8288 311.136C37.8271 310.674 35.7227 311.033 33.9777 312.162L14.7306 324.327C13.0368 325.353 11.805 327.098 11.3431 329.1ZM53.9433 338.698C53.738 339.673 53.1221 340.494 52.3009 341.059L33.0538 353.223C31.8733 353.941 30.3849 353.993 29.2044 353.325C28.6398 353.018 28.2292 352.607 27.8699 352.042L15.7058 332.795C15.1925 331.974 14.9872 330.896 15.1925 329.972C15.3978 328.997 16.0137 328.125 16.8349 327.611L36.082 315.447C36.9546 314.934 37.9298 314.729 38.9049 314.934C39.8801 315.139 40.7527 315.755 41.2659 316.576L53.4301 335.823C53.9947 336.696 54.1486 337.722 53.9433 338.698ZM15.9111 330.126C15.7571 330.896 15.8597 331.717 16.3217 332.385L28.4858 351.632C28.7425 352.042 29.1017 352.402 29.5637 352.658C30.5389 353.223 31.7193 353.171 32.6432 352.556L51.8903 340.391C52.5575 339.981 53.0195 339.314 53.2248 338.492C53.3788 337.722 53.2761 336.901 52.8142 336.234L40.65 316.987C40.2394 316.32 39.5722 315.858 38.751 315.652C37.9811 315.498 37.1599 315.601 36.4926 316.063L17.2455 328.227C16.5783 328.689 16.1164 329.356 15.9111 330.126Z" fill="#5EC1A5"/>
<path d="M43.1133 336.285C42.9594 336.953 42.5488 337.517 41.9842 337.876L34.5933 342.547C33.7721 343.06 32.7456 343.06 31.9244 342.598C31.5651 342.393 31.2571 342.085 31.0005 341.726L26.3299 334.335C25.9706 333.77 25.8166 333.052 25.9706 332.385C26.1246 331.717 26.5352 331.153 27.0998 330.794L34.4906 326.123C35.0552 325.764 35.7738 325.61 36.441 325.764C37.1082 325.918 37.6728 326.328 38.0834 326.893L42.7541 334.284C43.1647 334.9 43.2673 335.567 43.1133 336.285ZM26.7405 332.539C26.7405 332.59 26.7405 332.59 26.7405 332.539C26.6378 333.001 26.7405 333.514 26.9971 333.924L31.6677 341.315C31.8217 341.572 32.027 341.777 32.335 341.931C32.8995 342.239 33.6181 342.239 34.234 341.88L41.6249 337.209C42.0355 336.953 42.3435 336.542 42.4461 336.08C42.5488 335.618 42.4461 335.105 42.1895 334.694L37.4675 327.303C37.2109 326.893 36.8003 326.585 36.3384 326.482C35.8764 326.38 35.3632 326.482 34.9526 326.739L27.5617 331.409C27.1511 331.666 26.8431 332.077 26.7405 332.539Z" fill="#5EC1A5"/>
<path d="M86.1754 260.734C85.2002 262.787 83.5065 264.327 81.3508 265.045L59.8967 272.642C56.9711 273.668 53.6863 273.001 51.3766 270.948C50.3501 270.024 49.5289 268.792 49.067 267.509L41.4708 246.055C40.7009 243.899 40.8549 241.59 41.8301 239.588C42.8053 237.586 44.5503 235.995 46.6547 235.225L68.1088 227.629C70.2645 226.859 72.5741 227.013 74.5758 227.988C76.6289 228.964 78.1686 230.709 78.9385 232.813L86.5347 254.267C87.3046 256.371 87.1506 258.681 86.1754 260.734ZM42.5486 239.845C41.6248 241.744 41.5221 243.848 42.2407 245.747L49.7856 267.201C50.1962 268.433 50.9147 269.511 51.8899 270.332C53.9943 272.231 56.9711 272.847 59.6401 271.872L81.0942 264.327C83.0446 263.66 84.5843 262.223 85.5082 260.375L85.8675 260.529L85.5082 260.375C86.3807 258.476 86.5347 256.423 85.8161 254.472L78.2713 233.018C77.604 231.068 76.1669 229.528 74.3192 228.604C72.4715 227.732 70.3671 227.578 68.4168 228.296L46.9626 235.892C45.0123 236.56 43.4212 237.997 42.5486 239.845ZM81.9667 258.681C81.5048 259.605 80.7862 260.272 79.811 260.631L58.3569 268.228C57.0225 268.69 55.5854 268.382 54.5588 267.458C54.0969 267.047 53.7376 266.534 53.5323 265.918L45.9361 244.464C45.6282 243.54 45.6795 242.462 46.0901 241.59C46.5007 240.666 47.3219 239.999 48.2458 239.639L69.6999 232.043C70.6238 231.684 71.6503 231.786 72.5741 232.197C73.498 232.659 74.1652 233.378 74.5245 234.353L82.1207 255.807C82.4286 256.782 82.3773 257.757 81.9667 258.681ZM46.8087 241.898C46.4494 242.616 46.3981 243.437 46.706 244.207L54.3022 265.661C54.4562 266.123 54.7641 266.534 55.1234 266.893C55.9446 267.663 57.1251 267.868 58.1516 267.509L79.6057 259.913C80.3756 259.656 80.9915 259.092 81.2995 258.373C81.6588 257.655 81.7101 256.833 81.4021 256.063L73.8059 234.609C73.5493 233.839 72.9847 233.224 72.2662 232.916C71.5476 232.556 70.7264 232.505 69.9565 232.813L48.5024 240.409C47.7839 240.614 47.1679 241.179 46.8087 241.898Z" fill="#5EC1A5"/>
<path d="M71.9584 253.908C71.6505 254.524 71.1372 254.986 70.47 255.242L62.2066 258.168C61.2827 258.476 60.3075 258.27 59.589 257.655C59.281 257.347 59.0244 256.987 58.8704 256.577L55.9448 248.313C55.7395 247.646 55.7395 246.979 56.0475 246.312C56.3554 245.696 56.8687 245.234 57.5359 244.977L65.7994 242.052C66.4666 241.846 67.1338 241.846 67.8011 242.154C68.417 242.462 68.8789 242.975 69.1355 243.643L72.0611 251.906C72.2664 252.573 72.2664 253.292 71.9584 253.908ZM56.8174 246.671C56.8174 246.671 56.766 246.671 56.8174 246.671C56.6121 247.133 56.5607 247.646 56.7661 248.057L59.6916 256.32C59.7943 256.628 59.9482 256.885 60.2049 257.09C60.7181 257.552 61.4367 257.706 62.0526 257.449L70.316 254.524C70.7779 254.37 71.1372 254.01 71.3425 253.6C71.5478 253.138 71.5992 252.676 71.3939 252.214L68.4683 243.951C68.3143 243.489 67.955 243.129 67.5444 242.924C67.0825 242.719 66.6206 242.668 66.1586 242.873L57.8952 245.798C57.382 245.901 57.0227 246.209 56.8174 246.671Z" fill="#5EC1A5"/>
<path d="M130.726 189.853C129.341 191.599 127.287 192.728 125.08 192.984L102.497 195.602C99.4177 195.961 96.3381 194.575 94.5417 192.009C93.7205 190.88 93.2586 189.545 93.0533 188.108L90.4357 165.525C90.1791 163.267 90.795 161.06 92.2321 159.263C93.6179 157.518 95.7222 156.338 97.9292 156.133L120.513 153.515C122.771 153.258 124.978 153.874 126.774 155.311C128.571 156.748 129.648 158.75 129.956 161.008L132.574 183.592C132.779 185.85 132.163 188.057 130.726 189.853ZM92.848 159.777C91.5648 161.419 91.0003 163.421 91.2056 165.474L93.8232 188.057C93.9772 189.34 94.4391 190.572 95.1576 191.599C96.8001 193.908 99.5716 195.191 102.395 194.832L124.978 192.214C127.031 191.958 128.827 190.983 130.11 189.34L130.418 189.597L130.11 189.34C131.394 187.698 131.958 185.696 131.753 183.643L129.135 161.06C128.879 159.007 127.903 157.159 126.261 155.876C124.619 154.593 122.617 154.028 120.564 154.233L97.9805 156.851C95.9788 157.159 94.1311 158.186 92.848 159.777ZM127.031 186.928C126.415 187.698 125.491 188.211 124.516 188.314L101.933 190.931C100.547 191.085 99.2124 190.469 98.3912 189.34C98.0319 188.827 97.8266 188.262 97.7239 187.595L95.1063 165.012C95.0037 164.037 95.2603 163.01 95.8762 162.24C96.4921 161.47 97.416 160.957 98.3912 160.854L120.974 158.237C121.95 158.134 122.976 158.391 123.746 159.007C124.516 159.623 125.029 160.547 125.132 161.522L127.749 184.105C127.955 185.131 127.698 186.107 127.031 186.928ZM96.5434 162.702C96.0302 163.318 95.8249 164.139 95.9275 164.909L98.5451 187.492C98.5965 188.006 98.8018 188.468 99.0584 188.878C99.6743 189.802 100.752 190.264 101.881 190.161L124.465 187.544C125.286 187.441 125.953 187.082 126.466 186.415C126.98 185.799 127.185 184.978 127.082 184.208L124.465 161.624C124.362 160.803 123.951 160.136 123.335 159.623C122.72 159.109 121.898 158.904 121.128 159.007L98.5451 161.624C97.7752 161.676 97.0054 162.086 96.5434 162.702Z" fill="#5EC1A5"/>
<path d="M118.357 180.05C117.946 180.615 117.33 180.923 116.612 181.025L107.938 182.052C107.014 182.155 106.039 181.744 105.526 180.974C105.269 180.615 105.115 180.204 105.064 179.794L104.037 171.12C103.934 170.452 104.14 169.734 104.602 169.221C105.012 168.707 105.68 168.348 106.347 168.245L115.021 167.219C115.688 167.116 116.407 167.321 116.92 167.783C117.484 168.194 117.792 168.81 117.895 169.528L118.922 178.203C119.024 178.818 118.819 179.486 118.357 180.05ZM105.218 169.58C104.91 169.939 104.756 170.452 104.807 170.914L105.834 179.588C105.885 179.896 105.988 180.153 106.141 180.41C106.552 180.974 107.168 181.282 107.835 181.179L116.509 180.153C116.971 180.102 117.433 179.845 117.741 179.486C118.049 179.126 118.203 178.613 118.1 178.151L117.074 169.477C117.023 169.015 116.766 168.553 116.407 168.245C116.047 167.937 115.534 167.783 115.072 167.886L106.398 168.913C105.936 168.964 105.526 169.221 105.218 169.58Z" fill="#5EC1A5"/>
<path d="M189.956 130.675C188.211 132.061 186.004 132.728 183.746 132.471L161.111 130.008C157.98 129.648 155.362 127.647 154.182 124.773C153.669 123.489 153.463 122.052 153.617 120.666L156.081 98.0319C156.338 95.7736 157.416 93.7719 159.212 92.3347C160.957 90.9489 163.215 90.2817 165.422 90.5383L188.057 93.002C190.315 93.2586 192.317 94.3364 193.754 96.1328C195.191 97.9292 195.807 100.136 195.55 102.395L193.087 125.029C192.83 127.236 191.701 129.238 189.956 130.675ZM159.725 92.8993C158.083 94.1825 157.108 96.0302 156.851 98.0832L154.387 120.718C154.233 122.001 154.439 123.284 154.901 124.465C155.978 127.082 158.391 128.93 161.214 129.238L183.848 131.701C185.901 131.907 187.903 131.342 189.494 130.059L189.751 130.367L189.494 130.059C191.136 128.776 192.112 126.928 192.368 124.875L194.832 102.241C195.037 100.188 194.473 98.1859 193.189 96.5434C191.906 94.9523 190.059 93.9258 188.006 93.7205L165.371 91.2569C163.369 91.0516 161.265 91.6162 159.725 92.8993ZM187.03 126.98C186.26 127.595 185.234 127.903 184.259 127.801L161.624 125.337C160.238 125.183 159.058 124.311 158.545 123.027C158.288 122.412 158.237 121.847 158.288 121.18L160.752 98.5451C160.854 97.5699 161.368 96.6461 162.137 96.0302C162.907 95.4143 163.934 95.1063 164.909 95.209L187.544 97.6726C188.57 97.7753 189.443 98.2885 190.059 99.0584C190.674 99.8283 190.982 100.855 190.88 101.83L188.416 124.465C188.262 125.44 187.8 126.364 187.03 126.98ZM162.651 96.5948C162.035 97.108 161.624 97.8266 161.522 98.5965L159.058 121.231C159.007 121.744 159.058 122.206 159.263 122.668C159.674 123.695 160.649 124.413 161.727 124.516L184.361 126.98C185.183 127.082 185.953 126.826 186.568 126.364C187.184 125.85 187.595 125.132 187.698 124.362L190.161 101.727C190.264 100.906 190.007 100.136 189.494 99.5203C188.981 98.9044 188.262 98.4938 187.492 98.3912L164.858 95.9275C164.037 95.8762 163.267 96.0815 162.651 96.5948Z" fill="#5EC1A5"/>
<path d="M180.05 118.357C179.485 118.767 178.818 118.973 178.151 118.921L169.426 117.946C168.502 117.844 167.68 117.228 167.321 116.355C167.167 115.945 167.116 115.534 167.167 115.123L168.142 106.398C168.194 105.731 168.553 105.115 169.118 104.653C169.631 104.242 170.349 104.037 171.017 104.088L179.742 105.064C180.409 105.115 181.025 105.474 181.487 106.039C181.898 106.603 182.103 107.271 182.052 107.938L181.076 116.663C180.974 117.279 180.615 117.895 180.05 118.357ZM169.579 105.217C169.22 105.525 168.964 105.987 168.912 106.449L167.937 115.175C167.886 115.483 167.937 115.791 168.04 116.047C168.296 116.663 168.861 117.125 169.528 117.176L178.254 118.152C178.715 118.203 179.229 118.049 179.588 117.741C179.947 117.433 180.204 117.022 180.255 116.509L181.23 107.784C181.282 107.322 181.128 106.809 180.82 106.449C180.512 106.09 180.101 105.833 179.588 105.782L170.863 104.807C170.452 104.807 169.939 104.91 169.579 105.217Z" fill="#5EC1A5"/>
<path d="M260.837 86.1757C258.784 87.1509 256.525 87.3049 254.37 86.535L232.864 79.0415C229.887 78.0149 227.783 75.4487 227.27 72.3691C227.064 70.9833 227.167 69.5462 227.629 68.2117L235.071 46.7577C235.79 44.602 237.33 42.9082 239.383 41.8817C241.384 40.9065 243.745 40.7526 245.85 41.5224L267.355 48.9647C269.511 49.6832 271.205 51.223 272.231 53.276C273.206 55.329 273.36 57.6387 272.59 59.743L265.148 81.2485C264.43 83.4041 262.89 85.1492 260.837 86.1757ZM239.742 42.6003C237.843 43.5241 236.457 45.0639 235.79 47.0143L228.348 68.5197C227.937 69.7515 227.834 71.0347 228.04 72.2665C228.502 75.0894 230.452 77.399 233.121 78.3229L254.626 85.7651C256.577 86.4323 258.681 86.3297 260.529 85.4058L260.683 85.7651L260.529 85.4058C262.377 84.482 263.814 82.9422 264.481 80.9918L271.923 59.4864C272.59 57.536 272.488 55.4317 271.564 53.584C270.64 51.7362 269.1 50.3504 267.15 49.6319L245.644 42.1897C243.745 41.5738 241.59 41.7277 239.742 42.6003ZM258.784 81.9157C257.86 82.3776 256.833 82.4289 255.91 82.0697L234.404 74.6275C233.07 74.1655 232.146 73.0364 231.94 71.6506C231.838 71.0347 231.889 70.4188 232.094 69.8028L239.537 48.2974C239.845 47.3736 240.563 46.5524 241.436 46.1417C242.36 45.7311 243.386 45.6285 244.31 45.9878L265.815 53.43C266.791 53.7379 267.509 54.4565 267.971 55.329C268.433 56.2529 268.484 57.2794 268.125 58.2033L260.683 79.7087C260.375 80.6839 259.708 81.4538 258.784 81.9157ZM241.795 46.8603C241.076 47.2196 240.512 47.8355 240.255 48.6054L232.813 70.1108C232.659 70.5727 232.608 71.086 232.659 71.5992C232.813 72.6771 233.583 73.6009 234.661 73.9602L256.166 81.4024C256.936 81.6591 257.757 81.6077 258.476 81.2485C259.194 80.8892 259.759 80.2733 260.016 79.5034L267.458 57.998C267.714 57.2281 267.663 56.4069 267.304 55.6883C266.945 54.9697 266.329 54.4052 265.559 54.1485L244.105 46.7063C243.335 46.4497 242.514 46.501 241.795 46.8603Z" fill="#5EC1A5"/>
<path d="M253.959 71.9585C253.343 72.2665 252.625 72.3178 252.009 72.0612L243.745 69.187C242.822 68.879 242.206 68.1091 242.052 67.1339C242 66.7233 242 66.2614 242.154 65.8508L245.029 57.5874C245.234 56.9201 245.747 56.4069 246.363 56.0989C246.979 55.791 247.698 55.7397 248.313 55.9963L256.577 58.8705C257.244 59.0758 257.757 59.5891 258.065 60.205C258.373 60.8209 258.425 61.5394 258.168 62.2067L255.294 70.4701C255.037 71.086 254.575 71.6506 253.959 71.9585ZM246.62 56.8175C246.158 57.0228 245.85 57.4334 245.696 57.844L242.822 66.1074C242.719 66.4154 242.719 66.7233 242.719 66.98C242.822 67.6472 243.284 68.2118 243.951 68.4171L252.214 71.2913C252.676 71.4453 253.189 71.4453 253.6 71.1887C254.062 70.9834 254.37 70.6241 254.524 70.1621L257.398 61.8987C257.552 61.4368 257.552 60.9235 257.295 60.5129C257.09 60.051 256.731 59.7431 256.269 59.5891L248.005 56.7148C247.544 56.5609 247.082 56.6122 246.62 56.8175Z" fill="#5EC1A5"/>
<path d="M339.827 58.5112C337.62 59.0244 335.362 58.6138 333.463 57.4333L314.164 45.3718C311.495 43.7294 310.007 40.7525 310.212 37.6216C310.315 36.2359 310.725 34.8501 311.495 33.6696L323.505 14.3711C324.686 12.4721 326.585 11.0863 328.792 10.5731C330.999 10.0598 333.309 10.4704 335.208 11.6509L354.506 23.7124C356.405 24.8929 357.791 26.7919 358.304 28.9989C358.817 31.2059 358.407 33.4643 357.226 35.4146L345.165 54.7131C343.933 56.6634 342.085 57.9979 339.827 58.5112ZM328.997 11.3429C326.944 11.8049 325.251 13.0367 324.173 14.7817L312.111 34.0802C311.444 35.158 311.033 36.3898 310.931 37.673C310.725 40.4959 312.163 43.2161 314.575 44.7046L333.873 56.7661C335.618 57.8439 337.671 58.2032 339.673 57.7413L339.776 58.1006L339.673 57.7413C341.726 57.2793 343.42 56.0475 344.498 54.3025L356.559 35.004C357.637 33.259 357.996 31.2059 357.534 29.1529C357.072 27.1512 355.841 25.4575 354.096 24.3283L334.797 12.3181C333.103 11.2403 330.948 10.881 328.997 11.3429ZM338.8 53.8919C337.825 54.0972 336.799 53.9432 335.978 53.4299L316.679 41.3684C315.499 40.6499 314.831 39.3154 314.934 37.9296C314.985 37.3137 315.191 36.6978 315.499 36.1845L327.56 16.8861C328.073 16.0649 328.946 15.449 329.921 15.1924C330.896 14.9871 331.923 15.141 332.744 15.6543L352.042 27.7158C352.915 28.2291 353.48 29.1016 353.736 30.0768C353.942 31.052 353.788 32.0785 353.274 32.951L341.213 52.2494C340.597 53.0707 339.776 53.6866 338.8 53.8919ZM330.024 15.9622C329.254 16.1675 328.535 16.6295 328.125 17.2967L316.063 36.5951C315.807 37.0057 315.653 37.519 315.601 37.9809C315.55 39.1101 316.063 40.1366 317.038 40.7525L336.337 52.814C337.004 53.2246 337.825 53.3786 338.595 53.1733C339.365 52.968 340.032 52.5061 340.494 51.8388L352.556 32.5404C352.966 31.8732 353.12 31.052 352.915 30.2821C352.71 29.5122 352.248 28.845 351.581 28.4344L332.282 16.3728C331.615 15.9109 330.794 15.7569 330.024 15.9622Z" fill="#5EC1A5"/>
<path d="M336.285 43.1135C335.618 43.2675 334.9 43.1648 334.335 42.8055L326.893 38.1862C326.072 37.673 325.61 36.8004 325.661 35.8252C325.712 35.4146 325.815 35.004 326.072 34.5934L330.691 27.1512C331.05 26.5866 331.615 26.176 332.282 26.022C332.949 25.8681 333.668 25.9707 334.232 26.33L341.675 30.9493C342.239 31.3086 342.65 31.8732 342.804 32.5404C342.958 33.2076 342.855 33.9262 342.496 34.4908L337.877 41.933C337.569 42.5489 337.004 42.9595 336.285 43.1135ZM332.539 26.7406C332.077 26.8433 331.666 27.1512 331.41 27.5618L326.79 35.004C326.636 35.2607 326.534 35.5686 326.534 35.8766C326.482 36.5438 326.842 37.211 327.406 37.5703L334.848 42.1896C335.259 42.4462 335.772 42.5489 336.234 42.4462C336.696 42.3436 337.107 42.0356 337.363 41.625L341.983 34.1828C342.239 33.7722 342.342 33.259 342.239 32.797C342.137 32.3351 341.829 31.9245 341.418 31.6679L333.976 27.0486C333.514 26.7406 333.001 26.638 332.539 26.7406Z" fill="#5EC1A5"/>
<path d="M423.026 49.1699C420.768 49.1699 418.663 48.2974 417.021 46.7063L400.904 30.6414C398.697 28.4344 397.876 25.2009 398.749 22.224C399.159 20.8895 399.878 19.6577 400.853 18.6312L416.918 2.51495C418.509 0.872535 420.665 0 422.923 0C425.182 0 427.337 0.923861 428.928 2.46363L445.045 18.5285C446.636 20.1196 447.559 22.2753 447.559 24.5336C447.559 26.792 446.687 28.9476 445.096 30.5387L429.031 46.655C427.44 48.2461 425.335 49.1186 423.026 49.1699ZM422.923 0.769884C420.819 0.769884 418.92 1.59109 417.431 3.02821L401.366 19.1445C400.443 20.0683 399.775 21.1975 399.416 22.378C398.595 25.0982 399.365 28.0238 401.366 30.0768L417.483 46.1417C418.92 47.5788 420.87 48.4 422.923 48.4V48.7593V48.4C425.028 48.4 426.927 47.5788 428.415 46.1417L444.48 30.0255C445.917 28.5884 446.738 26.638 446.738 24.5336C446.738 22.4806 445.917 20.5302 444.48 19.0931L428.415 3.02821C426.978 1.59109 424.976 0.769884 422.923 0.769884ZM423.026 44.448C421.999 44.448 421.075 44.0374 420.357 43.3701L404.241 27.3052C403.265 26.33 402.906 24.8929 403.265 23.5585C403.471 22.9425 403.779 22.4293 404.189 21.9674L420.254 5.85112C420.973 5.13256 421.948 4.72196 422.923 4.72196C423.898 4.72196 424.874 5.13256 425.592 5.79979L441.708 21.8647C442.427 22.5833 442.838 23.5071 442.838 24.5336C442.838 25.5602 442.427 26.484 441.76 27.2026L425.695 43.3188C424.976 44.0374 424.052 44.448 423.026 44.448ZM422.923 5.49184C422.102 5.49184 421.332 5.79979 420.767 6.36438L404.703 22.4806C404.343 22.8399 404.087 23.2505 403.933 23.7638C403.625 24.8416 403.933 25.9708 404.703 26.7406L420.819 42.8056C421.383 43.3701 422.153 43.6781 422.923 43.6781C423.744 43.6781 424.514 43.3701 425.079 42.8056L441.144 26.6893C441.708 26.1247 442.016 25.3548 442.016 24.5336C442.016 23.7124 441.708 22.9939 441.144 22.4293L425.028 6.36438C424.514 5.79979 423.744 5.49184 422.923 5.49184Z" fill="#5EC1A5"/>
<path d="M423.026 33.3616C422.359 33.3616 421.691 33.105 421.178 32.5918L414.968 26.4327C414.301 25.7655 414.044 24.7903 414.301 23.8664C414.403 23.4558 414.66 23.0965 414.968 22.7886L421.127 16.5782C421.64 16.0649 422.256 15.8083 422.975 15.8083C423.642 15.8083 424.309 16.0649 424.822 16.5782L431.033 22.7372C431.546 23.2505 431.803 23.8664 431.803 24.585C431.803 25.3035 431.546 25.9194 431.033 26.4327L424.874 32.6431C424.36 33.105 423.693 33.3616 423.026 33.3616ZM422.975 16.5268C422.461 16.5268 421.999 16.7321 421.691 17.0914L415.532 23.3018C415.327 23.5071 415.173 23.7638 415.07 24.0717C414.865 24.7389 415.07 25.4062 415.532 25.8681L421.743 32.0272C422.102 32.3865 422.564 32.5404 423.026 32.5404C423.539 32.5404 423.95 32.3351 424.309 31.9759L430.468 25.7655C430.827 25.4062 430.981 24.9442 430.981 24.4823C430.981 23.9691 430.776 23.5585 430.417 23.1992L424.206 17.0401C423.898 16.7322 423.436 16.5268 422.975 16.5268Z" fill="#5EC1A5"/>
<path d="M506.224 58.5112C504.017 57.9979 502.17 56.6635 500.938 54.7644L488.774 35.5173C487.08 32.8997 487.029 29.5636 488.568 26.8433C489.236 25.6115 490.262 24.585 491.443 23.8151L510.69 11.6509C512.589 10.4191 514.898 10.0598 517.105 10.5218C519.312 11.035 521.211 12.3695 522.392 14.2685L534.556 33.5156C535.788 35.4147 536.147 37.7243 535.685 39.9313C535.172 42.1383 533.837 44.0374 531.938 45.2179L512.691 57.382C510.741 58.6652 508.431 59.0245 506.224 58.5112ZM516.9 11.343C514.847 10.881 512.794 11.2403 511.049 12.3695L491.802 24.5336C490.724 25.2009 489.8 26.1761 489.184 27.2539C487.798 29.7175 487.85 32.7457 489.39 35.158L501.554 54.4051C502.632 56.1502 504.377 57.3307 506.378 57.7926L506.276 58.1519L506.378 57.7926C508.431 58.2546 510.484 57.8953 512.229 56.7661L531.477 44.602C533.222 43.5241 534.402 41.779 534.864 39.7773C535.326 37.7756 534.967 35.6713 533.837 33.9262L521.673 14.6791C520.647 13.0367 518.902 11.8049 516.9 11.343ZM507.302 53.9432C506.327 53.7379 505.506 53.122 504.941 52.3008L492.777 33.0537C492.058 31.8732 492.007 30.3848 492.674 29.2043C492.982 28.6397 493.393 28.2291 493.958 27.8698L513.205 15.7056C514.026 15.1924 515.104 14.9871 516.028 15.1924C517.003 15.3977 517.875 16.0136 518.388 16.8348L530.553 36.0819C531.066 36.9544 531.271 37.9296 531.066 38.9048C530.861 39.88 530.245 40.7525 529.423 41.2658L510.176 53.43C509.253 53.9945 508.277 54.1485 507.302 53.9432ZM515.874 15.9109C515.104 15.757 514.282 15.8596 513.615 16.3215L494.368 28.4857C493.958 28.7423 493.598 29.1016 493.342 29.5636C492.777 30.5387 492.828 31.7192 493.444 32.6431L505.608 51.8902C506.019 52.5574 506.686 53.0194 507.507 53.2247C508.277 53.3786 509.099 53.276 509.766 52.8141L529.013 40.6499C529.68 40.2393 530.142 39.572 530.347 38.7508C530.501 37.981 530.399 37.1597 529.937 36.4925L517.773 17.2454C517.311 16.5782 516.643 16.1162 515.874 15.9109Z" fill="#5EC1A5"/>
<path d="M509.714 43.1135C509.047 42.9595 508.483 42.5489 508.123 41.9844L503.453 34.5935C502.939 33.7723 502.939 32.7458 503.401 31.9245C503.607 31.5653 503.915 31.2573 504.274 31.0007L511.665 26.3301C512.229 25.9708 512.948 25.8168 513.615 25.9708C514.282 26.1247 514.847 26.5354 515.206 27.0999L519.877 34.4908C520.236 35.0554 520.39 35.774 520.236 36.4412C520.082 37.1084 519.671 37.673 519.107 38.0836L511.716 42.7542C511.1 43.1649 510.382 43.2675 509.714 43.1135ZM513.41 26.7407C512.948 26.638 512.435 26.7407 512.024 26.9973L504.633 31.6679C504.377 31.8219 504.171 32.0272 504.017 32.3351C503.709 32.8997 503.709 33.6183 504.069 34.2342L508.739 41.6251C508.996 42.0357 509.406 42.3436 509.868 42.4463C510.33 42.5489 510.843 42.4463 511.254 42.1897L518.645 37.519C519.056 37.2624 519.364 36.8518 519.466 36.3899C519.569 35.9279 519.466 35.4147 519.21 35.0041L514.539 27.6132C514.282 27.1513 513.872 26.8433 513.41 26.7407Z" fill="#5EC1A5"/>
<path d="M585.215 86.1757C583.162 85.2005 581.622 83.5067 580.903 81.3511L573.307 59.8969C572.281 56.9714 572.948 53.6865 575.001 51.3769C575.925 50.3504 577.157 49.5292 578.44 49.0672L599.894 41.4711C602.049 40.7012 604.359 40.8551 606.361 41.8303C608.363 42.8055 609.954 44.5506 610.723 46.6549L618.32 68.109C619.09 70.2647 618.936 72.5744 617.96 74.5761C616.985 76.6291 615.24 78.1689 613.136 78.9388L591.682 86.5349C589.577 87.3048 587.319 87.1508 585.215 86.1757ZM606.155 42.5489C604.256 41.625 602.152 41.5224 600.253 42.2409L578.748 49.7858C577.516 50.1964 576.438 50.915 575.617 51.8901C573.718 53.9945 573.102 56.9714 574.077 59.6403L581.673 81.0944C582.34 83.0448 583.778 84.5846 585.625 85.5084L585.471 85.8677L585.625 85.5084C587.524 86.381 589.577 86.5349 591.528 85.8164L612.982 78.2202C614.932 77.553 616.472 76.1158 617.396 74.2681C618.268 72.4204 618.422 70.316 617.704 68.3657L610.108 46.9116C609.389 45.0125 607.952 43.4214 606.155 42.5489ZM587.268 81.967C586.344 81.505 585.677 80.7865 585.317 79.8113L577.721 58.3572C577.259 57.0227 577.567 55.5856 578.491 54.5591C578.902 54.0972 579.415 53.7379 580.031 53.5326L601.485 45.9364C602.409 45.6284 603.487 45.6798 604.359 46.0904C605.283 46.501 605.95 47.3222 606.309 48.246L613.906 69.7001C614.265 70.624 614.162 71.6505 613.752 72.5744C613.29 73.4982 612.571 74.1655 611.596 74.5247L590.142 82.1209C589.218 82.4289 588.191 82.3776 587.268 81.967ZM604.102 46.8089C603.384 46.4496 602.563 46.3983 601.793 46.7063L580.339 54.3025C579.877 54.4564 579.466 54.7644 579.107 55.1237C578.337 55.9449 578.132 57.1254 578.491 58.1519L586.087 79.606C586.344 80.3759 586.908 80.9918 587.627 81.2997C588.346 81.659 589.167 81.7103 589.937 81.4024L611.391 73.8062C612.161 73.5496 612.777 72.985 613.084 72.2664C613.444 71.5479 613.495 70.7267 613.187 69.9568L605.642 48.5027C605.386 47.7841 604.821 47.1682 604.102 46.8089Z" fill="#5EC1A5"/>
<path d="M592.041 71.9584C591.425 71.6505 590.963 71.1372 590.707 70.47L587.781 62.2066C587.473 61.2827 587.678 60.3075 588.294 59.589C588.602 59.281 588.962 59.0244 589.372 58.8704L597.636 55.9448C598.303 55.7395 598.97 55.7395 599.637 56.0475C600.253 56.3554 600.715 56.8687 600.972 57.5359L603.897 65.7994C604.103 66.4666 604.103 67.1338 603.795 67.8011C603.487 68.417 602.974 68.8789 602.306 69.1355L594.043 72.0611C593.376 72.2664 592.708 72.2664 592.041 71.9584ZM599.329 56.8174C599.329 56.8174 599.329 56.766 599.329 56.8174C598.867 56.6121 598.354 56.5607 597.944 56.7661L589.68 59.6916C589.372 59.7943 589.116 59.9482 588.91 60.2049C588.448 60.7181 588.294 61.4367 588.551 62.0526L591.477 70.316C591.631 70.7779 591.99 71.1372 592.4 71.3425C592.862 71.5478 593.324 71.5992 593.786 71.3939L602.05 68.4683C602.512 68.3143 602.871 67.955 603.076 67.5444C603.282 67.0825 603.333 66.6206 603.128 66.1586L600.202 57.8952C600.099 57.382 599.74 57.0227 599.329 56.8174Z" fill="#5EC1A5"/>
<path d="M656.095 130.726C654.35 129.341 653.221 127.288 652.964 125.081L650.347 102.497C649.987 99.4177 651.373 96.3382 653.939 94.5418C655.069 93.7206 656.403 93.2587 657.84 93.0533L680.423 90.4357C682.682 90.1791 684.889 90.795 686.685 92.2321C688.43 93.6179 689.611 95.7223 689.816 97.9293L692.434 120.513C692.69 122.771 692.074 124.978 690.637 126.774C689.2 128.571 687.198 129.648 684.94 129.956L662.357 132.574C660.099 132.779 657.892 132.163 656.095 130.726ZM686.223 92.848C684.581 91.5649 682.579 91.0003 680.526 91.2056L657.943 93.8232C656.66 93.9772 655.428 94.4391 654.401 95.1577C652.092 96.8001 650.809 99.5717 651.168 102.395L653.785 124.978C654.042 127.031 655.017 128.827 656.66 130.11L656.403 130.418L656.66 130.11C658.302 131.394 660.304 131.958 662.357 131.753L684.94 129.135C686.993 128.879 688.841 127.903 690.124 126.261C691.407 124.619 691.972 122.617 691.766 120.564L689.149 97.9806C688.841 95.9789 687.814 94.1312 686.223 92.848ZM659.072 127.031C658.302 126.415 657.789 125.491 657.686 124.516L655.069 101.933C654.915 100.547 655.531 99.2124 656.66 98.3912C657.173 98.0319 657.738 97.8266 658.405 97.724L680.988 95.1064C681.963 95.0037 682.99 95.2603 683.76 95.8763C684.529 96.4922 685.043 97.416 685.145 98.3912L687.763 120.974C687.866 121.95 687.609 122.976 686.993 123.746C686.377 124.516 685.453 125.029 684.478 125.132L661.895 127.749C660.817 127.955 659.842 127.698 659.072 127.031ZM683.246 96.5435C682.63 96.0302 681.809 95.8249 681.039 95.9276L658.456 98.5452C657.943 98.5965 657.481 98.8018 657.07 99.0584C656.146 99.6743 655.684 100.752 655.787 101.881L658.405 124.465C658.507 125.286 658.867 125.953 659.534 126.466C660.15 126.98 660.971 127.185 661.741 127.082L684.324 124.465C685.145 124.362 685.813 123.951 686.326 123.335C686.839 122.72 687.044 121.898 686.942 121.128L684.324 98.5452C684.273 97.7753 683.914 97.0054 683.246 96.5435Z" fill="#5EC1A5"/>
<path d="M665.95 118.357C665.385 117.946 665.077 117.33 664.975 116.612L663.948 107.938C663.846 107.014 664.256 106.039 665.026 105.525C665.385 105.269 665.796 105.115 666.207 105.064L674.881 104.037C675.548 103.934 676.266 104.14 676.78 104.602C677.293 105.012 677.652 105.679 677.755 106.347L678.781 115.021C678.884 115.688 678.679 116.406 678.217 116.92C677.806 117.484 677.19 117.792 676.472 117.895L667.798 118.921C667.182 119.024 666.463 118.819 665.95 118.357ZM676.369 105.218C676.01 104.91 675.496 104.756 675.034 104.807L666.361 105.833C666.053 105.885 665.796 105.987 665.539 106.141C664.975 106.552 664.667 107.168 664.769 107.835L665.796 116.509C665.847 116.971 666.104 117.433 666.463 117.741C666.822 118.049 667.336 118.203 667.798 118.1L676.472 117.074C676.934 117.022 677.396 116.766 677.703 116.406C678.011 116.047 678.165 115.534 678.063 115.072L677.036 106.398C676.985 105.936 676.78 105.525 676.369 105.218Z" fill="#5EC1A5"/>
<path d="M715.274 189.956C713.888 188.211 713.221 186.004 713.477 183.746L715.941 161.111C716.3 157.98 718.302 155.363 721.176 154.182C722.459 153.669 723.896 153.464 725.282 153.618L747.917 156.081C750.175 156.338 752.177 157.416 753.614 159.212C755 160.957 755.667 163.215 755.41 165.422L752.947 188.057C752.69 190.315 751.612 192.317 749.816 193.754C748.019 195.191 745.812 195.807 743.554 195.551L720.92 193.087C718.764 192.83 716.711 191.701 715.274 189.956ZM753.049 159.725C751.766 158.083 749.919 157.108 747.865 156.851L725.231 154.387C723.948 154.233 722.665 154.439 721.484 154.901C718.867 155.978 717.019 158.391 716.711 161.214L714.247 183.848C714.042 185.901 714.607 187.903 715.89 189.494L715.582 189.751L715.89 189.494C717.173 191.137 719.021 192.112 721.074 192.368L743.708 194.832C745.761 195.037 747.763 194.473 749.405 193.19C750.996 191.906 752.023 190.059 752.228 188.006L754.692 165.371C754.948 163.369 754.333 161.265 753.049 159.725ZM718.969 187.03C718.353 186.261 718.045 185.234 718.148 184.259L720.612 161.624C720.766 160.239 721.638 159.058 722.921 158.545C723.537 158.288 724.102 158.237 724.769 158.288L747.404 160.752C748.379 160.854 749.303 161.368 749.919 162.138C750.534 162.907 750.842 163.934 750.74 164.909L748.276 187.544C748.173 188.57 747.66 189.443 746.89 190.059C746.12 190.675 745.094 190.983 744.119 190.88L721.484 188.416C720.509 188.262 719.636 187.8 718.969 187.03ZM749.405 162.651C748.892 162.035 748.173 161.624 747.404 161.522L724.769 159.058C724.256 159.007 723.794 159.058 723.332 159.263C722.305 159.674 721.587 160.649 721.484 161.727L719.021 184.362C718.918 185.183 719.175 185.953 719.636 186.569C720.15 187.184 720.868 187.595 721.638 187.698L744.273 190.161C745.094 190.264 745.864 190.007 746.48 189.494C747.096 188.981 747.506 188.262 747.609 187.492L750.073 164.858C750.124 164.037 749.867 163.267 749.405 162.651Z" fill="#5EC1A5"/>
<path d="M727.643 180.05C727.233 179.486 727.027 178.818 727.079 178.151L728.054 169.426C728.156 168.502 728.772 167.681 729.645 167.321C730.055 167.167 730.466 167.116 730.877 167.168L739.602 168.143C740.269 168.194 740.885 168.553 741.347 169.118C741.758 169.631 741.963 170.35 741.912 171.017L740.936 179.742C740.885 180.41 740.526 181.025 739.961 181.487C739.397 181.898 738.729 182.103 738.062 182.052L729.337 181.077C728.67 180.974 728.054 180.615 727.643 180.05ZM740.731 169.58C740.423 169.221 739.961 168.964 739.499 168.913L730.774 167.937C730.466 167.886 730.158 167.937 729.901 168.04C729.286 168.297 728.824 168.861 728.772 169.528L727.797 178.254C727.746 178.716 727.9 179.229 728.208 179.588C728.516 179.948 728.926 180.204 729.44 180.256L738.165 181.231C738.627 181.282 739.14 181.128 739.499 180.82C739.859 180.512 740.115 180.102 740.167 179.588L741.142 170.863C741.193 170.452 741.039 169.939 740.731 169.58Z" fill="#5EC1A5"/>
<path d="M759.824 260.837C758.849 258.784 758.695 256.525 759.465 254.37L766.907 232.864C767.934 229.887 770.5 227.783 773.579 227.27C774.965 227.064 776.402 227.167 777.737 227.629L799.242 235.071C801.398 235.79 803.092 237.33 804.118 239.383C805.093 241.384 805.247 243.745 804.478 245.85L797.035 267.355C796.317 269.511 794.777 271.205 792.724 272.231C790.671 273.206 788.361 273.36 786.257 272.59L764.751 265.148C762.544 264.43 760.851 262.89 759.824 260.837ZM803.4 239.742C802.476 237.843 800.936 236.457 798.986 235.79L777.48 228.348C776.248 227.937 774.965 227.834 773.733 228.04C770.911 228.502 768.601 230.452 767.677 233.121L760.235 254.626C759.568 256.577 759.67 258.681 760.594 260.529L760.235 260.683L760.594 260.529C761.518 262.376 763.058 263.814 765.008 264.481L786.514 271.923C788.464 272.59 790.568 272.488 792.416 271.564C794.264 270.64 795.649 269.1 796.368 267.15L803.81 245.644C804.375 243.745 804.272 241.59 803.4 239.742ZM764.084 258.784C763.622 257.86 763.571 256.833 763.93 255.909L771.373 234.404C771.834 233.07 772.964 232.146 774.349 231.94C774.965 231.838 775.581 231.889 776.197 232.094L797.702 239.537C798.626 239.845 799.448 240.563 799.858 241.436C800.269 242.36 800.371 243.386 800.012 244.31L792.57 265.815C792.262 266.791 791.543 267.509 790.671 267.971C789.747 268.433 788.721 268.484 787.797 268.125L766.291 260.683C765.265 260.375 764.495 259.708 764.084 258.784ZM799.14 241.795C798.78 241.076 798.164 240.512 797.395 240.255L775.889 232.813C775.427 232.659 774.914 232.608 774.401 232.659C773.323 232.813 772.399 233.583 772.04 234.661L764.597 256.166C764.341 256.936 764.392 257.757 764.751 258.476C765.111 259.194 765.727 259.759 766.497 260.016L788.002 267.458C788.772 267.714 789.593 267.663 790.312 267.304C791.03 266.944 791.595 266.329 791.851 265.559L799.294 244.053C799.55 243.335 799.499 242.513 799.14 241.795Z" fill="#5EC1A5"/>
<path d="M774.041 253.959C773.733 253.343 773.682 252.625 773.939 252.009L776.813 243.745C777.121 242.821 777.891 242.206 778.866 242.052C779.277 242 779.739 242 780.149 242.154L788.413 245.028C789.08 245.234 789.593 245.747 789.901 246.363C790.209 246.979 790.26 247.697 790.004 248.313L787.129 256.577C786.924 257.244 786.411 257.757 785.795 258.065C785.179 258.373 784.46 258.424 783.793 258.168L775.53 255.294C774.863 255.037 774.349 254.575 774.041 253.959ZM789.182 246.62C788.977 246.158 788.566 245.85 788.156 245.696L779.892 242.821C779.585 242.719 779.277 242.719 779.02 242.719C778.353 242.821 777.788 243.283 777.583 243.951L774.709 252.214C774.555 252.676 774.555 253.189 774.811 253.6C775.017 254.062 775.376 254.37 775.838 254.524L784.101 257.398C784.563 257.552 785.076 257.552 785.487 257.295C785.949 257.09 786.257 256.731 786.411 256.269L789.285 248.005C789.388 247.543 789.388 247.081 789.182 246.62Z" fill="#5EC1A5"/>
<path d="M787.489 339.827C786.976 337.62 787.386 335.362 788.567 333.463L800.628 314.164C802.271 311.495 805.247 310.007 808.378 310.212C809.764 310.315 811.15 310.725 812.33 311.495L831.629 323.557C833.528 324.737 834.914 326.636 835.427 328.843C835.94 331.05 835.529 333.36 834.349 335.259L822.287 354.557C821.107 356.456 819.208 357.842 817.001 358.355C814.794 358.869 812.536 358.458 810.585 357.278L791.287 345.216C789.336 343.933 788.002 342.085 787.489 339.827ZM834.606 328.997C834.144 326.944 832.912 325.25 831.167 324.173L811.868 312.111C810.791 311.444 809.559 311.033 808.276 310.931C805.453 310.725 802.732 312.162 801.244 314.575L789.182 333.873C788.105 335.618 787.745 337.671 788.207 339.673L787.848 339.776L788.207 339.673C788.669 341.726 789.901 343.42 791.646 344.498L810.945 356.559C812.69 357.637 814.743 357.996 816.796 357.534C818.797 357.072 820.491 355.84 821.62 354.095L833.682 334.797C834.708 333.103 835.068 330.948 834.606 328.997ZM792.057 338.8C791.851 337.825 792.005 336.799 792.519 335.977L804.58 316.679C805.299 315.499 806.633 314.831 808.019 314.934C808.635 314.985 809.251 315.191 809.764 315.499L829.062 327.56C829.884 328.073 830.5 328.946 830.756 329.921C830.962 330.896 830.808 331.923 830.294 332.744L818.233 352.042C817.719 352.915 816.847 353.479 815.872 353.736C814.897 353.941 813.87 353.787 812.998 353.274L793.699 341.213C792.878 340.597 792.313 339.776 792.057 338.8ZM830.038 330.024C829.832 329.254 829.37 328.535 828.703 328.125L809.405 316.063C808.994 315.806 808.481 315.653 808.019 315.601C806.89 315.55 805.863 316.063 805.247 317.038L793.186 336.337C792.775 337.004 792.621 337.825 792.827 338.595C793.032 339.365 793.494 340.032 794.161 340.494L813.46 352.556C814.127 352.966 814.948 353.12 815.718 352.915C816.488 352.71 817.155 352.248 817.566 351.58L829.627 332.282C830.038 331.615 830.192 330.794 830.038 330.024Z" fill="#5EC1A5"/>
<path d="M802.835 336.285C802.681 335.618 802.784 334.9 803.143 334.335L807.762 326.893C808.275 326.072 809.148 325.61 810.123 325.661C810.534 325.712 810.944 325.815 811.355 326.072L818.797 330.691C819.362 331.05 819.772 331.615 819.926 332.282C820.08 332.949 819.978 333.668 819.618 334.232L814.999 341.675C814.64 342.239 814.075 342.65 813.408 342.804C812.741 342.958 812.022 342.855 811.458 342.496L804.015 337.876C803.4 337.568 802.989 337.004 802.835 336.285ZM819.259 332.539C819.208 332.539 819.208 332.539 819.259 332.539C819.156 332.077 818.848 331.666 818.438 331.409L810.996 326.79C810.739 326.636 810.431 326.534 810.123 326.534C809.456 326.482 808.789 326.841 808.429 327.406L803.81 334.848C803.553 335.259 803.451 335.772 803.553 336.234C803.656 336.696 803.964 337.107 804.375 337.363L811.817 341.982C812.227 342.239 812.741 342.342 813.203 342.239C813.665 342.136 814.075 341.828 814.332 341.418L818.951 333.976C819.259 333.514 819.362 333.001 819.259 332.539Z" fill="#5EC1A5"/>
<path d="M796.83 423.026C796.83 420.767 797.703 418.663 799.294 417.02L815.359 400.904C817.566 398.697 820.799 397.876 823.776 398.749C825.11 399.159 826.342 399.878 827.369 400.853L843.485 416.918C845.076 418.509 846 420.665 846 422.923C846 425.181 845.076 427.337 843.536 428.928L827.471 445.044C825.88 446.635 823.725 447.559 821.466 447.559C819.208 447.559 817.052 446.687 815.461 445.096L799.345 429.031C797.703 427.44 796.83 425.335 796.83 423.026ZM845.23 422.923C845.23 420.819 844.409 418.92 842.972 417.431L826.856 401.366C825.932 400.442 824.802 399.775 823.622 399.416C820.902 398.595 817.976 399.364 815.923 401.366L799.858 417.482C798.421 418.92 797.6 420.87 797.6 422.923H797.241H797.6C797.6 425.027 798.421 426.926 799.858 428.415L815.975 444.48C817.412 445.917 819.362 446.738 821.466 446.738C823.519 446.738 825.47 445.917 826.907 444.48L842.972 428.363C844.409 426.978 845.23 424.976 845.23 422.923ZM801.552 423.026C801.552 421.999 801.963 421.075 802.63 420.357L818.695 404.24C819.67 403.265 821.107 402.906 822.442 403.265C823.057 403.471 823.571 403.778 824.033 404.189L840.149 420.254C840.867 420.973 841.278 421.948 841.278 422.923C841.278 423.898 840.867 424.873 840.2 425.592L824.135 441.708C823.417 442.427 822.493 442.837 821.466 442.837C820.44 442.837 819.516 442.427 818.797 441.759L802.681 425.695C801.963 424.976 801.552 424.052 801.552 423.026ZM840.508 422.923C840.508 422.102 840.2 421.332 839.636 420.767L823.519 404.702C823.16 404.343 822.749 404.086 822.236 403.932C821.158 403.625 820.029 403.932 819.259 404.702L803.194 420.819C802.63 421.383 802.322 422.153 802.322 422.923C802.322 423.744 802.63 424.514 803.194 425.079L819.311 441.144C819.875 441.708 820.645 442.016 821.466 442.016C822.288 442.016 823.006 441.708 823.571 441.144L839.636 425.027C840.2 424.514 840.508 423.744 840.508 422.923Z" fill="#5EC1A5"/>
<path d="M812.639 423.026C812.639 422.358 812.895 421.691 813.409 421.178L819.568 414.968C820.235 414.3 821.21 414.044 822.134 414.3C822.544 414.403 822.904 414.66 823.212 414.968L829.422 421.127C829.935 421.64 830.192 422.256 830.192 422.974C830.192 423.642 829.935 424.309 829.422 424.822L823.263 431.032C822.75 431.546 822.134 431.802 821.415 431.802C820.697 431.802 820.081 431.546 819.568 431.032L813.357 424.873C812.895 424.36 812.639 423.693 812.639 423.026ZM829.422 422.974C829.422 422.461 829.217 421.999 828.858 421.691L822.647 415.532C822.442 415.327 822.185 415.173 821.877 415.07C821.21 414.865 820.543 415.07 820.081 415.532L813.922 421.743C813.563 422.102 813.409 422.564 813.409 423.026C813.409 423.539 813.614 423.95 813.973 424.309L820.183 430.468C820.543 430.827 821.005 430.981 821.467 430.981C821.98 430.981 822.39 430.776 822.75 430.417L828.909 424.206C829.217 423.898 829.422 423.436 829.422 422.974Z" fill="#5EC1A5"/>
<path d="M787.437 506.224C787.951 504.017 789.285 502.17 791.184 500.938L810.431 488.774C813.049 487.08 816.385 487.029 819.105 488.568C820.337 489.236 821.364 490.262 822.133 491.443L834.298 510.69C835.529 512.589 835.889 514.898 835.427 517.105C834.914 519.312 833.579 521.212 831.68 522.392L812.433 534.556C810.534 535.788 808.224 536.147 806.017 535.685C803.81 535.172 801.911 533.838 800.731 531.939L788.566 512.691C787.335 510.741 786.924 508.431 787.437 506.224ZM834.657 516.9C835.119 514.847 834.76 512.794 833.63 511.049L821.466 491.802C820.799 490.724 819.824 489.8 818.746 489.184C816.282 487.798 813.254 487.85 810.842 489.39L791.595 501.554C789.85 502.632 788.669 504.377 788.207 506.378L787.848 506.276L788.207 506.378C787.745 508.431 788.105 510.484 789.234 512.23L801.398 531.477C802.476 533.222 804.221 534.402 806.223 534.864C808.224 535.326 810.329 534.967 812.074 533.838L831.321 521.673C832.963 520.647 834.195 518.902 834.657 516.9ZM792.057 507.302C792.262 506.327 792.878 505.506 793.699 504.941L812.946 492.777C814.127 492.059 815.615 492.007 816.796 492.674C817.36 492.982 817.771 493.393 818.13 493.958L830.294 513.205C830.807 514.026 831.013 515.104 830.807 516.028C830.602 517.003 829.986 517.875 829.165 518.389L809.918 530.553C809.045 531.066 808.07 531.271 807.095 531.066C806.12 530.861 805.247 530.245 804.734 529.424L792.57 510.177C792.005 509.253 791.8 508.277 792.057 507.302ZM830.038 515.874C830.192 515.104 830.089 514.283 829.627 513.615L817.463 494.368C817.206 493.958 816.847 493.598 816.385 493.342C815.41 492.777 814.229 492.828 813.305 493.444L794.058 505.608C793.391 506.019 792.929 506.686 792.724 507.508C792.57 508.277 792.673 509.099 793.134 509.766L805.299 529.013C805.709 529.68 806.376 530.142 807.198 530.348C807.968 530.502 808.789 530.399 809.456 529.937L828.703 517.773C829.37 517.311 829.884 516.644 830.038 515.874Z" fill="#5EC1A5"/>
<path d="M802.835 509.715C802.989 509.047 803.399 508.483 803.964 508.124L811.355 503.453C812.176 502.94 813.203 502.94 814.024 503.402C814.383 503.607 814.691 503.915 814.948 504.274L819.618 511.665C819.978 512.23 820.132 512.948 819.978 513.615C819.824 514.283 819.413 514.847 818.848 515.206L811.458 519.877C810.893 520.236 810.174 520.39 809.507 520.236C808.84 520.082 808.275 519.672 807.865 519.107L803.194 511.716C802.835 511.1 802.681 510.382 802.835 509.715ZM819.259 513.41C819.362 512.948 819.259 512.435 819.002 512.024L814.332 504.633C814.178 504.377 813.973 504.171 813.665 504.017C813.1 503.71 812.381 503.71 811.765 504.069L804.375 508.739C803.964 508.996 803.656 509.407 803.553 509.869C803.451 510.331 803.553 510.844 803.81 511.254L808.481 518.645C808.737 519.056 809.148 519.364 809.61 519.466C810.072 519.569 810.585 519.466 810.996 519.21L818.387 514.539C818.848 514.283 819.156 513.872 819.259 513.41Z" fill="#5EC1A5"/>
<path d="M759.773 585.215C760.748 583.162 762.442 581.622 764.597 580.903L786.052 573.307C788.977 572.281 792.262 572.948 794.572 575.001C795.598 575.925 796.419 577.156 796.881 578.44L804.477 599.894C805.247 602.049 805.093 604.359 804.118 606.361C803.143 608.362 801.398 609.954 799.294 610.723L777.839 618.32C775.684 619.089 773.374 618.936 771.372 617.96C769.319 616.985 767.78 615.24 767.01 613.136L759.414 591.682C758.695 589.577 758.798 587.319 759.773 585.215ZM803.4 606.155C804.323 604.256 804.426 602.152 803.708 600.253L796.111 578.799C795.701 577.567 794.982 576.489 794.007 575.668C791.903 573.769 788.926 573.153 786.257 574.128L764.803 581.724C762.852 582.392 761.313 583.829 760.389 585.677L760.03 585.523L760.389 585.677C759.516 587.576 759.362 589.629 760.081 591.579L767.677 613.033C768.344 614.983 769.781 616.523 771.629 617.447C773.477 618.32 775.581 618.474 777.532 617.755L798.986 610.159C800.936 609.389 802.527 607.952 803.4 606.155ZM764.033 587.268C764.495 586.344 765.213 585.677 766.189 585.317L787.643 577.721C788.977 577.259 790.414 577.567 791.441 578.491C791.903 578.902 792.262 579.415 792.467 580.031L800.063 601.485C800.371 602.409 800.32 603.487 799.909 604.359C799.499 605.283 798.678 605.95 797.754 606.309L776.3 613.906C775.376 614.265 774.349 614.162 773.426 613.752C772.502 613.29 771.834 612.571 771.475 611.596L763.879 590.142C763.52 589.218 763.622 588.191 764.033 587.268ZM799.191 604.102C799.55 603.384 799.602 602.563 799.294 601.793L791.697 580.339C791.543 579.877 791.235 579.466 790.876 579.107C790.055 578.337 788.874 578.132 787.848 578.491L766.394 586.087C765.624 586.344 765.008 586.908 764.7 587.627C764.341 588.345 764.29 589.167 764.597 589.937L772.194 611.391C772.45 612.161 773.015 612.776 773.733 613.084C774.452 613.444 775.273 613.495 776.043 613.187L797.497 605.591C798.216 605.386 798.832 604.821 799.191 604.102Z" fill="#5EC1A5"/>
<path d="M774.041 592.041C774.349 591.425 774.863 590.963 775.53 590.706L783.793 587.781C784.717 587.473 785.692 587.678 786.411 588.294C786.719 588.602 786.975 588.961 787.129 589.372L790.055 597.635C790.26 598.303 790.26 598.97 789.952 599.637C789.644 600.253 789.131 600.715 788.464 600.972L780.2 603.897C779.533 604.102 778.866 604.103 778.199 603.795C777.583 603.487 777.121 602.973 776.864 602.306L773.939 594.043C773.682 593.375 773.733 592.708 774.041 592.041ZM789.182 599.329C789.388 598.867 789.439 598.354 789.234 597.943L786.308 589.68C786.206 589.372 786.052 589.115 785.795 588.91C785.282 588.448 784.563 588.294 783.947 588.551L775.684 591.476C775.222 591.63 774.863 591.99 774.657 592.4C774.452 592.862 774.401 593.324 774.606 593.786L777.532 602.049C777.686 602.511 778.045 602.871 778.455 603.076C778.917 603.281 779.379 603.333 779.841 603.127L788.105 600.202C788.618 600.099 788.977 599.74 789.182 599.329Z" fill="#5EC1A5"/>
<path d="M715.222 656.095C716.608 654.35 718.661 653.221 720.868 652.964L743.451 650.347C746.531 649.987 749.61 651.373 751.407 653.939C752.228 655.069 752.69 656.403 752.895 657.84L755.513 680.423C755.769 682.682 755.153 684.889 753.716 686.685C752.331 688.43 750.226 689.611 748.019 689.816L725.436 692.434C723.178 692.69 720.971 692.074 719.174 690.637C717.378 689.2 716.3 687.199 715.992 684.94L713.374 662.357C713.169 660.099 713.836 657.892 715.222 656.095ZM753.152 686.223C754.435 684.581 754.999 682.579 754.794 680.526L752.177 657.943C752.023 656.66 751.561 655.428 750.842 654.401C749.2 652.092 746.428 650.809 743.605 651.168L721.022 653.785C718.969 654.042 717.172 655.017 715.889 656.66L715.581 656.403L715.889 656.66C714.606 658.302 714.042 660.304 714.247 662.357L716.864 684.94C717.121 686.993 718.096 688.841 719.739 690.124C721.381 691.407 723.383 691.972 725.436 691.767L748.019 689.149C749.97 688.841 751.869 687.814 753.152 686.223ZM718.918 659.072C719.533 658.302 720.457 657.789 721.432 657.686L744.016 655.069C745.402 654.915 746.736 655.531 747.557 656.66C747.917 657.173 748.122 657.738 748.225 658.405L750.842 680.988C750.945 681.963 750.688 682.99 750.072 683.76C749.456 684.53 748.532 685.043 747.557 685.145L724.974 687.763C723.999 687.866 722.972 687.609 722.202 686.993C721.432 686.377 720.919 685.453 720.817 684.478L718.199 661.895C717.994 660.817 718.302 659.842 718.918 659.072ZM749.456 683.246C749.97 682.63 750.175 681.809 750.072 681.039L747.455 658.456C747.403 657.943 747.198 657.481 746.941 657.07C746.325 656.146 745.248 655.684 744.118 655.787L721.535 658.405C720.714 658.507 720.047 658.867 719.533 659.534C719.02 660.15 718.815 660.971 718.918 661.741L721.535 684.324C721.638 685.145 722.048 685.813 722.664 686.326C723.28 686.839 724.101 687.045 724.871 686.942L747.455 684.324C748.225 684.273 748.943 683.914 749.456 683.246Z" fill="#5EC1A5"/>
<path d="M727.592 665.95C728.002 665.385 728.618 665.077 729.337 664.974L738.011 663.948C738.935 663.845 739.91 664.256 740.423 665.026C740.68 665.385 740.834 665.796 740.885 666.206L741.912 674.88C742.014 675.548 741.809 676.266 741.347 676.779C740.937 677.293 740.269 677.652 739.602 677.755L730.928 678.781C730.261 678.884 729.542 678.679 729.029 678.217C728.464 677.806 728.156 677.19 728.054 676.471L727.027 667.797C726.976 667.181 727.181 666.463 727.592 665.95ZM740.783 676.369C741.091 676.01 741.244 675.496 741.193 675.034L740.167 666.36C740.115 666.052 740.013 665.796 739.859 665.539C739.448 664.974 738.832 664.666 738.165 664.769L729.491 665.796C729.029 665.847 728.567 666.104 728.259 666.463C727.951 666.822 727.797 667.335 727.9 667.797L728.926 676.471C728.978 676.933 729.234 677.395 729.594 677.703C729.953 678.011 730.466 678.165 730.928 678.063L739.602 677.036C740.013 676.985 740.475 676.779 740.783 676.369Z" fill="#5EC1A5"/>
<path d="M656.044 715.274C657.789 713.888 659.996 713.221 662.254 713.477L684.889 715.941C688.02 716.3 690.637 718.302 691.818 721.176C692.331 722.459 692.536 723.896 692.382 725.282L689.919 747.917C689.662 750.175 688.584 752.177 686.788 753.614C685.043 755 682.784 755.667 680.577 755.41L657.943 752.947C655.685 752.69 653.683 751.612 652.246 749.816C650.809 748.019 650.193 745.812 650.449 743.554L652.913 720.919C653.118 718.764 654.247 716.711 656.044 715.274ZM686.275 753.049C687.917 751.766 688.892 749.919 689.149 747.865L691.612 725.231C691.766 723.948 691.561 722.665 691.099 721.484C690.021 718.866 687.609 717.019 684.786 716.711L662.152 714.247C660.099 714.042 658.097 714.606 656.506 715.89L656.249 715.582L656.506 715.89C654.863 717.173 653.888 719.02 653.632 721.073L651.168 743.708C650.963 745.761 651.527 747.763 652.81 749.405C654.093 750.996 655.941 752.023 657.994 752.228L680.629 754.692C682.63 754.948 684.684 754.333 686.275 753.049ZM658.969 718.969C659.739 718.353 660.766 718.045 661.741 718.148L684.376 720.612C685.761 720.766 686.942 721.638 687.455 722.921C687.712 723.537 687.763 724.102 687.712 724.769L685.248 747.404C685.145 748.379 684.632 749.303 683.862 749.919C683.092 750.534 682.066 750.842 681.091 750.74L658.456 748.276C657.43 748.173 656.557 747.66 655.941 746.89C655.325 746.12 655.017 745.094 655.12 744.119L657.584 721.484C657.686 720.509 658.2 719.636 658.969 718.969ZM683.349 749.405C683.965 748.892 684.376 748.173 684.478 747.404L686.942 724.769C686.993 724.256 686.942 723.794 686.737 723.332C686.326 722.305 685.351 721.587 684.273 721.484L661.638 719.02C660.817 718.918 660.047 719.174 659.431 719.636C658.815 720.15 658.405 720.868 658.302 721.638L655.839 744.273C655.736 745.094 655.992 745.864 656.506 746.48C657.019 747.096 657.738 747.506 658.507 747.609L681.142 750.073C681.912 750.124 682.733 749.867 683.349 749.405Z" fill="#5EC1A5"/>
<path d="M665.898 727.643C666.463 727.233 667.13 727.027 667.797 727.079L676.523 728.054C677.446 728.156 678.268 728.772 678.627 729.645C678.781 730.055 678.832 730.466 678.781 730.877L677.806 739.602C677.754 740.269 677.395 740.885 676.83 741.347C676.317 741.758 675.599 741.963 674.931 741.912L666.206 740.936C665.539 740.885 664.923 740.526 664.461 739.961C664.05 739.397 663.845 738.729 663.896 738.062L664.872 729.337C665.026 728.67 665.385 728.054 665.898 727.643ZM676.42 740.731C676.779 740.423 677.036 739.961 677.087 739.499L678.062 730.774C678.114 730.466 678.062 730.158 677.96 729.901C677.703 729.286 677.138 728.824 676.471 728.772L667.746 727.797C667.284 727.746 666.771 727.9 666.411 728.208C666.052 728.516 665.795 728.926 665.744 729.44L664.769 738.165C664.718 738.627 664.872 739.14 665.18 739.499C665.488 739.859 665.898 740.115 666.411 740.166L675.137 741.142C675.547 741.193 676.061 741.039 676.42 740.731Z" fill="#5EC1A5"/>
<path d="M585.163 759.824C587.216 758.849 589.475 758.695 591.63 759.465L613.136 766.907C616.113 767.934 618.217 770.5 618.73 773.579C618.936 774.965 618.833 776.402 618.371 777.737L610.929 799.242C610.21 801.398 608.67 803.092 606.617 804.118C604.616 805.093 602.255 805.247 600.15 804.477L578.645 797.035C576.489 796.317 574.796 794.777 573.769 792.724C572.794 790.671 572.64 788.361 573.41 786.257L580.852 764.751C581.571 762.544 583.11 760.851 585.163 759.824ZM606.207 803.4C608.106 802.476 609.492 800.936 610.159 798.986L617.601 777.48C618.012 776.248 618.114 774.965 617.909 773.733C617.447 770.911 615.497 768.601 612.828 767.677L591.322 760.235C589.372 759.568 587.268 759.67 585.42 760.594L585.266 760.235L585.42 760.594C583.572 761.518 582.135 763.058 581.468 765.008L574.026 786.514C573.358 788.464 573.461 790.568 574.385 792.416C575.309 794.264 576.849 795.649 578.799 796.368L600.304 803.81C602.255 804.375 604.41 804.272 606.207 803.4ZM587.165 764.084C588.089 763.622 589.115 763.571 590.039 763.93L611.545 771.372C612.879 771.834 613.803 772.964 614.008 774.349C614.111 774.965 614.06 775.581 613.854 776.197L606.412 797.702C606.104 798.626 605.386 799.448 604.513 799.858C603.589 800.269 602.563 800.371 601.639 800.012L580.133 792.57C579.158 792.262 578.44 791.543 577.978 790.671C577.516 789.747 577.465 788.721 577.824 787.797L585.266 766.291C585.625 765.265 586.293 764.495 587.165 764.084ZM604.205 799.14C604.924 798.78 605.488 798.164 605.745 797.395L613.187 775.889C613.341 775.427 613.392 774.914 613.341 774.401C613.187 773.323 612.417 772.399 611.339 772.04L589.834 764.597C589.064 764.341 588.243 764.392 587.524 764.751C586.806 765.111 586.241 765.727 585.985 766.497L578.542 788.002C578.286 788.772 578.337 789.593 578.696 790.312C579.056 791.03 579.672 791.595 580.441 791.851L601.947 799.294C602.614 799.55 603.487 799.499 604.205 799.14Z" fill="#5EC1A5"/>
<path d="M592.041 774.041C592.657 773.734 593.375 773.682 593.991 773.939L602.255 776.813C603.179 777.121 603.794 777.891 603.948 778.866C604 779.277 604 779.739 603.846 780.149L600.972 788.413C600.766 789.08 600.253 789.593 599.637 789.901C599.021 790.209 598.303 790.26 597.687 790.004L589.423 787.129C588.756 786.924 588.243 786.411 587.935 785.795C587.627 785.179 587.576 784.461 587.832 783.793L590.707 775.53C590.912 774.863 591.374 774.349 592.041 774.041ZM599.329 789.183C599.791 788.977 600.099 788.567 600.253 788.156L603.127 779.893C603.23 779.585 603.23 779.277 603.23 779.02C603.127 778.353 602.665 777.788 601.998 777.583L593.735 774.709C593.273 774.555 592.759 774.555 592.349 774.811C591.887 775.017 591.579 775.376 591.425 775.838L588.551 784.101C588.397 784.563 588.397 785.076 588.653 785.487C588.859 785.949 589.218 786.257 589.68 786.411L597.943 789.285C598.405 789.388 598.919 789.388 599.329 789.183Z" fill="#5EC1A5"/>
<path d="M506.122 787.489C508.329 786.976 510.587 787.386 512.486 788.567L531.785 800.628C534.454 802.271 535.942 805.247 535.737 808.378C535.634 809.764 535.224 811.15 534.454 812.33L522.392 831.629C521.212 833.528 519.313 834.914 517.106 835.427C514.899 835.94 512.589 835.53 510.69 834.349L491.391 822.288C489.492 821.107 488.107 819.208 487.593 817.001C487.08 814.794 487.491 812.536 488.671 810.585L500.733 791.287C502.016 789.336 503.915 788.002 506.122 787.489ZM517.003 834.606C519.056 834.144 520.75 832.912 521.828 831.167L533.889 811.868C534.556 810.791 534.967 809.559 535.07 808.276C535.275 805.453 533.838 802.732 531.425 801.244L512.127 789.182C510.382 788.105 508.329 787.745 506.327 788.207L506.224 787.848L506.327 788.207C504.274 788.669 502.58 789.901 501.503 791.646L489.441 810.945C488.363 812.69 488.004 814.743 488.466 816.796C488.928 818.797 490.16 820.491 491.905 821.62L511.203 833.682C512.897 834.708 515.001 835.068 517.003 834.606ZM507.148 792.057C508.124 791.851 509.15 792.005 509.971 792.519L529.27 804.58C530.45 805.299 531.117 806.633 531.015 808.019C530.963 808.635 530.758 809.251 530.45 809.764L518.389 829.063C517.875 829.884 517.003 830.5 516.028 830.756C515.053 830.962 514.026 830.808 513.205 830.294L493.906 818.233C493.034 817.72 492.469 816.847 492.213 815.872C492.007 814.897 492.161 813.87 492.675 812.998L504.736 793.699C505.352 792.878 506.173 792.313 507.148 792.057ZM515.925 830.038C516.695 829.832 517.414 829.37 517.824 828.703L529.886 809.405C530.142 808.994 530.296 808.481 530.348 808.019C530.399 806.89 529.886 805.863 528.91 805.247L509.612 793.186C508.945 792.775 508.124 792.621 507.354 792.827C506.584 793.032 505.917 793.494 505.455 794.161L493.393 813.46C492.982 814.127 492.828 814.948 493.034 815.718C493.239 816.488 493.701 817.155 494.368 817.566L513.667 829.627C514.334 830.038 515.155 830.192 515.925 830.038Z" fill="#5EC1A5"/>
<path d="M509.663 802.835C510.331 802.681 511.049 802.784 511.614 803.143L519.056 807.762C519.877 808.276 520.339 809.148 520.288 810.123C520.236 810.534 520.134 810.945 519.877 811.355L515.258 818.797C514.899 819.362 514.334 819.773 513.667 819.927C512.999 820.081 512.281 819.978 511.716 819.619L504.274 814.999C503.71 814.64 503.299 814.075 503.145 813.408C502.991 812.741 503.094 812.022 503.453 811.458L508.072 804.016C508.432 803.4 508.996 802.989 509.663 802.835ZM513.461 819.259C513.461 819.208 513.461 819.208 513.461 819.259C513.923 819.157 514.334 818.849 514.591 818.438L519.21 810.996C519.364 810.739 519.466 810.431 519.466 810.123C519.518 809.456 519.159 808.789 518.594 808.43L511.152 803.81C510.741 803.554 510.228 803.451 509.766 803.554C509.304 803.656 508.893 803.964 508.637 804.375L504.018 811.817C503.761 812.228 503.658 812.741 503.761 813.203C503.864 813.665 504.171 814.075 504.582 814.332L512.024 818.951C512.486 819.259 513 819.362 513.461 819.259Z" fill="#5EC1A5"/>
</svg>
