<svg width="51" height="97" viewBox="0 0 51 97" fill="none" xmlns="http://www.w3.org/2000/svg">
<path d="M2.50221 96.6L0.281926 94.3543L46.4498 48.3877L0.105713 2.2457L2.326 0L50.9256 48.3877L2.50221 96.6Z" fill="#B98027"/>
<path d="M1.86786 77.9327L0.176213 76.2484L28.1941 48.3877L0 20.3165L1.69165 18.6673L31.5421 48.3877L1.86786 77.9327Z" fill="#B98027"/>
<path d="M1.86786 69.1604L0.176213 67.5112L19.3834 48.3877L0 29.0888L1.69165 27.4396L22.7315 48.3877L1.86786 69.1604Z" fill="#B98027"/>
<path d="M1.86786 60.3882L0.176213 58.739L10.5728 48.3877L0 37.861L1.69165 36.1768L13.9208 48.3877L1.86786 60.3882Z" fill="#B98027"/>
<path d="M38.6611 46.7035L36.9695 48.3877L38.6611 50.072L40.3528 48.3877L38.6611 46.7035Z" fill="#B98027"/>
<path d="M32.7756 40.8436L31.084 42.5279L32.7756 44.2121L34.4673 42.5279L32.7756 40.8436Z" fill="#B98027"/>
<path d="M26.8901 34.9837L25.1985 36.668L26.8901 38.3523L28.5818 36.668L26.8901 34.9837Z" fill="#B98027"/>
<path d="M21.0046 29.1239L19.313 30.8081L21.0046 32.4924L22.661 30.8081L21.0046 29.1239Z" fill="#B98027"/>
<path d="M15.1191 23.264L13.4275 24.9483L15.1191 26.5975L16.7755 24.9483L15.1191 23.264Z" fill="#B98027"/>
<path d="M9.19839 17.4041L7.54199 19.0884L9.19839 20.7376L10.89 19.0884L9.19839 17.4041Z" fill="#B98027"/>
<path d="M32.7756 55.9319L31.084 54.2476L32.7756 52.5984L34.4673 54.2476L32.7756 55.9319Z" fill="#B98027"/>
<path d="M26.8901 61.7917L25.1985 60.1074L26.8901 58.4583L28.5818 60.1074L26.8901 61.7917Z" fill="#B98027"/>
<path d="M21.0046 67.6516L19.313 66.0024L21.0046 64.3181L22.661 66.0024L21.0046 67.6516Z" fill="#B98027"/>
<path d="M15.1191 73.5114L13.4275 71.8623L15.1191 70.178L16.7755 71.8623L15.1191 73.5114Z" fill="#B98027"/>
<path d="M9.19839 79.3713L7.54199 77.7221L9.19839 76.0379L10.89 77.7221L9.19839 79.3713Z" fill="#B98027"/>
</svg>
