<svg width="894" height="892" viewBox="0 0 894 892" fill="none" xmlns="http://www.w3.org/2000/svg">
<path d="M133.93 133.746L147.184 146.86L144.859 149.185L131.652 136.071L128.117 139.605L125.932 137.42L135.279 127.979L137.465 130.165L133.93 133.746Z" fill="#5EC1A5"/>
<path d="M151.695 129.654L162.949 131.793L160.02 134.536L149.417 132.304L148.998 132.723L155.09 139.233L152.718 141.466L137.837 125.608L140.627 122.957C142.72 121.004 144.58 119.981 146.254 119.888C148.114 119.795 149.696 120.492 151.044 121.934C152.114 123.05 152.672 124.306 152.811 125.747C152.904 127.096 152.532 128.444 151.695 129.654ZM146.998 130.63L147.742 129.933C150.021 127.793 150.347 125.887 148.719 124.166C147.184 122.538 145.324 122.771 143.138 124.817L142.301 125.608L146.998 130.63Z" fill="#5EC1A5"/>
<path d="M153.37 111.284L167.786 127.561L165.321 129.747L150.905 113.47L153.37 111.284Z" fill="#5EC1A5"/>
<path d="M171.599 124.213L157.694 107.518L160.206 105.425C161.322 104.495 162.298 103.844 163.089 103.472C163.926 103.1 164.717 102.914 165.507 102.914C166.344 102.96 167.135 103.193 167.925 103.565C168.762 103.983 169.413 104.495 169.972 105.146C170.948 106.355 171.367 107.75 171.134 109.331C172.297 108.913 173.413 108.866 174.575 109.192C175.738 109.517 176.715 110.168 177.552 111.145C178.621 112.447 179.086 113.935 178.9 115.609C178.807 116.632 178.482 117.516 177.97 118.307C177.366 119.144 176.529 120.027 175.366 121.004L171.599 124.213ZM166.158 112.587L166.949 111.935C167.879 111.145 168.39 110.354 168.483 109.61C168.576 108.82 168.297 108.029 167.6 107.239C166.949 106.448 166.205 106.029 165.461 105.983C164.717 105.936 163.833 106.262 162.996 107.006L162.112 107.75L166.158 112.587ZM172.157 119.748L173.692 118.446C174.855 117.516 175.506 116.586 175.645 115.702C175.785 114.772 175.599 113.889 174.948 113.145C174.343 112.4 173.552 112.028 172.622 111.982C171.692 111.935 170.53 112.493 169.181 113.61L167.925 114.679L172.157 119.748Z" fill="#5EC1A5"/>
<path d="M182.76 91.4271L175.831 96.7286L178.994 100.867L185.69 95.7055L187.55 98.1702L180.854 103.332L185.272 109.099L192.201 103.797L194.061 106.262L184.574 113.563L171.32 96.3101L180.807 89.0089L182.76 91.4271Z" fill="#5EC1A5"/>
<path d="M197.595 79.2896L195.27 76.2668L197.595 74.6857L199.549 77.941L201.734 74.7787L203.966 76.4993L201.455 79.3826L205.129 80.4987L204.152 83.1494L200.618 81.6613L200.711 85.4746L197.874 85.3816L198.246 81.5683L194.666 82.8239L193.875 80.1267L197.595 79.2896Z" fill="#5EC1A5"/>
<path d="M222.289 65.1523L231.823 81.1962L228.986 82.8704L219.452 66.8264L215.174 69.3842L213.593 66.7334L224.986 59.9438L226.568 62.5946L222.289 65.1523Z" fill="#5EC1A5"/>
<path d="M240.519 65.6173L250.889 70.5003L247.355 72.4069L237.635 67.5705L237.124 67.8495L241.402 75.6622L238.519 77.2434L228.102 58.1767L231.45 56.3165C233.962 54.9214 236.054 54.4098 237.682 54.7354C239.496 55.1074 240.891 56.177 241.821 57.8976C242.565 59.2463 242.798 60.6414 242.565 62.0365C242.332 63.4781 241.635 64.6407 240.519 65.6173ZM235.729 65.3848L236.659 64.8733C239.403 63.3851 240.193 61.5715 239.031 59.5253C237.961 57.5721 236.101 57.3396 233.45 58.7812L232.427 59.3393L235.729 65.3848Z" fill="#5EC1A5"/>
<path d="M246.704 48.2713L256.563 67.6635L253.633 69.1517L243.774 49.7594L246.704 48.2713Z" fill="#5EC1A5"/>
<path d="M261.121 65.3848L251.866 45.7136L254.843 44.3185C256.145 43.7139 257.261 43.2954 258.144 43.1559C259.028 42.9698 259.865 43.0163 260.609 43.2489C261.4 43.4814 262.144 43.8999 262.795 44.5045C263.492 45.109 264.004 45.8066 264.376 46.5507C265.027 47.9458 265.073 49.3874 264.469 50.8755C265.678 50.736 266.794 50.9686 267.817 51.5731C268.84 52.1777 269.631 53.0612 270.189 54.2238C270.933 55.7585 270.98 57.2931 270.375 58.8743C270.049 59.8508 269.491 60.6414 268.794 61.2925C268.003 61.9435 266.98 62.5946 265.632 63.2456L261.121 65.3848ZM258.795 52.7357L259.725 52.3172C260.842 51.8056 261.539 51.1546 261.818 50.457C262.097 49.7129 262.004 48.8759 261.586 47.9458C261.167 47.0157 260.563 46.4577 259.818 46.2251C259.074 45.9926 258.191 46.1321 257.168 46.5972L256.145 47.1087L258.795 52.7357ZM262.748 61.1995L264.562 60.3159C265.911 59.6648 266.748 58.9673 267.166 58.1302C267.538 57.2466 267.538 56.363 267.12 55.4795C266.701 54.6424 266.05 54.0843 265.166 53.8053C264.283 53.5263 263.027 53.7588 261.446 54.5029L259.958 55.2004L262.748 61.1995Z" fill="#5EC1A5"/>
<path d="M280.141 36.4127L272.142 39.8075L274.188 44.5975L281.955 41.2957L283.164 44.1324L275.397 47.4342L278.234 54.1308L286.233 50.736L287.442 53.5728L276.42 58.2697L267.91 38.2729L278.932 33.576L280.141 36.4127Z" fill="#5EC1A5"/>
<path d="M302.137 31.3438C303.253 30.9252 304.416 31.0183 305.485 31.5763C306.602 32.1344 307.392 33.0179 307.764 34.1805C308.183 35.3896 308.136 36.5522 307.578 37.6683C307.067 38.7844 306.183 39.575 305.02 39.9935C303.858 40.4121 302.742 40.3191 301.579 39.761C300.463 39.203 299.672 38.3194 299.3 37.1568C298.882 35.9477 298.928 34.7851 299.486 33.669C300.044 32.5529 300.928 31.7623 302.137 31.3438Z" fill="#5EC1A5"/>
<path d="M328.924 19.8573L333.947 37.8079L330.784 38.6914L325.762 20.7408L320.972 22.0895L320.135 19.1132L332.924 15.5324L333.761 18.5086L328.924 19.8573Z" fill="#5EC1A5"/>
<path d="M346.409 25.0192L355.106 32.4599L351.199 33.39L343.061 26.1818L342.503 26.3213L344.596 34.9711L341.387 35.7617L336.271 14.6488L339.992 13.7652C342.782 13.1142 344.921 13.1142 346.409 13.8582C348.037 14.6953 349.107 16.0904 349.572 17.9971C349.944 19.4852 349.804 20.8803 349.2 22.1825C348.735 23.4381 347.758 24.4147 346.409 25.0192ZM341.852 23.5776L342.875 23.3451C345.898 22.601 347.107 21.1129 346.549 18.7877C346.037 16.6485 344.317 15.9044 341.34 16.602L340.224 16.881L341.852 23.5776Z" fill="#5EC1A5"/>
<path d="M356.966 9.90536L361.431 31.2043L358.222 31.8553L353.757 10.5564L356.966 9.90536Z" fill="#5EC1A5"/>
<path d="M366.36 30.1812L362.547 8.78928L365.756 8.23123C367.197 7.99871 368.36 7.9057 369.244 7.95221C370.127 7.99871 370.918 8.27774 371.615 8.69627C372.313 9.11481 372.917 9.71937 373.429 10.4634C373.94 11.2075 374.266 11.9981 374.406 12.8816C374.685 14.4163 374.313 15.8114 373.336 17.067C374.545 17.253 375.568 17.7646 376.405 18.6482C377.242 19.4852 377.754 20.5548 377.986 21.8104C378.265 23.4846 377.94 25.0192 376.963 26.3678C376.359 27.2049 375.661 27.856 374.824 28.2745C373.894 28.693 372.731 29.0651 371.243 29.3441L366.36 30.1812ZM367.43 17.3925L368.453 17.2065C369.662 16.974 370.499 16.5555 370.964 15.9509C371.429 15.2999 371.569 14.5093 371.383 13.4397C371.197 12.4166 370.778 11.719 370.127 11.3005C369.476 10.882 368.592 10.789 367.476 10.975L366.36 11.161L367.43 17.3925ZM369.058 26.5539L371.057 26.1818C372.499 25.9028 373.522 25.4378 374.127 24.7402C374.731 23.9961 374.964 23.1591 374.778 22.1825C374.592 21.2524 374.127 20.5548 373.336 20.0433C372.545 19.5317 371.29 19.4387 369.569 19.7643L367.941 20.0433L369.058 26.5539Z" fill="#5EC1A5"/>
<path d="M392.31 7.20813L383.66 8.37073L384.357 13.5327L392.728 12.3701L393.147 15.4394L384.776 16.602L385.752 23.8101L394.402 22.601L394.821 25.6703L382.962 27.2979L379.986 5.7665L391.844 4.13885L392.31 7.20813Z" fill="#5EC1A5"/>
<path d="M411.191 3.99936L410.679 0.232521L413.516 0L413.562 3.81334L417.004 2.18569L418.073 4.78993L414.492 6.04554L417.143 8.78928L415.004 10.6029L412.679 7.58017L410.865 10.9285L408.447 9.44034L410.633 6.32456L406.866 5.627L407.517 2.88326L411.191 3.99936Z" fill="#5EC1A5"/>
<path d="M439.651 3.95287L440.023 22.601L436.721 22.6475L436.349 3.99937L431.373 4.09238L431.327 1.0231L444.58 0.74408L444.627 3.81335L439.651 3.95287Z" fill="#5EC1A5"/>
<path d="M455.277 13.3467L461.834 22.7405L457.835 22.694L451.789 13.7187H451.184L451.045 22.601L447.743 22.5545L448.115 0.837097L451.975 0.883601C454.858 0.930105 456.905 1.48815 458.16 2.60425C459.555 3.81336 460.206 5.44101 460.206 7.39418C460.16 8.92882 459.741 10.2309 458.811 11.347C457.881 12.3701 456.719 13.0677 455.277 13.3467ZM451.231 10.789H452.254C455.37 10.8355 456.951 9.67288 456.951 7.30117C456.998 5.06897 455.509 3.95287 452.487 3.90637H451.324L451.231 10.789Z" fill="#5EC1A5"/>
<path d="M469.228 1.34862L468.252 23.0661L464.997 22.9265L465.973 1.20911L469.228 1.34862Z" fill="#5EC1A5"/>
<path d="M473.32 23.2986L474.948 1.62766L478.203 1.86018C479.645 1.95318 480.808 2.1857 481.645 2.46473C482.482 2.74375 483.226 3.2088 483.784 3.76685C484.342 4.3714 484.76 5.06896 485.086 5.95254C485.412 6.83612 485.505 7.67319 485.458 8.51027C485.319 10.0449 484.667 11.347 483.365 12.3236C484.481 12.7886 485.365 13.5792 485.923 14.6023C486.528 15.6254 486.76 16.788 486.667 18.0901C486.528 19.7643 485.83 21.1594 484.528 22.229C483.737 22.88 482.9 23.3451 481.97 23.5311C480.947 23.7171 479.738 23.7636 478.25 23.6706L473.32 23.2986ZM476.808 20.4618L478.808 20.6013C480.296 20.6943 481.412 20.5083 482.11 19.9968C482.9 19.4387 483.319 18.6482 483.365 17.6716C483.458 16.7415 483.133 15.9044 482.482 15.2534C481.831 14.5558 480.668 14.1838 478.901 14.0443L477.227 13.9047L476.808 20.4618ZM477.506 11.161L478.529 11.254C479.738 11.347 480.668 11.161 481.273 10.6495C481.877 10.1379 482.203 9.39385 482.296 8.32425C482.389 7.30116 482.156 6.51059 481.598 5.95254C481.04 5.39449 480.249 5.06896 479.133 4.97595L477.971 4.88294L477.506 11.161Z" fill="#5EC1A5"/>
<path d="M504.153 7.48714L495.503 6.51056L494.898 11.719L503.316 12.6956L502.944 15.7649L494.526 14.7883L493.689 21.9964L502.339 22.973L501.967 26.0423L490.062 24.6937L492.527 3.11575L504.432 4.46437L504.153 7.48714Z" fill="#5EC1A5"/>
<path d="M525.731 13.9047C526.894 14.1373 527.87 14.7418 528.521 15.7649C529.219 16.788 529.451 17.9506 529.219 19.1597C528.986 20.4153 528.382 21.3919 527.359 22.136C526.336 22.88 525.219 23.1126 524.01 22.88C522.801 22.6475 521.871 22.043 521.127 21.0199C520.429 19.9968 520.197 18.8342 520.429 17.6251C520.662 16.3695 521.267 15.3929 522.29 14.6953C523.359 13.9512 524.522 13.6722 525.731 13.9047Z" fill="#5EC1A5"/>
<path d="M545.821 14.9743L541.728 33.1574L538.52 32.4599L542.612 14.2768L537.729 13.2072L538.427 10.1844L551.355 13.0676L550.704 16.0904L545.821 14.9743Z" fill="#5EC1A5"/>
<path d="M558.749 27.8095L562.888 38.4589L559.028 37.4358L555.308 27.2514L554.75 27.1119L552.471 35.7152L549.262 34.8781L554.796 13.8582L558.517 14.8348C561.307 15.5789 563.167 16.602 564.144 17.9971C565.213 19.5317 565.492 21.2524 564.981 23.159C564.609 24.6472 563.818 25.8098 562.702 26.6469C561.539 27.4839 560.237 27.9025 558.749 27.8095ZM555.447 24.3682L556.47 24.6472C559.493 25.4377 561.26 24.6937 561.865 22.3685C562.423 20.2293 561.26 18.7412 558.331 17.9971L557.214 17.7181L555.447 24.3682Z" fill="#5EC1A5"/>
<path d="M575.212 19.4852L569.027 40.3191L565.864 39.389L572.049 18.5551L575.212 19.4852Z" fill="#5EC1A5"/>
<path d="M573.91 41.8072L580.699 21.1594L583.815 22.1825C585.21 22.6475 586.28 23.1126 587.024 23.5776C587.768 24.0427 588.373 24.6472 588.791 25.3448C589.21 26.0423 589.442 26.8794 589.535 27.763C589.628 28.6931 589.535 29.5301 589.256 30.3207C588.791 31.8088 587.815 32.8784 586.326 33.5295C587.303 34.2736 587.954 35.2036 588.28 36.3662C588.605 37.4823 588.605 38.6915 588.187 39.9006C587.675 41.5282 586.652 42.6908 585.117 43.4349C584.187 43.8999 583.257 44.1324 582.327 44.0859C581.304 44.0394 580.095 43.7604 578.7 43.2954L573.91 41.8072ZM577.956 39.9006L579.862 40.5516C581.257 41.0167 582.373 41.0632 583.257 40.7376C584.141 40.3656 584.745 39.7145 585.071 38.7845C585.35 37.9009 585.257 37.0173 584.792 36.2267C584.327 35.4362 583.257 34.7386 581.583 34.1806L580.002 33.669L577.956 39.9006ZM580.885 31.0183L581.862 31.3438C583.025 31.7158 583.955 31.7623 584.652 31.3903C585.35 31.0648 585.861 30.3672 586.187 29.3906C586.512 28.414 586.466 27.577 586.094 26.9259C585.722 26.2283 584.978 25.7168 583.955 25.3913L582.839 25.0192L580.885 31.0183Z" fill="#5EC1A5"/>
<path d="M607.625 33.855L599.441 30.8323L597.627 35.7152L605.533 38.6915L604.463 41.5747L596.557 38.5985L594 45.3881L602.185 48.4108L601.115 51.2941L589.861 47.1087L597.441 26.7399L608.695 30.9253L607.625 33.855Z" fill="#5EC1A5"/>
<path d="M625.809 40.04L627.158 36.4592L629.762 37.6218L627.995 41.0166L631.808 41.2026L631.529 43.9929L627.762 43.3883L628.785 47.0622L626.042 47.6667L625.437 43.8999L622.275 45.9926L620.833 43.5279L624.228 41.8072L621.252 39.4355L623.158 37.3428L625.809 40.04Z" fill="#5EC1A5"/>
<path d="M650.875 53.4798L642.318 70.0817L639.388 68.5936L647.945 51.9916L643.481 49.7129L644.876 46.9692L656.688 53.0612L655.293 55.805L650.875 53.4798Z" fill="#5EC1A5"/>
<path d="M660.129 69.1982L661.478 80.5917L657.99 78.6385L656.92 67.8495L656.409 67.5705L652.037 75.3367L649.201 73.7091L659.85 54.7819L663.198 56.6421C665.71 58.0372 667.244 59.5253 667.849 61.1064C668.5 62.8271 668.314 64.5943 667.337 66.2684C666.593 67.617 665.57 68.5471 664.222 69.0587C662.873 69.5702 661.524 69.6632 660.129 69.1982ZM657.757 65.0593L658.688 65.5708C661.385 67.1055 663.338 66.8265 664.501 64.7338C665.57 62.7806 664.826 61.1065 662.175 59.6183L661.152 59.0603L657.757 65.0593Z" fill="#5EC1A5"/>
<path d="M678.126 65.2918L666.919 83.8935L664.128 82.2193L675.336 63.6177L678.126 65.2918Z" fill="#5EC1A5"/>
<path d="M671.244 86.5442L683.009 68.2681L685.753 70.0353C686.962 70.8258 687.892 71.5234 688.497 72.2209C689.101 72.872 689.52 73.6161 689.752 74.3601C689.985 75.1507 689.985 75.9878 689.845 76.8714C689.706 77.7549 689.38 78.592 688.915 79.2896C688.078 80.5917 686.869 81.3823 685.288 81.6613C686.032 82.6379 686.451 83.7075 686.451 84.8701C686.497 86.0792 686.172 87.1953 685.474 88.2649C684.544 89.7065 683.288 90.5901 681.614 90.9156C680.638 91.1481 679.661 91.1016 678.731 90.8691C677.754 90.5436 676.638 90.032 675.383 89.195L671.244 86.5442ZM675.662 85.7536L677.382 86.8697C678.638 87.6603 679.707 88.0323 680.591 87.8928C681.568 87.7533 682.265 87.2883 682.823 86.4977C683.335 85.7071 683.474 84.8701 683.195 83.94C682.963 83.0564 682.079 82.1263 680.638 81.1497L679.242 80.2662L675.662 85.7536ZM680.684 77.8944L681.568 78.4525C682.591 79.1036 683.474 79.3826 684.265 79.2431C685.055 79.1036 685.707 78.592 686.265 77.7084C686.823 76.8714 687.009 76.0343 686.776 75.2902C686.59 74.5461 685.986 73.8486 685.055 73.244L684.079 72.6395L680.684 77.8944Z" fill="#5EC1A5"/>
<path d="M705.843 87.3348L698.681 82.3588L695.705 86.6372L702.634 91.4736L700.867 93.9848L693.938 89.1484L689.752 95.1009L696.914 100.077L695.147 102.588L685.334 95.7055L697.798 77.8944L707.61 84.777L705.843 87.3348Z" fill="#5EC1A5"/>
<path d="M721.794 103.332C722.724 104.076 723.236 105.099 723.375 106.308C723.515 107.564 723.189 108.68 722.399 109.61C721.608 110.587 720.585 111.191 719.329 111.331C718.074 111.47 717.004 111.145 716.028 110.401C715.098 109.657 714.54 108.634 714.4 107.378C714.26 106.122 714.633 105.006 715.377 104.03C716.167 103.053 717.19 102.449 718.446 102.309C719.702 102.216 720.818 102.542 721.794 103.332Z" fill="#5EC1A5"/>
<path d="M738.954 113.796L726.677 127.84L724.212 125.701L736.49 111.656L732.723 108.355L734.769 106.029L744.767 114.726L742.721 117.051L738.954 113.796Z" fill="#5EC1A5"/>
<path d="M744.209 131.281L742.768 142.628L739.838 139.884L741.373 129.142L740.954 128.723L734.862 135.234L732.49 133.002L747.372 117.144L750.162 119.795C752.255 121.748 753.417 123.561 753.603 125.236C753.789 127.096 753.231 128.723 751.883 130.165C750.813 131.281 749.604 131.932 748.209 132.165C746.814 132.304 745.465 132.025 744.209 131.281ZM742.907 126.677L743.651 127.375C745.93 129.514 747.883 129.7 749.464 127.979C750.999 126.352 750.627 124.492 748.441 122.445L747.604 121.655L742.907 126.677Z" fill="#5EC1A5"/>
<path d="M762.625 131.793L747.279 147.186L744.954 144.86L760.3 129.468L762.625 131.793Z" fill="#5EC1A5"/>
<path d="M750.86 150.766L766.625 135.839L768.857 138.21C769.88 139.28 770.578 140.164 770.996 140.954C771.415 141.745 771.647 142.535 771.694 143.326C771.694 144.163 771.554 144.953 771.182 145.79C770.81 146.628 770.345 147.325 769.741 147.93C768.625 148.999 767.229 149.464 765.648 149.371C766.16 150.487 766.299 151.604 766.02 152.766C765.788 153.929 765.183 154.952 764.253 155.835C762.998 156.998 761.556 157.556 759.882 157.51C758.859 157.463 757.929 157.231 757.091 156.765C756.208 156.254 755.278 155.417 754.255 154.347L750.86 150.766ZM755.324 150.999L756.719 152.487C757.743 153.557 758.719 154.161 759.603 154.254C760.579 154.347 761.416 154.068 762.114 153.417C762.812 152.766 763.137 151.976 763.091 151.045C763.091 150.115 762.486 148.999 761.23 147.744L760.068 146.535L755.324 150.999ZM762.114 144.628L762.812 145.372C763.649 146.256 764.439 146.721 765.23 146.767C766.02 146.814 766.764 146.488 767.555 145.744C768.299 145.046 768.671 144.302 768.625 143.512C768.625 142.721 768.206 141.931 767.462 141.14L766.671 140.303L762.114 144.628Z" fill="#5EC1A5"/>
<path d="M784.296 159.788L778.576 153.231L774.67 156.672L780.25 163.043L777.925 165.09L772.345 158.719L766.857 163.509L772.577 170.066L770.252 172.112L762.346 163.09L778.716 148.767L786.622 157.789L784.296 159.788Z" fill="#5EC1A5"/>
<path d="M797.364 173.832L800.247 171.321L801.968 173.553L798.806 175.693L802.061 177.646L800.48 179.971L797.457 177.646L796.574 181.366L793.876 180.576L795.132 176.995L791.319 177.32L791.226 174.484L795.039 174.577L793.551 171.042L796.202 170.066L797.364 173.832Z" fill="#5EC1A5"/>
<path d="M813.036 197.596L797.643 208.153L795.783 205.455L811.176 194.899L808.339 190.76L810.897 188.993L818.384 199.921L815.827 201.688L813.036 197.596Z" fill="#5EC1A5"/>
<path d="M813.734 215.779L809.502 226.429L807.363 223.034L811.548 213.035L811.223 212.524L803.689 217.267L801.922 214.477L820.291 202.851L822.337 206.106C823.872 208.525 824.523 210.571 824.291 212.245C824.012 214.059 823.081 215.5 821.407 216.57C820.105 217.407 818.756 217.732 817.361 217.593C815.966 217.453 814.804 216.849 813.734 215.779ZM813.687 211.036L814.246 211.919C815.92 214.524 817.733 215.221 819.733 213.966C821.593 212.756 821.733 210.896 820.105 208.339L819.501 207.362L813.687 211.036Z" fill="#5EC1A5"/>
<path d="M831.452 220.895L812.757 231.963L811.083 229.126L829.777 218.058L831.452 220.895Z" fill="#5EC1A5"/>
<path d="M815.315 236.334L834.335 225.824L835.916 228.661C836.614 229.916 837.079 230.986 837.312 231.87C837.544 232.753 837.544 233.59 837.405 234.334C837.219 235.125 836.847 235.915 836.288 236.613C835.73 237.357 835.079 237.915 834.335 238.334C832.987 239.078 831.545 239.217 830.01 238.706C830.243 239.915 830.057 241.031 829.499 242.101C828.987 243.17 828.15 244.007 826.988 244.658C825.499 245.495 823.965 245.635 822.337 245.17C821.361 244.891 820.523 244.426 819.826 243.775C819.128 243.031 818.384 242.008 817.687 240.752L815.315 236.334ZM819.593 237.729L820.57 239.496C821.268 240.798 822.058 241.589 822.895 241.915C823.779 242.24 824.662 242.194 825.499 241.729C826.337 241.263 826.848 240.566 827.081 239.682C827.313 238.799 826.988 237.543 826.151 236.008L825.36 234.567L819.593 237.729ZM827.778 233.218L828.29 234.102C828.894 235.171 829.545 235.822 830.289 236.055C831.033 236.288 831.871 236.148 832.801 235.636C833.684 235.125 834.242 234.52 834.428 233.73C834.614 232.986 834.428 232.102 833.917 231.126L833.359 230.102L827.778 233.218Z" fill="#5EC1A5"/>
<path d="M845.449 253.448L841.543 245.681L836.893 248.007L840.706 255.587L837.962 256.982L834.149 249.402L827.638 252.657L831.545 260.423L828.801 261.818L823.406 251.122L842.845 241.356L848.24 252.052L845.449 253.448Z" fill="#5EC1A5"/>
<path d="M851.914 275.072C852.379 276.188 852.379 277.304 851.867 278.467C851.402 279.629 850.565 280.42 849.402 280.932C848.24 281.443 847.077 281.443 845.915 280.978C844.752 280.513 843.915 279.722 843.45 278.606C842.985 277.49 842.985 276.328 843.45 275.165C843.961 274.002 844.752 273.212 845.915 272.7C847.077 272.189 848.24 272.189 849.402 272.654C850.612 273.072 851.402 273.909 851.914 275.072Z" fill="#5EC1A5"/>
<path d="M862.052 292.465L844.566 299.022L843.404 295.952L860.89 289.395L859.122 284.698L862.006 283.629L866.656 296.045L863.773 297.115L862.052 292.465Z" fill="#5EC1A5"/>
<path d="M858.378 310.322L851.728 319.623L850.472 315.81L856.936 307.113L856.75 306.555L848.333 309.392L847.31 306.276L867.911 299.394L869.12 303.021C870.05 305.765 870.19 307.904 869.539 309.439C868.841 311.159 867.586 312.322 865.679 312.926C864.237 313.391 862.842 313.391 861.493 312.926C860.145 312.461 859.122 311.578 858.378 310.322ZM859.447 305.625L859.773 306.602C860.749 309.532 862.377 310.648 864.609 309.904C866.702 309.206 867.307 307.392 866.33 304.556L865.958 303.439L859.447 305.625Z" fill="#5EC1A5"/>
<path d="M874.329 319.483L853.495 325.761L852.565 322.599L873.399 316.321L874.329 319.483Z" fill="#5EC1A5"/>
<path d="M854.937 330.598L875.91 324.971L876.747 328.133C877.119 329.528 877.305 330.691 877.305 331.574C877.305 332.458 877.119 333.295 876.794 333.993C876.422 334.737 875.864 335.388 875.166 335.946C874.468 336.504 873.678 336.922 872.841 337.155C871.353 337.574 869.911 337.341 868.562 336.457C868.469 337.667 868.051 338.736 867.26 339.62C866.47 340.503 865.493 341.154 864.237 341.48C862.61 341.898 861.075 341.712 859.587 340.875C858.703 340.364 858.006 339.713 857.494 338.922C856.983 338.039 856.518 336.876 856.146 335.434L854.937 330.598ZM858.75 332.97L859.261 334.923C859.633 336.364 860.191 337.341 860.936 337.853C861.726 338.411 862.61 338.55 863.54 338.271C864.423 338.039 865.121 337.481 865.54 336.643C865.958 335.806 865.958 334.551 865.493 332.83L865.074 331.202L858.75 332.97ZM867.772 330.551L868.051 331.528C868.376 332.691 868.841 333.481 869.539 333.9C870.236 334.318 871.027 334.365 872.05 334.086C873.027 333.807 873.724 333.342 874.096 332.644C874.468 331.947 874.515 331.063 874.189 329.993L873.91 328.877L867.772 330.551Z" fill="#5EC1A5"/>
<path d="M880.049 354.501L878.142 345.991L873.027 347.153L874.887 355.385L871.864 356.082L870.004 347.851L862.935 349.479L864.842 357.989L861.819 358.686L859.168 346.967L880.374 342.177L883.025 353.896L880.049 354.501Z" fill="#5EC1A5"/>
<path d="M884.839 373.103L888.559 372.266L889.024 375.056L885.258 375.428L887.211 378.73L884.7 380.032L883.165 376.544L880.654 379.381L878.654 377.381L881.491 374.823L878.003 373.335L879.259 370.824L882.56 372.731L882.932 368.917L885.723 369.336L884.839 373.103Z" fill="#5EC1A5"/>
<path d="M874.655 409.562L873.771 400.308L868.284 398.401L867.958 394.867L892.001 403.377L870.004 415.933L869.679 412.352L874.655 409.562ZM877.584 407.934L884.653 404.028L876.98 401.377L877.584 407.934Z" fill="#5EC1A5"/>
<path d="M891.815 416.863L877.538 423.095L893.349 428.396L878.003 434.674L892.745 440.115L892.884 443.696L869.4 434.907L884.56 428.722L868.935 423.513L891.675 413.375L891.815 416.863Z" fill="#5EC1A5"/>
<path d="M876.05 457.973L876.19 448.672L870.935 446.161L870.981 442.626L893.908 453.741L870.656 463.739L870.702 460.158L876.05 457.973ZM879.166 456.671L886.607 453.555L879.259 450.067L879.166 456.671Z" fill="#5EC1A5"/>
<path d="M879.259 474.11L869.586 480.248L869.818 476.249L879.073 470.575L879.119 469.971L870.237 469.413L870.423 466.157L892.141 467.46L891.908 471.273C891.722 474.156 891.071 476.156 889.908 477.365C888.606 478.714 886.979 479.318 885.025 479.179C883.491 479.086 882.189 478.574 881.119 477.597C880.142 476.807 879.491 475.598 879.259 474.11ZM882.003 470.203L881.956 471.226C881.77 474.342 882.84 475.97 885.211 476.109C887.444 476.249 888.653 474.807 888.792 471.784L888.885 470.622L882.003 470.203Z" fill="#5EC1A5"/>
<path d="M886.28 500.245L867.771 498.059L868.143 494.804L886.652 496.99L887.257 492.014L890.326 492.386L888.791 505.546L885.722 505.174L886.28 500.245Z" fill="#5EC1A5"/>
<path d="M874.841 514.429L864.656 519.684L865.261 515.731L875.027 510.941L875.12 510.336L866.33 508.988L866.842 505.732L888.327 509.081L887.723 512.894C887.304 515.731 886.42 517.684 885.165 518.8C883.77 520.009 882.095 520.474 880.142 520.149C878.608 519.916 877.399 519.265 876.422 518.242C875.445 517.173 874.934 515.917 874.841 514.429ZM877.91 510.755L877.771 511.778C877.306 514.847 878.236 516.568 880.561 516.94C882.747 517.266 884.095 515.963 884.56 512.987L884.746 511.825L877.91 510.755Z" fill="#5EC1A5"/>
<path d="M884.792 529.915L863.4 525.962L864.005 522.753L885.397 526.706L884.792 529.915Z" fill="#5EC1A5"/>
<path d="M862.517 530.891L883.769 535.495L883.072 538.704C882.746 540.146 882.421 541.215 882.002 542.052C881.584 542.843 881.072 543.494 880.421 543.959C879.77 544.424 878.979 544.749 878.096 544.935C877.212 545.121 876.329 545.121 875.492 544.935C873.957 544.61 872.794 543.726 872.004 542.331C871.353 543.354 870.516 544.098 869.4 544.563C868.283 545.028 867.121 545.121 865.865 544.842C864.191 544.47 862.935 543.587 862.052 542.145C861.494 541.308 861.168 540.378 861.075 539.448C861.029 538.425 861.168 537.169 861.447 535.728L862.517 530.891ZM864.796 534.751L864.377 536.751C864.051 538.192 864.098 539.308 864.517 540.145C864.982 540.983 865.679 541.541 866.609 541.727C867.539 541.913 868.376 541.727 869.167 541.215C869.911 540.657 870.516 539.541 870.888 537.82L871.26 536.193L864.796 534.751ZM873.91 536.751L873.678 537.774C873.399 538.983 873.492 539.913 873.91 540.564C874.329 541.215 875.027 541.68 876.05 541.913C877.026 542.145 877.863 542.006 878.514 541.541C879.165 541.076 879.584 540.332 879.817 539.215L880.049 538.099L873.91 536.751Z" fill="#5EC1A5"/>
<path d="M873.864 563.63L876.049 555.213L870.98 553.911L868.841 562.095L865.865 561.305L868.004 553.12L860.982 551.307L858.796 559.724L855.82 558.933L858.843 547.307L879.909 552.748L876.886 564.374L873.864 563.63Z" fill="#5EC1A5"/>
<path d="M864.516 584.138C864.144 585.301 863.4 586.138 862.284 586.65C861.168 587.208 860.006 587.301 858.843 586.882C857.634 586.464 856.75 585.72 856.192 584.603C855.634 583.487 855.541 582.371 855.913 581.162C856.285 580 857.029 579.163 858.192 578.558C859.308 578 860.471 577.953 861.68 578.325C862.889 578.744 863.772 579.488 864.33 580.604C864.795 581.813 864.888 582.976 864.516 584.138Z" fill="#5EC1A5"/>
<path d="M860.657 603.903L843.218 597.346L844.38 594.276L861.82 600.833L863.587 596.137L866.47 597.206L861.773 609.669L858.89 608.6L860.657 603.903Z" fill="#5EC1A5"/>
<path d="M846.101 614.924L834.94 617.528L836.475 613.808L847.078 611.529L847.31 610.971L839.125 607.53L840.381 604.507L860.424 612.925L858.936 616.459C857.82 619.11 856.518 620.83 855.03 621.574C853.356 622.411 851.635 622.458 849.821 621.667C848.38 621.063 847.357 620.133 846.659 618.924C846.055 617.714 845.869 616.366 846.101 614.924ZM850.007 612.087L849.589 613.064C848.38 615.947 848.891 617.807 851.077 618.738C853.123 619.621 854.751 618.645 855.913 615.854L856.379 614.785L850.007 612.087Z" fill="#5EC1A5"/>
<path d="M852.053 632.363L832.289 623.341L833.638 620.365L853.402 629.387L852.053 632.363Z" fill="#5EC1A5"/>
<path d="M830.15 627.945L849.635 637.525L848.194 640.455C847.542 641.757 846.938 642.734 846.333 643.431C845.729 644.129 845.078 644.594 844.334 644.919C843.59 645.245 842.752 645.338 841.822 645.291C840.892 645.245 840.055 645.059 839.311 644.687C837.916 643.989 836.986 642.873 836.567 641.339C835.684 642.222 834.661 642.734 833.498 642.873C832.335 643.059 831.173 642.873 830.01 642.269C828.476 641.525 827.452 640.362 826.941 638.734C826.615 637.758 826.522 636.828 826.662 635.898C826.848 634.874 827.266 633.712 827.918 632.41L830.15 627.945ZM831.498 632.224L830.615 634.037C829.964 635.386 829.731 636.456 829.964 637.339C830.196 638.269 830.754 638.967 831.638 639.385C832.475 639.804 833.359 639.85 834.242 639.478C835.126 639.153 835.916 638.176 836.707 636.595L837.451 635.107L831.498 632.224ZM839.869 636.363L839.404 637.293C838.846 638.409 838.707 639.292 838.939 640.036C839.172 640.781 839.776 641.385 840.706 641.85C841.636 642.315 842.427 642.362 843.171 642.083C843.915 641.804 844.52 641.153 844.985 640.176L845.496 639.153L839.869 636.363Z" fill="#5EC1A5"/>
<path d="M833.312 662.451L837.451 654.778L832.847 652.314L828.801 659.754L826.104 658.266L830.15 650.825L823.779 647.384L819.64 655.057L816.942 653.569L822.662 643.013L841.776 653.383L836.056 663.94L833.312 662.451Z" fill="#5EC1A5"/>
<path d="M824.709 679.565L828.057 681.379L826.569 683.797L823.453 681.611L822.756 685.378L820.012 684.68L821.128 681.053L817.361 681.518L817.175 678.681L820.989 678.635L819.361 675.194L821.965 674.124L823.174 677.751L825.965 675.147L827.778 677.286L824.709 679.565Z" fill="#5EC1A5"/>
<path d="M807.874 702.538L792.621 691.796L794.527 689.098L809.781 699.841L812.664 695.748L815.175 697.516L807.549 708.351L805.037 706.584L807.874 702.538Z" fill="#5EC1A5"/>
<path d="M791.04 709.514L779.6 709.235L782.018 706.026L792.853 706.491L793.225 706.026L786.157 700.631L788.156 698.027L805.456 711.188L803.131 714.257C801.41 716.536 799.69 717.884 798.062 718.21C796.248 718.582 794.574 718.21 792.993 717.001C791.784 716.071 790.993 714.908 790.621 713.559C790.249 712.211 790.435 710.862 791.04 709.514ZM795.504 707.793L794.853 708.63C792.993 711.095 792.993 713.048 794.853 714.49C796.62 715.838 798.434 715.327 800.248 712.908L800.945 711.978L795.504 707.793Z" fill="#5EC1A5"/>
<path d="M792.435 727.883L775.554 714.211L777.6 711.653L794.481 725.325L792.435 727.883Z" fill="#5EC1A5"/>
<path d="M772.345 718.117L788.807 732.301L786.668 734.765C785.738 735.881 784.901 736.672 784.157 737.184C783.413 737.695 782.669 738.021 781.831 738.114C780.994 738.207 780.157 738.114 779.32 737.881C778.437 737.602 777.693 737.184 777.042 736.626C775.879 735.602 775.228 734.3 775.228 732.673C774.158 733.277 773.042 733.51 771.88 733.37C770.717 733.231 769.601 732.766 768.624 731.929C767.322 730.813 766.625 729.417 766.532 727.743C766.439 726.72 766.625 725.79 766.997 724.906C767.415 723.976 768.113 722.953 769.089 721.837L772.345 718.117ZM772.531 722.628L771.229 724.162C770.252 725.278 769.787 726.302 769.74 727.185C769.74 728.162 770.112 728.952 770.856 729.557C771.554 730.161 772.391 730.394 773.321 730.301C774.251 730.208 775.274 729.464 776.437 728.115L777.507 726.86L772.531 722.628ZM779.599 728.72L778.948 729.51C778.158 730.44 777.786 731.278 777.832 732.068C777.879 732.859 778.297 733.603 779.088 734.254C779.878 734.905 780.622 735.184 781.413 735.091C782.204 734.998 782.948 734.533 783.692 733.696L784.436 732.812L779.599 728.72Z" fill="#5EC1A5"/>
<path d="M766.764 752.344L772.717 745.973L768.903 742.439L763.137 748.624L760.858 746.531L766.625 740.346L761.323 735.416L755.37 741.787L753.092 739.695L761.277 730.905L777.181 745.694L768.996 754.483L766.764 752.344Z" fill="#5EC1A5"/>
<path d="M748.767 765.923C747.884 766.76 746.814 767.132 745.605 767.086C744.349 767.039 743.326 766.574 742.443 765.644C741.559 764.714 741.141 763.644 741.187 762.389C741.187 761.133 741.652 760.11 742.582 759.226C743.466 758.389 744.535 757.971 745.791 758.017C747.047 758.064 748.116 758.575 748.953 759.459C749.837 760.389 750.255 761.459 750.209 762.714C750.162 763.97 749.651 765.039 748.767 765.923Z" fill="#5EC1A5"/>
<path d="M736.025 781.456L723.794 767.365L726.259 765.226L738.49 779.316L742.257 776.014L744.256 778.34L734.258 787.036L732.258 784.711L736.025 781.456Z" fill="#5EC1A5"/>
<path d="M717.981 784.246L706.913 781.27L710.028 778.758L720.445 781.781L720.91 781.409L715.33 774.48L717.888 772.434L731.56 789.361L728.584 791.779C726.351 793.593 724.398 794.477 722.724 794.43C720.864 794.384 719.329 793.593 718.074 792.058C717.097 790.849 716.632 789.547 716.586 788.152C716.586 786.664 717.051 785.408 717.981 784.246ZM722.724 783.641L721.934 784.292C719.515 786.245 719.05 788.152 720.538 790.012C721.934 791.733 723.794 791.64 726.166 789.78L727.096 789.036L722.724 783.641Z" fill="#5EC1A5"/>
<path d="M714.958 802.382L701.797 785.083L704.402 783.083L717.562 800.383L714.958 802.382Z" fill="#5EC1A5"/>
<path d="M697.751 788.152L710.354 805.87L707.703 807.777C706.54 808.614 705.517 809.218 704.68 809.544C703.843 809.87 703.006 810.009 702.215 809.916C701.378 809.823 700.588 809.544 699.844 809.079C699.053 808.614 698.402 808.009 697.937 807.312C697.053 806.056 696.774 804.615 697.1 803.033C695.937 803.405 694.775 803.359 693.658 802.94C692.542 802.522 691.612 801.824 690.868 800.755C689.892 799.36 689.52 797.871 689.845 796.197C690.031 795.174 690.403 794.291 690.961 793.547C691.612 792.756 692.542 791.919 693.751 791.082L697.751 788.152ZM696.867 792.57L695.24 793.733C694.031 794.616 693.333 795.453 693.1 796.337C692.868 797.267 693.054 798.151 693.612 798.941C694.17 799.685 694.914 800.15 695.844 800.243C696.774 800.336 697.937 799.918 699.379 798.895L700.727 797.918L696.867 792.57ZM702.308 800.15L701.471 800.755C700.495 801.452 699.89 802.196 699.751 802.987C699.611 803.777 699.844 804.568 700.448 805.405C701.053 806.242 701.75 806.707 702.494 806.8C703.285 806.893 704.122 806.614 705.006 805.963L705.936 805.312L702.308 800.15Z" fill="#5EC1A5"/>
<path d="M684.218 820.007L691.52 815.217L688.636 810.846L681.568 815.496L679.893 812.939L686.962 808.288L682.963 802.196L675.662 806.986L673.987 804.429L684.032 797.825L695.984 816.008L685.939 822.612L684.218 820.007Z" fill="#5EC1A5"/>
<path d="M663.477 828.936C662.454 829.541 661.291 829.634 660.129 829.308C658.92 828.983 658.036 828.239 657.385 827.169C656.734 826.053 656.594 824.89 656.92 823.728C657.245 822.519 657.943 821.635 659.013 820.984C660.082 820.379 661.198 820.24 662.408 820.565C663.617 820.937 664.5 821.635 665.151 822.705C665.802 823.821 665.942 824.983 665.616 826.192C665.291 827.402 664.547 828.285 663.477 828.936Z" fill="#5EC1A5"/>
<path d="M647.387 840.981L638.876 824.379L641.806 822.891L650.317 839.493L654.781 837.214L656.176 839.958L644.364 846.003L642.969 843.259L647.387 840.981Z" fill="#5EC1A5"/>
<path d="M629.204 839.353L619.206 833.819L622.833 832.099L632.227 837.54L632.785 837.307L629.018 829.262L631.994 827.867L641.202 847.538L637.714 849.166C635.11 850.375 633.017 850.793 631.39 850.328C629.623 849.817 628.274 848.7 627.483 846.933C626.832 845.538 626.693 844.143 627.018 842.795C627.251 841.399 628.041 840.283 629.204 839.353ZM633.947 839.911L633.017 840.33C630.181 841.632 629.297 843.399 630.32 845.538C631.25 847.538 633.11 847.91 635.854 846.654L636.924 846.143L633.947 839.911Z" fill="#5EC1A5"/>
<path d="M621.902 856.281L613.299 836.33L616.322 835.028L624.925 854.979L621.902 856.281Z" fill="#5EC1A5"/>
<path d="M608.648 838.33L616.647 858.559L613.624 859.769C612.276 860.327 611.16 860.606 610.276 860.745C609.393 860.838 608.556 860.792 607.811 860.513C607.021 860.234 606.323 859.768 605.719 859.117C605.068 858.466 604.603 857.769 604.277 856.978C603.719 855.537 603.766 854.095 604.463 852.653C603.254 852.7 602.138 852.421 601.161 851.723C600.185 851.072 599.441 850.142 598.976 848.933C598.371 847.352 598.371 845.817 599.069 844.283C599.487 843.352 600.045 842.562 600.789 842.004C601.626 841.399 602.696 840.795 604.091 840.283L608.648 838.33ZM606.742 842.376L604.835 843.12C603.44 843.678 602.556 844.329 602.138 845.12C601.673 845.957 601.626 846.84 601.998 847.77C602.324 848.654 602.975 849.259 603.859 849.584C604.742 849.91 605.998 849.77 607.625 849.119L609.16 848.514L606.742 842.376ZM610.137 851.072L609.16 851.444C608.044 851.909 607.3 852.467 606.974 853.165C606.649 853.862 606.695 854.7 607.067 855.676C607.439 856.606 607.997 857.257 608.742 857.536C609.486 857.815 610.369 857.769 611.392 857.35L612.462 856.932L610.137 851.072Z" fill="#5EC1A5"/>
<path d="M587.815 866L596.046 863.117L594.325 858.187L586.326 860.978L585.303 858.048L593.302 855.258L590.884 848.421L582.653 851.305L581.629 848.375L592.93 844.376L600.138 864.884L588.838 868.883L587.815 866Z" fill="#5EC1A5"/>
<path d="M569.91 872.929L571.166 876.51L568.422 877.301L567.585 873.58L564.516 875.859L562.935 873.534L566.236 871.581L563.121 869.395L564.841 867.163L567.725 869.674L568.841 866.047L571.491 867.023L569.957 870.511L573.77 870.418L573.677 873.255L569.91 872.929Z" fill="#5EC1A5"/>
<path d="M542.008 878.603L537.962 860.373L541.171 859.675L545.217 877.905L550.1 876.835L550.751 879.858L537.822 882.741L537.171 879.719L542.008 878.603Z" fill="#5EC1A5"/>
<path d="M524.848 872.464L516.57 864.558L520.523 863.814L528.242 871.441L528.801 871.348L527.173 862.605L530.382 862.001L534.335 883.393L530.568 884.09C527.731 884.602 525.592 884.462 524.15 883.625C522.569 882.695 521.546 881.253 521.22 879.347C520.941 877.812 521.127 876.464 521.778 875.208C522.476 873.906 523.499 873.022 524.848 872.464ZM529.312 874.185L528.289 874.371C525.22 874.929 523.918 876.37 524.336 878.696C524.755 880.881 526.429 881.719 529.405 881.16L530.568 880.928L529.312 874.185Z" fill="#5EC1A5"/>
<path d="M513.501 886.973L510.199 865.489L513.454 864.977L516.756 886.462L513.501 886.973Z" fill="#5EC1A5"/>
<path d="M505.222 866.233L507.873 887.81L504.618 888.229C503.176 888.415 502.014 888.415 501.13 888.322C500.246 888.183 499.456 887.904 498.805 887.438C498.154 886.973 497.549 886.322 497.131 885.578C496.666 884.788 496.386 883.997 496.293 883.114C496.107 881.579 496.526 880.184 497.596 878.975C496.387 878.742 495.41 878.138 494.619 877.254C493.829 876.37 493.364 875.301 493.178 873.999C492.992 872.325 493.41 870.836 494.433 869.488C495.084 868.697 495.828 868.093 496.666 867.674C497.596 867.302 498.805 866.977 500.293 866.837L505.222 866.233ZM502.339 869.72L500.339 869.953C498.851 870.139 497.828 870.557 497.224 871.209C496.573 871.906 496.294 872.743 496.433 873.72C496.526 874.65 496.991 875.394 497.782 875.952C498.526 876.51 499.781 876.649 501.549 876.417L503.176 876.231L502.339 869.72ZM503.455 878.928L502.432 879.068C501.223 879.207 500.386 879.579 499.874 880.184C499.363 880.788 499.177 881.625 499.316 882.649C499.456 883.672 499.828 884.416 500.479 884.834C501.13 885.299 502.014 885.439 503.083 885.299L504.246 885.16L503.455 878.928Z" fill="#5EC1A5"/>
<path d="M478.064 887.764L486.76 887.02L486.342 881.811L477.925 882.509L477.646 879.44L486.063 878.742L485.458 871.488L476.762 872.232L476.483 869.162L488.435 868.139L490.248 889.81L478.297 890.833L478.064 887.764Z" fill="#5EC1A5"/>
<path d="M458.114 888.694L457.602 870.046L460.904 869.953L461.416 888.601L466.392 888.462L466.485 891.531L453.231 891.903L453.138 888.834L458.114 888.694Z" fill="#5EC1A5"/>
<path d="M442.441 879.393L435.884 869.999L439.884 870.046L445.929 879.021H446.534L446.673 870.139L449.975 870.185L449.603 891.903L445.743 891.856C442.86 891.81 440.814 891.252 439.558 890.136C438.163 888.927 437.512 887.299 437.512 885.346C437.558 883.811 437.977 882.509 438.907 881.393C439.837 880.277 440.953 879.672 442.441 879.393ZM446.441 881.951H445.418C442.302 881.904 440.721 883.067 440.721 885.439C440.674 887.671 442.162 888.787 445.185 888.834H446.348L446.441 881.951Z" fill="#5EC1A5"/>
<path d="M428.583 891.531L429.374 869.813L432.629 869.953L431.838 891.67L428.583 891.531Z" fill="#5EC1A5"/>
<path d="M424.351 869.581L422.909 891.252L419.654 891.019C418.212 890.926 417.05 890.74 416.213 890.461C415.376 890.182 414.632 889.764 414.074 889.159C413.515 888.554 413.05 887.857 412.771 887.02C412.446 886.183 412.353 885.299 412.399 884.462C412.492 882.927 413.19 881.625 414.446 880.649C413.329 880.184 412.446 879.44 411.841 878.417C411.237 877.393 410.958 876.231 411.051 874.929C411.144 873.255 411.841 871.86 413.143 870.743C413.934 870.092 414.771 869.627 415.655 869.395C416.678 869.209 417.887 869.116 419.375 869.255L424.351 869.581ZM420.863 872.464L418.864 872.325C417.375 872.232 416.259 872.464 415.562 872.976C414.771 873.534 414.353 874.324 414.306 875.301C414.26 876.231 414.539 877.068 415.19 877.719C415.841 878.37 417.05 878.789 418.771 878.882L420.445 878.975L420.863 872.464ZM420.259 881.765L419.236 881.718C418.026 881.625 417.096 881.858 416.492 882.369C415.887 882.881 415.562 883.625 415.469 884.695C415.422 885.718 415.655 886.508 416.166 887.066C416.724 887.624 417.515 887.95 418.631 888.043L419.794 888.136L420.259 881.765Z" fill="#5EC1A5"/>
<path d="M393.658 885.671L402.308 886.601L402.866 881.393L394.449 880.509L394.775 877.44L403.192 878.324L403.936 871.115L395.286 870.185L395.612 867.116L407.563 868.372L405.285 889.996L393.379 888.741L393.658 885.671Z" fill="#5EC1A5"/>
<path d="M371.987 879.393C370.825 879.207 369.848 878.556 369.151 877.533C368.453 876.51 368.174 875.394 368.407 874.138C368.639 872.883 369.244 871.906 370.267 871.162C371.29 870.418 372.406 870.185 373.615 870.371C374.824 870.557 375.801 871.209 376.498 872.232C377.196 873.255 377.475 874.417 377.242 875.626C377.01 876.882 376.405 877.859 375.382 878.603C374.359 879.347 373.197 879.626 371.987 879.393Z" fill="#5EC1A5"/>
<path d="M351.897 878.556L355.803 860.327L359.012 861.024L355.106 879.254L359.989 880.323L359.338 883.346L346.363 880.556L347.014 877.533L351.897 878.556Z" fill="#5EC1A5"/>
<path d="M338.829 865.767L334.598 855.118L338.504 856.095L342.317 866.233L342.875 866.372L345.061 857.769L348.223 858.559L342.875 879.626L339.155 878.696C336.365 877.998 334.504 876.975 333.528 875.58C332.458 874.092 332.179 872.371 332.644 870.464C333.016 868.976 333.76 867.814 334.923 866.93C336.086 866.139 337.388 865.721 338.829 865.767ZM342.178 869.209L341.155 868.93C338.132 868.186 336.365 868.93 335.76 871.255C335.202 873.394 336.411 874.882 339.341 875.626L340.457 875.905L342.178 869.209Z" fill="#5EC1A5"/>
<path d="M322.46 874.231L328.459 853.351L331.621 854.235L325.622 875.115L322.46 874.231Z" fill="#5EC1A5"/>
<path d="M323.576 851.909L316.972 872.604L313.856 871.627C312.461 871.162 311.392 870.743 310.647 870.232C309.903 869.767 309.299 869.162 308.88 868.465C308.462 867.767 308.229 866.93 308.136 866.047C308.043 865.116 308.136 864.279 308.369 863.442C308.834 861.954 309.81 860.885 311.299 860.234C310.322 859.489 309.671 858.559 309.345 857.443C309.02 856.327 309.02 855.118 309.438 853.909C309.95 852.281 310.973 851.119 312.461 850.375C313.391 849.91 314.275 849.677 315.251 849.677C316.275 849.724 317.484 849.956 318.925 850.421L323.576 851.909ZM316.693 862.745L315.716 862.419C314.554 862.047 313.624 862.047 312.926 862.373C312.229 862.698 311.717 863.396 311.392 864.372C311.066 865.349 311.113 866.186 311.531 866.837C311.903 867.535 312.647 868.046 313.717 868.372L314.833 868.744L316.693 862.745ZM319.53 853.862L317.577 853.258C316.182 852.793 315.019 852.746 314.182 853.118C313.298 853.49 312.694 854.141 312.415 855.072C312.136 855.955 312.229 856.839 312.694 857.629C313.159 858.42 314.228 859.117 315.902 859.629L317.484 860.14L319.53 853.862Z" fill="#5EC1A5"/>
<path d="M289.953 860.141L298.138 863.117L299.905 858.187L291.953 855.304L293.023 852.421L300.975 855.304L303.44 848.468L295.255 845.492L296.325 842.608L307.579 846.701L300.138 867.116L288.884 863.024L289.953 860.141Z" fill="#5EC1A5"/>
<path d="M270.421 848.84C269.305 848.375 268.561 847.538 268.143 846.375C267.724 845.213 267.724 844.05 268.236 842.887C268.747 841.725 269.584 840.888 270.747 840.469C271.909 840.004 273.072 840.004 274.188 840.516C275.304 841.027 276.095 841.818 276.56 843.027C276.978 844.19 276.978 845.352 276.467 846.515C275.955 847.677 275.118 848.514 273.956 848.933C272.7 849.398 271.537 849.352 270.421 848.84Z" fill="#5EC1A5"/>
<path d="M251.308 844.701L249.82 848.189L247.262 846.933L249.169 843.632L245.355 843.306L245.774 840.516L249.494 841.306L248.657 837.586L251.448 837.121L251.866 840.934L255.121 838.981L256.424 841.492L252.936 843.073L255.819 845.585L253.866 847.584L251.308 844.701Z" fill="#5EC1A5"/>
<path d="M226.847 830.192L236.101 814.008L238.938 815.636L229.683 831.819L234.008 834.284L232.474 836.981L220.94 830.424L222.475 827.727L226.847 830.192Z" fill="#5EC1A5"/>
<path d="M218.243 814.101L217.406 802.661L220.801 804.754L221.405 815.59L221.917 815.915L226.614 808.335L229.404 810.056L217.964 828.518L214.708 826.472C212.29 824.937 210.802 823.402 210.291 821.821C209.733 820.054 209.965 818.333 210.988 816.659C211.779 815.357 212.848 814.474 214.197 813.962C215.499 813.59 216.848 813.59 218.243 814.101ZM220.382 818.38L219.498 817.822C216.848 816.194 214.894 816.38 213.639 818.38C212.476 820.287 213.174 822.007 215.732 823.588L216.708 824.193L220.382 818.38Z" fill="#5EC1A5"/>
<path d="M200.106 817.217L212.105 799.081L214.848 800.894L202.85 819.031L200.106 817.217Z" fill="#5EC1A5"/>
<path d="M207.873 796.29L195.363 814.055L192.713 812.195C191.504 811.358 190.62 810.614 190.062 809.916C189.457 809.218 189.085 808.474 188.899 807.73C188.713 806.94 188.713 806.103 188.899 805.219C189.085 804.335 189.411 803.545 189.922 802.847C190.806 801.592 192.062 800.848 193.643 800.662C192.945 799.685 192.573 798.569 192.62 797.406C192.62 796.197 192.992 795.081 193.736 794.058C194.712 792.663 196.014 791.826 197.689 791.593C198.712 791.407 199.642 791.5 200.525 791.779C201.502 792.105 202.572 792.709 203.781 793.593L207.873 796.29ZM198.061 804.522L197.224 803.917C196.247 803.219 195.363 802.94 194.573 803.033C193.782 803.126 193.085 803.638 192.48 804.475C191.876 805.312 191.69 806.103 191.829 806.893C191.969 807.684 192.527 808.381 193.457 808.986L194.387 809.637L198.061 804.522ZM203.409 796.941L201.735 795.779C200.525 794.942 199.456 794.523 198.572 794.616C197.596 794.709 196.852 795.128 196.293 795.918C195.735 796.662 195.596 797.546 195.782 798.476C195.968 799.406 196.805 800.336 198.247 801.359L199.595 802.336L203.409 796.941Z" fill="#5EC1A5"/>
<path d="M173.32 794.012L180.249 799.313L183.411 795.174L176.715 790.012L178.575 787.548L185.271 792.71L189.689 786.943L182.76 781.642L184.62 779.177L194.154 786.478L180.947 803.731L171.413 796.43L173.32 794.012Z" fill="#5EC1A5"/>
<path d="M158.066 777.41C157.183 776.619 156.671 775.596 156.625 774.34C156.532 773.085 156.95 772.015 157.741 771.039C158.578 770.062 159.601 769.55 160.857 769.457C162.112 769.364 163.182 769.736 164.112 770.527C165.042 771.318 165.553 772.341 165.6 773.596C165.646 774.852 165.274 775.968 164.484 776.898C163.647 777.875 162.624 778.386 161.368 778.479C160.112 778.619 158.996 778.247 158.066 777.41Z" fill="#5EC1A5"/>
<path d="M141.325 766.202L154.16 752.669L156.532 754.948L143.696 768.481L147.324 771.922L145.185 774.154L135.558 765.04L137.697 762.807L141.325 766.202Z" fill="#5EC1A5"/>
<path d="M136.86 748.531L138.767 737.23L141.557 740.113L139.558 750.763L139.976 751.181L146.347 744.95L148.626 747.275L133.094 762.482L130.396 759.738C128.397 757.692 127.327 755.832 127.187 754.158C127.048 752.297 127.699 750.716 129.094 749.321C130.21 748.252 131.466 747.647 132.861 747.508C134.303 747.368 135.605 747.694 136.86 748.531ZM137.93 753.181L137.186 752.437C135 750.205 133.094 749.926 131.373 751.6C129.792 753.134 130.071 754.995 132.163 757.18L133.001 758.017L137.93 753.181Z" fill="#5EC1A5"/>
<path d="M118.491 747.228L134.442 732.487L136.674 734.905L120.723 749.647L118.491 747.228Z" fill="#5EC1A5"/>
<path d="M131.047 728.766L114.631 743.043L112.492 740.578C111.515 739.462 110.864 738.532 110.445 737.742C110.027 736.951 109.841 736.114 109.841 735.323C109.841 734.486 110.073 733.696 110.445 732.859C110.817 732.022 111.375 731.324 111.98 730.766C113.143 729.743 114.538 729.324 116.119 729.51C115.654 728.394 115.561 727.232 115.886 726.069C116.165 724.907 116.816 723.93 117.793 723.046C119.095 721.93 120.537 721.465 122.211 721.558C123.234 721.651 124.164 721.93 124.955 722.395C125.792 722.953 126.722 723.79 127.699 724.907L131.047 728.766ZM119.514 734.44L118.816 733.649C118.026 732.719 117.235 732.254 116.444 732.161C115.654 732.068 114.863 732.394 114.073 733.091C113.282 733.742 112.91 734.486 112.91 735.277C112.91 736.067 113.236 736.858 113.98 737.695L114.724 738.579L119.514 734.44ZM126.536 728.301L125.187 726.767C124.211 725.651 123.281 724.999 122.397 724.86C121.42 724.72 120.583 724.953 119.886 725.604C119.188 726.209 118.816 726.999 118.816 727.976C118.77 728.906 119.374 730.022 120.537 731.371L121.606 732.626L126.536 728.301Z" fill="#5EC1A5"/>
<path d="M97.9825 718.303L103.423 725.092L107.516 721.837L102.214 715.234L104.633 713.28L109.934 719.884L115.608 715.327L110.167 708.537L112.585 706.584L120.119 715.931L103.191 729.557L95.6572 720.21L97.9825 718.303Z" fill="#5EC1A5"/>
<path d="M87.147 698.539C86.4495 697.562 86.2169 696.446 86.496 695.237C86.7285 694.028 87.333 693.051 88.3561 692.307C89.3792 691.563 90.5419 691.331 91.751 691.517C92.9601 691.703 93.9367 692.307 94.6808 693.33C95.3783 694.307 95.6109 695.469 95.4248 696.678C95.1923 697.888 94.5413 698.864 93.5182 699.608C92.4951 700.352 91.3324 700.585 90.1233 700.399C88.8677 700.213 87.8911 699.608 87.147 698.539Z" fill="#5EC1A5"/>
<path d="M72.9166 685.099L69.8008 687.331L68.2661 684.959L71.6144 683.099L68.5451 680.821L70.3588 678.635L73.1491 681.239L74.3582 677.612L76.9625 678.635L75.3813 682.123H79.1947L79.0087 684.959L75.2418 684.494L76.4044 688.122L73.6606 688.819L72.9166 685.099Z" fill="#5EC1A5"/>
<path d="M59.5233 660.033L75.7999 650.965L77.3811 653.848L61.1045 662.916L63.5227 667.288L60.8255 668.776L54.3613 657.196L57.0586 655.708L59.5233 660.033Z" fill="#5EC1A5"/>
<path d="M60.5462 641.804L65.7547 631.619L67.5684 635.2L62.4529 644.78L62.7319 645.291L70.6377 641.246L72.1259 644.175L52.78 654.034L51.0128 650.593C49.7107 648.035 49.2456 645.942 49.6177 644.315C50.0362 642.501 51.1523 641.153 52.9195 640.269C54.2681 639.571 55.6633 639.339 57.0584 639.664C58.4535 639.943 59.5696 640.687 60.5462 641.804ZM60.1742 646.594L59.7091 645.663C58.314 642.873 56.5468 642.036 54.4076 643.152C52.4079 644.175 52.1289 646.035 53.4775 648.686L53.9891 649.709L60.1742 646.594Z" fill="#5EC1A5"/>
<path d="M43.3862 635.107L63.0576 625.806L64.4528 628.782L44.7814 638.083L43.3862 635.107Z" fill="#5EC1A5"/>
<path d="M60.8717 621.202L40.9678 629.899L39.6657 626.922C39.0611 625.574 38.7356 624.504 38.5961 623.62C38.4565 622.737 38.503 621.9 38.7356 621.156C39.0146 620.365 39.4331 619.668 40.0377 619.017C40.6423 618.366 41.3398 617.854 42.1304 617.482C43.572 616.877 45.0137 616.877 46.4553 617.528C46.3623 616.319 46.6413 615.203 47.2459 614.18C47.8505 613.157 48.7805 612.413 49.9432 611.901C51.4778 611.204 53.059 611.204 54.5936 611.808C55.5237 612.18 56.3143 612.739 56.9653 613.436C57.6164 614.227 58.221 615.296 58.8255 616.645L60.8717 621.202ZM48.176 623.155L47.7574 622.225C47.2924 621.109 46.6413 620.412 45.9438 620.086C45.1997 619.761 44.3626 619.854 43.4325 620.272C42.5024 620.691 41.8979 621.249 41.6654 621.993C41.4328 622.737 41.5258 623.62 41.9444 624.644L42.4094 625.713L48.176 623.155ZM56.7328 619.435L55.9422 617.575C55.3377 616.226 54.6401 615.343 53.8495 614.924C52.966 614.506 52.0824 614.506 51.1988 614.878C50.3617 615.25 49.7571 615.901 49.4316 616.784C49.1526 617.668 49.3386 618.924 50.0362 620.551L50.6872 622.086L56.7328 619.435Z" fill="#5EC1A5"/>
<path d="M32.5038 601.345L35.6661 609.483L40.5491 607.576L37.4798 599.717L40.363 598.601L43.4323 606.46L50.1755 603.81L47.0132 595.671L49.8965 594.555L54.2679 605.716L34.0384 613.622L29.667 602.461L32.5038 601.345Z" fill="#5EC1A5"/>
<path d="M28.0861 579.209C27.714 578.046 27.8536 576.93 28.4581 575.861C29.0627 574.745 29.9463 574.001 31.1089 573.628C32.318 573.256 33.4806 573.349 34.5967 573.908C35.7128 574.466 36.4569 575.349 36.8289 576.512C37.201 577.674 37.108 578.837 36.5034 579.953C35.8988 581.069 35.0153 581.813 33.8061 582.185C32.597 582.557 31.4344 582.464 30.3183 581.906C29.2022 581.302 28.4581 580.418 28.0861 579.209Z" fill="#5EC1A5"/>
<path d="M17.7622 553.818L35.8524 549.214L36.643 552.376L18.5528 556.98L19.7619 561.816L16.7856 562.56L13.5303 549.725L16.5066 548.981L17.7622 553.818Z" fill="#5EC1A5"/>
<path d="M23.3892 536.472L31.016 527.961L31.8531 531.868L24.4588 539.82L24.5983 540.378L33.2947 538.518L33.9923 541.727L12.7397 546.284L11.9491 542.517C11.3446 539.727 11.4376 537.588 12.2281 536.1C13.1117 534.472 14.5069 533.449 16.4601 533.03C17.9482 532.705 19.3433 532.844 20.599 533.495C21.8546 534.147 22.7847 535.123 23.3892 536.472ZM21.8081 540.983L21.5756 539.96C20.9245 536.937 19.4363 535.635 17.1111 536.146C14.9254 536.611 14.1813 538.332 14.7859 541.262L15.0184 542.424L21.8081 540.983Z" fill="#5EC1A5"/>
<path d="M8.5542 525.59L29.9463 521.683L30.5508 524.892L9.15876 528.799L8.5542 525.59Z" fill="#5EC1A5"/>
<path d="M29.0161 516.661L7.53105 519.963L7.0195 516.754C6.78698 515.312 6.74048 514.15 6.83349 513.266C6.92649 512.383 7.20552 511.592 7.62406 510.894C8.08911 510.197 8.69367 509.639 9.43774 509.127C10.2283 508.662 11.0189 508.337 11.856 508.197C13.3906 507.965 14.7858 508.337 16.0414 509.36C16.2739 508.151 16.7855 507.174 17.669 506.337C18.5526 505.5 19.6222 505.035 20.8779 504.802C22.552 504.523 24.0867 504.942 25.3888 505.918C26.2259 506.523 26.8304 507.267 27.249 508.104C27.6675 509.034 27.993 510.243 28.2256 511.685L29.0161 516.661ZM16.2739 515.312L16.1344 514.289C15.9484 513.08 15.5298 512.243 14.9253 511.778C14.3207 511.313 13.4836 511.127 12.4605 511.313C11.4374 511.452 10.7399 511.871 10.2748 512.522C9.85628 513.173 9.71677 514.057 9.85628 515.126L10.0423 516.289L16.2739 515.312ZM25.4818 513.871L25.1563 511.871C24.9237 510.383 24.4587 509.36 23.8076 508.755C23.0636 508.104 22.2265 507.872 21.2964 508.011C20.3663 508.151 19.6222 508.616 19.1107 509.406C18.5991 510.197 18.4596 511.452 18.7386 513.173L18.9712 514.801L25.4818 513.871Z" fill="#5EC1A5"/>
<path d="M6.69418 490.154L7.67078 498.803L12.8793 498.199L11.9492 489.782L15.0185 489.456L15.9486 497.873L23.1568 497.036L22.1802 488.386L25.2495 488.061L26.5981 499.966L5.02002 502.431L3.67139 490.526L6.69418 490.154Z" fill="#5EC1A5"/>
<path d="M3.99683 471.18L0.229963 471.598L0.0439453 468.762L3.85732 468.808L2.27616 465.32L4.92692 464.297L6.08953 467.925L8.92631 465.367L10.6935 467.553L7.57768 469.785L10.8795 471.691L9.34485 474.063L6.27555 471.784L5.48497 475.505L2.74121 474.761L3.99683 471.18Z" fill="#5EC1A5"/>
<path d="M4.64778 442.58L23.2961 442.905L23.2496 446.207L4.60127 445.882L4.50826 450.858L1.43896 450.811L1.67149 437.557L4.74079 437.604L4.64778 442.58Z" fill="#5EC1A5"/>
<path d="M14.4139 427.373L23.9473 421.002L23.7613 425.048L14.5999 430.907L14.5534 431.512L23.4357 431.884L23.2962 435.139L1.57861 434.256L1.71813 430.396C1.81114 427.513 2.4622 425.466 3.57831 424.257C4.83393 422.909 6.46159 422.258 8.41478 422.351C9.94943 422.397 11.2516 422.909 12.3212 423.839C13.4838 424.722 14.1813 425.931 14.4139 427.373ZM11.7631 431.372L11.8096 430.349C11.9491 427.233 10.833 425.652 8.41478 425.559C6.18256 425.466 5.01995 426.954 4.88043 429.977L4.83393 431.14L11.7631 431.372Z" fill="#5EC1A5"/>
<path d="M2.74131 413.143L24.4124 414.677L24.1799 417.933L2.50879 416.398L2.74131 413.143Z" fill="#5EC1A5"/>
<path d="M24.7843 409.608L3.15967 407.469L3.4852 404.214C3.62471 402.772 3.85724 401.61 4.18277 400.773C4.5083 399.936 4.92684 399.238 5.5314 398.68C6.13596 398.122 6.88003 397.703 7.71711 397.424C8.6007 397.145 9.43778 397.052 10.2749 397.145C11.8095 397.285 13.0651 398.029 14.0417 399.331C14.5533 398.215 15.3439 397.378 16.367 396.82C17.3901 396.262 18.5527 396.029 19.8548 396.169C21.529 396.355 22.9241 397.099 23.9472 398.401C24.5983 399.192 25.0168 400.029 25.2028 400.959C25.3888 401.982 25.3888 403.191 25.2493 404.679L24.7843 409.608ZM12.7861 405.098L12.8791 404.074C13.0186 402.865 12.8326 401.935 12.3211 401.331C11.856 400.726 11.0654 400.354 10.0423 400.261C9.01924 400.168 8.22866 400.354 7.6241 400.912C7.01954 401.424 6.69401 402.261 6.601 403.377L6.50799 404.54L12.7861 405.098ZM22.0405 406.028L22.2265 404.028C22.366 402.54 22.18 401.424 21.6685 400.68C21.1104 399.889 20.3663 399.424 19.3897 399.331C18.4597 399.238 17.6226 399.517 16.925 400.168C16.2274 400.773 15.8089 401.982 15.6229 403.749L15.4369 405.423L22.0405 406.028Z" fill="#5EC1A5"/>
<path d="M9.76385 378.404L8.55473 387.054L13.7167 387.751L14.8794 379.381L17.9487 379.799L16.786 388.17L23.9942 389.193L25.2034 380.543L28.2727 380.962L26.5985 392.82L5.06689 389.844L6.74106 377.986L9.76385 378.404Z" fill="#5EC1A5"/>
<path d="M16.7392 356.919C16.9717 355.757 17.6227 354.827 18.6923 354.175C19.7619 353.478 20.8781 353.292 22.0872 353.524C23.3428 353.803 24.3194 354.408 24.9705 355.478C25.668 356.501 25.9005 357.617 25.6215 358.872C25.389 360.082 24.7379 361.012 23.6683 361.709C22.5987 362.36 21.4826 362.593 20.227 362.36C18.9714 362.081 17.9948 361.43 17.3437 360.407C16.6927 359.291 16.4601 358.175 16.7392 356.919Z" fill="#5EC1A5"/>
<path d="M20.1339 329.714L38.1777 334.551L37.3406 337.713L19.3434 332.877L18.0412 337.713L15.0649 336.922L18.5063 324.134L21.4826 324.924L20.1339 329.714Z" fill="#5EC1A5"/>
<path d="M33.5274 317.344L44.363 313.624L43.2003 317.437L32.8763 320.739L32.6903 321.297L41.2006 323.901L40.224 327.017L19.4365 320.6L20.5526 316.926C21.3897 314.182 22.5058 312.368 23.9475 311.438C25.5286 310.462 27.2493 310.229 29.1095 310.834C30.5976 311.299 31.7137 312.089 32.5043 313.252C33.2949 314.414 33.6669 315.856 33.5274 317.344ZM29.9465 320.507L30.2721 319.53C31.2022 316.554 30.5046 314.74 28.2259 314.042C26.0867 313.391 24.5985 314.507 23.7149 317.391L23.3894 318.507L29.9465 320.507Z" fill="#5EC1A5"/>
<path d="M25.947 300.556L46.502 307.578L45.4324 310.694L24.8774 303.672L25.947 300.556Z" fill="#5EC1A5"/>
<path d="M48.1292 302.788L27.7603 295.162L28.9229 292.092C29.4344 290.744 29.946 289.674 30.4575 288.977C30.9691 288.233 31.5736 287.675 32.3177 287.303C33.0618 286.931 33.8523 286.698 34.7824 286.652C35.7125 286.605 36.5496 286.745 37.3402 287.024C38.7818 287.582 39.8049 288.605 40.4095 290.093C41.2001 289.163 42.1302 288.558 43.2928 288.279C44.4554 288 45.618 288.093 46.8271 288.512C48.4083 289.116 49.5709 290.186 50.2219 291.72C50.6405 292.651 50.8265 293.581 50.78 294.511C50.687 295.534 50.3615 296.743 49.8499 298.138L48.1292 302.788ZM37.7122 295.394L38.0843 294.418C38.5028 293.255 38.5958 292.325 38.2703 291.627C37.9447 290.883 37.3402 290.372 36.3171 290C35.3405 289.628 34.5499 289.628 33.8058 290C33.1083 290.372 32.5502 291.069 32.1782 292.092L31.7596 293.162L37.7122 295.394ZM46.4086 298.65L47.1061 296.743C47.6177 295.348 47.7572 294.232 47.4317 293.395C47.1061 292.511 46.5016 291.86 45.5715 291.534C44.6879 291.209 43.8508 291.255 42.9672 291.674C42.1302 292.092 41.4326 293.116 40.7815 294.79L40.177 296.324L46.4086 298.65Z" fill="#5EC1A5"/>
<path d="M41.6187 268.794L38.2239 276.839L43.0138 278.885L46.3157 271.073L49.1524 272.282L45.8506 280.094L52.5473 282.931L55.9421 274.886L58.7789 276.095L54.1284 287.163L34.085 278.746L38.7354 267.678L41.6187 268.794Z" fill="#5EC1A5"/>
<path d="M48.5479 250.89L45.0601 249.402L46.3157 246.844L49.6175 248.751L49.943 244.937L52.7333 245.356L51.9427 249.076L55.6631 248.239L56.1281 251.029L52.3148 251.448L54.268 254.703L51.7567 256.005L50.1756 252.517L47.6643 255.401L45.6181 253.448L48.5479 250.89Z" fill="#5EC1A5"/>
<path d="M63.0577 226.429L79.2878 235.636L77.6601 238.473L61.4301 229.265L58.9653 233.59L56.2681 232.056L62.8252 220.523L65.5225 222.057L63.0577 226.429Z" fill="#5EC1A5"/>
<path d="M79.1485 217.825L90.5886 216.988L88.4959 220.383L77.6603 220.988L77.3348 221.499L84.915 226.196L83.1944 228.986L64.6855 217.546L66.6852 214.291C68.1734 211.826 69.7545 210.385 71.3357 209.873C73.1029 209.315 74.8235 209.548 76.4977 210.571C77.7998 211.361 78.6834 212.431 79.195 213.78C79.66 215.082 79.66 216.43 79.1485 217.825ZM74.87 219.965L75.4281 219.081C77.0558 216.43 76.8697 214.477 74.87 213.221C72.9634 212.059 71.2427 212.756 69.6615 215.314L69.057 216.291L74.87 219.965Z" fill="#5EC1A5"/>
<path d="M75.9856 199.689L94.1223 211.687L92.3086 214.431L74.1719 202.433L75.9856 199.689Z" fill="#5EC1A5"/>
<path d="M96.9127 207.455L79.1479 194.945L81.0081 192.295C81.8452 191.086 82.5893 190.202 83.2868 189.644C83.9844 189.039 84.7285 188.667 85.4726 188.481C86.2631 188.295 87.1002 188.295 87.9838 188.481C88.8674 188.667 89.658 188.993 90.3555 189.504C91.6112 190.388 92.3552 191.644 92.5412 193.225C93.5178 192.527 94.634 192.155 95.7966 192.202C97.0057 192.202 98.1218 192.574 99.1449 193.318C100.54 194.294 101.377 195.596 101.61 197.271C101.796 198.294 101.749 199.224 101.424 200.107C101.098 201.084 100.494 202.153 99.6099 203.363L96.9127 207.455ZM88.6814 197.596L89.2859 196.759C89.9835 195.782 90.2625 194.899 90.1695 194.108C90.0765 193.318 89.565 192.62 88.7279 192.016C87.8908 191.411 87.1002 191.225 86.3096 191.365C85.5191 191.551 84.8215 192.062 84.2169 192.992L83.5659 193.922L88.6814 197.596ZM96.3081 202.991L97.4707 201.316C98.3078 200.107 98.7264 199.038 98.6333 198.154C98.5403 197.178 98.1218 196.433 97.3312 195.875C96.5406 195.317 95.7036 195.178 94.7735 195.364C93.8434 195.55 92.9133 196.387 91.8902 197.829L90.9136 199.177L96.3081 202.991Z" fill="#5EC1A5"/>
<path d="M99.1916 172.856L93.8901 179.785L98.029 182.947L103.144 176.204L105.609 178.064L100.494 184.807L106.26 189.225L111.562 182.296L114.027 184.156L106.725 193.69L89.4722 180.483L96.7734 170.949L99.1916 172.856Z" fill="#5EC1A5"/>
<path d="M110.353 157.277L107.33 154.952L109.19 152.813L111.934 155.463L113.236 151.883L115.84 152.999L114.166 156.393L117.979 156.486L117.747 159.277L113.98 158.765L115.05 162.439L112.306 163.09L111.655 159.323L108.493 161.462L107.004 159.044L110.353 157.277Z" fill="#5EC1A5"/>
</svg>
